<?xml version="1.0" encoding="UTF-8" standalone="no"?>
<!-- Created with Inkscape (http://www.inkscape.org/) -->

<svg
   xmlns:dc="http://purl.org/dc/elements/1.1/"
   xmlns:cc="http://creativecommons.org/ns#"
   xmlns:rdf="http://www.w3.org/1999/02/22-rdf-syntax-ns#"
   xmlns:svg="http://www.w3.org/2000/svg"
   xmlns="http://www.w3.org/2000/svg"
   xmlns:sodipodi="http://sodipodi.sourceforge.net/DTD/sodipodi-0.dtd"
   xmlns:inkscape="http://www.inkscape.org/namespaces/inkscape"
   version="1.1"
   id="svg2"
   xml:space="preserve"
   width="816"
   height="1056"
   viewBox="0 0 816 1056"
   sodipodi:docname="accelerometer.svg"
   inkscape:version="0.92.2 (5c3e80d, 2017-08-06)"><metadata
     id="metadata8"><rdf:RDF><cc:Work
         rdf:about=""><dc:format>image/svg+xml</dc:format><dc:type
           rdf:resource="http://purl.org/dc/dcmitype/StillImage" /><dc:title></dc:title></cc:Work></rdf:RDF></metadata><defs
     id="defs6" /><sodipodi:namedview
     pagecolor="#ffffff"
     bordercolor="#666666"
     borderopacity="1"
     objecttolerance="10"
     gridtolerance="10"
     guidetolerance="10"
     inkscape:pageopacity="0"
     inkscape:pageshadow="2"
     inkscape:window-width="1680"
     inkscape:window-height="988"
     id="namedview4"
     showgrid="false"
     inkscape:zoom="1.7878788"
     inkscape:cx="238.53359"
     inkscape:cy="633.69289"
     inkscape:window-x="1358"
     inkscape:window-y="-8"
     inkscape:window-maximized="1"
     inkscape:current-layer="g10" /><g
     id="g10"
     inkscape:groupmode="layer"
     inkscape:label="A9R8FF4"
     transform="matrix(1.3333333,0,0,-1.3333333,0,1056)"><path
       d="m 54.734,546.39 h 93.515 v 44.351 H 54.734 Z"
       style="fill:#908840;fill-opacity:1;fill-rule:nonzero;stroke:none"
       id="path12"
       inkscape:connector-curvature="0" /><g
       id="g14"
       transform="translate(148.25,591.126)"><path
         d="M 0,0 H -93.95 V -45.171 H 0.385 L 0.385,0 Z M 0,-0.385 H -0.384 Z M -93.18,-0.77 H -0.385 V -44.4 H -93.18 Z"
         style="fill:#100f0d;fill-opacity:1;fill-rule:nonzero;stroke:none"
         id="path16"
         inkscape:connector-curvature="0" /></g><path
       d="m 56.994,548.551 h 88.85 v 39.882 h -88.85 z"
       style="fill:#ffffff;fill-opacity:1;fill-rule:nonzero;stroke:none"
       id="path18"
       inkscape:connector-curvature="0" /><g
       id="g20"
       transform="translate(56.993,588.048)"><path
         d="M 0,0 0.272,0.113 0.385,0.385 0.272,0.657 0,0.77 -0.272,0.657 -0.385,0.385 -0.272,0.113 Z M 88.85,0.385 V 0.77 H -0.385 V -39.882 H 89.236 V 0.77 H 88.85 V 0.385 H 88.464 V -39.112 H 0.385 V 0 H 88.85 v 0.385 h -0.386"
         style="fill:#100f0d;fill-opacity:1;fill-rule:nonzero;stroke:none"
         id="path22"
         inkscape:connector-curvature="0" /></g><path
       d="m 88.968,558.964 h 25 v 19.155 h -25 z"
       style="fill:#777ba0;fill-opacity:1;fill-rule:nonzero;stroke:none"
       id="path24"
       inkscape:connector-curvature="0" /><g
       id="g26"
       transform="translate(88.919,558.963)"><path
         d="M 0,0 V -0.385 H 25.434 V 19.54 H -0.385 V -0.385 H 0 V 0 H 0.385 V 18.77 H 24.664 V 0.385 L 0,0.385 V 0 h 0.385"
         style="fill:#100f0d;fill-opacity:1;fill-rule:nonzero;stroke:none"
         id="path28"
         inkscape:connector-curvature="0" /></g><g
       id="g30"
       transform="translate(57.756,568)"><path
         d="M 0,0 -0.164,0.326 V -0.038 C -0.052,-0.033 -0.023,-0.008 0,0 l -0.164,0.326 v -0.364 0.381 l -0.299,-0.235 0.299,-0.146 v 0.381 l -0.299,-0.235 0.298,0.234 h -0.379 l 0.081,-0.234 0.298,0.234 h -0.379 0.318 L -0.52,0.47 C -0.518,0.46 -0.535,0.474 -0.544,0.342 h 0.318 L -0.52,0.47 -0.546,0.415 C -0.559,0.374 -0.588,0.349 -0.596,0.205 l 0.1,-0.267 0.301,-0.135 c 0.147,0.007 0.186,0.044 0.241,0.068 0.14,0.079 0.298,0.203 0.62,0.474 L 0.665,0.344 C 0.944,0.582 1.269,0.968 1.662,1.437 2.246,2.137 2.957,3.008 3.666,3.691 4.369,4.383 5.094,4.84 5.525,4.822 5.841,4.825 6.304,4.666 6.798,4.375 7.542,3.941 8.358,3.23 9.009,2.497 9.662,1.771 10.149,0.997 10.26,0.543 10.282,0.458 10.294,0.357 10.294,0.243 10.303,-0.41 9.862,-1.442 9.312,-2.253 9.04,-2.661 8.743,-3.02 8.484,-3.263 8.355,-3.385 8.235,-3.477 8.143,-3.531 L 8.033,-3.584 8,-3.593 H 7.98 L 7.946,-3.584 C 7.848,-3.556 7.615,-3.39 7.38,-3.125 7.022,-2.729 6.627,-2.13 6.333,-1.505 6.037,-0.882 5.844,-0.226 5.847,0.252 c 0,0.146 0.017,0.273 0.047,0.378 l 10e-4,0.003 c 0.171,0.643 0.979,1.759 1.942,2.641 0.48,0.445 0.998,0.842 1.486,1.12 0.487,0.279 0.944,0.431 1.267,0.428 h 0.032 c 0.317,-0.006 0.784,-0.177 1.279,-0.48 0.746,-0.452 1.563,-1.179 2.214,-1.923 0.654,-0.738 1.142,-1.519 1.253,-1.975 0.022,-0.087 0.035,-0.19 0.035,-0.306 0.008,-0.654 -0.429,-1.669 -0.979,-2.465 -0.272,-0.4 -0.57,-0.752 -0.831,-0.989 -0.13,-0.119 -0.251,-0.209 -0.346,-0.263 l -0.159,-0.063 -0.149,0.061 c -0.332,0.183 -0.903,0.816 -1.335,1.55 -0.441,0.732 -0.762,1.585 -0.756,2.169 0,0.148 0.019,0.277 0.053,0.382 l 0.003,0.012 c 0.164,0.607 1.02,1.718 2.037,2.594 0.507,0.443 1.055,0.839 1.569,1.117 0.513,0.28 0.995,0.435 1.334,0.432 l 0.03,-10e-4 h 0.014 c 0.316,0.004 0.779,-0.155 1.274,-0.447 0.744,-0.434 1.56,-1.145 2.211,-1.877 0.652,-0.727 1.139,-1.5 1.25,-1.955 l 0.032,-0.282 c 0.01,-0.636 -0.45,-1.647 -1.028,-2.439 -0.286,-0.398 -0.598,-0.749 -0.871,-0.987 -0.267,-0.244 -0.524,-0.345 -0.538,-0.329 h -0.006 l -0.016,-0.385 0.022,0.385 -0.155,0.069 c -0.328,0.195 -0.876,0.831 -1.289,1.565 -0.422,0.733 -0.728,1.582 -0.723,2.173 0,0.157 0.02,0.293 0.056,0.405 L 16.106,0.566 c 0.186,0.594 1.069,1.669 2.097,2.515 0.514,0.428 1.065,0.81 1.577,1.079 0.512,0.27 0.988,0.419 1.314,0.416 V 4.961 L 21.083,4.576 C 21.412,4.569 21.871,4.412 22.358,4.136 23.089,3.724 23.883,3.06 24.515,2.369 25.15,1.683 25.62,0.948 25.731,0.494 25.753,0.409 25.765,0.308 25.765,0.193 25.774,-0.47 25.324,-1.528 24.76,-2.368 24.481,-2.79 24.176,-3.165 23.908,-3.423 23.774,-3.552 23.649,-3.652 23.55,-3.713 l -0.169,-0.077 0.022,-0.384 v 0.385 l -0.04,0.009 c -0.108,0.032 -0.358,0.205 -0.611,0.476 -0.388,0.404 -0.818,1.013 -1.141,1.644 -0.325,0.629 -0.537,1.29 -0.533,1.756 0,0.13 0.015,0.243 0.042,0.337 0.163,0.609 1.044,1.722 2.079,2.596 0.516,0.443 1.072,0.838 1.588,1.117 0.515,0.28 0.995,0.433 1.317,0.43 V 4.961 L 26.093,4.576 C 26.384,4.573 26.817,4.378 27.28,4.029 27.976,3.511 28.736,2.691 29.391,1.931 30.052,1.167 30.589,0.483 30.957,0.154 l 0.51,0.577 c -0.168,0.146 -0.489,0.518 -0.869,0.97 -0.576,0.681 -1.31,1.559 -2.078,2.283 -0.776,0.717 -1.557,1.32 -2.405,1.362 H 26.104 C 25.567,5.343 25.003,5.134 24.422,4.824 23.553,4.354 22.652,3.635 21.91,2.878 21.17,2.114 20.589,1.34 20.38,0.648 20.329,0.47 20.307,0.285 20.307,0.096 c 0.009,-0.956 0.519,-2.048 1.118,-2.957 0.303,-0.453 0.63,-0.854 0.951,-1.155 0.161,-0.151 0.32,-0.278 0.484,-0.374 0.165,-0.094 0.335,-0.167 0.543,-0.17 l 0.021,10e-4 c 0.204,0.014 0.37,0.092 0.534,0.192 0.556,0.355 1.155,1.081 1.668,1.928 0.503,0.85 0.903,1.794 0.909,2.632 0,0.168 -0.017,0.333 -0.058,0.493 -0.247,0.909 -1.1,1.99 -2.122,2.927 -0.512,0.464 -1.067,0.882 -1.619,1.194 -0.553,0.31 -1.1,0.521 -1.631,0.539 H 21.094 C 20.56,5.343 20,5.142 19.423,4.842 18.56,4.388 17.666,3.693 16.926,2.961 16.187,2.224 15.604,1.475 15.375,0.81 L 15.374,0.806 C 15.308,0.601 15.281,0.385 15.281,0.165 c 0.007,-0.943 0.472,-2.009 1.028,-2.894 0.28,-0.44 0.586,-0.831 0.888,-1.128 0.31,-0.29 0.588,-0.518 0.978,-0.555 h 0.005 l 0.038,-0.001 c 0.401,0.016 0.703,0.235 1.044,0.52 0.498,0.436 1.022,1.091 1.437,1.808 0.412,0.718 0.722,1.486 0.727,2.198 0,0.161 -0.017,0.32 -0.057,0.475 -0.247,0.909 -1.12,2.046 -2.166,3.039 -0.524,0.492 -1.091,0.936 -1.653,1.265 -0.563,0.327 -1.119,0.549 -1.662,0.552 V 5.059 l 0.014,0.385 -0.058,0.001 C 15.295,5.442 14.724,5.233 14.143,4.92 13.275,4.448 12.388,3.726 11.661,2.968 10.935,2.204 10.369,1.429 10.164,0.746 l 0.37,-0.107 -0.366,0.118 C 10.104,0.559 10.077,0.35 10.077,0.138 c 0.008,-0.949 0.499,-2.018 1.079,-2.903 0.293,-0.44 0.611,-0.828 0.924,-1.121 0.32,-0.285 0.607,-0.509 1.008,-0.526 0.403,0.016 0.696,0.24 1.024,0.526 0.48,0.44 0.979,1.099 1.374,1.819 0.391,0.722 0.683,1.494 0.687,2.205 0,0.17 -0.018,0.337 -0.06,0.499 C 15.867,1.544 14.995,2.693 13.95,3.704 13.427,4.205 12.861,4.66 12.3,5 11.738,5.339 11.185,5.573 10.644,5.592 h 0.003 L 10.59,5.593 C 10.05,5.59 9.498,5.377 8.942,5.063 8.11,4.587 7.269,3.86 6.579,3.094 5.89,2.323 5.354,1.533 5.154,0.841 L 5.155,0.845 C 5.1,0.654 5.077,0.456 5.077,0.252 5.084,-0.691 5.542,-1.776 6.094,-2.676 6.373,-3.124 6.676,-3.52 6.98,-3.82 c 0.31,-0.292 0.592,-0.525 1,-0.543 v 0.385 L 7.963,-4.363 8,-4.364 c 0.206,0.003 0.373,0.076 0.535,0.17 0.55,0.334 1.133,1.034 1.636,1.857 0.493,0.826 0.887,1.752 0.893,2.58 0,0.167 -0.017,0.332 -0.059,0.492 C 10.759,1.644 9.885,2.781 8.84,3.774 8.316,4.266 7.749,4.71 7.187,5.04 6.624,5.366 6.068,5.588 5.525,5.592 4.95,5.586 4.42,5.298 3.901,4.911 3.124,4.324 2.361,3.465 1.695,2.678 1.038,1.896 0.456,1.17 0.168,0.934 L 0.167,0.932 C -0.036,0.76 -0.172,0.652 -0.253,0.594 L -0.323,0.547 -0.195,0.312 V 0.573 C -0.32,0.565 -0.321,0.543 -0.323,0.547 L -0.195,0.312 V 0.573 0.203 L 0.082,0.447 -0.195,0.573 V 0.203 L 0.082,0.447 -0.193,0.205 H 0.174 L 0.082,0.447 -0.193,0.205 H 0.174 -0.115 L 0.157,0.101 0.174,0.205 H -0.115 L 0.157,0.101 0.119,0.116 0.157,0.099 V 0.101 L 0.119,0.116 0.157,0.099 0.177,0.142 0.198,0.192 0.226,0.342 0.142,0.584 C 0.063,0.692 -0.087,0.738 -0.164,0.732 -0.28,0.728 -0.315,0.701 -0.346,0.688 Z M 56.286,0 56.123,0.325 V -0.038 L 56.286,0 56.123,0.325 v -0.363 0.38 L 55.81,0.126 c 0.067,-0.108 0.229,-0.173 0.313,-0.164 v 0.38 L 55.81,0.126 56.119,0.339 h -0.375 l 0.066,-0.213 0.309,0.213 h -0.375 0.304 L 55.757,0.435 55.744,0.339 h 0.304 L 55.757,0.435 55.74,0.386 55.707,0.211 c 0.002,-0.053 0.005,-0.146 0.087,-0.255 0.083,-0.112 0.237,-0.159 0.318,-0.153 0.141,0.006 0.188,0.043 0.243,0.068 0.145,0.083 0.298,0.209 0.605,0.481 l -0.257,0.287 0.248,-0.295 c 0.28,0.238 0.605,0.624 0.998,1.093 0.584,0.7 1.295,1.571 2.004,2.254 0.702,0.692 1.427,1.149 1.858,1.131 0.316,0.003 0.779,-0.156 1.274,-0.447 0.744,-0.434 1.56,-1.145 2.211,-1.878 0.652,-0.726 1.139,-1.5 1.25,-1.954 0.022,-0.085 0.034,-0.186 0.034,-0.3 0.009,-0.653 -0.432,-1.685 -0.982,-2.496 -0.272,-0.408 -0.569,-0.767 -0.828,-1.01 -0.129,-0.122 -0.249,-0.214 -0.341,-0.268 l -0.11,-0.053 -0.033,-0.009 h -0.019 v -10e-4 0.002 -0.002 0.002 c -0.038,-0.004 -0.275,0.134 -0.51,0.392 -0.363,0.382 -0.782,0.996 -1.097,1.641 -0.318,0.645 -0.528,1.33 -0.525,1.821 0,0.142 0.016,0.266 0.046,0.367 l 0.001,0.004 c 0.171,0.643 0.979,1.759 1.941,2.641 0.48,0.445 0.999,0.842 1.486,1.12 0.487,0.279 0.945,0.431 1.267,0.428 h 0.032 C 67.226,4.816 67.692,4.645 68.187,4.342 68.933,3.89 69.75,3.163 70.402,2.419 71.055,1.681 71.543,0.9 71.654,0.444 L 71.657,0.433 C 71.685,0.339 71.7,0.227 71.7,0.099 71.708,-0.554 71.268,-1.558 70.715,-2.345 70.441,-2.74 70.142,-3.086 69.881,-3.321 69.75,-3.438 69.629,-3.527 69.534,-3.579 l -0.159,-0.063 -0.148,0.062 c -0.332,0.185 -0.902,0.827 -1.33,1.57 -0.438,0.74 -0.757,1.601 -0.751,2.186 0,0.137 0.016,0.256 0.044,0.355 0.163,0.605 1.031,1.718 2.055,2.594 0.511,0.443 1.061,0.84 1.573,1.118 0.511,0.281 0.989,0.435 1.313,0.432 L 72.16,4.674 h 0.014 c 0.316,0.004 0.78,-0.155 1.274,-0.447 0.744,-0.434 1.56,-1.145 2.211,-1.877 0.653,-0.727 1.14,-1.5 1.25,-1.955 l 0.033,-0.282 c 0.01,-0.636 -0.451,-1.647 -1.028,-2.439 -0.286,-0.398 -0.598,-0.749 -0.872,-0.987 -0.267,-0.244 -0.524,-0.345 -0.538,-0.329 h -0.005 l -0.016,-0.385 0.022,0.384 -0.032,0.011 c -0.1,0.035 -0.334,0.211 -0.57,0.48 -0.36,0.402 -0.759,1.001 -1.058,1.623 -0.301,0.62 -0.497,1.271 -0.494,1.744 0,0.14 0.016,0.264 0.046,0.365 l -0.37,0.108 0.365,-0.122 c 0.186,0.594 1.069,1.669 2.098,2.515 0.513,0.428 1.064,0.81 1.577,1.079 0.511,0.27 0.988,0.419 1.314,0.416 V 4.961 L 77.37,4.576 c 0.328,-0.007 0.788,-0.164 1.274,-0.44 0.732,-0.412 1.526,-1.076 2.158,-1.767 0.634,-0.686 1.104,-1.421 1.215,-1.875 0.023,-0.088 0.035,-0.192 0.035,-0.31 0.009,-0.666 -0.431,-1.722 -0.983,-2.559 -0.273,-0.421 -0.572,-0.794 -0.836,-1.051 -0.131,-0.129 -0.254,-0.228 -0.351,-0.288 l -0.165,-0.076 0.021,-0.384 v 0.385 l -0.04,0.01 c -0.111,0.032 -0.365,0.207 -0.623,0.479 -0.395,0.406 -0.835,1.017 -1.165,1.649 -0.332,0.631 -0.549,1.293 -0.545,1.756 0,0.127 0.015,0.237 0.041,0.328 0.164,0.609 1.044,1.722 2.079,2.596 0.517,0.443 1.072,0.838 1.589,1.117 0.514,0.28 0.994,0.433 1.316,0.43 V 4.961 L 82.38,4.576 C 82.687,4.572 83.123,4.377 83.587,4.029 84.286,3.511 85.04,2.692 85.689,1.933 86.345,1.168 86.874,0.485 87.243,0.154 l 0.51,0.577 c -0.166,0.145 -0.485,0.517 -0.861,0.968 -0.57,0.682 -1.297,1.56 -2.064,2.285 -0.774,0.718 -1.564,1.322 -2.427,1.362 H 82.39 C 81.853,5.343 81.289,5.134 80.708,4.824 79.839,4.354 78.938,3.635 78.196,2.878 77.456,2.114 76.875,1.34 76.667,0.648 76.616,0.473 76.595,0.291 76.595,0.105 c 0.009,-0.959 0.531,-2.052 1.143,-2.964 0.308,-0.454 0.642,-0.855 0.967,-1.157 0.163,-0.151 0.324,-0.278 0.49,-0.374 0.165,-0.094 0.336,-0.167 0.543,-0.17 l 0.021,10e-4 c 0.401,0.039 0.685,0.276 1.012,0.581 0.477,0.467 0.974,1.158 1.367,1.904 0.39,0.749 0.681,1.541 0.685,2.258 0,0.172 -0.018,0.34 -0.06,0.502 -0.246,0.909 -1.099,1.99 -2.122,2.927 -0.512,0.464 -1.067,0.882 -1.618,1.194 -0.553,0.31 -1.101,0.521 -1.631,0.539 H 77.381 C 76.847,5.343 76.286,5.142 75.709,4.842 74.846,4.388 73.952,3.693 73.212,2.961 72.474,2.224 71.89,1.475 71.662,0.81 L 71.657,0.796 C 71.603,0.609 71.58,0.413 71.58,0.215 c 0.008,-0.944 0.478,-2.02 1.035,-2.916 0.28,-0.446 0.584,-0.842 0.882,-1.143 0.15,-0.151 0.298,-0.278 0.451,-0.378 0.154,-0.097 0.313,-0.175 0.512,-0.19 h 0.007 l 0.037,-0.001 c 0.401,0.016 0.704,0.235 1.044,0.52 0.499,0.436 1.022,1.091 1.438,1.808 0.411,0.718 0.721,1.486 0.726,2.198 0,0.161 -0.017,0.32 -0.057,0.475 -0.246,0.909 -1.12,2.046 -2.166,3.039 -0.523,0.492 -1.09,0.936 -1.652,1.265 -0.563,0.327 -1.119,0.549 -1.663,0.552 V 5.059 l 0.015,0.385 -0.058,0.001 C 71.592,5.442 71.028,5.232 70.45,4.92 69.586,4.448 68.694,3.727 67.961,2.969 67.23,2.205 66.657,1.432 66.451,0.746 66.397,0.563 66.375,0.371 66.375,0.176 c 0.008,-0.947 0.493,-2.024 1.069,-2.918 0.291,-0.445 0.607,-0.839 0.919,-1.135 0.32,-0.289 0.606,-0.518 1.012,-0.535 0.399,0.016 0.691,0.236 1.02,0.518 0.481,0.433 0.983,1.084 1.381,1.797 0.395,0.715 0.69,1.483 0.694,2.196 0,0.187 -0.022,0.372 -0.073,0.549 L 72.027,0.541 72.4,0.637 C 72.154,1.544 71.281,2.693 70.237,3.704 69.713,4.205 69.148,4.66 68.587,5 68.025,5.339 67.472,5.573 66.93,5.592 h 0.004 L 66.876,5.593 C 66.336,5.59 65.784,5.377 65.228,5.063 64.396,4.587 63.555,3.86 62.865,3.094 62.177,2.323 61.64,1.533 61.44,0.841 l 0.001,0.004 C 61.387,0.657 61.364,0.462 61.364,0.262 c 0.008,-0.946 0.477,-2.032 1.034,-2.933 0.281,-0.449 0.585,-0.846 0.885,-1.146 0.15,-0.15 0.3,-0.276 0.456,-0.373 0.156,-0.095 0.321,-0.17 0.528,-0.173 v 0.385 l -0.018,-0.385 0.037,-10e-4 c 0.207,0.003 0.374,0.076 0.535,0.17 0.55,0.334 1.133,1.034 1.637,1.857 0.492,0.826 0.886,1.751 0.892,2.58 0,0.167 -0.017,0.332 -0.058,0.492 -0.247,0.909 -1.12,2.046 -2.166,3.039 C 64.602,4.266 64.035,4.71 63.473,5.04 62.91,5.366 62.354,5.588 61.811,5.592 61.237,5.586 60.706,5.298 60.187,4.911 59.41,4.324 58.647,3.465 57.982,2.678 57.324,1.896 56.742,1.17 56.455,0.934 L 56.446,0.926 C 56.254,0.754 56.124,0.647 56.048,0.59 L 55.984,0.546 56.112,0.313 v 0.26 C 55.995,0.567 55.986,0.543 55.984,0.546 L 56.112,0.313 V 0.573 0.206 L 56.4,0.432 56.112,0.573 V 0.206 L 56.4,0.432 56.118,0.211 h 0.36 L 56.4,0.432 56.118,0.211 h 0.36 -0.268 l 0.258,-0.074 0.01,0.074 H 56.21 l 0.258,-0.074 0.002,0.003 0.016,0.045 c 0.006,0.028 0.023,0.044 0.028,0.154 l -0.07,0.225 C 56.377,0.675 56.211,0.741 56.123,0.732 56.014,0.729 55.972,0.702 55.941,0.688 L 56.286,0"
         style="fill:#100f0d;fill-opacity:1;fill-rule:nonzero;stroke:none"
         id="path32"
         inkscape:connector-curvature="0" /></g><path
       d="m 88.968,548.649 h 25 v 3.242 h -25 z"
       style="fill:#668b6f;fill-opacity:1;fill-rule:nonzero;stroke:none"
       id="path34"
       inkscape:connector-curvature="0" /><g
       id="g36"
       transform="translate(88.919,548.649)"><path
         d="M 0,0 V -0.385 H 25.434 V 3.578 H -0.385 V -0.385 H 0 V 0 H 0.385 V 2.807 H 24.664 V 0.385 L 0,0.385 V 0 h 0.385"
         style="fill:#100f0d;fill-opacity:1;fill-rule:nonzero;stroke:none"
         id="path38"
         inkscape:connector-curvature="0" /></g><g
       id="g40"
       transform="translate(103.752,555.28)"><path
         d="m 0,0 -2.309,-3.094 -2.308,3.045 m 2.652,3.585 0.049,-4.322 h -0.785 v 4.322"
         style="fill:#100f0d;fill-opacity:1;fill-rule:nonzero;stroke:none"
         id="path42"
         inkscape:connector-curvature="0" /></g><path
       d="m 198.299,546.39 h 93.565 v 44.351 h -93.565 z"
       style="fill:#908840;fill-opacity:1;fill-rule:nonzero;stroke:none"
       id="path44"
       inkscape:connector-curvature="0" /><g
       id="g46"
       transform="translate(198.25,590.356)"><path
         d="M 0,0 0.272,0.113 0.385,0.385 0.272,0.658 0,0.77 -0.273,0.658 -0.385,0.385 -0.273,0.113 Z M 93.565,0.385 V 0.77 H -0.385 V -44.4 H 93.95 V 0.77 H 93.565 V 0.385 H 93.18 V -43.63 H 0.385 V 0 h 93.18 V 0.385 H 93.18"
         style="fill:#100f0d;fill-opacity:1;fill-rule:nonzero;stroke:none"
         id="path48"
         inkscape:connector-curvature="0" /></g><path
       d="m 200.558,548.551 h 88.899 v 39.882 h -88.899 z"
       style="fill:#ffffff;fill-opacity:1;fill-rule:nonzero;stroke:none"
       id="path50"
       inkscape:connector-curvature="0" /><g
       id="g52"
       transform="translate(200.509,588.048)"><path
         d="M 0,0 0.272,0.113 0.385,0.385 0.272,0.657 0,0.77 -0.272,0.657 -0.385,0.385 -0.272,0.113 Z M 88.948,0.385 V 0.77 H -0.385 V -39.882 H 89.334 V 0.77 H 88.948 V 0.385 H 88.563 V -39.112 H 0.385 V 0 h 88.563 v 0.385 h -0.385"
         style="fill:#100f0d;fill-opacity:1;fill-rule:nonzero;stroke:none"
         id="path54"
         inkscape:connector-curvature="0" /></g><g
       id="g56"
       transform="translate(201.223,568.001)"><path
         d="M 0,0 -0.164,0.324 V -0.038 L 0,0 -0.164,0.324 v -0.362 0.377 l -0.331,-0.18 c 0.039,-0.101 0.218,-0.211 0.331,-0.197 v 0.377 l -0.331,-0.18 0.317,0.172 H -0.54 l 0.045,-0.172 0.317,0.172 H -0.54 -0.291 L -0.535,0.384 -0.54,0.331 h 0.249 L -0.535,0.384 -0.546,0.343 -0.565,0.203 -0.516,0.006 c 0.043,-0.105 0.224,-0.217 0.345,-0.204 0.123,0.004 0.173,0.041 0.211,0.06 0.111,0.074 0.134,0.114 0.21,0.196 0.067,0.08 0.155,0.189 0.275,0.346 L 0.219,0.639 0.509,0.385 C 0.723,0.632 0.954,1.016 1.235,1.487 1.651,2.188 2.152,3.061 2.646,3.742 2.891,4.083 3.136,4.374 3.351,4.564 3.566,4.76 3.744,4.828 3.805,4.821 3.95,4.829 4.264,4.696 4.603,4.41 5.116,3.988 5.691,3.28 6.145,2.549 6.6,1.822 6.936,1.056 7.01,0.577 L 7.012,0.565 C 7.032,0.463 7.042,0.343 7.042,0.209 7.046,-0.491 6.739,-1.514 6.356,-2.321 6.166,-2.725 5.958,-3.08 5.777,-3.315 5.688,-3.433 5.604,-3.52 5.548,-3.564 L 5.496,-3.6 5.539,-3.692 v 0.098 L 5.496,-3.6 5.539,-3.692 v 0.098 -0.134 l 0.008,0.134 H 5.539 v -0.134 l 0.008,0.134 -0.023,10e-4 v -0.145 l 0.068,0.132 -0.068,0.013 v -0.145 l 0.068,0.132 C 5.58,-3.611 5.4,-3.44 5.242,-3.174 4.734,-2.375 4.141,-0.737 4.15,0.278 c 0,0.145 0.011,0.276 0.033,0.385 L 3.805,0.737 4.181,0.654 c 0.144,0.682 0.72,1.787 1.393,2.67 0.335,0.443 0.696,0.837 1.024,1.106 0.327,0.274 0.627,0.4 0.763,0.392 H 7.369 L 7.375,4.821 C 7.524,4.824 7.843,4.676 8.183,4.378 8.699,3.938 9.275,3.214 9.729,2.471 10.185,1.732 10.522,0.958 10.595,0.479 L 10.597,0.467 C 10.617,0.365 10.628,0.245 10.628,0.113 10.632,-0.585 10.32,-1.595 9.933,-2.39 9.741,-2.788 9.531,-3.137 9.349,-3.368 9.259,-3.484 9.176,-3.569 9.12,-3.613 L 9.067,-3.648 9.109,-3.741 v 0.099 L 9.067,-3.648 9.109,-3.741 v 0.099 -0.138 l 0.063,0.127 -0.063,0.011 V -3.78 l 0.063,0.127 C 9.156,-3.656 8.975,-3.49 8.811,-3.232 8.288,-2.457 7.666,-0.863 7.676,0.14 c 0,0.157 0.014,0.297 0.041,0.413 L 7.719,0.565 C 7.836,1.203 8.432,2.3 9.14,3.174 c 0.352,0.441 0.733,0.833 1.082,1.103 0.346,0.275 0.666,0.405 0.821,0.397 h 0.031 c 0.145,0.008 0.46,-0.125 0.798,-0.412 0.513,-0.421 1.088,-1.13 1.542,-1.86 0.455,-0.727 0.791,-1.494 0.865,-1.972 L 14.281,0.418 C 14.3,0.322 14.31,0.211 14.31,0.089 14.314,-0.596 13.987,-1.6 13.582,-2.39 13.381,-2.786 13.162,-3.133 12.973,-3.364 12.879,-3.479 12.792,-3.565 12.733,-3.61 l -0.058,-0.037 0.007,-0.016 -0.004,0.017 -0.003,-10e-4 0.007,-0.016 -0.004,0.017 0.032,-0.134 v 0.137 L 12.678,-3.646 12.71,-3.78 v 0.137 -0.119 l 0.007,0.119 H 12.71 v -0.119 l 0.007,0.119 -0.022,-0.384 0.032,0.383 -0.01,-0.118 0.06,0.107 -0.05,0.011 -0.01,-0.118 0.06,0.107 c -0.027,0.005 -0.204,0.185 -0.364,0.453 -0.509,0.805 -1.101,2.423 -1.092,3.432 0,0.144 0.011,0.274 0.033,0.384 L 10.976,0.688 11.351,0.6 c 0.139,0.624 0.757,1.684 1.478,2.528 0.359,0.425 0.745,0.802 1.097,1.063 0.35,0.264 0.672,0.391 0.832,0.385 V 4.961 L 14.741,4.576 c 0.147,0.001 0.454,-0.134 0.782,-0.405 0.498,-0.4 1.056,-1.061 1.497,-1.75 0.444,-0.687 0.771,-1.415 0.844,-1.893 L 17.867,0.516 C 17.886,0.417 17.896,0.301 17.896,0.171 17.9,-0.536 17.577,-1.59 17.183,-2.43 16.987,-2.852 16.774,-3.225 16.591,-3.48 16.5,-3.606 16.415,-3.703 16.356,-3.756 l -0.058,-0.045 0.017,-0.029 -0.011,0.031 -0.006,-0.002 0.017,-0.029 -0.011,0.031 0.056,-0.162 -0.014,0.17 -0.042,-0.008 0.056,-0.162 -0.014,0.17 0.032,-0.384 v 0.385 -0.107 l 0.047,0.101 -0.047,0.006 v -0.107 l 0.047,0.101 c -0.027,0.002 -0.216,0.17 -0.389,0.434 -0.552,0.789 -1.199,2.414 -1.188,3.418 0,0.152 0.014,0.287 0.04,0.399 l 0.002,0.012 c 0.117,0.642 0.722,1.739 1.437,2.612 0.357,0.439 0.741,0.83 1.093,1.1 0.348,0.274 0.67,0.404 0.825,0.397 V 4.961 L 18.229,4.576 C 18.34,4.585 18.643,4.42 18.96,4.073 19.442,3.564 19.975,2.742 20.431,1.984 20.893,1.218 21.264,0.538 21.529,0.201 l 0.602,0.482 C 22.017,0.822 21.79,1.197 21.526,1.648 21.124,2.329 20.613,3.206 20.073,3.933 19.801,4.298 19.524,4.625 19.234,4.879 18.944,5.128 18.638,5.325 18.26,5.346 H 18.245 C 17.785,5.338 17.37,5.107 16.95,4.789 16.325,4.307 15.696,3.584 15.18,2.824 14.666,2.061 14.266,1.277 14.134,0.613 L 14.512,0.54 14.136,0.625 C 14.095,0.443 14.078,0.253 14.078,0.056 c 0.004,-0.914 0.356,-1.996 0.779,-2.891 0.212,-0.446 0.443,-0.84 0.673,-1.142 0.116,-0.15 0.231,-0.278 0.358,-0.382 0.128,-0.099 0.27,-0.195 0.49,-0.201 l 0.032,10e-4 c 0.22,0.026 0.343,0.128 0.464,0.232 0.398,0.373 0.803,1.083 1.162,1.923 0.351,0.838 0.627,1.775 0.63,2.575 0,0.17 -0.013,0.334 -0.043,0.492 l -0.378,-0.074 0.38,0.062 C 18.476,1.532 17.876,2.625 17.156,3.563 16.794,4.03 16.402,4.451 16.007,4.771 15.609,5.086 15.216,5.32 14.774,5.345 L 14.758,5.346 C 14.303,5.339 13.888,5.116 13.468,4.81 12.841,4.344 12.209,3.645 11.686,2.91 11.164,2.173 10.753,1.416 10.601,0.775 L 10.598,0.761 C 10.565,0.591 10.551,0.413 10.551,0.23 c 0.003,-0.902 0.324,-1.978 0.71,-2.872 0.195,-0.446 0.406,-0.843 0.616,-1.148 0.106,-0.153 0.211,-0.283 0.327,-0.391 0.117,-0.103 0.242,-0.205 0.459,-0.23 l 0.009,-0.001 0.038,-0.001 c 0.214,0.005 0.359,0.094 0.49,0.191 0.437,0.345 0.857,1.017 1.23,1.818 0.363,0.8 0.647,1.704 0.65,2.493 0,0.162 -0.013,0.321 -0.043,0.475 L 14.659,0.491 15.04,0.552 c -0.149,0.88 -0.759,2.03 -1.497,3.025 -0.37,0.494 -0.772,0.942 -1.18,1.279 -0.41,0.333 -0.821,0.58 -1.289,0.588 V 5.059 l 0.02,0.385 -0.051,0.001 C 10.582,5.437 10.167,5.204 9.749,4.885 9.127,4.401 8.506,3.676 7.996,2.915 7.488,2.152 7.094,1.37 6.963,0.712 L 7.341,0.639 6.965,0.724 C 6.923,0.537 6.906,0.342 6.906,0.14 6.91,-0.767 7.248,-1.834 7.652,-2.712 7.855,-3.151 8.074,-3.538 8.292,-3.833 8.401,-3.981 8.51,-4.106 8.63,-4.209 c 0.121,-0.097 0.255,-0.197 0.479,-0.204 0.216,0.006 0.36,0.098 0.488,0.196 0.427,0.349 0.827,1.023 1.183,1.828 0.346,0.804 0.615,1.712 0.618,2.502 0,0.172 -0.013,0.339 -0.044,0.5 L 10.976,0.54 11.356,0.602 C 11.207,1.48 10.599,2.642 9.862,3.654 9.492,4.157 9.091,4.615 8.684,4.963 8.275,5.307 7.87,5.564 7.406,5.591 L 7.39,5.206 7.412,5.591 7.361,5.592 C 6.905,5.584 6.507,5.346 6.11,5.025 5.517,4.538 4.93,3.809 4.442,3.042 3.957,2.274 3.575,1.48 3.429,0.819 L 3.427,0.81 C 3.394,0.64 3.38,0.462 3.38,0.278 3.383,-0.627 3.704,-1.713 4.09,-2.612 4.285,-3.061 4.496,-3.458 4.707,-3.762 4.814,-3.914 4.92,-4.044 5.039,-4.15 5.159,-4.251 5.294,-4.356 5.524,-4.363 v 0.385 L 5.501,-4.363 5.539,-4.364 c 0.218,0.005 0.363,0.1 0.491,0.199 0.222,0.181 0.415,0.437 0.614,0.755 0.584,0.956 1.16,2.441 1.169,3.619 0,0.173 -0.014,0.341 -0.045,0.503 L 7.39,0.639 7.77,0.7 C 7.622,1.579 7.012,2.73 6.274,3.724 5.904,4.218 5.502,4.666 5.094,5.004 4.684,5.336 4.273,5.583 3.805,5.591 3.296,5.575 2.929,5.251 2.561,4.864 2.015,4.269 1.484,3.412 1.014,2.626 0.552,1.847 0.132,1.117 -0.071,0.892 L -0.087,0.873 C -0.218,0.7 -0.307,0.592 -0.356,0.536 L -0.384,0.505 -0.373,0.495 -0.382,0.506 -0.384,0.505 -0.373,0.495 -0.382,0.506 -0.171,0.229 V 0.573 C -0.343,0.56 -0.361,0.512 -0.382,0.506 L -0.171,0.229 V 0.573 0.195 l 0.33,0.182 c -0.039,0.1 -0.216,0.209 -0.33,0.196 V 0.195 L 0.159,0.377 -0.158,0.203 H 0.205 L 0.159,0.377 -0.158,0.203 h 0.363 -0.25 L 0.2,0.149 0.205,0.203 h -0.25 L 0.2,0.149 0.211,0.191 0.231,0.331 0.182,0.526 C 0.14,0.632 -0.043,0.745 -0.164,0.732 L -0.347,0.688 Z m 46.952,-0.021 -0.108,0.322 v -0.339 l 0.108,0.017 -0.108,0.322 V -0.038 0.337 L 46.582,0.07 46.844,-0.038 V 0.337 L 46.582,0.07 46.845,0.338 H 46.468 L 46.582,0.07 46.845,0.338 H 46.468 46.79 L 46.5,0.485 C 46.501,0.473 46.478,0.475 46.468,0.338 H 46.79 L 46.5,0.485 46.495,0.475 46.459,0.409 C 46.445,0.372 46.414,0.341 46.407,0.202 l 0.129,-0.294 0.274,-0.106 c 0.128,0.006 0.167,0.033 0.225,0.055 0.152,0.07 0.35,0.194 0.748,0.463 L 47.567,0.639 47.769,0.31 c 0.37,0.231 0.809,0.62 1.328,1.088 0.773,0.701 1.703,1.573 2.631,2.261 0.923,0.692 1.855,1.172 2.518,1.162 0.938,0.013 2.458,-0.709 3.735,-1.64 0.642,-0.463 1.232,-0.973 1.684,-1.451 0.452,-0.474 0.76,-0.931 0.845,-1.21 L 60.514,0.51 C 60.542,0.43 60.558,0.335 60.558,0.224 60.574,-0.385 60.008,-1.419 59.291,-2.224 58.937,-2.63 58.55,-2.988 58.207,-3.235 57.87,-3.486 57.554,-3.604 57.464,-3.594 l -0.012,10e-4 h -0.013 c -0.093,-0.01 -0.391,0.104 -0.709,0.353 -0.486,0.366 -1.051,0.985 -1.477,1.644 -0.43,0.656 -0.712,1.364 -0.706,1.842 0,0.138 0.021,0.255 0.058,0.351 l 0.002,0.005 c 0.11,0.302 0.429,0.756 0.88,1.225 0.675,0.707 1.642,1.47 2.628,2.044 0.983,0.577 1.999,0.956 2.707,0.951 l 0.044,-0.001 h 0.002 c 0.941,-0.009 2.463,-0.757 3.748,-1.706 0.646,-0.472 1.241,-0.991 1.7,-1.475 0.46,-0.481 0.78,-0.942 0.878,-1.229 L 67.557,0.54 67.19,0.422 67.228,0.158 c 0.002,-0.299 -0.127,-0.714 -0.362,-1.146 -0.348,-0.65 -0.915,-1.342 -1.477,-1.851 -0.28,-0.256 -0.56,-0.467 -0.8,-0.606 -0.238,-0.142 -0.443,-0.202 -0.519,-0.197 -0.098,-0.01 -0.408,0.106 -0.741,0.355 -0.507,0.367 -1.101,0.983 -1.55,1.639 -0.455,0.652 -0.752,1.355 -0.745,1.821 0,0.128 0.02,0.236 0.055,0.326 L 60.73,0.639 61.085,0.49 c 0.117,0.289 0.461,0.737 0.942,1.2 0.721,0.699 1.747,1.458 2.787,2.032 1.038,0.576 2.103,0.958 2.834,0.952 h 0.056 c 0.965,0.012 2.481,-0.71 3.753,-1.64 0.638,-0.462 1.224,-0.972 1.671,-1.45 0.448,-0.474 0.754,-0.931 0.84,-1.211 l 0.035,-0.247 c 0.003,-0.289 -0.13,-0.699 -0.373,-1.128 -0.36,-0.644 -0.949,-1.331 -1.53,-1.839 -0.291,-0.254 -0.58,-0.464 -0.829,-0.603 -0.246,-0.142 -0.46,-0.203 -0.544,-0.199 l -0.014,10e-4 -0.013,-0.385 0.017,0.384 c -0.103,-0.004 -0.4,0.119 -0.716,0.367 -0.482,0.366 -1.04,0.974 -1.461,1.62 -0.424,0.645 -0.702,1.339 -0.696,1.815 0,0.15 0.024,0.275 0.068,0.379 l 0.002,0.007 c 0.103,0.269 0.442,0.704 0.925,1.15 0.724,0.676 1.766,1.409 2.816,1.962 1.046,0.556 2.116,0.924 2.827,0.919 V 4.961 L 74.474,4.576 c 0.982,-0.013 2.457,-0.69 3.698,-1.564 0.623,-0.435 1.195,-0.916 1.634,-1.372 0.441,-0.452 0.747,-0.891 0.845,-1.179 l 0.363,0.128 -0.366,-0.118 0.038,-0.267 c 0.002,-0.305 -0.129,-0.733 -0.364,-1.182 -0.35,-0.676 -0.919,-1.399 -1.483,-1.94 -0.281,-0.271 -0.562,-0.496 -0.804,-0.649 -0.239,-0.154 -0.448,-0.224 -0.525,-0.223 l 0.017,-0.385 v 0.385 c -0.113,-0.009 -0.438,0.113 -0.786,0.367 -0.531,0.376 -1.151,1.005 -1.619,1.671 -0.474,0.663 -0.783,1.378 -0.775,1.841 0,0.123 0.019,0.226 0.052,0.312 0.105,0.283 0.444,0.733 0.929,1.195 0.725,0.699 1.77,1.457 2.826,2.029 1.053,0.575 2.133,0.956 2.86,0.951 V 4.961 L 81.006,4.576 c 0.46,-0.008 1.038,-0.22 1.646,-0.572 0.914,-0.526 1.89,-1.347 2.737,-2.108 0.854,-0.764 1.557,-1.454 2.046,-1.776 l 0.42,0.645 c -0.234,0.151 -0.652,0.52 -1.145,0.972 -0.746,0.68 -1.69,1.557 -2.675,2.278 -0.989,0.716 -2.009,1.3 -3.012,1.331 H 81.014 C 79.73,5.335 78.118,4.577 76.689,3.643 75.977,3.174 75.32,2.657 74.794,2.151 74.268,1.641 73.87,1.157 73.681,0.679 73.607,0.49 73.577,0.29 73.577,0.089 c 0.015,-1.001 0.691,-2.085 1.476,-2.995 0.396,-0.451 0.826,-0.849 1.242,-1.145 0.42,-0.291 0.809,-0.5 1.232,-0.509 h 0.017 c 0.415,0.028 0.792,0.249 1.207,0.553 0.615,0.463 1.27,1.157 1.79,1.908 0.515,0.755 0.907,1.55 0.915,2.303 0,0.171 -0.022,0.34 -0.075,0.504 l -0.004,0.01 C 81.206,1.192 80.842,1.673 80.36,2.175 79.637,2.924 78.638,3.693 77.59,4.292 76.54,4.888 75.451,5.32 74.49,5.346 H 74.482 C 73.225,5.336 71.627,4.604 70.204,3.701 69.496,3.248 68.84,2.748 68.314,2.259 67.789,1.765 67.391,1.298 67.199,0.831 L 67.557,0.688 67.202,0.837 C 67.111,0.621 67.074,0.391 67.074,0.159 c 0.012,-0.981 0.616,-2.043 1.328,-2.928 0.359,-0.439 0.75,-0.828 1.132,-1.12 0.386,-0.288 0.746,-0.497 1.149,-0.523 h 0.005 l 0.039,-0.001 c 0.417,0.009 0.808,0.21 1.237,0.493 0.634,0.43 1.314,1.087 1.855,1.806 0.534,0.723 0.946,1.491 0.955,2.24 0,0.163 -0.022,0.326 -0.073,0.483 -0.159,0.481 -0.523,0.976 -1.011,1.502 -0.733,0.781 -1.757,1.6 -2.828,2.235 -1.075,0.633 -2.184,1.092 -3.158,1.098 V 5.059 l 0.011,0.385 -0.067,0.001 C 66.357,5.434 64.768,4.671 63.36,3.735 62.659,3.265 62.012,2.748 61.491,2.243 60.97,1.735 60.574,1.253 60.374,0.787 L 60.371,0.778 C 60.295,0.584 60.264,0.379 60.264,0.173 c 0.014,-0.992 0.664,-2.063 1.419,-2.957 0.381,-0.444 0.794,-0.836 1.194,-1.126 0.405,-0.286 0.778,-0.493 1.193,-0.503 0.415,0.01 0.797,0.214 1.214,0.5 0.617,0.434 1.274,1.096 1.795,1.82 0.516,0.727 0.911,1.503 0.919,2.251 0,0.169 -0.022,0.338 -0.075,0.5 L 67.92,0.669 C 67.747,1.144 67.373,1.641 66.875,2.17 66.128,2.958 65.093,3.788 64.019,4.439 62.941,5.087 61.841,5.564 60.886,5.591 h 0.002 L 60.822,5.592 C 59.552,5.581 58.034,4.814 56.698,3.87 56.033,3.396 55.421,2.872 54.93,2.359 54.44,1.843 54.068,1.348 53.886,0.872 l 0.36,-0.135 -0.359,0.139 c -0.078,-0.202 -0.11,-0.415 -0.11,-0.63 0.012,-0.985 0.623,-2.065 1.342,-2.965 0.363,-0.447 0.758,-0.841 1.145,-1.135 0.392,-0.289 0.759,-0.5 1.175,-0.509 v 0.385 l -0.014,-0.385 0.039,-10e-4 c 0.413,0.01 0.784,0.218 1.194,0.505 0.604,0.437 1.251,1.101 1.765,1.828 0.508,0.731 0.898,1.508 0.906,2.255 0,0.184 -0.027,0.368 -0.089,0.543 l -0.363,-0.128 0.367,0.118 c -0.161,0.482 -0.528,0.977 -1.019,1.502 -0.74,0.782 -1.77,1.6 -2.843,2.235 C 56.306,5.126 55.204,5.585 54.246,5.591 53.583,5.589 52.918,5.319 52.256,4.936 51.265,4.358 50.272,3.5 49.401,2.715 48.537,1.933 47.773,1.213 47.365,0.967 L 47.35,0.957 C 47.095,0.784 46.924,0.674 46.82,0.614 L 46.72,0.56 46.716,0.558 46.81,0.315 V 0.573 L 46.716,0.558 46.81,0.315 V 0.573 0.206 L 47.056,0.475 46.81,0.573 V 0.206 l 0.246,0.269 -0.25,-0.273 h 0.371 l -0.121,0.273 -0.25,-0.273 h 0.371 -0.308 L 47.15,0.07 c 0.002,0.012 0.022,0.024 0.027,0.132 H 46.869 L 47.15,0.07 47.088,0.099 47.149,0.067 47.15,0.07 l -0.062,0.029 0.061,-0.032 0.026,0.047 0.029,0.059 0.035,0.165 -0.118,0.281 -0.277,0.113 -0.137,-0.023 0.245,-0.73"
         style="fill:#100f0d;fill-opacity:1;fill-rule:nonzero;stroke:none"
         id="path58"
         inkscape:connector-curvature="0" /></g><path
       d="m 232.483,548.649 h 25.049 v 3.242 h -25.049 z"
       style="fill:#668b6f;fill-opacity:1;fill-rule:nonzero;stroke:none"
       id="path60"
       inkscape:connector-curvature="0" /><g
       id="g62"
       transform="translate(232.483,548.649)"><path
         d="M 0,0 V -0.385 H 25.434 V 3.578 H -0.385 V -0.385 H 0 V 0 H 0.385 V 2.807 H 24.664 V 0.385 L 0,0.385 V 0 h 0.385"
         style="fill:#100f0d;fill-opacity:1;fill-rule:nonzero;stroke:none"
         id="path64"
         inkscape:connector-curvature="0" /></g><path
       d="m 223.397,558.866 h 25 v 19.253 h -25 z"
       style="fill:#777ba0;fill-opacity:1;fill-rule:nonzero;stroke:none"
       id="path66"
       inkscape:connector-curvature="0" /><g
       id="g68"
       transform="translate(223.397,558.865)"><path
         d="M 0,0 V -0.385 H 25.434 V 19.638 H -0.385 V -0.385 H 0 V 0 H 0.385 V 18.868 H 24.664 V 0.385 L 0,0.385 V 0 h 0.385"
         style="fill:#100f0d;fill-opacity:1;fill-rule:nonzero;stroke:none"
         id="path70"
         inkscape:connector-curvature="0" /></g><g
       id="g72"
       transform="translate(238.23,555.132)"><path
         d="M 0,0 -2.309,-3.094 -4.617,0 m 2.652,3.585 v -4.371 h -0.736 l -0.05,4.371"
         style="fill:#100f0d;fill-opacity:1;fill-rule:nonzero;stroke:none"
         id="path74"
         inkscape:connector-curvature="0" /></g><g
       id="g76"
       transform="translate(181.796,568.492)"><path
         d="M 0,0 4.617,-2.309 0,-4.617 m -17.092,0.049 -4.617,2.309 4.617,2.308 z m -0.737,2.701 18.566,-0.049 v -0.785 l -18.566,0.049"
         style="fill:#100f0d;fill-opacity:1;fill-rule:nonzero;stroke:none"
         id="path78"
         inkscape:connector-curvature="0" /></g><g
       id="g80"
       transform="translate(184.752,582.307)"><path
         d="M 0,0 H 2.385 C 2.353,0.323 2.262,0.566 2.111,0.727 1.881,0.978 1.582,1.103 1.215,1.103 0.882,1.103 0.603,1.003 0.376,0.803 0.15,0.603 0.025,0.335 0,0 M 2.377,-1.103 3.04,-1.21 C 2.927,-1.616 2.718,-1.931 2.412,-2.156 2.106,-2.379 1.715,-2.491 1.239,-2.491 c -0.598,0 -1.073,0.179 -1.424,0.538 -0.351,0.359 -0.526,0.862 -0.526,1.51 0,0.67 0.177,1.19 0.531,1.56 0.355,0.371 0.815,0.556 1.38,0.556 0.547,0 0.994,-0.181 1.341,-0.541 0.347,-0.361 0.52,-0.868 0.52,-1.522 L 3.058,-0.569 h -3.093 c 0.027,-0.438 0.159,-0.772 0.397,-1.005 0.238,-0.232 0.535,-0.348 0.891,-0.348 0.265,0 0.492,0.065 0.679,0.195 0.187,0.13 0.335,0.338 0.445,0.624 M -3.232,-2.42 -4.734,1.602 h 0.72 l 0.857,-2.409 c 0.093,-0.26 0.178,-0.53 0.256,-0.811 0.06,0.212 0.144,0.467 0.252,0.766 l 0.861,2.454 h 0.72 L -2.515,-2.42 Z m -2.743,4.022 h 0.676 V -2.42 h -0.676 z m 0,1.53 h 0.676 V 2.385 h -0.676 z m -0.753,-4.962 0.107,-0.6 c -0.191,-0.041 -0.363,-0.061 -0.514,-0.061 -0.247,0 -0.439,0.039 -0.575,0.118 -0.136,0.078 -0.232,0.181 -0.287,0.309 -0.055,0.129 -0.083,0.398 -0.083,0.808 v 2.324 h -0.498 v 0.534 h 0.498 v 0.991 l 0.676,0.408 V 1.602 h 0.676 V 1.068 h -0.676 v -2.36 c 0,-0.195 0.012,-0.321 0.036,-0.376 l 0.116,-0.133 0.229,-0.05 c 0.075,0 0.174,0.007 0.295,0.021 m -3.166,3.432 h 0.676 V -2.42 h -0.676 z m 0,1.53 h 0.676 V 2.385 h -0.676 z m -4.164,-4.342 0.676,0.107 c 0.038,-0.265 0.145,-0.467 0.321,-0.608 0.175,-0.141 0.42,-0.211 0.735,-0.211 0.317,0 0.553,0.062 0.706,0.186 0.154,0.125 0.231,0.27 0.231,0.438 0,0.149 -0.072,0.267 -0.215,0.353 -0.101,0.06 -0.336,0.135 -0.706,0.225 -0.498,0.126 -0.845,0.234 -1.042,0.326 -0.197,0.091 -0.346,0.218 -0.447,0.38 -0.102,0.162 -0.153,0.34 -0.153,0.536 0,0.178 0.042,0.342 0.124,0.494 0.083,0.152 0.195,0.278 0.338,0.378 0.107,0.078 0.252,0.144 0.436,0.198 0.185,0.054 0.382,0.081 0.593,0.081 0.318,0 0.597,-0.046 0.837,-0.138 0.24,-0.092 0.418,-0.216 0.532,-0.373 0.114,-0.156 0.193,-0.366 0.237,-0.628 l -0.677,-0.107 c -0.03,0.213 -0.117,0.378 -0.262,0.497 -0.145,0.12 -0.349,0.179 -0.613,0.179 -0.312,0 -0.535,-0.05 -0.668,-0.151 -0.134,-0.1 -0.201,-0.218 -0.201,-0.353 l 0.083,-0.232 c 0.056,-0.071 0.142,-0.13 0.261,-0.177 0.067,-0.024 0.267,-0.081 0.6,-0.169 0.48,-0.128 0.816,-0.232 1.007,-0.314 0.191,-0.082 0.341,-0.2 0.449,-0.355 0.109,-0.156 0.163,-0.349 0.163,-0.579 0,-0.226 -0.066,-0.439 -0.199,-0.638 -0.133,-0.2 -0.324,-0.354 -0.575,-0.463 -0.25,-0.109 -0.533,-0.163 -0.849,-0.163 -0.524,0 -0.923,0.107 -1.197,0.323 -0.274,0.215 -0.449,0.535 -0.525,0.958 m -3.938,-1.21 v 4.022 h 0.605 v -0.57 c 0.293,0.427 0.716,0.641 1.27,0.641 0.24,0 0.461,-0.044 0.663,-0.13 0.201,-0.087 0.352,-0.201 0.452,-0.342 0.1,-0.14 0.171,-0.307 0.211,-0.501 0.025,-0.125 0.037,-0.345 0.037,-0.659 V -2.42 h -0.676 v 2.423 c 0,0.275 -0.026,0.48 -0.079,0.617 -0.052,0.136 -0.145,0.245 -0.279,0.326 -0.134,0.081 -0.291,0.122 -0.47,0.122 -0.288,0 -0.536,-0.092 -0.745,-0.274 -0.209,-0.183 -0.313,-0.529 -0.313,-1.039 V -2.42 Z M -21.854,0 h 2.385 c -0.032,0.323 -0.124,0.566 -0.274,0.727 -0.23,0.251 -0.529,0.376 -0.896,0.376 -0.333,0 -0.612,-0.1 -0.839,-0.3 C -21.704,0.603 -21.83,0.335 -21.854,0 m 2.377,-1.103 0.663,-0.107 c -0.113,-0.406 -0.323,-0.721 -0.628,-0.946 -0.306,-0.223 -0.697,-0.335 -1.173,-0.335 -0.598,0 -1.073,0.179 -1.424,0.538 -0.351,0.359 -0.527,0.862 -0.527,1.51 0,0.67 0.178,1.19 0.532,1.56 0.355,0.371 0.815,0.556 1.38,0.556 0.547,0 0.994,-0.181 1.341,-0.541 0.347,-0.361 0.52,-0.868 0.52,-1.522 l -0.003,-0.179 h -3.093 c 0.026,-0.438 0.159,-0.772 0.397,-1.005 0.238,-0.232 0.535,-0.348 0.891,-0.348 0.265,0 0.491,0.065 0.679,0.195 0.187,0.13 0.335,0.338 0.445,0.624 m -8.123,0.498 0.748,0.036 c 0.031,-0.278 0.104,-0.505 0.218,-0.684 0.115,-0.178 0.293,-0.323 0.533,-0.432 0.242,-0.11 0.513,-0.165 0.815,-0.166 0.267,10e-4 0.504,0.043 0.709,0.126 0.205,0.083 0.357,0.198 0.457,0.343 0.1,0.145 0.151,0.304 0.151,0.477 0,0.175 -0.047,0.327 -0.139,0.458 -0.092,0.131 -0.25,0.241 -0.474,0.33 -0.143,0.058 -0.46,0.148 -0.95,0.271 -0.49,0.123 -0.84,0.239 -1.049,0.347 -0.271,0.139 -0.473,0.311 -0.606,0.517 -0.133,0.205 -0.199,0.436 -0.199,0.691 0,0.28 0.079,0.542 0.237,0.786 0.159,0.243 0.39,0.428 0.694,0.554 0.304,0.127 0.642,0.19 1.013,0.19 0.41,0 0.771,-0.066 1.084,-0.197 0.313,-0.13 0.554,-0.323 0.722,-0.577 0.169,-0.254 0.259,-0.542 0.272,-0.863 l -0.748,-0.036 c -0.036,0.34 -0.159,0.597 -0.37,0.771 -0.209,0.174 -0.519,0.261 -0.929,0.261 -0.428,0 -0.739,-0.082 -0.935,-0.245 -0.195,-0.163 -0.293,-0.36 -0.293,-0.59 0,-0.2 0.069,-0.365 0.208,-0.494 0.136,-0.129 0.491,-0.262 1.065,-0.398 0.574,-0.135 0.973,-0.253 1.195,-0.354 0.324,-0.148 0.563,-0.336 0.718,-0.564 0.154,-0.228 0.231,-0.49 0.231,-0.787 0,-0.294 -0.084,-0.572 -0.251,-0.833 -0.168,-0.26 -0.409,-0.462 -0.723,-0.607 -0.313,-0.145 -0.667,-0.217 -1.059,-0.217 -0.498,0 -0.915,0.073 -1.251,0.22 -0.337,0.147 -0.6,0.368 -0.792,0.664 -0.191,0.295 -0.292,0.629 -0.302,1.002"
         style="fill:#231f20;fill-opacity:1;fill-rule:nonzero;stroke:none"
         id="path82"
         inkscape:connector-curvature="0" /></g><g
       id="g84"
       transform="translate(175.657,572.305)"><path
         d="m 0,0 0.676,0.107 c 0.039,-0.265 0.146,-0.467 0.321,-0.608 0.175,-0.14 0.421,-0.211 0.735,-0.211 0.318,0 0.553,0.062 0.707,0.187 0.153,0.124 0.23,0.269 0.23,0.437 0,0.149 -0.071,0.267 -0.215,0.353 C 2.354,0.325 2.119,0.4 1.749,0.49 1.251,0.616 0.903,0.724 0.706,0.816 0.51,0.907 0.361,1.034 0.259,1.196 0.158,1.358 0.107,1.536 0.107,1.732 c 0,0.178 0.041,0.342 0.124,0.494 0.082,0.152 0.195,0.278 0.337,0.378 0.107,0.078 0.253,0.144 0.437,0.198 0.184,0.054 0.382,0.081 0.593,0.081 0.317,0 0.596,-0.046 0.837,-0.138 C 2.675,2.653 2.852,2.529 2.966,2.372 3.081,2.216 3.16,2.006 3.203,1.744 L 2.527,1.637 C 2.497,1.85 2.409,2.015 2.264,2.134 2.12,2.254 1.915,2.313 1.651,2.313 1.339,2.313 1.117,2.263 0.983,2.162 0.85,2.062 0.783,1.944 0.783,1.809 L 0.866,1.577 C 0.921,1.506 1.008,1.447 1.126,1.4 1.194,1.376 1.394,1.319 1.726,1.231 2.207,1.103 2.542,0.999 2.733,0.917 2.924,0.835 3.074,0.717 3.183,0.562 3.291,0.406 3.346,0.214 3.346,-0.017 3.346,-0.243 3.279,-0.456 3.146,-0.655 3.014,-0.854 2.822,-1.009 2.571,-1.118 2.321,-1.227 2.038,-1.281 1.722,-1.281 1.199,-1.281 0.8,-1.174 0.526,-0.958 0.251,-0.743 0.076,-0.423 0,0 m -1.433,2.812 h 0.676 V -1.21 h -0.676 z m 0,1.53 h 0.676 V 3.595 h -0.676 z m -4.329,-5.552 1.46,2.089 -1.353,1.933 h 0.814 L -4.17,1.854 c 0.102,-0.187 0.186,-0.329 0.253,-0.424 0.113,0.162 0.215,0.308 0.306,0.437 l 0.661,0.945 h 0.817 L -3.486,0.877 -2.025,-1.21 H -2.839 L -3.661,0.026 -3.872,0.325 -4.945,-1.21 Z M -6.924,0.819 C -7.175,0.718 -7.551,0.633 -8.053,0.563 -8.337,0.522 -8.538,0.477 -8.656,0.427 -8.773,0.377 -8.864,0.304 -8.928,0.207 -8.992,0.11 -9.024,0.003 -9.024,-0.115 c 0,-0.181 0.07,-0.331 0.209,-0.452 0.139,-0.12 0.343,-0.18 0.611,-0.18 0.266,0 0.502,0.055 0.709,0.167 0.207,0.112 0.359,0.268 0.455,0.467 0.075,0.154 0.112,0.381 0.112,0.682 z m 0.036,-1.531 c -0.244,-0.208 -0.481,-0.355 -0.711,-0.441 -0.231,-0.085 -0.479,-0.128 -0.743,-0.128 -0.436,0 -0.772,0.107 -1.006,0.322 -0.235,0.215 -0.352,0.49 -0.352,0.825 0,0.196 0.044,0.375 0.133,0.537 0.089,0.163 0.205,0.293 0.349,0.391 0.144,0.098 0.306,0.172 0.486,0.223 0.132,0.035 0.332,0.069 0.6,0.101 0.545,0.066 0.946,0.144 1.204,0.234 l 0.004,0.172 c 0,0.268 -0.063,0.457 -0.191,0.566 -0.172,0.149 -0.427,0.223 -0.766,0.223 -0.316,0 -0.55,-0.057 -0.701,-0.172 -0.151,-0.115 -0.263,-0.318 -0.335,-0.61 l -0.676,0.106 c 0.06,0.287 0.159,0.519 0.297,0.695 0.138,0.177 0.337,0.313 0.598,0.408 0.26,0.095 0.562,0.143 0.906,0.143 0.34,0 0.617,-0.041 0.83,-0.122 0.213,-0.082 0.37,-0.184 0.47,-0.307 0.1,-0.123 0.17,-0.279 0.21,-0.467 0.023,-0.117 0.034,-0.324 0.034,-0.622 V 0.472 c 0,-0.624 0.015,-1.021 0.043,-1.192 0.029,-0.17 0.086,-0.334 0.171,-0.49 H -6.71 c -0.093,0.142 -0.152,0.308 -0.178,0.498"
         style="fill:#231f20;fill-opacity:1;fill-rule:nonzero;stroke:none"
         id="path86"
         inkscape:connector-curvature="0" /></g><path
       d="m 236.208,544.164 h -0.77 v -0.77 h 0.77 z m 0,1.54 h -0.77 v -0.77 h 0.77 z m 0,1.54 h -0.77 v -0.77 h 0.77 z m 0,1.541 h -0.77 v -0.77 h 0.77 z m 0,1.54 h -0.77 v -0.77 h 0.77 z m 0,1.467 h -0.77 v -0.698 h 0.77 z m 9.185,-8.401 0.005,0.77 -0.771,0.005 -0.004,-0.77 z m 0.01,1.541 0.004,0.77 -0.77,0.005 -0.005,-0.771 z m 0.009,1.54 0.005,0.77 -0.77,0.005 -0.005,-0.77 z m 0.01,1.54 0.005,0.77 -0.771,0.005 -0.004,-0.77 z m 0.01,1.54 0.004,0.77 -0.77,0.005 -0.005,-0.77 z m 0.009,1.541 0.005,0.77 -0.77,0.004 -0.005,-0.77 z m 0.01,1.54 0.005,0.77 -0.771,0.005 -0.004,-0.77 z m 0.009,1.54 0.005,0.77 -0.77,0.005 -0.005,-0.77 z m 0.01,1.54 0.005,0.77 -0.77,0.005 -0.005,-0.77 z m 0.01,1.54 0.005,0.77 -0.771,0.005 -0.004,-0.77 z m 0.009,1.541 0.002,0.265 -0.77,0.005 -0.002,-0.266"
       style="fill:#100f0d;fill-opacity:1;fill-rule:nonzero;stroke:none"
       id="path88"
       inkscape:connector-curvature="0" /><g
       id="g90"
       transform="translate(242.061,544.229)"><path
         d="m 0,0 3.045,-2.358 -3.094,-2.259 m -3.733,0 -3.045,2.309 L -3.733,0 Z m -0.737,2.702 5.256,-0.05 v -0.736 h -5.256"
         style="fill:#100f0d;fill-opacity:1;fill-rule:nonzero;stroke:none"
         id="path92"
         inkscape:connector-curvature="0" /></g><g
       id="g94"
       transform="translate(268.46,532.786)"><path
         d="m 0,0 0.107,-0.6 c -0.192,-0.041 -0.363,-0.061 -0.514,-0.061 -0.247,0 -0.439,0.039 -0.575,0.117 -0.136,0.078 -0.232,0.182 -0.287,0.31 -0.056,0.129 -0.083,0.398 -0.083,0.807 v 2.325 h -0.499 v 0.534 h 0.499 v 0.99 l 0.676,0.409 V 3.432 H 0 V 2.898 h -0.676 v -2.36 c 0,-0.195 0.012,-0.321 0.035,-0.376 l 0.116,-0.133 0.23,-0.05 C -0.22,-0.021 -0.122,-0.014 0,0 m -5.731,-0.591 v 4.023 h 0.605 v -0.57 c 0.293,0.427 0.716,0.641 1.27,0.641 0.24,0 0.461,-0.043 0.663,-0.13 0.202,-0.087 0.352,-0.201 0.453,-0.342 0.1,-0.14 0.17,-0.307 0.21,-0.501 0.025,-0.125 0.038,-0.345 0.038,-0.66 v -2.461 h -0.677 v 2.424 c 0,0.274 -0.026,0.481 -0.079,0.617 -0.052,0.136 -0.145,0.245 -0.279,0.326 -0.134,0.081 -0.29,0.122 -0.47,0.122 -0.288,0 -0.536,-0.091 -0.745,-0.274 C -4.951,2.441 -5.055,2.094 -5.055,1.585 V -0.591 Z M -9.576,1.83 h 2.384 C -7.224,2.154 -7.315,2.396 -7.465,2.557 -7.696,2.808 -7.995,2.934 -8.362,2.934 -8.694,2.934 -8.974,2.833 -9.2,2.633 -9.427,2.433 -9.552,2.165 -9.576,1.83 M -7.199,0.727 -6.536,0.62 c -0.114,-0.406 -0.323,-0.721 -0.629,-0.945 -0.306,-0.224 -0.696,-0.336 -1.172,-0.336 -0.599,0 -1.074,0.179 -1.425,0.538 -0.351,0.359 -0.526,0.862 -0.526,1.51 0,0.67 0.177,1.19 0.532,1.56 0.354,0.371 0.814,0.556 1.379,0.556 0.548,0 0.995,-0.18 1.341,-0.542 0.347,-0.36 0.521,-0.867 0.521,-1.521 L -6.519,1.261 h -3.093 c 0.027,-0.438 0.159,-0.772 0.397,-1.005 0.239,-0.232 0.536,-0.348 0.892,-0.348 0.265,0 0.491,0.065 0.678,0.195 0.187,0.131 0.336,0.338 0.446,0.624 m -9.272,-1.318 v 4.023 h 0.605 V 2.833 c 0.126,0.201 0.294,0.364 0.503,0.485 0.209,0.124 0.447,0.185 0.714,0.185 0.297,0 0.54,-0.063 0.731,-0.189 0.19,-0.126 0.324,-0.303 0.402,-0.53 0.319,0.479 0.734,0.719 1.245,0.719 0.4,0 0.708,-0.11 0.923,-0.331 0.215,-0.219 0.322,-0.557 0.322,-1.014 v -2.749 h -0.676 v 2.51 c 0,0.27 -0.022,0.464 -0.067,0.583 -0.044,0.118 -0.124,0.214 -0.241,0.287 -0.117,0.073 -0.254,0.109 -0.411,0.109 -0.284,0 -0.52,-0.093 -0.708,-0.28 -0.187,-0.186 -0.281,-0.485 -0.281,-0.894 v -2.315 h -0.676 v 2.589 c 0,0.299 -0.056,0.525 -0.167,0.674 -0.111,0.151 -0.293,0.226 -0.546,0.226 -0.192,0 -0.369,-0.05 -0.532,-0.151 -0.163,-0.101 -0.281,-0.247 -0.354,-0.439 -0.073,-0.192 -0.11,-0.469 -0.11,-0.832 v -2.067 z m -3.82,2.421 h 2.385 c -0.033,0.324 -0.124,0.566 -0.274,0.727 -0.231,0.251 -0.529,0.377 -0.896,0.377 -0.333,0 -0.613,-0.101 -0.839,-0.301 -0.227,-0.2 -0.352,-0.468 -0.376,-0.803 m 2.377,-1.103 0.663,-0.107 c -0.113,-0.406 -0.323,-0.721 -0.629,-0.945 -0.306,-0.224 -0.696,-0.336 -1.172,-0.336 -0.599,0 -1.074,0.179 -1.425,0.538 -0.35,0.359 -0.526,0.862 -0.526,1.51 0,0.67 0.177,1.19 0.532,1.56 0.355,0.371 0.815,0.556 1.38,0.556 0.547,0 0.994,-0.18 1.34,-0.542 0.347,-0.36 0.521,-0.867 0.521,-1.521 l -0.003,-0.179 h -3.094 c 0.027,-0.438 0.159,-0.772 0.397,-1.005 0.239,-0.232 0.536,-0.348 0.892,-0.348 0.265,0 0.491,0.065 0.678,0.195 0.188,0.131 0.336,0.338 0.446,0.624 m -4.043,0.178 0.676,-0.108 c -0.074,-0.455 -0.263,-0.813 -0.566,-1.071 -0.304,-0.258 -0.676,-0.387 -1.118,-0.387 -0.554,0 -0.999,0.178 -1.335,0.534 -0.337,0.357 -0.505,0.868 -0.505,1.533 0,0.43 0.072,0.805 0.214,1.128 0.143,0.323 0.361,0.565 0.653,0.727 0.293,0.161 0.611,0.242 0.955,0.242 0.434,0 0.789,-0.108 1.064,-0.325 0.276,-0.217 0.453,-0.523 0.531,-0.921 l -0.676,-0.106 c -0.063,0.258 -0.174,0.455 -0.334,0.586 -0.159,0.131 -0.352,0.197 -0.578,0.197 -0.341,0 -0.619,-0.121 -0.832,-0.363 -0.214,-0.241 -0.32,-0.623 -0.32,-1.146 0,-0.53 0.105,-0.917 0.315,-1.156 0.211,-0.241 0.487,-0.361 0.826,-0.361 0.273,0 0.5,0.082 0.683,0.243 0.182,0.164 0.298,0.415 0.347,0.754 m -4.294,0.534 c -0.251,-0.101 -0.628,-0.186 -1.129,-0.256 -0.284,-0.041 -0.485,-0.086 -0.603,-0.136 -0.118,-0.05 -0.208,-0.123 -0.273,-0.22 -0.063,-0.097 -0.095,-0.204 -0.095,-0.322 0,-0.182 0.069,-0.331 0.208,-0.452 0.14,-0.12 0.344,-0.18 0.612,-0.18 0.265,0 0.502,0.055 0.709,0.167 0.206,0.111 0.358,0.268 0.455,0.467 0.074,0.154 0.111,0.381 0.111,0.682 z m 0.035,-1.531 c -0.243,-0.208 -0.48,-0.355 -0.711,-0.441 -0.231,-0.085 -0.478,-0.128 -0.742,-0.128 -0.437,0 -0.772,0.107 -1.007,0.322 -0.234,0.214 -0.351,0.49 -0.351,0.825 0,0.196 0.044,0.375 0.133,0.537 0.088,0.162 0.205,0.293 0.348,0.391 0.144,0.098 0.306,0.172 0.486,0.223 0.133,0.035 0.333,0.069 0.6,0.1 0.545,0.067 0.947,0.145 1.204,0.235 l 0.005,0.172 c 0,0.268 -0.064,0.457 -0.191,0.566 -0.172,0.149 -0.428,0.224 -0.766,0.224 -0.317,0 -0.551,-0.059 -0.702,-0.173 -0.151,-0.115 -0.262,-0.318 -0.334,-0.61 l -0.677,0.106 c 0.06,0.287 0.159,0.519 0.297,0.695 0.138,0.177 0.338,0.313 0.598,0.408 0.261,0.095 0.563,0.143 0.906,0.143 0.341,0 0.618,-0.042 0.83,-0.122 0.214,-0.082 0.37,-0.184 0.47,-0.308 0.101,-0.122 0.171,-0.278 0.211,-0.466 0.023,-0.117 0.034,-0.324 0.034,-0.622 V 1.092 c 0,-0.624 0.014,-1.021 0.043,-1.192 0.029,-0.17 0.086,-0.334 0.17,-0.491 h -0.676 c -0.092,0.143 -0.151,0.309 -0.178,0.499 m -4.326,5.053 h 0.677 v -5.552 h -0.677 z m -3.702,-3.558 c 0,-0.509 0.106,-0.886 0.318,-1.129 0.213,-0.244 0.47,-0.366 0.772,-0.366 0.307,0 0.57,0.126 0.788,0.378 0.219,0.253 0.328,0.644 0.328,1.173 0,0.505 -0.106,0.883 -0.32,1.134 -0.213,0.251 -0.469,0.376 -0.766,0.376 -0.294,0 -0.555,-0.134 -0.781,-0.401 -0.226,-0.267 -0.339,-0.655 -0.339,-1.165 m -0.605,-3.523 v 5.552 h 0.64 V 2.891 c 0.146,0.203 0.31,0.357 0.492,0.458 0.183,0.103 0.405,0.154 0.665,0.154 0.341,0 0.641,-0.088 0.902,-0.263 0.26,-0.175 0.457,-0.422 0.59,-0.741 0.132,-0.319 0.199,-0.668 0.199,-1.048 0,-0.408 -0.074,-0.775 -0.222,-1.102 -0.148,-0.326 -0.362,-0.576 -0.644,-0.75 -0.282,-0.173 -0.578,-0.26 -0.889,-0.26 -0.227,0 -0.431,0.049 -0.612,0.146 -0.181,0.098 -0.329,0.221 -0.445,0.37 V -2.12 Z m -4.123,2.74 0.677,0.107 c 0.038,-0.264 0.145,-0.467 0.321,-0.608 0.175,-0.14 0.42,-0.211 0.735,-0.211 0.317,0 0.553,0.061 0.706,0.186 0.154,0.125 0.231,0.27 0.231,0.438 0,0.149 -0.072,0.267 -0.215,0.353 -0.101,0.06 -0.336,0.135 -0.706,0.226 -0.498,0.125 -0.845,0.233 -1.042,0.324 -0.197,0.091 -0.346,0.219 -0.447,0.381 -0.102,0.162 -0.153,0.34 -0.153,0.536 0,0.178 0.042,0.343 0.124,0.494 0.083,0.152 0.195,0.278 0.338,0.378 0.107,0.078 0.252,0.144 0.436,0.198 0.185,0.054 0.382,0.081 0.593,0.081 0.318,0 0.597,-0.047 0.837,-0.138 0.24,-0.092 0.418,-0.216 0.532,-0.373 0.114,-0.156 0.193,-0.367 0.237,-0.628 l -0.677,-0.107 c -0.03,0.212 -0.117,0.378 -0.262,0.497 -0.145,0.12 -0.349,0.18 -0.613,0.18 -0.312,0 -0.535,-0.051 -0.668,-0.152 -0.134,-0.1 -0.201,-0.218 -0.201,-0.353 l 0.083,-0.232 c 0.056,-0.072 0.142,-0.13 0.261,-0.177 0.067,-0.025 0.267,-0.08 0.6,-0.169 0.48,-0.128 0.816,-0.232 1.007,-0.314 0.191,-0.081 0.34,-0.201 0.449,-0.355 0.109,-0.156 0.163,-0.349 0.163,-0.579 0,-0.226 -0.066,-0.439 -0.199,-0.638 -0.133,-0.199 -0.324,-0.354 -0.575,-0.463 -0.25,-0.109 -0.533,-0.163 -0.849,-0.163 -0.524,0 -0.923,0.108 -1.197,0.323 -0.274,0.215 -0.45,0.535 -0.526,0.958 m -1.433,2.812 h 0.677 v -4.023 h -0.677 z m 0,1.529 h 0.677 V 4.215 h -0.677 z M -45.086,0.05 h 1.171 c 0.362,0 0.646,0.035 0.852,0.103 0.206,0.069 0.37,0.165 0.492,0.29 0.172,0.176 0.306,0.411 0.402,0.708 0.096,0.296 0.144,0.655 0.144,1.077 0,0.585 -0.094,1.034 -0.282,1.348 -0.189,0.314 -0.418,0.523 -0.687,0.63 -0.195,0.077 -0.508,0.116 -0.94,0.116 h -1.152 z m -0.747,-0.641 v 5.552 h 1.898 c 0.428,0 0.755,-0.026 0.981,-0.078 0.316,-0.074 0.585,-0.206 0.808,-0.398 0.291,-0.248 0.508,-0.564 0.652,-0.949 0.144,-0.385 0.216,-0.825 0.216,-1.32 0,-0.422 -0.049,-0.795 -0.146,-1.122 -0.098,-0.325 -0.223,-0.594 -0.376,-0.808 -0.153,-0.213 -0.32,-0.381 -0.502,-0.503 -0.182,-0.122 -0.401,-0.215 -0.658,-0.278 -0.256,-0.064 -0.551,-0.096 -0.885,-0.096"
         style="fill:#231f20;fill-opacity:1;fill-rule:nonzero;stroke:none"
         id="path96"
         inkscape:connector-curvature="0" /></g><g
       id="g98"
       transform="translate(92.784,563.663)"><path
         d="m 0,0 -16.994,-22.839 0.618,-0.459 16.994,22.838"
         style="fill:#100f0d;fill-opacity:1;fill-rule:nonzero;stroke:none"
         id="path100"
         inkscape:connector-curvature="0" /></g><g
       id="g102"
       transform="translate(90.618,533.455)"><path
         d="m 0,0 0.676,0.107 c 0.039,-0.265 0.146,-0.467 0.321,-0.608 0.175,-0.141 0.421,-0.211 0.735,-0.211 0.318,0 0.553,0.062 0.707,0.186 0.153,0.125 0.23,0.27 0.23,0.437 0,0.15 -0.071,0.268 -0.215,0.354 C 2.354,0.324 2.119,0.4 1.749,0.49 1.251,0.616 0.903,0.724 0.706,0.816 0.51,0.907 0.361,1.034 0.259,1.196 0.158,1.358 0.107,1.536 0.107,1.732 c 0,0.178 0.041,0.342 0.124,0.494 0.083,0.152 0.195,0.278 0.337,0.378 0.107,0.078 0.253,0.144 0.437,0.198 0.184,0.054 0.382,0.081 0.593,0.081 0.317,0 0.596,-0.046 0.837,-0.138 C 2.675,2.653 2.852,2.529 2.966,2.372 3.081,2.216 3.16,2.006 3.203,1.744 L 2.527,1.637 C 2.497,1.85 2.409,2.015 2.264,2.134 2.12,2.254 1.915,2.313 1.651,2.313 1.339,2.313 1.117,2.263 0.983,2.162 0.85,2.062 0.783,1.944 0.783,1.809 L 0.866,1.577 C 0.921,1.506 1.008,1.447 1.126,1.4 1.194,1.376 1.394,1.319 1.726,1.231 2.207,1.103 2.542,0.998 2.733,0.917 2.924,0.835 3.074,0.717 3.183,0.562 3.291,0.406 3.346,0.213 3.346,-0.017 3.346,-0.243 3.279,-0.456 3.147,-0.655 3.014,-0.855 2.822,-1.009 2.572,-1.118 2.321,-1.227 2.038,-1.281 1.722,-1.281 1.199,-1.281 0.8,-1.174 0.526,-0.958 0.251,-0.743 0.076,-0.424 0,0 m -3.857,0 0.676,0.107 c 0.039,-0.265 0.146,-0.467 0.321,-0.608 0.176,-0.141 0.421,-0.211 0.735,-0.211 0.318,0 0.553,0.062 0.707,0.186 0.153,0.125 0.231,0.27 0.231,0.437 0,0.15 -0.072,0.268 -0.216,0.354 -0.1,0.059 -0.335,0.135 -0.705,0.225 -0.498,0.126 -0.846,0.234 -1.043,0.326 -0.196,0.091 -0.345,0.218 -0.447,0.38 -0.101,0.162 -0.152,0.34 -0.152,0.536 0,0.178 0.041,0.342 0.124,0.494 0.083,0.152 0.195,0.278 0.337,0.378 0.107,0.078 0.253,0.144 0.437,0.198 0.184,0.054 0.382,0.081 0.593,0.081 0.318,0 0.596,-0.046 0.837,-0.138 0.24,-0.092 0.417,-0.216 0.531,-0.373 0.115,-0.156 0.194,-0.366 0.237,-0.628 L -1.33,1.637 c -0.03,0.213 -0.117,0.378 -0.262,0.497 -0.145,0.12 -0.349,0.179 -0.614,0.179 -0.312,0 -0.534,-0.05 -0.668,-0.151 -0.133,-0.1 -0.2,-0.218 -0.2,-0.353 l 0.083,-0.232 c 0.055,-0.071 0.142,-0.13 0.26,-0.177 0.068,-0.024 0.268,-0.081 0.6,-0.169 0.481,-0.128 0.817,-0.233 1.007,-0.314 0.191,-0.082 0.341,-0.2 0.45,-0.355 0.108,-0.156 0.163,-0.349 0.163,-0.579 0,-0.226 -0.067,-0.439 -0.199,-0.638 -0.133,-0.2 -0.325,-0.354 -0.575,-0.463 -0.251,-0.109 -0.534,-0.163 -0.85,-0.163 -0.523,0 -0.922,0.107 -1.196,0.323 -0.275,0.215 -0.45,0.534 -0.526,0.958 M -5.282,0.818 C -5.533,0.718 -5.909,0.633 -6.411,0.563 -6.695,0.522 -6.895,0.477 -7.013,0.427 -7.131,0.377 -7.222,0.303 -7.286,0.207 -7.35,0.11 -7.382,0.003 -7.382,-0.115 c 0,-0.181 0.07,-0.331 0.209,-0.452 0.139,-0.12 0.343,-0.181 0.611,-0.181 0.266,0 0.502,0.056 0.709,0.168 0.207,0.112 0.359,0.268 0.456,0.467 0.074,0.154 0.111,0.381 0.111,0.682 z m 0.036,-1.53 C -5.49,-0.92 -5.727,-1.067 -5.957,-1.153 -6.188,-1.239 -6.435,-1.281 -6.7,-1.281 c -0.436,0 -0.772,0.107 -1.006,0.322 -0.235,0.215 -0.352,0.49 -0.352,0.825 0,0.196 0.045,0.375 0.133,0.537 0.089,0.162 0.205,0.293 0.349,0.39 0.144,0.099 0.306,0.173 0.486,0.223 0.132,0.036 0.332,0.07 0.6,0.102 0.545,0.066 0.946,0.144 1.204,0.234 l 0.004,0.172 c 0,0.268 -0.063,0.457 -0.19,0.566 C -5.644,2.239 -5.9,2.313 -6.239,2.313 -6.555,2.313 -6.789,2.256 -6.94,2.141 -7.091,2.026 -7.202,1.822 -7.275,1.53 l -0.676,0.107 c 0.06,0.287 0.159,0.519 0.297,0.695 0.138,0.177 0.337,0.313 0.598,0.408 0.26,0.095 0.562,0.143 0.906,0.143 0.34,0 0.617,-0.041 0.83,-0.123 0.213,-0.081 0.37,-0.183 0.47,-0.307 0.1,-0.123 0.171,-0.278 0.211,-0.466 0.022,-0.117 0.034,-0.324 0.034,-0.622 V 0.471 c 0,-0.623 0.014,-1.02 0.042,-1.191 0.029,-0.17 0.086,-0.334 0.171,-0.49 h -0.676 c -0.092,0.142 -0.152,0.308 -0.178,0.498 m -9.008,-0.498 v 4.022 h 0.605 V 2.213 c 0.126,0.202 0.294,0.363 0.503,0.486 0.209,0.122 0.447,0.184 0.714,0.184 0.297,0 0.54,-0.063 0.73,-0.189 0.191,-0.126 0.325,-0.303 0.403,-0.529 0.319,0.478 0.734,0.718 1.245,0.718 0.4,0 0.708,-0.11 0.923,-0.33 0.215,-0.22 0.322,-0.558 0.322,-1.015 V -1.21 h -0.676 v 2.509 c 0,0.27 -0.022,0.464 -0.067,0.583 -0.044,0.119 -0.124,0.214 -0.241,0.287 -0.117,0.072 -0.254,0.109 -0.411,0.109 -0.284,0 -0.52,-0.094 -0.708,-0.28 C -11.1,1.812 -11.193,1.514 -11.193,1.104 V -1.21 h -0.677 v 2.587 c 0,0.301 -0.055,0.526 -0.166,0.675 -0.111,0.151 -0.293,0.226 -0.546,0.226 -0.192,0 -0.369,-0.051 -0.532,-0.151 -0.163,-0.1 -0.281,-0.246 -0.354,-0.439 -0.073,-0.192 -0.11,-0.47 -0.11,-0.832 V -1.21 Z m -4.193,0 v 3.488 h -0.57 v 0.534 h 0.57 v 0.422 c 0,0.266 0.024,0.464 0.072,0.593 0.065,0.174 0.18,0.316 0.345,0.424 0.165,0.108 0.396,0.162 0.693,0.162 0.191,0 0.402,-0.023 0.633,-0.069 l -0.102,-0.608 c -0.14,0.024 -0.274,0.037 -0.399,0.037 -0.206,0 -0.352,-0.043 -0.438,-0.128 -0.085,-0.085 -0.128,-0.244 -0.128,-0.477 V 2.812 h 0.783 V 2.278 h -0.783 V -1.21 Z m -3.969,2.012 c 0,-0.506 0.113,-0.885 0.34,-1.136 0.226,-0.252 0.511,-0.378 0.854,-0.378 0.341,0 0.625,0.127 0.851,0.379 0.227,0.254 0.34,0.639 0.34,1.158 0,0.489 -0.114,0.859 -0.341,1.111 -0.228,0.252 -0.511,0.377 -0.85,0.377 -0.343,0 -0.628,-0.125 -0.854,-0.376 -0.227,-0.25 -0.34,-0.629 -0.34,-1.135 m -0.676,-0.001 c 0,0.737 0.206,1.284 0.616,1.639 0.343,0.295 0.761,0.443 1.254,0.443 0.549,0 0.997,-0.18 1.345,-0.539 0.348,-0.358 0.522,-0.854 0.522,-1.487 0,-0.513 -0.077,-0.916 -0.231,-1.21 -0.154,-0.294 -0.378,-0.522 -0.672,-0.685 -0.294,-0.162 -0.616,-0.243 -0.964,-0.243 -0.558,0 -1.009,0.178 -1.354,0.536 -0.344,0.357 -0.516,0.873 -0.516,1.546 m -3.613,0.001 c 0,-0.506 0.113,-0.885 0.34,-1.136 0.226,-0.252 0.511,-0.378 0.854,-0.378 0.341,0 0.625,0.127 0.851,0.379 0.227,0.254 0.34,0.639 0.34,1.158 0,0.489 -0.114,0.859 -0.342,1.111 -0.227,0.252 -0.51,0.377 -0.849,0.377 -0.343,0 -0.628,-0.125 -0.854,-0.376 -0.227,-0.25 -0.34,-0.629 -0.34,-1.135 m -0.676,-0.001 c 0,0.737 0.205,1.284 0.616,1.639 0.343,0.295 0.761,0.443 1.254,0.443 0.549,0 0.997,-0.18 1.345,-0.539 0.348,-0.358 0.522,-0.854 0.522,-1.487 0,-0.513 -0.077,-0.916 -0.231,-1.21 -0.154,-0.294 -0.378,-0.522 -0.673,-0.685 -0.294,-0.162 -0.615,-0.243 -0.963,-0.243 -0.558,0 -1.009,0.178 -1.354,0.536 -0.344,0.357 -0.516,0.873 -0.516,1.546 m -2.283,-2.011 v 4.022 h 0.569 V 2.175 c 0.156,0.289 0.3,0.478 0.432,0.57 0.132,0.092 0.278,0.138 0.436,0.138 0.229,0 0.462,-0.069 0.698,-0.206 l -0.236,-0.628 c -0.16,0.081 -0.321,0.122 -0.482,0.122 -0.143,0 -0.272,-0.045 -0.387,-0.134 -0.114,-0.088 -0.196,-0.212 -0.245,-0.37 -0.073,-0.24 -0.109,-0.503 -0.109,-0.788 V -1.21 Z m -4.327,2.918 h 1.414 c 0.467,0 0.799,0.089 0.996,0.267 0.196,0.177 0.295,0.427 0.295,0.749 0,0.233 -0.058,0.433 -0.174,0.599 -0.116,0.166 -0.268,0.276 -0.457,0.329 -0.122,0.033 -0.347,0.049 -0.675,0.049 h -1.399 z m -0.748,-2.918 v 5.552 h 2.076 c 0.365,0 0.644,-0.018 0.837,-0.053 0.27,-0.045 0.496,-0.131 0.679,-0.258 0.182,-0.126 0.329,-0.304 0.441,-0.532 0.111,-0.228 0.167,-0.479 0.167,-0.753 0,-0.469 -0.148,-0.866 -0.444,-1.191 -0.296,-0.325 -0.831,-0.487 -1.605,-0.487 h -1.403 V -1.21"
         style="fill:#231f20;fill-opacity:1;fill-rule:nonzero;stroke:none"
         id="path104"
         inkscape:connector-curvature="0" /></g><g
       id="g106"
       transform="translate(101.076,550.743)"><path
         d="M 0,0 3.782,-11.935 4.516,-11.702 0.734,0.233"
         style="fill:#100f0d;fill-opacity:1;fill-rule:nonzero;stroke:none"
         id="path108"
         inkscape:connector-curvature="0" /></g><g
       id="g110"
       transform="translate(162.5,534.268)"><path
         d="m 0,0 c 0,-0.522 0.103,-0.903 0.309,-1.143 0.206,-0.24 0.464,-0.36 0.774,-0.36 0.308,0 0.566,0.119 0.775,0.358 0.208,0.239 0.313,0.613 0.313,1.123 0,0.487 -0.108,0.854 -0.322,1.102 C 1.634,1.327 1.375,1.451 1.072,1.451 0.774,1.451 0.521,1.329 0.312,1.085 0.104,0.841 0,0.48 0,0 M -0.57,-2.357 0.106,-2.464 C 0.134,-2.67 0.21,-2.82 0.335,-2.914 0.502,-3.041 0.73,-3.105 1.02,-3.105 c 0.312,0 0.553,0.061 0.722,0.182 0.17,0.121 0.285,0.291 0.345,0.509 0.035,0.134 0.051,0.413 0.048,0.84 -0.294,-0.332 -0.659,-0.499 -1.098,-0.499 -0.545,0 -0.967,0.199 -1.266,0.596 -0.298,0.397 -0.448,0.873 -0.448,1.428 0,0.382 0.068,0.734 0.203,1.057 0.136,0.323 0.333,0.573 0.59,0.748 0.258,0.176 0.561,0.264 0.909,0.264 0.463,0 0.845,-0.189 1.146,-0.569 v 0.498 h 0.64 V -1.509 C 2.811,-2.131 2.748,-2.572 2.622,-2.832 2.495,-3.092 2.295,-3.297 2.021,-3.448 1.746,-3.599 1.409,-3.674 1.008,-3.674 c -0.476,0 -0.86,0.109 -1.154,0.329 -0.292,0.218 -0.434,0.548 -0.424,0.988 m -4.108,0.284 v 4.022 h 0.605 V 1.38 c 0.293,0.427 0.716,0.64 1.27,0.64 0.24,0 0.461,-0.043 0.663,-0.13 0.202,-0.086 0.353,-0.2 0.453,-0.341 0.1,-0.141 0.17,-0.308 0.21,-0.501 0.025,-0.126 0.038,-0.345 0.038,-0.66 V -2.073 H -2.116 V 0.35 c 0,0.276 -0.026,0.481 -0.078,0.617 -0.053,0.137 -0.146,0.245 -0.28,0.327 -0.134,0.081 -0.29,0.121 -0.47,0.121 -0.288,0 -0.536,-0.091 -0.745,-0.274 C -3.897,0.959 -4.002,0.613 -4.002,0.102 v -2.175 z m -1.668,4.022 h 0.676 v -4.022 h -0.676 z m 0,1.531 H -5.67 V 2.733 h -0.676 z m -2.572,-5.553 v 4.022 h 0.569 V 1.313 c 0.156,0.288 0.3,0.478 0.432,0.57 0.132,0.092 0.277,0.137 0.436,0.137 0.229,0 0.461,-0.068 0.698,-0.205 L -7.019,1.187 C -7.179,1.268 -7.34,1.309 -7.501,1.309 -7.644,1.309 -7.773,1.264 -7.888,1.175 -8.002,1.086 -8.084,0.963 -8.133,0.805 -8.206,0.565 -8.242,0.302 -8.242,0.016 v -2.089 z m -3.724,1.994 c 0,-0.51 0.106,-0.886 0.319,-1.13 0.212,-0.244 0.469,-0.365 0.771,-0.365 0.307,0 0.57,0.126 0.789,0.378 0.218,0.252 0.328,0.643 0.328,1.173 0,0.504 -0.107,0.882 -0.321,1.133 -0.213,0.251 -0.468,0.377 -0.765,0.377 -0.295,0 -0.555,-0.134 -0.782,-0.401 -0.226,-0.267 -0.339,-0.656 -0.339,-1.165 m -0.605,-3.524 v 5.552 h 0.641 V 1.408 c 0.145,0.204 0.309,0.358 0.492,0.46 0.183,0.101 0.404,0.152 0.664,0.152 0.341,0 0.642,-0.087 0.902,-0.262 0.26,-0.175 0.457,-0.422 0.59,-0.741 0.133,-0.319 0.199,-0.669 0.199,-1.049 0,-0.407 -0.074,-0.774 -0.222,-1.101 -0.147,-0.326 -0.362,-0.576 -0.644,-0.75 -0.282,-0.174 -0.578,-0.261 -0.889,-0.261 -0.227,0 -0.431,0.049 -0.612,0.147 -0.18,0.097 -0.329,0.22 -0.445,0.369 v -1.975 z m -5.292,3.346 0.748,0.035 c 0.031,-0.277 0.104,-0.505 0.218,-0.683 0.115,-0.179 0.293,-0.323 0.534,-0.433 0.241,-0.11 0.512,-0.165 0.814,-0.165 0.267,0 0.504,0.042 0.709,0.126 0.205,0.083 0.357,0.197 0.457,0.343 0.1,0.145 0.15,0.304 0.15,0.476 0,0.175 -0.046,0.328 -0.138,0.459 -0.092,0.13 -0.25,0.24 -0.474,0.329 -0.143,0.059 -0.46,0.149 -0.95,0.272 -0.49,0.122 -0.84,0.238 -1.049,0.347 -0.271,0.138 -0.473,0.311 -0.606,0.516 -0.133,0.206 -0.199,0.436 -0.199,0.692 0,0.28 0.079,0.542 0.237,0.785 0.159,0.244 0.39,0.429 0.694,0.555 0.304,0.126 0.642,0.189 1.013,0.189 0.41,0 0.771,-0.065 1.084,-0.196 0.313,-0.131 0.554,-0.323 0.722,-0.578 0.168,-0.254 0.259,-0.541 0.272,-0.863 l -0.748,-0.035 c -0.036,0.34 -0.159,0.596 -0.37,0.77 -0.21,0.174 -0.519,0.261 -0.929,0.262 -0.428,0 -0.739,-0.082 -0.935,-0.245 -0.195,-0.164 -0.293,-0.36 -0.293,-0.59 0,-0.201 0.069,-0.365 0.208,-0.494 0.136,-0.13 0.491,-0.262 1.065,-0.398 0.574,-0.135 0.973,-0.253 1.195,-0.354 0.324,-0.148 0.563,-0.337 0.718,-0.565 0.154,-0.227 0.231,-0.49 0.231,-0.787 0,-0.294 -0.084,-0.571 -0.251,-0.832 -0.168,-0.26 -0.409,-0.463 -0.723,-0.608 -0.313,-0.144 -0.667,-0.217 -1.059,-0.217 -0.498,0 -0.915,0.074 -1.251,0.221 -0.337,0.147 -0.601,0.368 -0.792,0.663 -0.191,0.296 -0.292,0.63 -0.302,1.003 M -31.03,-2.073 v 3.488 h -0.57 v 0.534 h 0.57 v 0.422 c 0,0.267 0.023,0.464 0.071,0.594 0.066,0.174 0.181,0.315 0.346,0.423 0.165,0.109 0.396,0.163 0.693,0.163 0.191,0 0.402,-0.023 0.633,-0.07 l -0.102,-0.607 c -0.141,0.024 -0.274,0.036 -0.4,0.036 -0.206,0 -0.352,-0.042 -0.437,-0.127 -0.086,-0.085 -0.128,-0.244 -0.128,-0.477 V 1.949 h 0.783 V 1.415 h -0.783 v -3.488 z m -2.148,0 v 3.488 h -0.569 v 0.534 h 0.569 v 0.422 c 0,0.267 0.024,0.464 0.072,0.594 0.065,0.174 0.181,0.315 0.346,0.423 0.165,0.109 0.395,0.163 0.692,0.163 0.191,0 0.402,-0.023 0.633,-0.07 l -0.101,-0.607 c -0.141,0.024 -0.275,0.036 -0.4,0.036 -0.206,0 -0.352,-0.042 -0.438,-0.127 -0.085,-0.085 -0.128,-0.244 -0.128,-0.477 V 1.949 h 0.783 V 1.415 h -0.783 v -3.488 z m -4.018,2.013 c 0,-0.506 0.113,-0.885 0.339,-1.137 0.227,-0.251 0.512,-0.377 0.855,-0.377 0.341,0 0.625,0.126 0.851,0.379 0.226,0.253 0.34,0.639 0.34,1.157 0,0.489 -0.114,0.86 -0.342,1.111 -0.227,0.252 -0.51,0.378 -0.849,0.378 -0.343,0 -0.628,-0.125 -0.855,-0.376 -0.226,-0.251 -0.339,-0.629 -0.339,-1.135 m -0.676,-0.002 c 0,0.738 0.205,1.285 0.616,1.64 0.343,0.295 0.761,0.442 1.254,0.442 0.548,0 0.997,-0.179 1.345,-0.538 0.348,-0.359 0.522,-0.855 0.522,-1.487 0,-0.513 -0.077,-0.917 -0.231,-1.211 -0.154,-0.293 -0.378,-0.521 -0.673,-0.684 -0.294,-0.163 -0.615,-0.244 -0.963,-0.244 -0.558,0 -1.01,0.179 -1.354,0.536 -0.344,0.358 -0.516,0.874 -0.516,1.546 m -2.505,0.303 h 2.1 V -0.4 h -2.1 z m -3.616,-2.314 V 3.48 h 0.676 V 0.328 l 1.602,1.621 h 0.875 l -1.521,-1.492 1.663,-2.53 H -41.5 l -1.322,2.077 -0.495,-0.485 v -1.592 z m -1.176,1.495 0.676,-0.107 c -0.074,-0.456 -0.263,-0.813 -0.566,-1.072 -0.304,-0.258 -0.676,-0.387 -1.118,-0.387 -0.553,0 -0.999,0.178 -1.335,0.535 -0.336,0.356 -0.505,0.867 -0.505,1.532 0,0.43 0.072,0.807 0.215,1.129 0.143,0.323 0.36,0.565 0.652,0.727 0.293,0.161 0.611,0.241 0.955,0.241 0.434,0 0.789,-0.108 1.065,-0.324 0.276,-0.216 0.452,-0.524 0.53,-0.921 l -0.676,-0.107 c -0.063,0.26 -0.174,0.455 -0.334,0.586 -0.159,0.131 -0.352,0.197 -0.578,0.197 -0.341,0 -0.618,-0.121 -0.832,-0.363 -0.214,-0.241 -0.32,-0.623 -0.32,-1.146 0,-0.53 0.105,-0.915 0.315,-1.156 0.212,-0.24 0.487,-0.36 0.826,-0.36 0.273,0 0.5,0.081 0.683,0.244 0.182,0.163 0.298,0.414 0.347,0.752 m -4.352,2.527 h 0.676 v -4.022 h -0.676 z m 0,1.531 h 0.676 V 2.733 h -0.676 z m -4.388,-2.634 h 1.414 c 0.468,0 0.8,0.089 0.996,0.266 0.197,0.178 0.295,0.428 0.295,0.749 0,0.234 -0.058,0.433 -0.173,0.599 -0.116,0.166 -0.268,0.276 -0.458,0.33 -0.121,0.033 -0.346,0.049 -0.675,0.049 h -1.399 z m -0.747,-2.919 V 3.48 h 2.075 c 0.365,0 0.644,-0.018 0.837,-0.053 0.27,-0.045 0.497,-0.131 0.679,-0.258 0.183,-0.127 0.33,-0.304 0.441,-0.532 0.112,-0.229 0.168,-0.48 0.168,-0.753 0,-0.469 -0.149,-0.866 -0.445,-1.192 -0.296,-0.324 -0.831,-0.487 -1.605,-0.487 h -1.403 v -2.278"
         style="fill:#231f20;fill-opacity:1;fill-rule:nonzero;stroke:none"
         id="path112"
         inkscape:connector-curvature="0" /></g><g
       id="g114"
       transform="translate(146.464,558.683)"><path
         d="M 0,0 9.331,-8.792 9.86,-8.231 0.528,0.561 Z m -12.477,4.771 8.399,-24.312 0.728,0.252 -8.399,24.312"
         style="fill:#100f0d;fill-opacity:1;fill-rule:nonzero;stroke:none"
         id="path116"
         inkscape:connector-curvature="0" /></g><g
       id="g118"
       transform="translate(172.931,548.614)"><path
         d="M 0,0 H 2.385 C 2.353,0.323 2.261,0.566 2.111,0.727 1.881,0.978 1.582,1.103 1.215,1.103 0.882,1.103 0.603,1.003 0.376,0.803 0.15,0.603 0.024,0.335 0,0 M 2.377,-1.103 3.04,-1.21 C 2.927,-1.616 2.717,-1.931 2.412,-2.155 2.106,-2.379 1.715,-2.491 1.239,-2.491 c -0.599,0 -1.073,0.179 -1.424,0.538 -0.351,0.359 -0.527,0.862 -0.527,1.51 0,0.67 0.178,1.19 0.532,1.56 0.355,0.371 0.815,0.556 1.38,0.556 0.547,0 0.994,-0.181 1.341,-0.541 0.347,-0.361 0.52,-0.868 0.52,-1.522 L 3.058,-0.569 h -3.093 c 0.026,-0.438 0.159,-0.772 0.397,-1.005 0.238,-0.232 0.535,-0.348 0.891,-0.348 0.265,0 0.491,0.065 0.679,0.195 0.187,0.131 0.335,0.338 0.445,0.624 m -6.969,-0.107 0.677,0.107 c 0.038,-0.265 0.145,-0.467 0.321,-0.608 0.175,-0.141 0.42,-0.211 0.735,-0.211 0.317,0 0.552,0.062 0.706,0.186 0.154,0.125 0.231,0.27 0.231,0.437 0,0.15 -0.072,0.268 -0.215,0.354 -0.101,0.06 -0.336,0.135 -0.706,0.226 -0.498,0.125 -0.845,0.233 -1.042,0.325 -0.197,0.091 -0.346,0.218 -0.447,0.38 -0.102,0.162 -0.153,0.34 -0.153,0.536 0,0.178 0.042,0.342 0.124,0.494 0.083,0.152 0.195,0.278 0.338,0.378 0.107,0.078 0.252,0.144 0.436,0.198 0.185,0.054 0.382,0.081 0.593,0.081 0.318,0 0.597,-0.046 0.837,-0.138 0.24,-0.092 0.418,-0.216 0.532,-0.373 0.114,-0.156 0.193,-0.366 0.237,-0.628 L -2.065,0.427 c -0.03,0.212 -0.117,0.378 -0.262,0.497 -0.145,0.12 -0.349,0.179 -0.614,0.179 -0.311,0 -0.534,-0.05 -0.667,-0.151 -0.134,-0.1 -0.201,-0.218 -0.201,-0.353 l 0.083,-0.232 c 0.056,-0.071 0.142,-0.13 0.261,-0.177 0.067,-0.024 0.267,-0.081 0.6,-0.169 0.48,-0.128 0.816,-0.232 1.007,-0.314 0.191,-0.082 0.34,-0.2 0.449,-0.355 0.109,-0.156 0.163,-0.349 0.163,-0.579 0,-0.226 -0.066,-0.439 -0.199,-0.638 -0.133,-0.2 -0.325,-0.354 -0.575,-0.463 -0.25,-0.109 -0.533,-0.163 -0.849,-0.163 -0.524,0 -0.923,0.107 -1.197,0.323 -0.274,0.215 -0.45,0.535 -0.526,0.958 m -1.422,0.818 c -0.251,-0.1 -0.627,-0.185 -1.129,-0.255 -0.284,-0.041 -0.485,-0.086 -0.603,-0.136 -0.117,-0.05 -0.208,-0.123 -0.272,-0.22 -0.064,-0.097 -0.096,-0.204 -0.096,-0.322 0,-0.181 0.07,-0.331 0.209,-0.452 0.139,-0.12 0.343,-0.181 0.611,-0.181 0.266,0 0.502,0.056 0.709,0.168 0.207,0.112 0.359,0.268 0.455,0.467 0.074,0.154 0.111,0.381 0.111,0.682 z m 0.036,-1.53 c -0.244,-0.208 -0.481,-0.355 -0.712,-0.441 -0.23,-0.085 -0.478,-0.128 -0.742,-0.128 -0.436,0 -0.772,0.107 -1.007,0.322 -0.234,0.215 -0.351,0.49 -0.351,0.825 0,0.196 0.044,0.375 0.133,0.537 0.089,0.163 0.205,0.293 0.348,0.39 0.144,0.099 0.306,0.173 0.486,0.224 0.133,0.035 0.333,0.069 0.601,0.101 0.545,0.066 0.946,0.144 1.203,0.234 l 0.005,0.172 c 0,0.268 -0.064,0.457 -0.191,0.566 -0.172,0.149 -0.427,0.223 -0.766,0.223 -0.317,0 -0.55,-0.057 -0.701,-0.172 C -7.823,0.816 -7.935,0.612 -8.007,0.32 l -0.676,0.107 c 0.06,0.287 0.159,0.519 0.297,0.695 0.138,0.177 0.337,0.313 0.597,0.408 0.261,0.095 0.563,0.143 0.906,0.143 0.341,0 0.618,-0.041 0.831,-0.123 0.213,-0.081 0.369,-0.183 0.47,-0.307 0.1,-0.122 0.17,-0.278 0.21,-0.466 0.023,-0.117 0.034,-0.324 0.034,-0.622 v -0.893 c 0,-0.624 0.014,-1.021 0.043,-1.192 0.029,-0.17 0.086,-0.334 0.171,-0.49 h -0.677 c -0.092,0.142 -0.151,0.308 -0.177,0.498 m -4.163,1.473 0.747,-0.184 c -0.154,-0.605 -0.431,-1.065 -0.832,-1.383 -0.4,-0.317 -0.89,-0.475 -1.468,-0.475 -0.599,0 -1.086,0.121 -1.461,0.364 -0.375,0.244 -0.661,0.596 -0.857,1.057 -0.195,0.461 -0.293,0.956 -0.293,1.485 0,0.577 0.109,1.081 0.328,1.51 0.219,0.43 0.53,0.756 0.934,0.979 0.404,0.223 0.849,0.335 1.334,0.335 0.551,0 1.014,-0.142 1.389,-0.426 0.375,-0.283 0.636,-0.682 0.784,-1.196 l -0.747,-0.169 c -0.127,0.401 -0.31,0.693 -0.551,0.875 -0.241,0.184 -0.543,0.275 -0.908,0.275 -0.419,0 -0.77,-0.101 -1.051,-0.305 -0.282,-0.202 -0.479,-0.475 -0.594,-0.816 -0.114,-0.342 -0.171,-0.695 -0.171,-1.058 0,-0.468 0.069,-0.877 0.206,-1.227 0.138,-0.35 0.352,-0.611 0.642,-0.784 0.291,-0.172 0.605,-0.259 0.944,-0.259 0.411,0 0.76,0.118 1.045,0.353 0.286,0.236 0.479,0.585 0.58,1.049"
         style="fill:#231f20;fill-opacity:1;fill-rule:nonzero;stroke:none"
         id="path120"
         inkscape:connector-curvature="0" /></g><g
       id="g122"
       transform="translate(115.168,601.89)"><path
         d="M 0,0 V 4.022 H 0.605 V 3.423 c 0.126,0.202 0.294,0.363 0.503,0.486 0.209,0.122 0.447,0.184 0.714,0.184 0.297,0 0.54,-0.063 0.73,-0.189 C 2.743,3.778 2.877,3.601 2.955,3.375 3.274,3.854 3.689,4.093 4.2,4.093 4.6,4.093 4.908,3.983 5.123,3.763 5.338,3.543 5.445,3.205 5.445,2.748 V 0 H 4.769 v 2.509 c 0,0.27 -0.022,0.464 -0.067,0.583 C 4.658,3.211 4.578,3.306 4.461,3.379 4.344,3.452 4.207,3.488 4.05,3.488 3.766,3.488 3.53,3.395 3.342,3.208 3.155,3.022 3.061,2.724 3.061,2.314 V 0 H 2.385 V 2.587 C 2.385,2.888 2.329,3.113 2.218,3.263 2.107,3.413 1.925,3.488 1.672,3.488 1.48,3.488 1.303,3.438 1.14,3.337 0.977,3.237 0.859,3.091 0.786,2.898 0.713,2.706 0.676,2.428 0.676,2.066 V 0 Z M -1.633,0 V 0.593 C -1.944,0.15 -2.366,-0.071 -2.9,-0.071 c -0.236,0 -0.457,0.045 -0.661,0.135 -0.204,0.091 -0.356,0.204 -0.455,0.341 -0.099,0.137 -0.169,0.305 -0.209,0.504 -0.028,0.133 -0.041,0.344 -0.041,0.633 v 2.48 H -3.59 V 1.793 c 0,-0.356 0.014,-0.596 0.041,-0.72 0.043,-0.179 0.134,-0.32 0.271,-0.422 0.138,-0.102 0.309,-0.153 0.512,-0.153 0.204,0 0.394,0.052 0.572,0.157 0.179,0.105 0.305,0.247 0.379,0.428 0.074,0.18 0.111,0.442 0.111,0.785 v 2.154 h 0.676 V 0 Z M -5.98,4.022 h 0.676 V 0 H -5.98 Z m 0,1.53 h 0.676 V 4.805 H -5.98 Z M -8.551,0 v 4.022 h 0.57 V 3.385 c 0.156,0.289 0.3,0.478 0.432,0.57 0.132,0.092 0.277,0.138 0.436,0.138 0.229,0 0.461,-0.069 0.698,-0.206 L -6.651,3.259 C -6.812,3.34 -6.972,3.381 -7.133,3.381 -7.277,3.381 -7.406,3.337 -7.52,3.248 -7.634,3.159 -7.716,3.035 -7.765,2.877 -7.838,2.637 -7.874,2.374 -7.874,2.089 V 0 Z m -3.722,2.04 c 0,-0.473 0.067,-0.815 0.201,-1.025 0.218,-0.345 0.514,-0.517 0.887,-0.517 0.304,0 0.566,0.127 0.787,0.381 0.221,0.254 0.332,0.633 0.332,1.136 0,0.515 -0.106,0.895 -0.319,1.14 -0.212,0.246 -0.468,0.368 -0.769,0.368 -0.303,0 -0.566,-0.127 -0.787,-0.38 -0.221,-0.254 -0.332,-0.622 -0.332,-1.103 M -12.237,0 h -0.641 v 5.552 h 0.676 V 3.543 c 0.289,0.367 0.657,0.55 1.105,0.55 0.248,0 0.482,-0.05 0.703,-0.149 0.222,-0.098 0.404,-0.237 0.547,-0.416 0.143,-0.179 0.255,-0.394 0.336,-0.647 0.081,-0.252 0.121,-0.522 0.121,-0.81 0,-0.683 -0.17,-1.211 -0.51,-1.583 -0.339,-0.373 -0.747,-0.559 -1.223,-0.559 -0.473,0 -0.844,0.201 -1.114,0.604 z m -2.273,4.022 h 0.676 V 0 h -0.676 z m 0,1.53 h 0.676 V 4.805 h -0.676 z m -1.714,0 h 0.676 V 0 h -0.676 z m -1.714,-1.53 h 0.676 V 0 h -0.676 z m 0,1.53 h 0.676 V 4.805 h -0.676 z M -19.596,0 v 0.593 c -0.311,-0.443 -0.734,-0.664 -1.268,-0.664 -0.236,0 -0.456,0.045 -0.661,0.135 -0.204,0.091 -0.355,0.204 -0.454,0.341 -0.099,0.137 -0.169,0.305 -0.21,0.504 -0.027,0.133 -0.041,0.344 -0.041,0.633 v 2.48 h 0.677 V 1.793 c 0,-0.356 0.013,-0.596 0.041,-0.72 0.043,-0.179 0.133,-0.32 0.271,-0.422 0.138,-0.102 0.309,-0.153 0.512,-0.153 0.203,0 0.394,0.052 0.572,0.157 0.178,0.105 0.304,0.247 0.379,0.428 0.074,0.18 0.111,0.442 0.111,0.785 v 2.154 h 0.676 V 0 Z m -6.428,2.029 c 0,-0.511 0.11,-0.893 0.331,-1.148 0.221,-0.255 0.485,-0.383 0.793,-0.383 0.295,0 0.55,0.121 0.763,0.364 0.213,0.243 0.319,0.612 0.319,1.107 0,0.528 -0.112,0.925 -0.337,1.191 -0.224,0.266 -0.488,0.399 -0.791,0.399 -0.3,0 -0.555,-0.124 -0.764,-0.371 -0.21,-0.248 -0.314,-0.634 -0.314,-1.159 m 2.135,-3.56 v 1.987 c -0.106,-0.151 -0.255,-0.277 -0.446,-0.377 -0.191,-0.1 -0.395,-0.15 -0.61,-0.15 -0.479,0 -0.891,0.188 -1.237,0.566 -0.346,0.378 -0.518,0.895 -0.518,1.553 0,0.4 0.07,0.759 0.21,1.077 0.141,0.317 0.345,0.558 0.613,0.722 0.267,0.164 0.561,0.246 0.881,0.246 0.499,0 0.892,-0.208 1.178,-0.624 v 0.553 h 0.606 V -1.531 Z M -31.588,0 v 5.552 h 3.986 V 4.911 H -30.84 V 3.203 h 3.025 V 2.563 H -30.84 V 0.641 h 3.381 V 0"
         style="fill:#231f20;fill-opacity:1;fill-rule:nonzero;stroke:none"
         id="path124"
         inkscape:connector-curvature="0" /></g><g
       id="g126"
       transform="translate(267.183,609.517)"><path
         d="M 0,0 H 2.384 C 2.352,0.323 2.261,0.566 2.111,0.727 1.88,0.978 1.581,1.103 1.214,1.103 0.882,1.103 0.602,1.003 0.376,0.803 0.149,0.603 0.024,0.335 0,0 M 2.377,-1.103 3.039,-1.21 C 2.926,-1.616 2.717,-1.931 2.411,-2.155 2.105,-2.379 1.714,-2.491 1.239,-2.491 c -0.599,0 -1.074,0.179 -1.425,0.538 -0.351,0.359 -0.526,0.862 -0.526,1.51 0,0.67 0.177,1.19 0.532,1.56 0.354,0.371 0.814,0.556 1.379,0.556 0.547,0 0.994,-0.18 1.341,-0.541 C 2.887,0.771 3.061,0.264 3.061,-0.39 L 3.057,-0.569 h -3.093 c 0.027,-0.437 0.159,-0.772 0.397,-1.005 0.239,-0.232 0.536,-0.348 0.892,-0.348 0.265,0 0.491,0.065 0.678,0.195 0.187,0.131 0.336,0.338 0.446,0.624 m -4.034,0.178 0.676,-0.107 c -0.074,-0.456 -0.263,-0.814 -0.566,-1.072 -0.304,-0.258 -0.676,-0.387 -1.118,-0.387 -0.554,0 -0.999,0.178 -1.335,0.534 -0.337,0.357 -0.505,0.868 -0.505,1.533 0,0.43 0.072,0.806 0.214,1.129 0.144,0.323 0.361,0.565 0.653,0.726 0.293,0.161 0.611,0.242 0.955,0.242 0.434,0 0.789,-0.108 1.065,-0.325 0.275,-0.216 0.452,-0.523 0.53,-0.921 L -1.764,0.32 c -0.063,0.26 -0.174,0.456 -0.334,0.587 -0.159,0.131 -0.352,0.196 -0.578,0.196 -0.341,0 -0.619,-0.121 -0.832,-0.362 -0.214,-0.242 -0.32,-0.624 -0.32,-1.146 0,-0.531 0.105,-0.916 0.315,-1.156 0.211,-0.241 0.487,-0.361 0.826,-0.361 0.273,0 0.5,0.082 0.683,0.244 0.182,0.163 0.298,0.414 0.347,0.753 M -6.866,-2.42 v 4.022 h 0.569 V 0.966 c 0.156,0.288 0.3,0.477 0.432,0.569 0.132,0.092 0.278,0.138 0.436,0.138 0.229,0 0.462,-0.069 0.698,-0.206 L -4.967,0.839 C -5.127,0.92 -5.288,0.961 -5.449,0.961 -5.592,0.961 -5.721,0.917 -5.836,0.828 -5.95,0.739 -6.032,0.615 -6.08,0.457 -6.154,0.217 -6.19,-0.046 -6.19,-0.331 V -2.42 Z m -3.831,2.012 c 0,-0.506 0.113,-0.884 0.339,-1.136 0.226,-0.252 0.511,-0.378 0.855,-0.378 0.341,0 0.624,0.127 0.85,0.379 0.227,0.254 0.34,0.639 0.34,1.158 0,0.489 -0.114,0.859 -0.341,1.111 -0.228,0.252 -0.511,0.377 -0.849,0.377 -0.344,0 -0.629,-0.125 -0.855,-0.376 -0.226,-0.25 -0.339,-0.628 -0.339,-1.135 m -0.677,-0.001 c 0,0.738 0.206,1.284 0.616,1.639 0.343,0.295 0.761,0.443 1.255,0.443 0.548,0 0.996,-0.18 1.344,-0.538 0.348,-0.359 0.522,-0.855 0.522,-1.488 0,-0.513 -0.077,-0.916 -0.231,-1.21 -0.154,-0.294 -0.378,-0.522 -0.672,-0.685 -0.294,-0.162 -0.615,-0.243 -0.963,-0.243 -0.559,0 -1.01,0.178 -1.355,0.536 -0.344,0.358 -0.516,0.873 -0.516,1.546 m -1.789,-2.011 v 3.488 h -0.57 v 0.534 h 0.57 v 0.422 c 0,0.266 0.024,0.464 0.071,0.593 0.066,0.174 0.181,0.316 0.346,0.424 0.165,0.108 0.396,0.162 0.693,0.162 0.191,0 0.402,-0.023 0.633,-0.069 l -0.102,-0.608 c -0.14,0.024 -0.274,0.037 -0.399,0.037 -0.207,0 -0.352,-0.043 -0.438,-0.128 -0.085,-0.085 -0.128,-0.244 -0.128,-0.477 V 1.602 h 0.783 V 1.068 h -0.783 V -2.42 Z m -6.138,2.072 c 0,-0.522 0.103,-0.903 0.309,-1.143 0.207,-0.24 0.465,-0.36 0.775,-0.36 0.308,0 0.566,0.12 0.774,0.359 0.209,0.238 0.313,0.612 0.313,1.122 0,0.487 -0.107,0.855 -0.322,1.102 -0.214,0.248 -0.473,0.371 -0.776,0.371 -0.298,0 -0.551,-0.122 -0.76,-0.366 -0.209,-0.243 -0.313,-0.605 -0.313,-1.085 m -0.569,-2.357 0.676,-0.107 c 0.028,-0.205 0.104,-0.355 0.229,-0.449 0.167,-0.128 0.395,-0.191 0.684,-0.191 0.312,0 0.553,0.06 0.723,0.182 0.169,0.121 0.284,0.29 0.344,0.508 0.035,0.134 0.051,0.414 0.049,0.84 -0.294,-0.332 -0.66,-0.498 -1.098,-0.498 -0.545,0 -0.967,0.198 -1.266,0.595 -0.299,0.398 -0.448,0.874 -0.448,1.429 0,0.381 0.068,0.734 0.203,1.057 0.136,0.323 0.332,0.572 0.59,0.748 0.258,0.176 0.56,0.264 0.908,0.264 0.464,0 0.846,-0.19 1.146,-0.57 v 0.499 h 0.641 v -3.458 c 0,-0.623 -0.063,-1.064 -0.19,-1.324 -0.126,-0.26 -0.326,-0.465 -0.601,-0.615 -0.274,-0.151 -0.612,-0.227 -1.012,-0.227 -0.476,0 -0.861,0.11 -1.154,0.329 -0.293,0.219 -0.434,0.548 -0.424,0.988 m -4.136,0.285 v 4.022 h 0.605 v -0.57 c 0.293,0.427 0.716,0.641 1.27,0.641 0.24,0 0.461,-0.044 0.663,-0.13 0.202,-0.087 0.352,-0.201 0.453,-0.342 0.1,-0.14 0.17,-0.307 0.21,-0.501 0.025,-0.125 0.038,-0.345 0.038,-0.659 V -2.42 h -0.677 v 2.423 c 0,0.275 -0.026,0.481 -0.079,0.617 -0.052,0.136 -0.145,0.245 -0.279,0.326 -0.134,0.081 -0.29,0.122 -0.47,0.122 -0.288,0 -0.536,-0.092 -0.745,-0.274 -0.209,-0.183 -0.313,-0.529 -0.313,-1.039 V -2.42 Z m -1.719,4.022 h 0.676 V -2.42 h -0.676 z m 0,1.53 h 0.676 V 2.385 h -0.676 z m -0.691,-4.962 0.107,-0.6 c -0.192,-0.041 -0.364,-0.061 -0.515,-0.061 -0.247,0 -0.438,0.039 -0.574,0.118 -0.136,0.078 -0.232,0.181 -0.288,0.309 -0.055,0.129 -0.083,0.398 -0.083,0.808 v 2.324 h -0.498 v 0.534 h 0.498 v 0.991 l 0.677,0.408 V 1.602 h 0.676 V 1.068 h -0.676 v -2.36 c 0,-0.195 0.011,-0.321 0.035,-0.376 l 0.116,-0.133 0.229,-0.05 c 0.075,0 0.174,0.007 0.296,0.021 m -3.12,1.439 c -0.251,-0.101 -0.627,-0.186 -1.128,-0.256 -0.284,-0.041 -0.485,-0.086 -0.603,-0.136 -0.118,-0.05 -0.209,-0.123 -0.273,-0.22 -0.064,-0.097 -0.095,-0.204 -0.095,-0.322 0,-0.181 0.069,-0.331 0.208,-0.452 0.14,-0.12 0.343,-0.18 0.611,-0.18 0.266,0 0.502,0.055 0.709,0.167 0.207,0.112 0.359,0.268 0.456,0.467 0.074,0.154 0.111,0.381 0.111,0.682 z m 0.036,-1.531 c -0.244,-0.208 -0.481,-0.355 -0.711,-0.441 -0.231,-0.085 -0.478,-0.128 -0.743,-0.128 -0.436,0 -0.771,0.107 -1.006,0.322 -0.234,0.215 -0.352,0.49 -0.352,0.825 0,0.196 0.045,0.375 0.133,0.537 0.089,0.163 0.205,0.293 0.349,0.39 0.144,0.099 0.306,0.173 0.486,0.224 0.132,0.035 0.332,0.069 0.6,0.101 0.545,0.066 0.946,0.144 1.204,0.234 l 0.004,0.172 c 0,0.268 -0.063,0.457 -0.19,0.566 -0.172,0.149 -0.428,0.223 -0.767,0.223 -0.316,0 -0.55,-0.057 -0.701,-0.172 -0.151,-0.115 -0.262,-0.318 -0.335,-0.611 l -0.676,0.107 c 0.06,0.287 0.159,0.519 0.297,0.695 0.138,0.177 0.337,0.313 0.598,0.408 0.261,0.095 0.562,0.143 0.906,0.143 0.341,0 0.617,-0.041 0.83,-0.122 0.213,-0.082 0.37,-0.184 0.47,-0.307 0.1,-0.124 0.171,-0.279 0.211,-0.467 0.022,-0.117 0.034,-0.324 0.034,-0.622 v -0.893 c 0,-0.624 0.014,-1.021 0.042,-1.192 0.029,-0.17 0.086,-0.334 0.171,-0.49 h -0.676 c -0.092,0.142 -0.152,0.308 -0.178,0.498 m -5.173,-0.498 v 4.022 h 0.569 V 0.966 c 0.156,0.288 0.3,0.477 0.432,0.569 0.132,0.092 0.278,0.138 0.436,0.138 0.229,0 0.462,-0.069 0.698,-0.206 l -0.236,-0.628 c -0.16,0.081 -0.321,0.122 -0.482,0.122 -0.143,0 -0.272,-0.044 -0.387,-0.133 -0.114,-0.089 -0.195,-0.213 -0.244,-0.371 -0.073,-0.24 -0.11,-0.503 -0.11,-0.788 V -2.42 Z M -38.542,0 h 2.384 c -0.032,0.323 -0.123,0.566 -0.273,0.727 -0.231,0.251 -0.53,0.376 -0.897,0.376 -0.332,0 -0.612,-0.1 -0.838,-0.3 -0.227,-0.2 -0.352,-0.468 -0.376,-0.803 m 2.377,-1.103 0.663,-0.107 c -0.114,-0.406 -0.323,-0.721 -0.629,-0.945 -0.306,-0.224 -0.696,-0.336 -1.172,-0.336 -0.599,0 -1.074,0.179 -1.425,0.538 -0.351,0.359 -0.526,0.862 -0.526,1.51 0,0.67 0.177,1.19 0.532,1.56 0.355,0.371 0.814,0.556 1.379,0.556 0.548,0 0.995,-0.18 1.341,-0.541 0.347,-0.361 0.521,-0.868 0.521,-1.522 l -0.004,-0.179 h -3.093 c 0.027,-0.437 0.159,-0.772 0.397,-1.005 0.239,-0.232 0.536,-0.348 0.892,-0.348 0.265,0 0.491,0.065 0.678,0.195 0.188,0.131 0.336,0.338 0.446,0.624 m -4.523,4.235 h 0.676 V -2.42 h -0.676 z M -44.483,0 h 2.384 c -0.032,0.323 -0.123,0.566 -0.273,0.727 -0.231,0.251 -0.53,0.376 -0.897,0.376 -0.332,0 -0.612,-0.1 -0.838,-0.3 -0.227,-0.2 -0.352,-0.468 -0.376,-0.803 m 2.376,-1.103 0.663,-0.107 c -0.113,-0.406 -0.322,-0.721 -0.628,-0.945 -0.306,-0.224 -0.697,-0.336 -1.172,-0.336 -0.599,0 -1.074,0.179 -1.425,0.538 -0.351,0.359 -0.526,0.862 -0.526,1.51 0,0.67 0.177,1.19 0.531,1.56 0.355,0.371 0.815,0.556 1.38,0.556 0.547,0 0.994,-0.18 1.341,-0.541 0.347,-0.361 0.52,-0.868 0.52,-1.522 l -0.003,-0.179 h -3.093 c 0.027,-0.437 0.159,-0.772 0.397,-1.005 0.238,-0.232 0.536,-0.348 0.892,-0.348 0.265,0 0.491,0.065 0.678,0.195 0.187,0.131 0.336,0.338 0.445,0.624 m -4.034,0.178 0.677,-0.107 c -0.074,-0.456 -0.263,-0.814 -0.566,-1.072 -0.304,-0.258 -0.676,-0.387 -1.118,-0.387 -0.554,0 -0.999,0.178 -1.335,0.534 -0.337,0.357 -0.505,0.868 -0.505,1.533 0,0.43 0.072,0.806 0.214,1.129 0.143,0.323 0.361,0.565 0.653,0.726 0.293,0.161 0.611,0.242 0.954,0.242 0.435,0 0.79,-0.108 1.065,-0.325 0.276,-0.216 0.453,-0.523 0.531,-0.921 L -46.247,0.32 c -0.063,0.26 -0.174,0.456 -0.334,0.587 -0.159,0.131 -0.352,0.196 -0.578,0.196 -0.341,0 -0.619,-0.121 -0.832,-0.362 -0.214,-0.242 -0.321,-0.624 -0.321,-1.146 0,-0.531 0.106,-0.916 0.316,-1.156 0.211,-0.241 0.486,-0.361 0.826,-0.361 0.273,0 0.5,0.082 0.682,0.244 0.183,0.163 0.299,0.414 0.347,0.753 m -3.863,0 0.676,-0.107 c -0.074,-0.456 -0.263,-0.814 -0.566,-1.072 -0.304,-0.258 -0.676,-0.387 -1.118,-0.387 -0.554,0 -0.999,0.178 -1.335,0.534 -0.337,0.357 -0.505,0.868 -0.505,1.533 0,0.43 0.072,0.806 0.214,1.129 0.144,0.323 0.361,0.565 0.653,0.726 0.293,0.161 0.611,0.242 0.955,0.242 0.434,0 0.789,-0.108 1.065,-0.325 0.275,-0.216 0.452,-0.523 0.53,-0.921 L -50.111,0.32 c -0.063,0.26 -0.174,0.456 -0.334,0.587 -0.159,0.131 -0.352,0.196 -0.578,0.196 -0.341,0 -0.619,-0.121 -0.832,-0.362 -0.214,-0.242 -0.32,-0.624 -0.32,-1.146 0,-0.531 0.105,-0.916 0.315,-1.156 0.211,-0.241 0.487,-0.361 0.826,-0.361 0.273,0 0.5,0.082 0.683,0.244 0.182,0.163 0.298,0.414 0.347,0.753 m -6.748,0.783 h 1.932 l -0.568,1.544 c -0.194,0.458 -0.337,0.845 -0.427,1.161 -0.082,-0.379 -0.194,-0.74 -0.338,-1.085 z m -1.578,-2.278 2.111,5.552 h 0.798 l 2.232,-5.552 h -0.793 l -0.615,1.673 h -2.365 l -0.58,-1.673"
         style="fill:#231f20;fill-opacity:1;fill-rule:nonzero;stroke:none"
         id="path128"
         inkscape:connector-curvature="0" /></g><g
       id="g130"
       transform="translate(269.292,596.667)"><path
         d="M 0,0 H -0.498 C 0.285,1.209 0.677,2.419 0.677,3.63 0.677,4.104 0.62,4.573 0.508,5.039 0.419,5.417 0.294,5.781 0.134,6.127 0.033,6.354 -0.178,6.732 -0.498,7.261 H 0 C 0.478,6.628 0.831,5.994 1.059,5.356 1.255,4.808 1.353,4.234 1.353,3.634 1.353,2.954 1.222,2.297 0.959,1.662 0.696,1.027 0.376,0.474 0,0 m -2.158,7.19 h 0.676 V 1.638 H -2.158 Z M -3.818,3.666 C -4.069,3.565 -4.446,3.48 -4.947,3.41 -5.231,3.37 -5.432,3.324 -5.55,3.274 -5.668,3.224 -5.758,3.151 -5.823,3.054 -5.886,2.957 -5.918,2.85 -5.918,2.732 -5.918,2.552 -5.849,2.401 -5.71,2.281 -5.57,2.16 -5.367,2.1 -5.098,2.1 c 0.265,0 0.502,0.056 0.709,0.168 0.206,0.112 0.358,0.267 0.455,0.466 0.074,0.154 0.111,0.381 0.111,0.682 z M -3.783,2.135 C -4.026,1.927 -4.263,1.781 -4.494,1.694 -4.725,1.609 -4.972,1.566 -5.236,1.566 c -0.437,0 -0.772,0.107 -1.007,0.323 -0.234,0.215 -0.351,0.491 -0.351,0.824 0,0.196 0.044,0.375 0.133,0.537 0.088,0.164 0.205,0.294 0.348,0.391 0.144,0.098 0.306,0.172 0.486,0.223 0.133,0.035 0.333,0.069 0.6,0.102 0.545,0.065 0.947,0.143 1.204,0.234 l 0.005,0.172 c 0,0.268 -0.064,0.456 -0.191,0.566 -0.172,0.148 -0.428,0.223 -0.766,0.223 -0.317,0 -0.551,-0.057 -0.702,-0.173 C -5.628,4.873 -5.739,4.67 -5.811,4.378 l -0.677,0.106 c 0.06,0.287 0.159,0.519 0.297,0.696 0.138,0.176 0.338,0.312 0.598,0.407 0.261,0.095 0.563,0.143 0.906,0.143 0.341,0 0.618,-0.04 0.83,-0.122 0.213,-0.081 0.37,-0.184 0.47,-0.306 0.101,-0.124 0.171,-0.28 0.211,-0.468 0.023,-0.116 0.034,-0.324 0.034,-0.621 V 3.319 c 0,-0.623 0.014,-1.02 0.043,-1.191 0.029,-0.171 0.086,-0.334 0.17,-0.49 h -0.676 c -0.092,0.141 -0.151,0.307 -0.178,0.497 m -6.919,-0.497 v 4.021 h 0.605 v -0.57 c 0.293,0.429 0.717,0.641 1.271,0.641 0.24,0 0.461,-0.043 0.663,-0.13 0.201,-0.087 0.352,-0.201 0.452,-0.342 0.1,-0.14 0.17,-0.307 0.21,-0.5 0.026,-0.126 0.038,-0.346 0.038,-0.659 V 1.638 H -8.139 V 4.06 c 0,0.276 -0.026,0.481 -0.079,0.617 -0.052,0.136 -0.145,0.245 -0.279,0.326 -0.134,0.081 -0.291,0.122 -0.471,0.122 -0.287,0 -0.535,-0.091 -0.744,-0.274 -0.209,-0.182 -0.313,-0.528 -0.313,-1.039 V 1.638 Z m -3.831,2.013 c 0,-0.507 0.113,-0.886 0.34,-1.138 0.226,-0.252 0.511,-0.378 0.854,-0.378 0.341,0 0.625,0.128 0.851,0.38 0.227,0.253 0.34,0.639 0.34,1.157 0,0.489 -0.114,0.859 -0.342,1.112 -0.227,0.251 -0.51,0.377 -0.849,0.377 -0.343,0 -0.628,-0.126 -0.854,-0.376 -0.227,-0.251 -0.34,-0.629 -0.34,-1.134 m -0.676,-0.003 c 0,0.738 0.205,1.284 0.616,1.639 0.343,0.296 0.761,0.443 1.254,0.443 0.549,0 0.997,-0.178 1.345,-0.538 0.348,-0.359 0.522,-0.855 0.522,-1.488 0,-0.512 -0.077,-0.915 -0.231,-1.21 -0.154,-0.293 -0.378,-0.522 -0.673,-0.684 -0.294,-0.163 -0.615,-0.244 -0.963,-0.244 -0.558,0 -1.009,0.179 -1.354,0.536 -0.344,0.359 -0.516,0.873 -0.516,1.546 m -1.421,2.011 h 0.676 V 1.638 h -0.676 z m 0,1.531 h 0.676 V 6.442 h -0.676 z m -0.68,-4.963 0.107,-0.599 c -0.191,-0.041 -0.363,-0.062 -0.514,-0.062 -0.247,0 -0.439,0.039 -0.575,0.119 -0.136,0.078 -0.231,0.182 -0.287,0.309 -0.055,0.128 -0.083,0.397 -0.083,0.808 v 2.323 h -0.498 v 0.534 h 0.498 v 0.992 l 0.676,0.407 V 5.659 h 0.676 V 5.125 h -0.676 V 2.766 c 0,-0.196 0.012,-0.321 0.036,-0.377 l 0.116,-0.133 0.229,-0.049 c 0.075,0 0.174,0.007 0.295,0.02 m -3.18,1.439 C -20.741,3.565 -21.117,3.48 -21.619,3.41 -21.903,3.37 -22.104,3.324 -22.222,3.274 -22.339,3.224 -22.43,3.151 -22.494,3.054 -22.558,2.957 -22.59,2.85 -22.59,2.732 c 0,-0.18 0.07,-0.331 0.209,-0.451 0.139,-0.121 0.343,-0.181 0.611,-0.181 0.266,0 0.502,0.056 0.709,0.168 0.207,0.112 0.359,0.267 0.456,0.466 0.074,0.154 0.111,0.381 0.111,0.682 z m 0.036,-1.531 c -0.244,-0.208 -0.481,-0.354 -0.712,-0.441 -0.23,-0.085 -0.478,-0.128 -0.742,-0.128 -0.436,0 -0.772,0.107 -1.006,0.323 -0.235,0.215 -0.352,0.491 -0.352,0.824 0,0.196 0.044,0.375 0.133,0.537 0.089,0.164 0.205,0.294 0.349,0.391 0.144,0.098 0.306,0.172 0.486,0.223 0.132,0.035 0.332,0.069 0.6,0.102 0.545,0.065 0.946,0.143 1.204,0.234 l 0.004,0.172 c 0,0.268 -0.063,0.456 -0.191,0.566 -0.172,0.148 -0.427,0.223 -0.766,0.223 -0.316,0 -0.55,-0.057 -0.701,-0.173 -0.151,-0.115 -0.263,-0.318 -0.335,-0.61 l -0.676,0.106 c 0.06,0.287 0.159,0.519 0.297,0.696 0.138,0.176 0.337,0.312 0.598,0.407 0.26,0.095 0.562,0.143 0.906,0.143 0.34,0 0.617,-0.04 0.83,-0.122 0.213,-0.081 0.37,-0.184 0.47,-0.306 0.1,-0.124 0.17,-0.28 0.21,-0.468 0.023,-0.116 0.034,-0.324 0.034,-0.621 V 3.319 c 0,-0.623 0.015,-1.02 0.043,-1.191 0.029,-0.171 0.086,-0.334 0.171,-0.49 h -0.676 c -0.093,0.141 -0.152,0.307 -0.178,0.497 m -3.278,0.092 0.107,-0.599 c -0.191,-0.041 -0.363,-0.062 -0.514,-0.062 -0.247,0 -0.438,0.039 -0.575,0.119 -0.136,0.078 -0.231,0.182 -0.287,0.309 -0.055,0.128 -0.083,0.397 -0.083,0.808 v 2.323 h -0.498 v 0.534 h 0.498 v 0.992 l 0.676,0.407 V 5.659 h 0.676 V 5.125 h -0.676 V 2.766 c 0,-0.196 0.012,-0.321 0.036,-0.377 l 0.116,-0.133 0.229,-0.049 c 0.075,0 0.174,0.007 0.295,0.02 m -3.165,3.432 h 0.676 V 1.638 h -0.676 z m 0,1.531 h 0.676 V 6.442 h -0.676 z m -2.805,-5.552 -1.502,4.021 h 0.72 l 0.857,-2.409 c 0.093,-0.26 0.178,-0.53 0.256,-0.81 0.06,0.212 0.144,0.467 0.251,0.765 l 0.862,2.454 h 0.72 l -1.447,-4.021 z m -2.735,2.028 C -32.688,3.565 -33.064,3.48 -33.566,3.41 -33.85,3.37 -34.051,3.324 -34.169,3.274 c -0.117,-0.05 -0.208,-0.123 -0.272,-0.22 -0.064,-0.097 -0.096,-0.204 -0.096,-0.322 0,-0.18 0.07,-0.331 0.209,-0.451 0.139,-0.121 0.343,-0.181 0.611,-0.181 0.266,0 0.502,0.056 0.709,0.168 0.207,0.112 0.358,0.267 0.455,0.466 0.074,0.154 0.111,0.381 0.111,0.682 z m 0.035,-1.531 c -0.243,-0.208 -0.48,-0.354 -0.711,-0.441 -0.23,-0.085 -0.478,-0.128 -0.742,-0.128 -0.437,0 -0.772,0.107 -1.007,0.323 -0.234,0.215 -0.351,0.491 -0.351,0.824 0,0.196 0.044,0.375 0.133,0.537 0.089,0.164 0.205,0.294 0.348,0.391 0.144,0.098 0.306,0.172 0.486,0.223 0.133,0.035 0.333,0.069 0.6,0.102 0.545,0.065 0.947,0.143 1.204,0.234 l 0.005,0.172 c 0,0.268 -0.064,0.456 -0.191,0.566 -0.172,0.148 -0.427,0.223 -0.766,0.223 -0.317,0 -0.551,-0.057 -0.701,-0.173 -0.151,-0.115 -0.263,-0.318 -0.335,-0.61 l -0.676,0.106 c 0.06,0.287 0.159,0.519 0.297,0.696 0.137,0.176 0.337,0.312 0.597,0.407 0.261,0.095 0.563,0.143 0.906,0.143 0.341,0 0.618,-0.04 0.831,-0.122 0.213,-0.081 0.369,-0.184 0.469,-0.306 0.101,-0.124 0.171,-0.28 0.211,-0.468 0.023,-0.116 0.034,-0.324 0.034,-0.621 V 3.319 c 0,-0.623 0.014,-1.02 0.043,-1.191 0.029,-0.171 0.086,-0.334 0.171,-0.49 h -0.677 c -0.092,0.141 -0.151,0.307 -0.178,0.497 m -5.201,-0.497 v 4.021 h 0.57 V 5.023 c 0.156,0.288 0.3,0.478 0.432,0.569 0.132,0.093 0.277,0.138 0.436,0.138 0.229,0 0.461,-0.068 0.698,-0.206 l -0.236,-0.628 c -0.16,0.083 -0.321,0.122 -0.482,0.122 -0.143,0 -0.273,-0.044 -0.387,-0.133 -0.114,-0.088 -0.196,-0.213 -0.245,-0.371 -0.073,-0.24 -0.109,-0.503 -0.109,-0.788 V 1.638 Z m -3.898,2.073 c 0,-0.523 0.103,-0.904 0.309,-1.145 0.206,-0.238 0.464,-0.359 0.775,-0.359 0.307,0 0.565,0.119 0.774,0.358 0.208,0.238 0.313,0.613 0.313,1.123 0,0.487 -0.108,0.854 -0.322,1.101 -0.215,0.248 -0.474,0.372 -0.777,0.372 -0.298,0 -0.551,-0.122 -0.76,-0.366 -0.208,-0.243 -0.312,-0.605 -0.312,-1.084 m -0.57,-2.359 0.676,-0.106 c 0.028,-0.206 0.104,-0.356 0.229,-0.449 0.167,-0.128 0.395,-0.192 0.685,-0.192 0.312,0 0.553,0.061 0.722,0.182 0.17,0.122 0.285,0.291 0.345,0.51 0.035,0.132 0.051,0.412 0.048,0.838 -0.293,-0.332 -0.659,-0.497 -1.098,-0.497 -0.545,0 -0.967,0.198 -1.266,0.595 -0.298,0.397 -0.448,0.873 -0.448,1.428 0,0.383 0.068,0.734 0.203,1.057 0.136,0.323 0.333,0.572 0.59,0.748 0.258,0.177 0.561,0.264 0.909,0.264 0.463,0 0.845,-0.19 1.146,-0.569 v 0.498 h 0.64 V 2.201 c 0,-0.622 -0.063,-1.063 -0.189,-1.323 -0.127,-0.26 -0.327,-0.466 -0.601,-0.615 -0.275,-0.151 -0.612,-0.227 -1.013,-0.227 -0.476,0 -0.86,0.109 -1.153,0.328 -0.293,0.219 -0.435,0.548 -0.425,0.988 m -2.663,2.599 h 2.1 V 3.31 h -2.1 z m -3.999,-2.313 v 4.021 h 0.605 v -0.57 c 0.293,0.429 0.717,0.641 1.271,0.641 0.24,0 0.461,-0.043 0.663,-0.13 0.201,-0.087 0.352,-0.201 0.452,-0.342 0.1,-0.14 0.17,-0.307 0.21,-0.5 0.026,-0.126 0.038,-0.346 0.038,-0.659 V 1.638 H -46.17 V 4.06 c 0,0.276 -0.026,0.481 -0.079,0.617 -0.052,0.136 -0.145,0.245 -0.279,0.326 -0.134,0.081 -0.291,0.122 -0.471,0.122 -0.287,0 -0.536,-0.091 -0.744,-0.274 -0.209,-0.182 -0.313,-0.528 -0.313,-1.039 V 1.638 Z m -3.892,2.013 c 0,-0.507 0.113,-0.886 0.34,-1.138 0.226,-0.252 0.511,-0.378 0.854,-0.378 0.341,0 0.625,0.128 0.851,0.38 0.227,0.253 0.34,0.639 0.34,1.157 0,0.489 -0.114,0.859 -0.342,1.112 -0.227,0.251 -0.51,0.377 -0.849,0.377 -0.343,0 -0.628,-0.126 -0.854,-0.376 -0.227,-0.251 -0.34,-0.629 -0.34,-1.134 m -0.676,-0.003 c 0,0.738 0.205,1.284 0.616,1.639 0.343,0.296 0.761,0.443 1.254,0.443 0.549,0 0.997,-0.178 1.345,-0.538 0.348,-0.359 0.522,-0.855 0.522,-1.488 0,-0.512 -0.077,-0.915 -0.231,-1.21 -0.154,-0.293 -0.378,-0.522 -0.673,-0.684 -0.294,-0.163 -0.615,-0.244 -0.963,-0.244 -0.558,0 -1.009,0.179 -1.354,0.536 -0.344,0.359 -0.516,0.873 -0.516,1.546 m -4.036,-2.01 v 4.021 h 0.605 v -0.57 c 0.293,0.429 0.716,0.641 1.27,0.641 0.241,0 0.462,-0.043 0.663,-0.13 0.202,-0.087 0.353,-0.201 0.453,-0.342 0.1,-0.14 0.17,-0.307 0.21,-0.5 0.025,-0.126 0.038,-0.346 0.038,-0.659 V 1.638 h -0.676 V 4.06 c 0,0.276 -0.027,0.481 -0.079,0.617 -0.053,0.136 -0.146,0.245 -0.279,0.326 -0.134,0.081 -0.291,0.122 -0.471,0.122 -0.288,0 -0.536,-0.091 -0.745,-0.274 -0.208,-0.182 -0.313,-0.528 -0.313,-1.039 V 1.638 Z M -58.618,0 c -0.379,0.474 -0.699,1.027 -0.961,1.662 -0.261,0.635 -0.392,1.292 -0.392,1.972 0,0.6 0.098,1.174 0.294,1.722 0.228,0.638 0.581,1.272 1.059,1.905 h 0.498 c -0.317,-0.524 -0.527,-0.898 -0.629,-1.122 -0.159,-0.348 -0.285,-0.711 -0.377,-1.087 -0.112,-0.472 -0.169,-0.946 -0.169,-1.422 0,-1.211 0.392,-2.421 1.175,-3.63"
         style="fill:#231f20;fill-opacity:1;fill-rule:nonzero;stroke:none"
         id="path132"
         inkscape:connector-curvature="0" /></g><g
       id="g134"
       transform="translate(283.662,607.981)"><path
         d="M 0,0 4.617,-2.308 0,-4.617 m -10.167,2.8 10.953,-0.098 v -0.786 l -10.953,0.098"
         style="fill:#100f0d;fill-opacity:1;fill-rule:nonzero;stroke:none"
         id="path136"
         inkscape:connector-curvature="0" /></g></g></svg>