<?xml version="1.0" encoding="UTF-8" standalone="no"?>
<!-- Created with Inkscape (http://www.inkscape.org/) -->

<svg
   xmlns:dc="http://purl.org/dc/elements/1.1/"
   xmlns:cc="http://creativecommons.org/ns#"
   xmlns:rdf="http://www.w3.org/1999/02/22-rdf-syntax-ns#"
   xmlns:svg="http://www.w3.org/2000/svg"
   xmlns="http://www.w3.org/2000/svg"
   xmlns:sodipodi="http://sodipodi.sourceforge.net/DTD/sodipodi-0.dtd"
   xmlns:inkscape="http://www.inkscape.org/namespaces/inkscape"
   version="1.1"
   id="svg2"
   xml:space="preserve"
   width="793.33331"
   height="1122.6667"
   viewBox="0 0 793.33331 1122.6667"
   sodipodi:docname="body_reference.svg"
   inkscape:version="0.92.2 (5c3e80d, 2017-08-06)"><metadata
     id="metadata8"><rdf:RDF><cc:Work
         rdf:about=""><dc:format>image/svg+xml</dc:format><dc:type
           rdf:resource="http://purl.org/dc/dcmitype/StillImage" /><dc:title></dc:title></cc:Work></rdf:RDF></metadata><defs
     id="defs6" /><sodipodi:namedview
     pagecolor="#ffffff"
     bordercolor="#666666"
     borderopacity="1"
     objecttolerance="10"
     gridtolerance="10"
     guidetolerance="10"
     inkscape:pageopacity="0"
     inkscape:pageshadow="2"
     inkscape:window-width="1680"
     inkscape:window-height="988"
     id="namedview4"
     showgrid="false"
     inkscape:zoom="0.21021376"
     inkscape:cx="396.66666"
     inkscape:cy="561.33337"
     inkscape:window-x="1358"
     inkscape:window-y="-8"
     inkscape:window-maximized="1"
     inkscape:current-layer="g10" /><g
     id="g10"
     inkscape:groupmode="layer"
     inkscape:label="A9R9008"
     transform="matrix(1.3333333,0,0,-1.3333333,0,1122.6667)"><g
       id="g12"
       transform="matrix(0.0722823,0.0293414,0.0242055,-0.0741707,0,0)"><g
         id="g14"
         transform="translate(6275.2402,-5948.6099)"><path
           d="M 0,0 -575.75,-311.88 -156.28,-657.63 421.08,-353.42 0.38,0.31 32.76,434.89 443.79,73.87 422.87,-353.44"
           style="fill:none;stroke:#000000;stroke-width:5.1329999;stroke-linecap:butt;stroke-linejoin:miter;stroke-miterlimit:10;stroke-dasharray:none;stroke-opacity:1"
           id="path16"
           inkscape:connector-curvature="0" /></g></g><g
       id="g18"
       transform="matrix(0.0722823,0.0293414,0.0242055,-0.0741707,0,0)"><g
         id="g20"
         transform="translate(6306.77,-5519.5601)"><path
           d="m 0,0 -581.56,-320.66 -26.77,-418.47"
           style="fill:none;stroke:#000000;stroke-width:5.1329999;stroke-linecap:butt;stroke-linejoin:miter;stroke-miterlimit:10;stroke-dasharray:none;stroke-opacity:1"
           id="path22"
           inkscape:connector-curvature="0" /></g></g><g
       id="g24"
       transform="scale(0.1)"><g
         id="g26"
         transform="translate(2944.8201,7423.8901)"><path
           d="M 0,0 V -743.03"
           style="fill:none;stroke:#000000;stroke-width:4;stroke-linecap:butt;stroke-linejoin:miter;stroke-miterlimit:10;stroke-dasharray:24, 24;stroke-dashoffset:0;stroke-opacity:1"
           id="path28"
           inkscape:connector-curvature="0" /></g></g><g
       id="g30"
       transform="scale(0.1)"><g
         id="g32"
         transform="translate(2944.8201,7442.3501)"><path
           d="M 0,0 16,-27.67 H -16 L 0,0"
           style="fill:#000000;fill-opacity:1;fill-rule:evenodd;stroke:none"
           id="path34"
           inkscape:connector-curvature="0" /></g></g><g
       id="g36"
       transform="scale(0.1)"><g
         id="g38"
         transform="translate(2944.8201,7442.3501)"><path
           d="M 0,0 16,-27.67 H -16 Z"
           style="fill:none;stroke:#000000;stroke-width:4;stroke-linecap:butt;stroke-linejoin:miter;stroke-miterlimit:10;stroke-dasharray:none;stroke-opacity:1"
           id="path40"
           inkscape:connector-curvature="0" /></g></g><g
       id="g42"
       transform="scale(0.1)"><g
         id="g44"
         transform="translate(2658.8201,6177.1802)"><path
           d="M 0,0 -579.45,-427.06"
           style="fill:none;stroke:#000000;stroke-width:4;stroke-linecap:butt;stroke-linejoin:miter;stroke-miterlimit:10;stroke-dasharray:24, 24;stroke-dashoffset:0;stroke-opacity:1"
           id="path46"
           inkscape:connector-curvature="0" /></g></g><g
       id="g48"
       transform="scale(0.1)"><g
         id="g50"
         transform="translate(2064.5,5739.1602)"><path
           d="M 0,0 12.79,29.3 31.78,3.54 0,0"
           style="fill:#000000;fill-opacity:1;fill-rule:evenodd;stroke:none"
           id="path52"
           inkscape:connector-curvature="0" /></g></g><g
       id="g54"
       transform="scale(0.1)"><g
         id="g56"
         transform="translate(2064.5,5739.1602)"><path
           d="M 0,0 12.79,29.3 31.78,3.54 Z"
           style="fill:none;stroke:#000000;stroke-width:4;stroke-linecap:butt;stroke-linejoin:miter;stroke-miterlimit:10;stroke-dasharray:none;stroke-opacity:1"
           id="path58"
           inkscape:connector-curvature="0" /></g></g><g
       id="g60"
       transform="scale(0.1)"><g
         id="g62"
         transform="translate(3319.73,6113)"><path
           d="M 0,0 488.85,-359.31"
           style="fill:none;stroke:#000000;stroke-width:4;stroke-linecap:butt;stroke-linejoin:miter;stroke-miterlimit:10;stroke-dasharray:24, 24;stroke-dashoffset:0;stroke-opacity:1"
           id="path64"
           inkscape:connector-curvature="0" /></g></g><g
       id="g66"
       transform="scale(0.1)"><g
         id="g68"
         transform="translate(3823.45,5742.75)"><path
           d="M 0,0 -31.77,3.5 -12.83,29.28 0,0"
           style="fill:#000000;fill-opacity:1;fill-rule:evenodd;stroke:none"
           id="path70"
           inkscape:connector-curvature="0" /></g></g><g
       id="g72"
       transform="scale(0.1)"><g
         id="g74"
         transform="translate(3823.45,5742.75)"><path
           d="m 0,0 -31.77,3.5 18.94,25.78 z"
           style="fill:none;stroke:#000000;stroke-width:4;stroke-linecap:butt;stroke-linejoin:miter;stroke-miterlimit:10;stroke-dasharray:none;stroke-opacity:1"
           id="path76"
           inkscape:connector-curvature="0" /></g></g><g
       id="g78"
       transform="scale(0.1)"><g
         id="g80"
         transform="translate(2825.4199,6695.3901)"><path
           d="M 0,0 -237.44,610.79"
           style="fill:none;stroke:#000000;stroke-width:4;stroke-linecap:butt;stroke-linejoin:miter;stroke-miterlimit:10;stroke-dasharray:none;stroke-opacity:1"
           id="path82"
           inkscape:connector-curvature="0" /></g></g><g
       id="g84"
       transform="scale(0.1)"><g
         id="g86"
         transform="translate(2581.29,7323.3799)"><path
           d="M 0,0 24.94,-19.99 -4.88,-31.59 0,0"
           style="fill:#000000;fill-opacity:1;fill-rule:evenodd;stroke:none"
           id="path88"
           inkscape:connector-curvature="0" /></g></g><g
       id="g90"
       transform="scale(0.1)"><g
         id="g92"
         transform="translate(2581.29,7323.3799)"><path
           d="M 0,0 24.94,-19.99 -4.88,-31.59 Z"
           style="fill:none;stroke:#000000;stroke-width:4;stroke-linecap:butt;stroke-linejoin:miter;stroke-miterlimit:10;stroke-dasharray:none;stroke-opacity:1"
           id="path94"
           inkscape:connector-curvature="0" /></g></g><g
       id="g96"
       transform="scale(0.1)"><g
         id="g98"
         transform="translate(3436.5901,6330.48)"><path
           d="M 0,0 426.87,-33.98"
           style="fill:none;stroke:#000000;stroke-width:4;stroke-linecap:butt;stroke-linejoin:miter;stroke-miterlimit:10;stroke-dasharray:none;stroke-opacity:1"
           id="path100"
           inkscape:connector-curvature="0" /></g></g><g
       id="g102"
       transform="scale(0.1)"><g
         id="g104"
         transform="translate(3881.8701,6295.04)"><path
           d="m 0,0 -28.86,-13.76 2.54,31.9 L 0,0"
           style="fill:#000000;fill-opacity:1;fill-rule:evenodd;stroke:none"
           id="path106"
           inkscape:connector-curvature="0" /></g></g><g
       id="g108"
       transform="scale(0.1)"><g
         id="g110"
         transform="translate(3881.8701,6295.04)"><path
           d="m 0,0 -28.86,-13.76 2.54,31.9 z"
           style="fill:none;stroke:#000000;stroke-width:4;stroke-linecap:butt;stroke-linejoin:miter;stroke-miterlimit:10;stroke-dasharray:none;stroke-opacity:1"
           id="path112"
           inkscape:connector-curvature="0" /></g></g><g
       id="g114"
       transform="scale(0.1)"><g
         id="g116"
         transform="translate(2724.8401,6010.3901)"><path
           d="M 0,0 -229.05,-390.82"
           style="fill:none;stroke:#000000;stroke-width:4;stroke-linecap:butt;stroke-linejoin:miter;stroke-miterlimit:10;stroke-dasharray:none;stroke-opacity:1"
           id="path118"
           inkscape:connector-curvature="0" /></g></g><g
       id="g120"
       transform="scale(0.1)"><g
         id="g122"
         transform="translate(2486.45,5603.6401)"><path
           d="M 0,0 0.19,31.97 27.79,15.79 0,0"
           style="fill:#000000;fill-opacity:1;fill-rule:evenodd;stroke:none"
           id="path124"
           inkscape:connector-curvature="0" /></g></g><g
       id="g126"
       transform="scale(0.1)"><g
         id="g128"
         transform="translate(2486.45,5603.6401)"><path
           d="M 0,0 0.19,31.97 27.79,15.79 Z"
           style="fill:none;stroke:#000000;stroke-width:4;stroke-linecap:butt;stroke-linejoin:miter;stroke-miterlimit:10;stroke-dasharray:none;stroke-opacity:1"
           id="path130"
           inkscape:connector-curvature="0" /></g></g><g
       id="g132"
       transform="scale(0.1)"><g
         id="g134"
         transform="translate(2659.6299,6385.1401)"><path
           d="m 0,0 -35.73,-58.06 7.51,-1.08 L 7.51,-1.08 0,0"
           style="fill:#000000;fill-opacity:1;fill-rule:nonzero;stroke:none"
           id="path136"
           inkscape:connector-curvature="0" /></g></g><g
       id="g138"
       transform="scale(0.1)"><g
         id="g140"
         transform="translate(2682.3701,6381.8799)"><path
           d="m 0,0 -35.73,-58.06 6.5,-0.93 32.13,52.2 -0.95,-7.15 -5.06,-48.8 10.43,-1.49 35.73,58.05 -6.51,0.94 -32.12,-52.2 0.95,7.15 L 10.43,-1.5 0,0"
           style="fill:#000000;fill-opacity:1;fill-rule:nonzero;stroke:none"
           id="path142"
           inkscape:connector-curvature="0" /></g></g><g
       id="g144"
       transform="scale(0.1)"><g
         id="g146"
         transform="translate(2764.3999,6360.2002)"><path
           d="m 0,0 5.44,6.77 c -2.34,2.7 -6.2,4.99 -11.22,5.98 l -1.58,0.23 c -2.59,0.37 -5.04,0.35 -7.68,-0.09 -7.61,-1.45 -15.82,-5.19 -21.32,-13.69 -5.21,-8.9 -2.09,-14.45 3.22,-17.49 l 5.45,-2.51 c 5.15,-2.1 8.08,-5.89 4.2,-12.8 -4.93,-7.12 -12.07,-10.01 -18.98,-9.29 -7.5,1.25 -11.45,5.01 -13.59,9.5 l -5.52,-6.76 c 3.11,-4.09 8.01,-7.34 15.56,-8.51 1.75,-0.25 3.6,-0.34 5.53,-0.16 9.03,1.26 18.03,5.7 24.19,15.1 5.95,10.71 2.44,16.95 -5.69,20.12 l -3.31,1.56 c -4.45,1.91 -7.24,5.05 -3.77,11.29 0.31,0.5 0.67,1.09 1.15,1.56 4.71,5.15 10.68,7.48 17.03,6.57 l 1.42,-0.2 C -4.4,6.27 -1.44,3.12 0,0"
           style="fill:#000000;fill-opacity:1;fill-rule:nonzero;stroke:none"
           id="path148"
           inkscape:connector-curvature="0" /></g></g><g
       id="g150"
       transform="scale(0.1)"><g
         id="g152"
         transform="translate(2842.8601,7517.4302)"><path
           d="M 0,0 V -5.21 H 21.66 L -1.2,-35.7 v -3.62 h 32.14 v 5.48 H 7.91 L 30.68,-3.53 V 0 L 0,0"
           style="fill:#000000;fill-opacity:1;fill-rule:nonzero;stroke:none"
           id="path154"
           inkscape:connector-curvature="0" /></g></g><g
       id="g156"
       transform="scale(0.1)"><g
         id="g158"
         transform="translate(2909.8,7447.73)"><path
           d="m 0,0 c -0.12,-1.02 -0.52,-1.68 -1.1,-2.21 -1.93,-1.68 -4.61,-2.34 -7.87,-2.4 -3.55,0.06 -7.22,1.02 -8.5,3.59 -0.76,2.75 1.05,4.85 3.44,5.15 h 5.3 C -4.83,4.19 -0.23,3.65 0,0 m -5.24,21.85 v -0.83 c -0.06,-2.88 -2.1,-5.51 -4.89,-5.51 h -0.29 c -3.55,-0.06 -5.36,3.05 -5.24,6.28 v 0.78 c 0.11,1.26 0.41,2.52 1.11,3.54 0.98,1.25 2.32,2.03 4.01,2.03 3.55,0.06 5.36,-3.05 5.3,-6.29 M -18.05,6.23 c -1.86,-1.02 -3.73,-3.48 -3.73,-6.17 0,-0.72 0.12,-1.44 0.41,-2.09 1.98,-4.08 6.87,-5.87 12.52,-5.99 2.68,0 5.36,0.48 7.45,1.43 l 1.05,0.54 c 2.21,1.32 4.37,3 4.43,6.17 -0.06,6.83 -6.41,8.44 -12.87,8.32 h -3.96 c -2.33,-0.36 -3.67,1.38 -3.67,3.17 0,0.25 0.06,0.48 0.06,0.66 0.11,0.54 0.35,1.02 0.58,1.56 l 1.05,-0.72 c 1.28,-0.72 2.73,-1.07 4.25,-1.07 5.36,0.29 9.14,3.94 9.32,9.75 0,2.58 -1,4.91 -2.27,6.41 l 0.52,-0.48 c 1.45,0.12 3.03,0.24 4.54,0.24 1.05,0 2.16,-0.06 3.26,-0.18 l -0.64,3.77 c -3.14,0 -6.23,-0.6 -9.14,-1.85 l 0.12,-0.12 c -1.4,1.07 -3.5,1.97 -5.71,1.97 -0.99,0 -1.98,-0.12 -2.91,-0.48 -3.55,-1.19 -6.29,-4.73 -6.35,-9.28 0,-2.39 0.82,-4.49 1.92,-5.92 V 15.81 C -19.8,13.65 -20.09,8.5 -18.05,6.23"
           style="fill:#000000;fill-opacity:1;fill-rule:nonzero;stroke:none"
           id="path160"
           inkscape:connector-curvature="0" /></g></g><g
       id="g162"
       transform="scale(0.1)"><g
         id="g164"
         transform="translate(2026.4301,5871.27)"><path
           d="M 0,0 16.32,-19 -0.43,-39.24 H 6.7 l 12.46,16.61 12.81,-16.61 H 39.1 L 22,-19 37.73,0.09 H 30.59 L 19.16,-14.58 7.21,0.09 0,0"
           style="fill:#000000;fill-opacity:1;fill-rule:nonzero;stroke:none"
           id="path166"
           inkscape:connector-curvature="0" /></g></g><g
       id="g168"
       transform="scale(0.1)"><g
         id="g170"
         transform="translate(2096.46,5801.6602)"><path
           d="m 0,0 c -0.12,-1.02 -0.52,-1.68 -1.1,-2.22 -1.93,-1.68 -4.61,-2.33 -7.86,-2.4 -3.56,0.07 -7.23,1.02 -8.51,3.6 -0.75,2.75 1.05,4.85 3.44,5.15 h 5.3 C -4.83,4.19 -0.23,3.65 0,0 M -5.24,21.85 V 21.01 C -5.3,18.14 -7.34,15.5 -10.13,15.5 h -0.29 c -3.55,-0.06 -5.36,3.05 -5.24,6.29 v 0.78 c 0.11,1.25 0.41,2.51 1.11,3.53 0.98,1.26 2.32,2.03 4.01,2.03 3.55,0.07 5.36,-3.05 5.3,-6.28 M -18.05,6.22 c -1.86,-1.02 -3.73,-3.47 -3.73,-6.17 0,-0.71 0.12,-1.43 0.41,-2.09 1.98,-4.07 6.87,-5.87 12.52,-5.99 2.68,0 5.36,0.48 7.45,1.44 l 1.05,0.54 c 2.21,1.32 4.37,2.99 4.43,6.16 -0.06,6.83 -6.41,8.44 -12.87,8.33 h -3.96 c -2.33,-0.36 -3.67,1.37 -3.67,3.17 0,0.24 0.06,0.48 0.06,0.66 0.11,0.54 0.35,1.02 0.58,1.55 l 1.05,-0.71 c 1.28,-0.72 2.74,-1.08 4.25,-1.08 5.36,0.3 9.14,3.95 9.32,9.76 0,2.57 -0.99,4.91 -2.27,6.41 l 0.52,-0.48 c 1.46,0.12 3.03,0.23 4.54,0.23 1.05,0 2.16,-0.06 3.26,-0.18 l -0.64,3.78 c -3.14,0 -6.23,-0.6 -9.14,-1.86 l 0.12,-0.12 c -1.4,1.08 -3.49,1.98 -5.71,1.98 -0.99,0 -1.98,-0.12 -2.91,-0.48 -3.55,-1.2 -6.29,-4.73 -6.35,-9.28 0,-2.4 0.82,-4.49 1.92,-5.93 V 15.8 c -1.98,-2.16 -2.26,-7.3 -0.23,-9.58"
           style="fill:#000000;fill-opacity:1;fill-rule:nonzero;stroke:none"
           id="path172"
           inkscape:connector-curvature="0" /></g></g><g
       id="g174"
       transform="scale(0.1)"><g
         id="g176"
         transform="translate(3756.46,6395.9102)"><path
           d="m 0,0 16.76,-39.06 c 0.09,-0.53 -0.34,-1.15 -0.51,-1.59 l -2.24,-5.74 c -0.94,-2.22 -1.97,-4.87 -4.12,-5.84 -1.89,-0.44 -3.87,0.09 -5.68,0.44 l -2.23,0.8 0.43,-5.75 c 1.72,-0.44 3.43,-0.62 5.07,-0.71 h 1.2 c 0.86,0 1.64,0 2.41,0.27 4.04,1.59 5.76,5.92 7.48,9.9 L 37.3,0 h -6.53 l -2.92,-7.51 c -2.67,-6.98 -5.42,-13.96 -7.48,-21.47 -0.51,-1.95 -1.03,-3.89 -1.03,-5.93 l -0.43,2.83 c -1.12,4.86 -2.83,9.28 -4.47,13.61 L 6.96,0 H 0"
           style="fill:#000000;fill-opacity:1;fill-rule:nonzero;stroke:none"
           id="path178"
           inkscape:connector-curvature="0" /></g></g><g
       id="g180"
       transform="scale(0.1)"><g
         id="g182"
         transform="translate(3825.8101,6344.8301)"><path
           d="m 0,0 v -0.96 c 0.12,-5.15 -2.74,-10.12 -8.09,-10.3 h -0.29 c -2.22,0 -3.55,0.96 -4.72,2.34 l -0.58,0.78 c -0.12,0.24 -0.29,0.47 -0.41,0.72 V 4.85 c 0,0.42 0.06,0.78 0.23,1.14 1.11,1.73 3.32,3.17 5.59,3.29 h 0.41 C -3.2,9.22 -0.06,5.09 0,0 m -6.29,-14.97 c 1.23,0 2.39,0.24 3.44,0.72 4.54,1.85 7.45,7.42 7.45,13.35 0,2.64 -0.52,5.27 -1.51,7.48 L 2.51,7.84 c -1.75,2.81 -3.91,5.45 -8.21,5.09 -3.61,-0.3 -6.35,-1.62 -8.56,-3.47 v 19.46 h -4.37 v -43.23 h 4.54 v 2.75 c 1.86,-1.79 4.42,-3.35 7.8,-3.41"
           style="fill:#000000;fill-opacity:1;fill-rule:nonzero;stroke:none"
           id="path184"
           inkscape:connector-curvature="0" /></g></g><g
       id="g186"
       transform="scale(0.1)"><g
         id="g188"
         transform="translate(3783.3799,5854.5898)"><path
           d="m 0,0 16.76,-39.06 c 0.08,-0.53 -0.35,-1.15 -0.52,-1.59 l -2.23,-5.74 c -0.95,-2.22 -1.98,-4.87 -4.13,-5.84 -1.89,-0.44 -3.87,0.09 -5.67,0.44 l -2.24,0.8 0.43,-5.75 c 1.72,-0.44 3.44,-0.62 5.07,-0.7 h 1.21 c 0.86,0 1.63,0 2.4,0.26 4.04,1.59 5.76,5.92 7.48,9.9 L 37.3,0 h -6.54 l -2.92,-7.51 c -2.66,-6.98 -5.41,-13.96 -7.47,-21.47 -0.52,-1.95 -1.04,-3.9 -1.04,-5.93 l -0.42,2.83 c -1.12,4.86 -2.84,9.28 -4.47,13.61 L 6.96,0 H 0"
           style="fill:#000000;fill-opacity:1;fill-rule:nonzero;stroke:none"
           id="path190"
           inkscape:connector-curvature="0" /></g></g><g
       id="g192"
       transform="scale(0.1)"><g
         id="g194"
         transform="translate(3852.73,5784.8901)"><path
           d="m 0,0 c -0.12,-1.02 -0.53,-1.68 -1.11,-2.22 -1.92,-1.67 -4.6,-2.33 -7.86,-2.39 -3.55,0.06 -7.22,1.02 -8.5,3.59 -0.76,2.75 1.04,4.85 3.43,5.15 h 5.3 C -4.84,4.19 -0.24,3.65 0,0 M -5.25,21.85 V 21.01 C -5.3,18.14 -7.34,15.5 -10.14,15.5 h -0.29 c -3.55,-0.05 -5.35,3.06 -5.24,6.29 v 0.78 c 0.12,1.26 0.41,2.51 1.11,3.53 0.99,1.26 2.33,2.04 4.02,2.04 3.55,0.06 5.35,-3.06 5.29,-6.29 M -18.05,6.22 c -1.87,-1.01 -3.73,-3.47 -3.73,-6.16 0,-0.72 0.12,-1.44 0.41,-2.1 1.98,-4.07 6.87,-5.87 12.52,-5.98 2.67,0 5.35,0.47 7.45,1.43 l 1.05,0.54 c 2.21,1.32 4.36,3 4.42,6.17 C 4.01,6.94 -2.34,8.56 -8.8,8.44 h -3.96 c -2.33,-0.36 -3.67,1.38 -3.67,3.17 0,0.24 0.06,0.48 0.06,0.66 0.12,0.54 0.35,1.02 0.59,1.56 l 1.05,-0.72 c 1.27,-0.72 2.73,-1.08 4.25,-1.08 5.35,0.3 9.14,3.96 9.31,9.76 0,2.57 -0.99,4.91 -2.27,6.41 l 0.52,-0.48 c 1.46,0.12 3.03,0.24 4.55,0.24 1.04,0 2.15,-0.06 3.26,-0.18 l -0.64,3.77 c -3.15,0 -6.23,-0.6 -9.14,-1.85 l 0.11,-0.13 c -1.4,1.08 -3.49,1.98 -5.7,1.98 -1,0 -1.98,-0.12 -2.92,-0.48 -3.55,-1.19 -6.29,-4.73 -6.34,-9.28 0,-2.39 0.81,-4.49 1.92,-5.93 V 15.81 C -19.8,13.65 -20.09,8.5 -18.05,6.22"
           style="fill:#000000;fill-opacity:1;fill-rule:nonzero;stroke:none"
           id="path196"
           inkscape:connector-curvature="0" /></g></g><g
       id="g198"
       transform="scale(0.1)"><g
         id="g200"
         transform="translate(2551.54,5648.5098)"><path
           d="M 0,0 16.34,-19 -0.43,-39.24 h 7.14 l 12.46,16.62 12.81,-16.62 h 7.13 L 22.01,-19 37.74,0.09 H 30.6 L 19.17,-14.58 7.23,0.09 0,0"
           style="fill:#000000;fill-opacity:1;fill-rule:nonzero;stroke:none"
           id="path202"
           inkscape:connector-curvature="0" /></g></g><g
       id="g204"
       transform="scale(0.1)"><g
         id="g206"
         transform="translate(2621.5801,5597.52)"><path
           d="m 0,0 v -0.96 c 0.12,-5.15 -2.74,-10.12 -8.09,-10.3 h -0.29 c -2.22,0 -3.56,0.96 -4.72,2.34 l -0.58,0.78 c -0.12,0.24 -0.29,0.48 -0.41,0.71 V 4.85 c 0,0.42 0.06,0.78 0.23,1.14 1.11,1.73 3.32,3.17 5.59,3.29 h 0.41 C -3.2,9.22 -0.06,5.09 0,0 m -6.29,-14.97 c 1.23,0 2.39,0.24 3.44,0.72 4.54,1.85 7.45,7.43 7.45,13.35 0,2.63 -0.52,5.27 -1.51,7.49 L 2.51,7.84 c -1.75,2.82 -3.91,5.45 -8.21,5.09 -3.61,-0.3 -6.35,-1.61 -8.56,-3.47 v 19.46 h -4.37 v -43.23 h 4.54 v 2.75 c 1.87,-1.79 4.43,-3.35 7.8,-3.41"
           style="fill:#000000;fill-opacity:1;fill-rule:nonzero;stroke:none"
           id="path208"
           inkscape:connector-curvature="0" /></g></g><g
       id="g210"
       transform="scale(0.1)"><g
         id="g212"
         transform="translate(2523.5,7423.46)"><path
           d="M 0,0 V -5.21 H 21.66 L -1.2,-35.7 v -3.63 h 32.14 v 5.48 H 7.91 L 30.68,-3.53 V 0 L 0,0"
           style="fill:#000000;fill-opacity:1;fill-rule:nonzero;stroke:none"
           id="path214"
           inkscape:connector-curvature="0" /></g></g><g
       id="g216"
       transform="scale(0.1)"><g
         id="g218"
         transform="translate(2590.45,7372.3799)"><path
           d="m 0,0 v -0.96 c 0.11,-5.15 -2.74,-10.12 -8.1,-10.3 h -0.29 c -2.21,0 -3.55,0.96 -4.72,2.34 l -0.58,0.77 c -0.12,0.25 -0.29,0.48 -0.41,0.72 V 4.85 c 0,0.42 0.06,0.78 0.24,1.14 1.1,1.73 3.32,3.17 5.59,3.29 h 0.4 C -3.21,9.22 -0.06,5.09 0,0 m -6.29,-14.97 c 1.22,0 2.38,0.24 3.43,0.72 4.54,1.85 7.45,7.42 7.45,13.35 0,2.63 -0.52,5.27 -1.51,7.48 L 2.5,7.84 c -1.75,2.82 -3.9,5.45 -8.21,5.09 -3.61,-0.3 -6.35,-1.61 -8.56,-3.47 v 19.46 h -4.37 v -43.23 h 4.54 v 2.75 c 1.86,-1.79 4.43,-3.35 7.81,-3.41"
           style="fill:#000000;fill-opacity:1;fill-rule:nonzero;stroke:none"
           id="path220"
           inkscape:connector-curvature="0" /></g></g></g></svg>