<?xml version="1.0" encoding="UTF-8" standalone="no"?>
<!-- Created with Inkscape (http://www.inkscape.org/) -->

<svg
   xmlns:dc="http://purl.org/dc/elements/1.1/"
   xmlns:cc="http://creativecommons.org/ns#"
   xmlns:rdf="http://www.w3.org/1999/02/22-rdf-syntax-ns#"
   xmlns:svg="http://www.w3.org/2000/svg"
   xmlns="http://www.w3.org/2000/svg"
   xmlns:sodipodi="http://sodipodi.sourceforge.net/DTD/sodipodi-0.dtd"
   xmlns:inkscape="http://www.inkscape.org/namespaces/inkscape"
   version="1.1"
   id="svg2"
   xml:space="preserve"
   width="793.33331"
   height="1122.6667"
   viewBox="0 0 793.33331 1122.6667"
   sodipodi:docname="gimbal_algorithm.svg"
   inkscape:version="0.92.2 (5c3e80d, 2017-08-06)"><metadata
     id="metadata8"><rdf:RDF><cc:Work
         rdf:about=""><dc:format>image/svg+xml</dc:format><dc:type
           rdf:resource="http://purl.org/dc/dcmitype/StillImage" /><dc:title></dc:title></cc:Work></rdf:RDF></metadata><defs
     id="defs6" /><sodipodi:namedview
     pagecolor="#ffffff"
     bordercolor="#666666"
     borderopacity="1"
     objecttolerance="10"
     gridtolerance="10"
     guidetolerance="10"
     inkscape:pageopacity="0"
     inkscape:pageshadow="2"
     inkscape:window-width="1920"
     inkscape:window-height="1018"
     id="namedview4"
     showgrid="false"
     inkscape:zoom="1.6817101"
     inkscape:cx="496.63512"
     inkscape:cy="465.4017"
     inkscape:window-x="-8"
     inkscape:window-y="-8"
     inkscape:window-maximized="1"
     inkscape:current-layer="g10" /><g
     id="g10"
     inkscape:groupmode="layer"
     inkscape:label="A9R3FD4"
     transform="matrix(1.3333333,0,0,-1.3333333,0,1122.6667)"><g
       id="g12"
       transform="scale(0.1)"><path
         d="m 2376.93,3528.88 h 464.23 v 474.078 h -464.23 z"
         style="fill:#ffffff;fill-opacity:1;fill-rule:evenodd;stroke:none"
         id="path14"
         inkscape:connector-curvature="0" /></g><g
       id="g16"
       transform="scale(0.1)"><path
         d="m 2376.93,3528.88 h 464.23 v 474.078 h -464.23 z"
         style="fill:none;stroke:#000000;stroke-width:5;stroke-linecap:butt;stroke-linejoin:miter;stroke-miterlimit:10;stroke-dasharray:none;stroke-opacity:1"
         id="path18"
         inkscape:connector-curvature="0" /></g><g
       id="g20"
       transform="scale(0.1)"><g
         id="g22"
         transform="translate(2475.49,3787.6899)"><path
           d="m 0,0 c -1.72,0 -3.38,0.24 -4.72,0.7 -7.8,2.62 -12.82,11.32 -13.34,21.11 v 1.7 c 0.07,10.71 4.87,19.5 12.74,22.66 1.42,0.53 3.22,0.84 5.02,0.84 5.32,0 9.36,-1.77 12.67,-4.08 l 1.12,6.4 c -3.6,1.38 -7.65,2.46 -12.22,2.62 h -2.62 c -2.77,-0.08 -5.47,-0.78 -8.02,-1.93 -9,-3.78 -15.59,-14.95 -15.44,-26.51 0,-6.86 2.1,-13.72 6.3,-19.11 4.12,-5.17 9.66,-9.33 18.51,-9.33 6.14,-0.23 10.42,1.78 14.31,4.24 L 13.86,4.7 C 10.26,2.01 6.14,-0.07 0,0"
           style="fill:#000000;fill-opacity:1;fill-rule:nonzero;stroke:none"
           id="path24"
           inkscape:connector-curvature="0" /></g></g><g
       id="g26"
       transform="scale(0.1)"><g
         id="g28"
         transform="translate(2521.95,3802.26)"><path
           d="m 0,0 v -0.93 l -0.15,-2 c -0.67,-5.78 -4.27,-10.4 -9.89,-10.79 h -0.53 c -5.77,0.16 -9.81,4.93 -10.34,10.87 l -0.22,2 V 0 c -0.15,6.47 3.59,13.02 10.56,12.95 C -3.45,12.95 0,6.7 0,0 m -10.57,17.72 c -2.17,0 -4.34,-0.53 -6.29,-1.46 -5.77,-2.7 -9.97,-9.02 -10.12,-17.03 0,-2.16 0.3,-4.24 1.05,-6.24 2.25,-6.48 7.27,-11.33 15.36,-11.64 2.48,0 4.95,0.62 7.05,1.69 5.25,2.63 9.37,8.56 9.37,16.11 -0.08,9.32 -6.22,18.42 -16.42,18.57"
           style="fill:#000000;fill-opacity:1;fill-rule:nonzero;stroke:none"
           id="path30"
           inkscape:connector-curvature="0" /></g></g><g
       id="g32"
       transform="scale(0.1)"><g
         id="g34"
         transform="translate(2540.9299,3812.2)"><path
           d="m 0,0 v 6.94 h -5.25 v -34.68 h 5.62 v 16.18 c 0,3.93 1.05,6.55 3,8.94 C 5.47,0 8.77,2 13.11,2.16 V 7.32 C 6.75,7.17 3,4.16 0,0"
           style="fill:#000000;fill-opacity:1;fill-rule:nonzero;stroke:none"
           id="path36"
           inkscape:connector-curvature="0" /></g></g><g
       id="g38"
       transform="scale(0.1)"><g
         id="g40"
         transform="translate(2566.1101,3812.2)"><path
           d="m 0,0 v 6.94 h -5.25 v -34.68 h 5.62 v 16.18 c 0,3.93 1.05,6.55 3,8.94 C 5.47,0 8.77,2 13.11,2.16 V 7.32 C 6.74,7.17 3,4.16 0,0"
           style="fill:#000000;fill-opacity:1;fill-rule:nonzero;stroke:none"
           id="path42"
           inkscape:connector-curvature="0" /></g></g><g
       id="g44"
       transform="scale(0.1)"><g
         id="g46"
         transform="translate(2606.72,3805.6499)"><path
           d="m 0,0 h -18.58 c 1.34,4.78 3.9,9.32 9.59,9.56 C -3.37,9.4 -0.82,5.08 0,0 m -7.79,-17.26 c -2.25,0 -4.12,0.61 -5.7,1.77 -3.14,2.23 -5.32,6.16 -5.47,11.25 H 4.28 v 2.23 C 4.05,2.39 3,7.01 0.08,10.4 c -2.1,2.24 -5.1,3.93 -9.22,3.93 -0.82,0 -1.72,-0.07 -2.62,-0.3 -7.2,-1.47 -12.44,-9.1 -12.44,-17.8 0,-3.63 0.97,-7.33 2.84,-10.41 2.7,-4.32 6.98,-7.71 13.5,-7.86 0.52,0 1.04,0.08 1.57,0.08 3.82,0.3 7.64,1.92 10.27,3.85 l -0.45,5.08 c -2.85,-2.31 -6.6,-4.23 -11.32,-4.23"
           style="fill:#000000;fill-opacity:1;fill-rule:nonzero;stroke:none"
           id="path48"
           inkscape:connector-curvature="0" /></g></g><g
       id="g50"
       transform="scale(0.1)"><g
         id="g52"
         transform="translate(2631.72,3788.54)"><path
           d="m 0,0 c -7.12,-0.08 -10.72,6.78 -10.64,13.1 0.3,7.63 3.37,13.18 10.8,13.41 4.57,0.08 7.79,-1.54 10.56,-3.54 l 0.9,5.08 C 8.47,30.13 5.03,31.52 0,31.44 c -0.67,0 -1.42,0 -2.1,-0.07 -8.69,-1.24 -14.16,-9.02 -14.39,-18.27 0,-1.77 0.23,-3.54 0.68,-5.24 1.95,-6.63 6.29,-11.48 13.64,-12.71 0.67,0 1.42,-0.08 2.1,-0.08 4.94,0 8.92,1.69 12.06,3.93 L 11.62,4.16 C 8.55,1.85 4.95,0.16 0,0"
           style="fill:#000000;fill-opacity:1;fill-rule:nonzero;stroke:none"
           id="path54"
           inkscape:connector-curvature="0" /></g></g><g
       id="g56"
       transform="scale(0.1)"><g
         id="g58"
         transform="translate(2659.1201,3783.6101)"><path
           d="m 0,0 c 4.35,0.15 7.95,1.16 11.02,2.93 l -1.2,4.54 -1.5,-1 C 6.97,5.62 5.47,5.16 3.9,5.01 0,4.32 -0.9,8.32 -0.82,11.64 V 30.59 H 9.74 v 4.55 H -0.82 v 9.71 h -5.25 v -9.71 h -6.44 v -4.55 h 6.29 V 9.86 C -6.14,5.09 -5.02,0 0,0"
           style="fill:#000000;fill-opacity:1;fill-rule:nonzero;stroke:none"
           id="path60"
           inkscape:connector-curvature="0" /></g></g><g
       id="g62"
       transform="scale(0.1)"><g
         id="g64"
         transform="translate(2716.3601,3836.25)"><path
           d="M 0,0 C 2.17,0 4.05,-0.62 5.84,-1.32 V 3.85 C 4.05,4.31 2.02,4.7 0,4.7 -7.5,4.62 -11.54,-0.85 -12.59,-7.33 V -17.5 h -5.55 v -4.55 h 5.55 v -29.74 h 5.62 v 29.74 h 8.24 v 4.55 H -7.2 v 10.48 c 0,4.63 3,6.94 7.2,7.02"
           style="fill:#000000;fill-opacity:1;fill-rule:nonzero;stroke:none"
           id="path66"
           inkscape:connector-curvature="0" /></g></g><g
       id="g68"
       transform="scale(0.1)"><g
         id="g70"
         transform="translate(2747.97,3802.26)"><path
           d="m 0,0 v -0.93 l -0.15,-2 c -0.68,-5.78 -4.27,-10.4 -9.89,-10.79 h -0.53 c -5.77,0.16 -9.81,4.93 -10.34,10.87 l -0.22,2 V 0 c -0.16,6.47 3.59,13.02 10.56,12.95 C -3.45,12.95 0,6.7 0,0 m -10.57,17.72 c -2.17,0 -4.35,-0.53 -6.29,-1.46 -5.77,-2.7 -9.97,-9.02 -10.12,-17.03 0,-2.16 0.3,-4.24 1.05,-6.24 2.25,-6.48 7.27,-11.33 15.36,-11.64 2.48,0 4.95,0.62 7.05,1.69 5.25,2.63 9.37,8.56 9.37,16.11 -0.08,9.32 -6.23,18.42 -16.42,18.57"
           style="fill:#000000;fill-opacity:1;fill-rule:nonzero;stroke:none"
           id="path72"
           inkscape:connector-curvature="0" /></g></g><g
       id="g74"
       transform="scale(0.1)"><g
         id="g76"
         transform="translate(2766.95,3812.2)"><path
           d="m 0,0 v 6.94 h -5.25 v -34.68 h 5.62 v 16.18 c 0,3.93 1.05,6.55 3,8.94 C 5.47,0 8.76,2 13.11,2.16 V 7.32 C 6.74,7.17 3,4.16 0,0"
           style="fill:#000000;fill-opacity:1;fill-rule:nonzero;stroke:none"
           id="path78"
           inkscape:connector-curvature="0" /></g></g><g
       id="g80"
       transform="scale(0.1)"><g
         id="g82"
         transform="translate(2538.8799,3701.8401)"><path
           d="m 0,0 c -0.15,-1.31 -0.68,-2.16 -1.42,-2.85 -2.48,-2.16 -5.92,-3.01 -10.12,-3.08 -4.57,0.07 -9.3,1.31 -10.95,4.62 -0.97,3.55 1.35,6.24 4.43,6.63 h 6.82 C -6.22,5.39 -0.3,4.7 0,0 m -6.75,28.13 v -1.08 c -0.07,-3.7 -2.69,-7.09 -6.29,-7.09 h -0.38 c -4.57,-0.08 -6.89,3.93 -6.74,8.09 v 1 c 0.15,1.63 0.52,3.24 1.42,4.55 1.28,1.62 3,2.62 5.17,2.62 4.58,0.08 6.9,-3.93 6.82,-8.09 M -23.24,8.02 c -2.39,-1.31 -4.79,-4.47 -4.79,-7.94 0,-0.93 0.15,-1.85 0.52,-2.7 2.55,-5.24 8.85,-7.55 16.12,-7.7 3.44,0 6.89,0.61 9.59,1.84 l 1.35,0.7 C 2.4,-6.09 5.17,-3.93 5.24,0.16 5.17,8.94 -3,11.02 -11.32,10.87 h -5.1 c -2.99,-0.46 -4.72,1.77 -4.72,4.08 0,0.31 0.08,0.62 0.08,0.85 0.15,0.69 0.45,1.31 0.75,2 l 1.35,-0.92 c 1.65,-0.93 3.52,-1.39 5.47,-1.39 6.9,0.39 11.77,5.09 11.99,12.56 0,3.32 -1.27,6.32 -2.92,8.25 l 0.67,-0.62 c 1.87,0.16 3.9,0.31 5.85,0.31 1.35,0 2.77,-0.08 4.2,-0.23 l -0.83,4.86 c -4.05,0 -8.02,-0.78 -11.77,-2.39 l 0.15,-0.16 c -1.8,1.39 -4.49,2.55 -7.34,2.55 -1.28,0 -2.55,-0.16 -3.75,-0.62 -4.57,-1.54 -8.09,-6.09 -8.17,-11.95 0,-3.08 1.05,-5.78 2.48,-7.62 v -0.08 c -2.55,-2.78 -2.93,-9.4 -0.31,-12.33"
           style="fill:#000000;fill-opacity:1;fill-rule:nonzero;stroke:none"
           id="path84"
           inkscape:connector-curvature="0" /></g></g><g
       id="g86"
       transform="scale(0.1)"><g
         id="g88"
         transform="translate(2556.8799,3735.1299)"><path
           d="m 0,0 v 6.94 h -5.24 v -34.68 h 5.62 v 16.18 c 0,3.93 1.05,6.55 3,8.95 2.1,2.61 5.39,4.62 9.74,4.77 V 7.33 C 6.75,7.17 3,4.17 0,0"
           style="fill:#000000;fill-opacity:1;fill-rule:nonzero;stroke:none"
           id="path90"
           inkscape:connector-curvature="0" /></g></g><g
       id="g92"
       transform="scale(0.1)"><g
         id="g94"
         transform="translate(2586.48,3711.24)"><path
           d="m 0,0 c -3.37,0.16 -6.74,1.47 -6.96,4.94 0.07,2.08 1.49,3.08 2.99,3.85 3.3,1.54 7.95,2.16 12.37,2.24 V 4.94 C 7.57,1.24 3.9,0.24 0,0 m 1.73,27.05 c 4.2,-0.08 6.15,-3.39 6.67,-7.4 V 15.03 C 2.85,14.88 -1.64,14.34 -5.99,12.56 c -2.92,-1.3 -6.37,-3.39 -6.45,-7.7 0.3,-5.17 2.92,-9.4 8.55,-9.56 0.75,0 1.42,0.08 2.17,0.08 3.67,0.31 7.72,1.46 10.27,3.47 v -2.7 h 5.7 v 23.5 c -0.08,0.93 -0.23,1.78 -0.46,2.7 -1.57,5.17 -5.39,9.33 -12.14,9.33 -4.79,0 -8.47,-1.47 -11.61,-3.39 l 0.44,-5.17 c 2.93,2.16 6.45,3.93 11.25,3.93"
           style="fill:#000000;fill-opacity:1;fill-rule:nonzero;stroke:none"
           id="path96"
           inkscape:connector-curvature="0" /></g></g><g
       id="g98"
       transform="scale(0.1)"><g
         id="g100"
         transform="translate(2607.0701,3741.6799)"><path
           d="m 0,0 12.89,-34.29 h 6.6 L 32.38,0 h -5.54 c -3.08,-8.55 -6.37,-16.8 -9.22,-25.58 -0.53,-1.54 -1.05,-3.16 -1.28,-4.86 -0.3,1.78 -0.82,3.55 -1.42,5.24 L 12.75,-18.8 5.85,0 H 0"
           style="fill:#000000;fill-opacity:1;fill-rule:nonzero;stroke:none"
           id="path102"
           inkscape:connector-curvature="0" /></g></g><g
       id="g104"
       transform="scale(0.1)"><g
         id="g106"
         transform="translate(2645.9099,3741.6799)"><path
           d="M 0,0 V -34.29 H 5.7 V 0 H 0 m -0.52,18.04 v -6.86 h 6.74 v 6.86 h -6.74"
           style="fill:#000000;fill-opacity:1;fill-rule:nonzero;stroke:none"
           id="path108"
           inkscape:connector-curvature="0" /></g></g><g
       id="g110"
       transform="scale(0.1)"><g
         id="g112"
         transform="translate(2671.27,3706.54)"><path
           d="m 0,0 c 4.35,0.16 7.94,1.16 11.02,2.93 l -1.2,4.55 -1.5,-1 C 6.97,5.63 5.47,5.17 3.9,5.01 0,4.32 -0.9,8.33 -0.82,11.64 V 30.6 H 9.75 v 4.54 H -0.82 v 9.71 h -5.25 v -9.71 h -6.45 V 30.6 h 6.3 V 9.87 C -6.15,5.09 -5.02,0 0,0"
           style="fill:#000000;fill-opacity:1;fill-rule:nonzero;stroke:none"
           id="path114"
           inkscape:connector-curvature="0" /></g></g><g
       id="g116"
       transform="scale(0.1)"><g
         id="g118"
         transform="translate(2684.8799,3741.6799)"><path
           d="m 0,0 14.61,-34.06 c 0.08,-0.46 -0.3,-1 -0.45,-1.39 l -1.95,-5 c -0.82,-1.93 -1.72,-4.24 -3.6,-5.09 -1.65,-0.39 -3.37,0.07 -4.94,0.38 l -1.95,0.7 0.37,-5.01 c 1.5,-0.39 3,-0.54 4.42,-0.62 h 1.06 c 0.75,0 1.42,0 2.09,0.23 3.53,1.39 5.03,5.17 6.52,8.63 L 32.52,0 h -5.69 l -2.55,-6.55 c -2.32,-6.08 -4.72,-12.17 -6.52,-18.72 -0.45,-1.7 -0.9,-3.39 -0.9,-5.17 l -0.38,2.47 c -0.97,4.24 -2.47,8.09 -3.9,11.87 L 6.07,0 H 0"
           style="fill:#000000;fill-opacity:1;fill-rule:nonzero;stroke:none"
           id="path120"
           inkscape:connector-curvature="0" /></g></g><g
       id="g122"
       transform="scale(0.1)"><path
         d="m 3117.93,3528.88 h 464.23 v 474.074 h -464.23 z"
         style="fill:#ffffff;fill-opacity:1;fill-rule:evenodd;stroke:none"
         id="path124"
         inkscape:connector-curvature="0" /></g><g
       id="g126"
       transform="scale(0.1)"><path
         d="m 3117.93,3528.88 h 464.23 v 474.074 h -464.23 z"
         style="fill:none;stroke:#000000;stroke-width:5;stroke-linecap:butt;stroke-linejoin:miter;stroke-miterlimit:10;stroke-dasharray:none;stroke-opacity:1"
         id="path128"
         inkscape:connector-curvature="0" /></g><g
       id="g130"
       transform="scale(0.1)"><g
         id="g132"
         transform="translate(3365.75,3930.46)"><path
           d="m 0,0 c 3.32,0 6.27,-1.78 8.85,-5.37 2.58,-3.47 3.86,-7.42 3.86,-11.84 0,-4.96 -0.88,-8.91 -2.64,-11.86 -1.7,-2.84 -3.86,-4.26 -6.51,-4.26 -2.3,0 -4.95,1.84 -7.93,5.53 -1.36,2.11 -2.68,3.16 -3.97,3.16 -2.78,0 -4.16,-3.32 -4.16,-9.95 0,-3.16 0.37,-10.85 1.11,-23.07 2.44,-46.98 3.66,-82 3.66,-105.07 l -1.52,-88.94 c -0.48,-30.55 -2.78,-51.09 -6.92,-61.62 -4.13,-10.53 -9.42,-15.8 -15.86,-15.8 -3.6,0 -6.51,1.74 -8.75,5.22 -2.24,3.37 -3.35,8 -3.35,13.9 0,4.63 0.81,8.37 2.44,11.22 1.69,2.84 3.93,4.26 6.71,4.26 2.71,0 5.09,-1.74 7.12,-5.21 1.83,-3.16 3.49,-4.74 4.98,-4.74 2.65,0 3.97,3.68 3.97,11.06 0,2.42 -0.34,8.21 -1.02,17.38 -2.71,35.59 -4.07,70.46 -4.07,104.59 0,9.16 0.21,24.11 0.61,44.86 l 1.12,55.77 c 0.34,16.54 1.22,29.02 2.64,37.45 1.5,8.53 3.16,15.01 4.99,19.43 1.9,4.42 4.24,7.85 7.01,10.27 C -4.84,-1.21 -2.3,0 0,0"
           style="fill:#000000;fill-opacity:1;fill-rule:nonzero;stroke:none"
           id="path134"
           inkscape:connector-curvature="0" /></g></g><g
       id="g136"
       transform="scale(0.1)"><path
         d="m 3856.88,3528.88 h 464.234 v 474.078 H 3856.88 Z"
         style="fill:#ffffff;fill-opacity:1;fill-rule:evenodd;stroke:none"
         id="path138"
         inkscape:connector-curvature="0" /></g><g
       id="g140"
       transform="scale(0.1)"><path
         d="m 3856.88,3528.88 h 464.234 v 474.078 H 3856.88 Z"
         style="fill:none;stroke:#000000;stroke-width:5;stroke-linecap:butt;stroke-linejoin:miter;stroke-miterlimit:10;stroke-dasharray:none;stroke-opacity:1"
         id="path142"
         inkscape:connector-curvature="0" /></g><g
       id="g144"
       transform="scale(0.1)"><g
         id="g146"
         transform="translate(4104.71,3930.46)"><path
           d="m 0,0 c 3.33,0 6.27,-1.79 8.85,-5.37 2.58,-3.47 3.87,-7.42 3.87,-11.85 0,-4.95 -0.89,-8.9 -2.65,-11.85 -1.69,-2.84 -3.87,-4.26 -6.51,-4.26 -2.31,0 -4.95,1.84 -7.93,5.53 -1.36,2.1 -2.68,3.16 -3.96,3.16 -2.79,0 -4.18,-3.32 -4.18,-9.96 0,-3.16 0.38,-10.84 1.12,-23.06 2.44,-46.98 3.66,-82 3.66,-105.07 l -1.52,-88.94 c -0.48,-30.55 -2.78,-51.09 -6.92,-61.62 -4.13,-10.53 -9.42,-15.79 -15.86,-15.79 -3.59,0 -6.51,1.73 -8.75,5.21 -2.23,3.37 -3.36,8 -3.36,13.9 0,4.63 0.82,8.37 2.45,11.21 1.69,2.85 3.93,4.27 6.71,4.27 2.71,0 5.08,-1.74 7.12,-5.22 1.83,-3.15 3.49,-4.73 4.98,-4.73 2.65,0 3.97,3.68 3.97,11.05 0,2.43 -0.34,8.22 -1.02,17.38 -2.71,35.6 -4.07,70.47 -4.07,104.59 0,9.17 0.2,24.12 0.61,44.87 l 1.12,55.77 c 0.34,16.54 1.22,29.02 2.65,37.45 1.49,8.53 3.15,15.01 4.98,19.43 1.89,4.42 4.23,7.85 7.02,10.27 C -4.85,-1.21 -2.3,0 0,0"
           style="fill:#000000;fill-opacity:1;fill-rule:nonzero;stroke:none"
           id="path148"
           inkscape:connector-curvature="0" /></g></g><g
       id="g150"
       transform="scale(0.1)"><g
         id="g152"
         transform="translate(1529.02,3765.9199)"><path
           d="M 0,0 H 825.91"
           style="fill:none;stroke:#000000;stroke-width:4;stroke-linecap:butt;stroke-linejoin:miter;stroke-miterlimit:10;stroke-dasharray:none;stroke-opacity:1"
           id="path154"
           inkscape:connector-curvature="0" /></g></g><g
       id="g156"
       transform="scale(0.1)"><g
         id="g158"
         transform="translate(2373.3899,3765.9199)"><path
           d="M 0,0 -27.68,-16 V 15.99 L 0,0"
           style="fill:#000000;fill-opacity:1;fill-rule:evenodd;stroke:none"
           id="path160"
           inkscape:connector-curvature="0" /></g></g><g
       id="g162"
       transform="scale(0.1)"><g
         id="g164"
         transform="translate(2373.3899,3765.9199)"><path
           d="M 0,0 -27.68,-16 V 15.99 Z"
           style="fill:none;stroke:#000000;stroke-width:4;stroke-linecap:butt;stroke-linejoin:miter;stroke-miterlimit:10;stroke-dasharray:none;stroke-opacity:1"
           id="path166"
           inkscape:connector-curvature="0" /></g></g><g
       id="g168"
       transform="scale(0.1)"><g
         id="g170"
         transform="translate(2842.96,3765.9199)"><path
           d="M 0,0 H 250.38"
           style="fill:none;stroke:#000000;stroke-width:4;stroke-linecap:butt;stroke-linejoin:miter;stroke-miterlimit:10;stroke-dasharray:none;stroke-opacity:1"
           id="path172"
           inkscape:connector-curvature="0" /></g></g><g
       id="g174"
       transform="scale(0.1)"><g
         id="g176"
         transform="translate(3111.8,3765.9199)"><path
           d="M 0,0 -27.68,-16 V 16 L 0,0"
           style="fill:#000000;fill-opacity:1;fill-rule:evenodd;stroke:none"
           id="path178"
           inkscape:connector-curvature="0" /></g></g><g
       id="g180"
       transform="scale(0.1)"><g
         id="g182"
         transform="translate(3111.8,3765.9199)"><path
           d="M 0,0 -27.68,-16 V 16 Z"
           style="fill:none;stroke:#000000;stroke-width:4;stroke-linecap:butt;stroke-linejoin:miter;stroke-miterlimit:10;stroke-dasharray:none;stroke-opacity:1"
           id="path184"
           inkscape:connector-curvature="0" /></g></g><g
       id="g186"
       transform="scale(0.1)"><g
         id="g188"
         transform="translate(3583.0901,3765.9199)"><path
           d="M 0,0 H 250.37"
           style="fill:none;stroke:#000000;stroke-width:4;stroke-linecap:butt;stroke-linejoin:miter;stroke-miterlimit:10;stroke-dasharray:none;stroke-opacity:1"
           id="path190"
           inkscape:connector-curvature="0" /></g></g><g
       id="g192"
       transform="scale(0.1)"><g
         id="g194"
         transform="translate(3851.9299,3765.9199)"><path
           d="M 0,0 -27.68,-16 V 16 L 0,0"
           style="fill:#000000;fill-opacity:1;fill-rule:evenodd;stroke:none"
           id="path196"
           inkscape:connector-curvature="0" /></g></g><g
       id="g198"
       transform="scale(0.1)"><g
         id="g200"
         transform="translate(3851.9299,3765.9199)"><path
           d="M 0,0 -27.68,-16 V 16 Z"
           style="fill:none;stroke:#000000;stroke-width:4;stroke-linecap:butt;stroke-linejoin:miter;stroke-miterlimit:10;stroke-dasharray:none;stroke-opacity:1"
           id="path202"
           inkscape:connector-curvature="0" /></g></g><g
       id="g204"
       transform="scale(0.1)"><g
         id="g206"
         transform="translate(4320.46,3765.9199)"><path
           d="M 0,0 H 250.38"
           style="fill:none;stroke:#000000;stroke-width:4;stroke-linecap:butt;stroke-linejoin:miter;stroke-miterlimit:10;stroke-dasharray:none;stroke-opacity:1"
           id="path208"
           inkscape:connector-curvature="0" /></g></g><g
       id="g210"
       transform="scale(0.1)"><g
         id="g212"
         transform="translate(4589.2998,3765.9199)"><path
           d="M 0,0 -27.68,-16 V 16 L 0,0"
           style="fill:#000000;fill-opacity:1;fill-rule:evenodd;stroke:none"
           id="path214"
           inkscape:connector-curvature="0" /></g></g><g
       id="g216"
       transform="scale(0.1)"><g
         id="g218"
         transform="translate(4589.2998,3765.9199)"><path
           d="M 0,0 -27.68,-16 V 16 Z"
           style="fill:none;stroke:#000000;stroke-width:4;stroke-linecap:butt;stroke-linejoin:miter;stroke-miterlimit:10;stroke-dasharray:none;stroke-opacity:1"
           id="path220"
           inkscape:connector-curvature="0" /></g></g><g
       id="g222"
       transform="scale(0.1)"><g
         id="g224"
         transform="translate(4641.1099,3776.46)"><path
           d="m 0,0 c -0.31,-6.52 -5.09,-9.82 -11.86,-9.62 h -7.96 V 9.56 h 8.01 C -5.22,9.83 -0.25,6.53 0,0 m 5.03,0 c -0.12,5.21 -2.79,8.58 -6.02,10.68 -2.67,1.78 -5.28,2.57 -9.07,2.57 H -25.22 V -32.5 h 5.59 v 19.06 H -7.89 C -0.99,-12.66 4.78,-7.58 5.03,0"
           style="fill:#000000;fill-opacity:1;fill-rule:nonzero;stroke:none"
           id="path226"
           inkscape:connector-curvature="0" /></g></g><g
       id="g228"
       transform="scale(0.1)"><g
         id="g230"
         transform="translate(4673.1699,3759.1899)"><path
           d="m 0,0 v -0.79 l -0.13,-1.72 c -0.56,-4.94 -3.54,-8.89 -8.2,-9.22 h -0.43 c -4.79,0.13 -8.14,4.22 -8.58,9.29 l -0.19,1.71 V 0 c -0.12,5.54 2.99,11.14 8.77,11.08 C -2.86,11.08 0,5.74 0,0 m -8.76,15.17 c -1.8,0 -3.61,-0.47 -5.22,-1.26 -4.79,-2.31 -8.26,-7.71 -8.39,-14.57 0,-1.85 0.25,-3.62 0.87,-5.34 1.87,-5.54 6.03,-9.69 12.74,-9.96 2.05,0 4.1,0.53 5.84,1.46 4.35,2.24 7.76,7.31 7.76,13.77 -0.06,7.98 -5.15,15.76 -13.6,15.9"
           style="fill:#000000;fill-opacity:1;fill-rule:nonzero;stroke:none"
           id="path232"
           inkscape:connector-curvature="0" /></g></g><g
       id="g234"
       transform="scale(0.1)"><g
         id="g236"
         transform="translate(4701.8198,3751.3401)"><path
           d="m 0,0 c 0,0.34 0.06,0.66 0.06,1 -0.25,5.53 -3.85,8.1 -8.32,9.16 l -4.48,0.99 c -1.55,0.59 -3.1,1.71 -3.1,3.89 0.12,2.76 2.3,4.22 5.22,4.02 h 0.87 c 3.1,-0.07 5.84,-1.19 8.07,-2.44 L -1,20.97 c -2.48,1.25 -5.59,2.11 -9.07,2.05 -5.4,0.19 -9.75,-2.65 -10.18,-7.79 v -0.92 c 0.12,-4.61 3.16,-6.92 6.46,-8.11 3.72,-1.25 9.07,-0.79 9.44,-5.67 -0.06,-2.96 -2.73,-4.61 -5.78,-4.48 -0.37,0 -0.74,0.07 -1.18,0.07 -3.17,0.13 -6.4,1.71 -8.57,3.23 l -0.75,-4.49 c 2.55,-1.58 6.09,-2.77 9.57,-2.97 h 0.99 C -4.53,-8.3 -0.5,-5.2 0,0"
           style="fill:#000000;fill-opacity:1;fill-rule:nonzero;stroke:none"
           id="path238"
           inkscape:connector-curvature="0" /></g></g><g
       id="g240"
       transform="scale(0.1)"><g
         id="g242"
         transform="translate(4707.9702,3773.3)"><path
           d="M 0,0 V -29.34 H 4.72 V 0 H 0 M -0.44,15.43 V 9.56 h 5.59 v 5.87 h -5.59"
           style="fill:#000000;fill-opacity:1;fill-rule:nonzero;stroke:none"
           id="path244"
           inkscape:connector-curvature="0" /></g></g><g
       id="g246"
       transform="scale(0.1)"><g
         id="g248"
         transform="translate(4728.9902,3743.23)"><path
           d="M 0,0 C 3.6,0.14 6.59,1 9.13,2.51 L 8.14,6.4 6.9,5.54 C 5.78,4.82 4.54,4.42 3.23,4.29 0,3.7 -0.74,7.13 -0.68,9.96 v 16.22 h 8.76 v 3.89 h -8.76 v 8.31 h -4.35 v -8.31 h -5.34 v -3.89 h 5.22 V 8.45 C -5.1,4.36 -4.16,0 0,0"
           style="fill:#000000;fill-opacity:1;fill-rule:nonzero;stroke:none"
           id="path250"
           inkscape:connector-curvature="0" /></g></g><g
       id="g252"
       transform="scale(0.1)"><g
         id="g254"
         transform="translate(4744.4902,3773.3)"><path
           d="M 0,0 V -29.34 H 4.72 V 0 H 0 M -0.43,15.43 V 9.56 h 5.59 v 5.87 h -5.59"
           style="fill:#000000;fill-opacity:1;fill-rule:nonzero;stroke:none"
           id="path256"
           inkscape:connector-curvature="0" /></g></g><g
       id="g258"
       transform="scale(0.1)"><g
         id="g260"
         transform="translate(4778.25,3759.1899)"><path
           d="m 0,0 v -0.79 l -0.12,-1.72 c -0.56,-4.94 -3.54,-8.89 -8.2,-9.22 h -0.44 c -4.78,0.13 -8.14,4.22 -8.57,9.29 l -0.19,1.71 V 0 c -0.12,5.54 2.98,11.14 8.76,11.08 C -2.86,11.08 0,5.74 0,0 m -8.76,15.17 c -1.8,0 -3.6,-0.47 -5.22,-1.26 -4.78,-2.31 -8.26,-7.71 -8.38,-14.57 0,-1.85 0.24,-3.62 0.86,-5.34 1.87,-5.54 6.03,-9.69 12.74,-9.96 2.05,0 4.1,0.53 5.84,1.46 4.35,2.24 7.77,7.31 7.77,13.77 -0.06,7.98 -5.16,15.76 -13.61,15.9"
           style="fill:#000000;fill-opacity:1;fill-rule:nonzero;stroke:none"
           id="path262"
           inkscape:connector-curvature="0" /></g></g><g
       id="g264"
       transform="scale(0.1)"><g
         id="g266"
         transform="translate(4800.75,3769.9399)"><path
           d="m 0,0 h 0.63 c 1.55,-0.14 3.1,-0.6 4.16,-1.92 1.24,-1.51 1.3,-3.62 1.3,-5.53 v -18.53 h 4.85 V -6.99 C 11.25,-0.53 8.58,4.35 2.43,4.02 -1.8,4.02 -4.78,1.77 -6.64,-0.92 v 4.61 h -4.54 v -29.67 h 4.85 v 17.6 C -5.96,-4.22 -4.28,-0.14 0,0"
           style="fill:#000000;fill-opacity:1;fill-rule:nonzero;stroke:none"
           id="path268"
           inkscape:connector-curvature="0" /></g></g><g
       id="g270"
       transform="scale(0.1)"><g
         id="g272"
         transform="translate(3616.3701,3724.99)"><path
           d="m 0,0 17.02,-45.75 h 5.72 L 39.7,0 34.73,0.06 25.22,-26.31 c -1.61,-4.94 -3.66,-9.42 -4.84,-14.83 -0.56,2.31 -1.25,4.55 -1.99,6.72 L 5.9,0 H 0"
           style="fill:#000000;fill-opacity:1;fill-rule:nonzero;stroke:none"
           id="path274"
           inkscape:connector-curvature="0" /></g></g><g
       id="g276"
       transform="scale(0.1)"><g
         id="g278"
         transform="translate(3678.3899,3697.3701)"><path
           d="m 0,0 h -15.41 c 1.12,4.08 3.23,7.97 7.95,8.17 C -2.8,8.04 -0.68,4.35 0,0 m -6.46,-14.77 c -1.86,0 -3.42,0.52 -4.72,1.51 -2.61,1.92 -4.41,5.28 -4.54,9.63 H 3.54 v 1.91 C 3.36,2.04 2.49,6 0.06,8.9 c -1.74,1.91 -4.22,3.36 -7.64,3.36 -0.69,0 -1.43,-0.07 -2.17,-0.27 -5.97,-1.25 -10.32,-7.77 -10.32,-15.22 0,-3.1 0.81,-6.26 2.36,-8.91 2.24,-3.69 5.78,-6.59 11.19,-6.72 0.43,0 0.86,0.07 1.3,0.07 3.17,0.26 6.34,1.65 8.51,3.3 l -0.37,4.35 c -2.36,-1.98 -5.47,-3.63 -9.38,-3.63"
           style="fill:#000000;fill-opacity:1;fill-rule:nonzero;stroke:none"
           id="path280"
           inkscape:connector-curvature="0" /></g></g><g
       id="g282"
       transform="scale(0.1)"><path
         d="m 3688.3,3679.24 h 4.66 v 47.598 h -4.66 z"
         style="fill:#000000;fill-opacity:1;fill-rule:nonzero;stroke:none"
         id="path284"
         inkscape:connector-curvature="0" /></g><g
       id="g286"
       transform="scale(0.1)"><g
         id="g288"
         transform="translate(3722.1799,3694.46)"><path
           d="M 0,0 V -0.78 L -0.12,-2.5 c -0.56,-4.94 -3.54,-8.9 -8.2,-9.23 h -0.44 c -4.78,0.13 -8.13,4.22 -8.57,9.3 l -0.19,1.71 V 0 c -0.12,5.54 2.98,11.15 8.76,11.08 C -2.86,11.08 0,5.74 0,0 m -8.76,15.17 c -1.8,0 -3.6,-0.46 -5.22,-1.25 -4.78,-2.31 -8.26,-7.72 -8.38,-14.58 0,-1.84 0.25,-3.62 0.87,-5.34 1.86,-5.53 6.02,-9.69 12.73,-9.95 2.05,0 4.1,0.53 5.84,1.45 4.35,2.24 7.77,7.32 7.77,13.78 -0.06,7.98 -5.16,15.76 -13.61,15.89"
           style="fill:#000000;fill-opacity:1;fill-rule:nonzero;stroke:none"
           id="path290"
           inkscape:connector-curvature="0" /></g></g><g
       id="g292"
       transform="scale(0.1)"><g
         id="g294"
         transform="translate(3744.3799,3682.73)"><path
           d="m 0,0 c -5.91,-0.07 -8.89,5.8 -8.83,11.21 0.25,6.52 2.8,11.27 8.95,11.47 3.79,0.07 6.46,-1.32 8.76,-3.03 L 9.62,24 C 7.01,25.78 4.16,26.97 0,26.9 c -0.56,0 -1.18,0 -1.74,-0.07 -7.21,-1.05 -11.75,-7.71 -11.93,-15.62 0,-1.52 0.18,-3.03 0.56,-4.48 1.61,-5.67 5.21,-9.83 11.3,-10.88 0.56,0 1.18,-0.07 1.74,-0.07 4.1,0 7.4,1.45 10.01,3.37 L 9.62,3.56 C 7.08,1.58 4.1,0.13 0,0"
           style="fill:#000000;fill-opacity:1;fill-rule:nonzero;stroke:none"
           id="path296"
           inkscape:connector-curvature="0" /></g></g><g
       id="g298"
       transform="scale(0.1)"><g
         id="g300"
         transform="translate(3760.6201,3708.5701)"><path
           d="M 0,0 V -29.33 H 4.73 V 0 H 0 M -0.43,15.43 V 9.56 h 5.59 v 5.87 h -5.59"
           style="fill:#000000;fill-opacity:1;fill-rule:nonzero;stroke:none"
           id="path302"
           inkscape:connector-curvature="0" /></g></g><g
       id="g304"
       transform="scale(0.1)"><g
         id="g306"
         transform="translate(3781.6499,3678.51)"><path
           d="M 0,0 C 3.6,0.13 6.58,0.99 9.13,2.51 L 8.14,6.4 6.89,5.54 C 5.78,4.81 4.53,4.42 3.23,4.29 0,3.69 -0.75,7.12 -0.69,9.95 v 16.22 h 8.76 v 3.89 h -8.76 v 8.31 h -4.34 v -8.31 h -5.35 v -3.89 h 5.22 V 8.44 C -5.1,4.35 -4.17,0 0,0"
           style="fill:#000000;fill-opacity:1;fill-rule:nonzero;stroke:none"
           id="path308"
           inkscape:connector-curvature="0" /></g></g><g
       id="g310"
       transform="scale(0.1)"><g
         id="g312"
         transform="translate(3792.9299,3708.5701)"><path
           d="m 0,0 12.11,-29.14 c 0.06,-0.39 -0.25,-0.85 -0.37,-1.18 l -1.62,-4.29 c -0.68,-1.65 -1.43,-3.62 -2.98,-4.35 -1.37,-0.33 -2.8,0.07 -4.1,0.33 l -1.61,0.6 0.3,-4.29 c 1.25,-0.33 2.49,-0.46 3.67,-0.53 h 0.87 c 0.62,0 1.18,0 1.74,0.2 2.92,1.19 4.16,4.42 5.4,7.38 L 26.96,0 h -4.72 l -2.12,-5.6 c -1.92,-5.21 -3.91,-10.42 -5.4,-16.02 -0.37,-1.45 -0.74,-2.9 -0.74,-4.42 l -0.32,2.11 c -0.8,3.63 -2.05,6.93 -3.23,10.16 L 5.03,0 H 0"
           style="fill:#000000;fill-opacity:1;fill-rule:nonzero;stroke:none"
           id="path314"
           inkscape:connector-curvature="0" /></g></g><g
       id="g316"
       transform="scale(0.1)"><g
         id="g318"
         transform="translate(2936.0701,3713.75)"><path
           d="m 0,0 0.93,5.46 c -3.11,1.65 -6.84,2.97 -11,3.17 h -1.3 c -2.55,0 -4.6,-0.4 -6.65,-1.25 -8.01,-2.97 -13.79,-12.92 -13.67,-23.08 0,-4.94 1.24,-9.95 3.73,-14.1 3.35,-5.48 8.2,-10.09 16.53,-10.22 4.84,0.06 9.25,1.32 12.86,3.16 v 18 h -13.11 v -4.09 h 8.26 v -11.47 l -2.36,-0.66 c -1.68,-0.39 -3.61,-0.72 -5.47,-0.72 -1.43,0 -2.86,0.19 -4.04,0.66 -6.52,2.7 -10.25,9.36 -10.81,18.06 v 1.45 c 0,4.42 0.99,8.9 3.23,12.66 2.61,4.02 5.66,7.25 11.5,7.38 C -6.4,4.41 -2.86,2.5 0,0"
           style="fill:#000000;fill-opacity:1;fill-rule:nonzero;stroke:none"
           id="path320"
           inkscape:connector-curvature="0" /></g></g><g
       id="g322"
       transform="scale(0.1)"><path
         d="m 2945.96,3675.18 h 4.66 v 47.602 h -4.66 z"
         style="fill:#000000;fill-opacity:1;fill-rule:nonzero;stroke:none"
         id="path324"
         inkscape:connector-curvature="0" /></g><g
       id="g326"
       transform="scale(0.1)"><g
         id="g328"
         transform="translate(2979.8401,3690.4099)"><path
           d="m 0,0 v -0.8 l -0.12,-1.71 c -0.56,-4.94 -3.54,-8.9 -8.2,-9.23 h -0.43 c -4.79,0.13 -8.14,4.22 -8.58,9.3 l -0.19,1.71 V 0 c -0.12,5.54 2.98,11.14 8.77,11.07 C -2.85,11.07 0,5.73 0,0 m -8.75,15.16 c -1.81,0 -3.61,-0.46 -5.22,-1.25 -4.79,-2.31 -8.27,-7.72 -8.39,-14.57 0,-1.85 0.25,-3.63 0.87,-5.34 1.86,-5.54 6.03,-9.7 12.74,-9.96 2.04,0 4.09,0.53 5.84,1.45 4.34,2.24 7.76,7.32 7.76,13.78 -0.06,7.98 -5.15,15.76 -13.6,15.89"
           style="fill:#000000;fill-opacity:1;fill-rule:nonzero;stroke:none"
           id="path330"
           inkscape:connector-curvature="0" /></g></g><g
       id="g332"
       transform="scale(0.1)"><g
         id="g334"
         transform="translate(3011.1101,3690.9299)"><path
           d="m 0,0 v -1.05 c 0.12,-5.67 -2.92,-11.14 -8.64,-11.34 h -0.31 c -2.36,0 -3.79,1.05 -5.03,2.57 l -0.62,0.86 c -0.13,0.26 -0.31,0.53 -0.44,0.79 V 5.34 c 0,0.46 0.06,0.86 0.25,1.26 1.18,1.91 3.54,3.49 5.97,3.62 h 0.43 C -3.42,10.16 -0.06,5.61 0,0 m -6.71,-16.48 c 1.3,0 2.55,0.26 3.66,0.79 4.85,2.05 7.96,8.18 7.96,14.71 0,2.89 -0.56,5.8 -1.62,8.24 L 2.67,8.64 c -1.87,3.1 -4.16,6 -8.76,5.61 -3.85,-0.34 -6.77,-1.79 -9.13,-3.83 v 21.43 h -4.66 v -47.6 h 4.84 v 3.03 c 1.99,-1.98 4.72,-3.69 8.33,-3.76"
           style="fill:#000000;fill-opacity:1;fill-rule:nonzero;stroke:none"
           id="path336"
           inkscape:connector-curvature="0" /></g></g><g
       id="g338"
       transform="scale(0.1)"><g
         id="g340"
         transform="translate(3030.79,3678.47)"><path
           d="m 0,0 c -2.79,0.14 -5.59,1.26 -5.78,4.22 0.06,1.78 1.24,2.64 2.49,3.3 2.73,1.32 6.58,1.85 10.25,1.91 V 4.22 C 6.28,1.06 3.23,0.2 0,0 m 1.43,23.14 c 3.48,-0.06 5.09,-2.9 5.53,-6.32 v -3.96 c -4.6,-0.13 -8.33,-0.6 -11.93,-2.11 -2.42,-1.12 -5.28,-2.9 -5.34,-6.6 0.25,-4.41 2.42,-8.04 7.08,-8.17 0.62,0 1.18,0.07 1.8,0.07 3.05,0.26 6.4,1.25 8.52,2.96 v -2.3 h 4.71 v 20.11 c -0.06,0.78 -0.18,1.51 -0.37,2.3 -1.3,4.42 -4.47,7.98 -10.06,7.98 -3.98,0 -7.02,-1.25 -9.63,-2.9 l 0.37,-4.42 c 2.42,1.85 5.34,3.36 9.32,3.36"
           style="fill:#000000;fill-opacity:1;fill-rule:nonzero;stroke:none"
           id="path342"
           inkscape:connector-curvature="0" /></g></g><g
       id="g344"
       transform="scale(0.1)"><path
         d="m 3052.02,3675.18 h 4.66 v 47.602 h -4.66 z"
         style="fill:#000000;fill-opacity:1;fill-rule:nonzero;stroke:none"
         id="path346"
         inkscape:connector-curvature="0" /></g><g
       id="g348"
       transform="scale(0.1)"><g
         id="g350"
         transform="translate(2932.79,3650.3899)"><path
           d="M 0,0 C 0.18,-1.25 0.55,-2.51 0.93,-3.76 L 7.64,-24 H -7.65 l 6.4,19.18 C -0.75,-3.23 -0.31,-1.65 0,0 M -2.18,4.61 -18.4,-41.14 h 4.66 l 4.73,13.45 H 8.94 l 4.85,-13.45 H 19.5 L 3.35,4.61 h -5.53"
           style="fill:#000000;fill-opacity:1;fill-rule:nonzero;stroke:none"
           id="path352"
           inkscape:connector-curvature="0" /></g></g><g
       id="g354"
       transform="scale(0.1)"><g
         id="g356"
         transform="translate(2969.21,3612.75)"><path
           d="m 0,0 c -5.9,-0.07 -8.88,5.8 -8.82,11.2 0.25,6.53 2.8,11.28 8.95,11.47 3.78,0.07 6.46,-1.31 8.76,-3.03 l 0.74,4.35 c -2.61,1.78 -5.46,2.97 -9.63,2.9 -0.56,0 -1.18,0 -1.74,-0.06 -7.2,-1.06 -11.74,-7.72 -11.93,-15.63 0,-1.52 0.19,-3.03 0.56,-4.48 1.62,-5.67 5.22,-9.83 11.31,-10.88 0.56,0 1.18,-0.07 1.74,-0.07 4.1,0 7.39,1.46 10,3.37 L 9.63,3.55 C 7.08,1.58 4.1,0.13 0,0"
           style="fill:#000000;fill-opacity:1;fill-rule:nonzero;stroke:none"
           id="path358"
           inkscape:connector-curvature="0" /></g></g><g
       id="g360"
       transform="scale(0.1)"><g
         id="g362"
         transform="translate(2996.27,3612.75)"><path
           d="m 0,0 c -5.9,-0.07 -8.88,5.8 -8.82,11.2 0.25,6.53 2.8,11.28 8.95,11.47 3.79,0.07 6.46,-1.31 8.76,-3.03 l 0.74,4.35 c -2.61,1.78 -5.47,2.97 -9.63,2.9 -0.56,0 -1.18,0 -1.74,-0.06 -7.21,-1.06 -11.74,-7.72 -11.92,-15.63 0,-1.52 0.18,-3.03 0.55,-4.48 1.62,-5.67 5.22,-9.83 11.31,-10.88 0.56,0 1.18,-0.07 1.74,-0.07 4.1,0 7.4,1.46 10,3.37 L 9.63,3.55 C 7.09,1.58 4.1,0.13 0,0"
           style="fill:#000000;fill-opacity:1;fill-rule:nonzero;stroke:none"
           id="path364"
           inkscape:connector-curvature="0" /></g></g><g
       id="g366"
       transform="scale(0.1)"><g
         id="g368"
         transform="translate(3029.6699,3627.3799)"><path
           d="m 0,0 h -15.41 c 1.12,4.09 3.23,7.98 7.95,8.17 C -2.79,8.04 -0.68,4.35 0,0 m -6.46,-14.77 c -1.87,0 -3.42,0.53 -4.72,1.52 -2.61,1.91 -4.42,5.27 -4.54,9.62 H 3.54 v 1.91 C 3.35,2.04 2.49,6 0.06,8.9 c -1.74,1.91 -4.22,3.36 -7.64,3.36 -0.68,0 -1.43,-0.06 -2.18,-0.26 -5.96,-1.26 -10.31,-7.78 -10.31,-15.23 0,-3.1 0.81,-6.26 2.36,-8.9 2.24,-3.69 5.78,-6.59 11.18,-6.73 0.44,0 0.88,0.07 1.31,0.07 3.17,0.27 6.34,1.65 8.51,3.3 l -0.37,4.35 c -2.36,-1.98 -5.47,-3.63 -9.38,-3.63"
           style="fill:#000000;fill-opacity:1;fill-rule:nonzero;stroke:none"
           id="path370"
           inkscape:connector-curvature="0" /></g></g><g
       id="g372"
       transform="scale(0.1)"><path
         d="m 3039.58,3609.25 h 4.66 v 47.598 h -4.66 z"
         style="fill:#000000;fill-opacity:1;fill-rule:nonzero;stroke:none"
         id="path374"
         inkscape:connector-curvature="0" /></g><g
       id="g376"
       transform="scale(0.1)"><path
         d="m 3283.89,4204.82 h 5.594 v 45.75 h -5.594 z"
         style="fill:#000000;fill-opacity:1;fill-rule:nonzero;stroke:none"
         id="path378"
         inkscape:connector-curvature="0" /></g><g
       id="g380"
       transform="scale(0.1)"><g
         id="g382"
         transform="translate(3311.0701,4230.79)"><path
           d="m 0,0 h 0.62 c 1.56,-0.13 3.11,-0.59 4.17,-1.91 1.24,-1.51 1.3,-3.62 1.3,-5.54 v -18.52 h 4.85 V -6.99 C 11.25,-0.52 8.57,4.35 2.43,4.03 -1.8,4.03 -4.78,1.78 -6.64,-0.92 v 4.61 h -4.54 v -29.66 h 4.84 v 17.6 C -5.96,-4.22 -4.28,-0.13 0,0"
           style="fill:#000000;fill-opacity:1;fill-rule:nonzero;stroke:none"
           id="path384"
           inkscape:connector-curvature="0" /></g></g><g
       id="g386"
       transform="scale(0.1)"><g
         id="g388"
         transform="translate(3331.5,4234.1602)"><path
           d="M 0,0 V -29.34 H 4.72 V 0 H 0 M -0.43,15.42 V 9.55 h 5.59 v 5.87 h -5.59"
           style="fill:#000000;fill-opacity:1;fill-rule:nonzero;stroke:none"
           id="path390"
           inkscape:connector-curvature="0" /></g></g><g
       id="g392"
       transform="scale(0.1)"><g
         id="g394"
         transform="translate(3352.52,4204.0898)"><path
           d="M 0,0 C 3.61,0.14 6.59,0.99 9.14,2.51 L 8.14,6.4 6.9,5.54 C 5.78,4.82 4.54,4.42 3.23,4.29 0,3.7 -0.74,7.12 -0.68,9.96 v 16.22 h 8.76 v 3.89 h -8.76 v 8.3 h -4.35 v -8.3 h -5.34 v -3.89 h 5.22 V 8.44 C -5.09,4.36 -4.16,0 0,0"
           style="fill:#000000;fill-opacity:1;fill-rule:nonzero;stroke:none"
           id="path396"
           inkscape:connector-curvature="0" /></g></g><g
       id="g398"
       transform="scale(0.1)"><g
         id="g400"
         transform="translate(3368.03,4234.1602)"><path
           d="M 0,0 V -29.34 H 4.72 V 0 H 0 M -0.44,15.42 V 9.55 h 5.59 v 5.87 h -5.59"
           style="fill:#000000;fill-opacity:1;fill-rule:nonzero;stroke:none"
           id="path402"
           inkscape:connector-curvature="0" /></g></g><g
       id="g404"
       transform="scale(0.1)"><g
         id="g406"
         transform="translate(3390.6001,4208.1201)"><path
           d="m 0,0 c -2.8,0.13 -5.59,1.25 -5.78,4.22 0.07,1.77 1.25,2.63 2.49,3.29 2.73,1.32 6.58,1.85 10.25,1.91 V 4.22 C 6.28,1.05 3.23,0.19 0,0 m 1.43,23.13 c 3.48,-0.06 5.09,-2.89 5.53,-6.32 v -3.96 c -4.6,-0.13 -8.33,-0.59 -11.93,-2.11 -2.42,-1.12 -5.28,-2.9 -5.34,-6.59 0.25,-4.42 2.42,-8.04 7.08,-8.18 0.62,0 1.18,0.07 1.8,0.07 3.05,0.26 6.4,1.25 8.51,2.96 v -2.3 h 4.73 v 20.11 c -0.07,0.79 -0.19,1.51 -0.37,2.3 -1.31,4.42 -4.48,7.98 -10.07,7.98 -3.98,0 -7.02,-1.25 -9.63,-2.9 l 0.37,-4.42 c 2.43,1.85 5.34,3.36 9.32,3.36"
           style="fill:#000000;fill-opacity:1;fill-rule:nonzero;stroke:none"
           id="path408"
           inkscape:connector-curvature="0" /></g></g><g
       id="g410"
       transform="scale(0.1)"><path
         d="m 3411.83,4204.82 h 4.66 v 47.598 h -4.66 z"
         style="fill:#000000;fill-opacity:1;fill-rule:nonzero;stroke:none"
         id="path412"
         inkscape:connector-curvature="0" /></g><g
       id="g414"
       transform="scale(0.1)"><g
         id="g416"
         transform="translate(3248.28,4184.6401)"><path
           d="m 0,0 17.02,-45.75 h 5.72 L 39.7,0 34.73,0.07 25.22,-26.3 c -1.61,-4.95 -3.66,-9.43 -4.84,-14.83 -0.56,2.3 -1.25,4.54 -1.99,6.72 L 5.9,0 H 0"
           style="fill:#000000;fill-opacity:1;fill-rule:nonzero;stroke:none"
           id="path418"
           inkscape:connector-curvature="0" /></g></g><g
       id="g420"
       transform="scale(0.1)"><g
         id="g422"
         transform="translate(3310.3,4157.02)"><path
           d="m 0,0 h -15.41 c 1.12,4.09 3.23,7.98 7.96,8.18 C -2.79,8.05 -0.68,4.35 0,0 m -6.46,-14.77 c -1.86,0 -3.41,0.53 -4.72,1.52 -2.61,1.91 -4.41,5.27 -4.53,9.62 H 3.54 v 1.92 C 3.36,2.05 2.49,6 0.06,8.9 c -1.74,1.91 -4.22,3.37 -7.64,3.37 -0.68,0 -1.43,-0.07 -2.17,-0.27 -5.96,-1.25 -10.32,-7.78 -10.32,-15.23 0,-3.1 0.81,-6.26 2.37,-8.9 2.23,-3.69 5.78,-6.59 11.18,-6.72 0.43,0 0.87,0.06 1.31,0.06 3.16,0.27 6.33,1.65 8.51,3.3 l -0.38,4.35 c -2.36,-1.98 -5.47,-3.63 -9.38,-3.63"
           style="fill:#000000;fill-opacity:1;fill-rule:nonzero;stroke:none"
           id="path424"
           inkscape:connector-curvature="0" /></g></g><g
       id="g426"
       transform="scale(0.1)"><path
         d="m 3320.21,4138.89 h 4.66 v 47.602 h -4.66 z"
         style="fill:#000000;fill-opacity:1;fill-rule:nonzero;stroke:none"
         id="path428"
         inkscape:connector-curvature="0" /></g><g
       id="g430"
       transform="scale(0.1)"><g
         id="g432"
         transform="translate(3354.1001,4154.1201)"><path
           d="M 0,0 V -0.79 L -0.13,-2.5 c -0.56,-4.95 -3.54,-8.91 -8.2,-9.23 h -0.43 c -4.79,0.13 -8.14,4.22 -8.58,9.29 l -0.19,1.71 V 0 c -0.12,5.54 2.99,11.14 8.77,11.08 C -2.86,11.08 0,5.74 0,0 m -8.76,15.17 c -1.8,0 -3.61,-0.47 -5.22,-1.26 -4.79,-2.31 -8.26,-7.71 -8.39,-14.57 0,-1.84 0.25,-3.62 0.87,-5.34 1.86,-5.54 6.02,-9.69 12.74,-9.95 2.05,0 4.1,0.53 5.84,1.45 4.34,2.24 7.76,7.31 7.76,13.77 -0.06,7.98 -5.15,15.76 -13.6,15.9"
           style="fill:#000000;fill-opacity:1;fill-rule:nonzero;stroke:none"
           id="path434"
           inkscape:connector-curvature="0" /></g></g><g
       id="g436"
       transform="scale(0.1)"><g
         id="g438"
         transform="translate(3376.29,4142.3901)"><path
           d="m 0,0 c -5.9,-0.07 -8.89,5.8 -8.83,11.2 0.25,6.53 2.8,11.28 8.95,11.48 3.79,0.06 6.47,-1.32 8.76,-3.04 l 0.75,4.35 C 7.02,25.77 4.16,26.96 0,26.9 c -0.56,0 -1.18,0 -1.74,-0.07 -7.21,-1.06 -11.75,-7.72 -11.93,-15.63 0,-1.51 0.18,-3.03 0.56,-4.48 1.61,-5.67 5.22,-9.82 11.3,-10.88 0.57,0 1.19,-0.06 1.75,-0.06 4.1,0 7.39,1.45 10,3.36 L 9.63,3.56 C 7.08,1.58 4.1,0.13 0,0"
           style="fill:#000000;fill-opacity:1;fill-rule:nonzero;stroke:none"
           id="path440"
           inkscape:connector-curvature="0" /></g></g><g
       id="g442"
       transform="scale(0.1)"><g
         id="g444"
         transform="translate(3392.54,4168.23)"><path
           d="M 0,0 V -29.34 H 4.72 V 0 H 0 M -0.44,15.43 V 9.56 h 5.6 v 5.87 h -5.6"
           style="fill:#000000;fill-opacity:1;fill-rule:nonzero;stroke:none"
           id="path446"
           inkscape:connector-curvature="0" /></g></g><g
       id="g448"
       transform="scale(0.1)"><g
         id="g450"
         transform="translate(3413.5601,4138.1699)"><path
           d="M 0,0 C 3.6,0.13 6.59,0.99 9.14,2.5 L 8.14,6.39 6.9,5.53 C 5.78,4.81 4.54,4.41 3.23,4.28 0,3.69 -0.74,7.12 -0.68,9.95 v 16.22 h 8.76 v 3.89 h -8.76 v 8.31 h -4.35 v -8.31 h -5.35 v -3.89 h 5.22 V 8.44 C -5.1,4.35 -4.16,0 0,0"
           style="fill:#000000;fill-opacity:1;fill-rule:nonzero;stroke:none"
           id="path452"
           inkscape:connector-curvature="0" /></g></g><g
       id="g454"
       transform="scale(0.1)"><g
         id="g456"
         transform="translate(3424.8401,4168.23)"><path
           d="m 0,0 12.11,-29.14 c 0.07,-0.39 -0.25,-0.86 -0.37,-1.19 l -1.62,-4.28 c -0.68,-1.65 -1.42,-3.63 -2.98,-4.35 -1.36,-0.33 -2.79,0.06 -4.1,0.33 l -1.61,0.59 0.31,-4.29 c 1.24,-0.33 2.48,-0.46 3.66,-0.52 h 0.87 c 0.62,0 1.18,0 1.74,0.19 2.92,1.19 4.17,4.42 5.41,7.39 L 26.96,0 h -4.72 l -2.11,-5.61 c -1.93,-5.2 -3.92,-10.41 -5.41,-16.01 -0.37,-1.45 -0.74,-2.91 -0.74,-4.42 l -0.31,2.11 c -0.81,3.63 -2.05,6.92 -3.23,10.15 L 5.03,0 H 0"
           style="fill:#000000;fill-opacity:1;fill-rule:nonzero;stroke:none"
           id="path458"
           inkscape:connector-curvature="0" /></g></g><g
       id="g460"
       transform="scale(0.1)"><g
         id="g462"
         transform="translate(1185.75,3820.8701)"><path
           d="M 0,0 C 0.18,-1.25 0.56,-2.51 0.93,-3.76 L 7.64,-24 H -7.64 l 6.39,19.18 C -0.75,-3.23 -0.31,-1.65 0,0 m -2.18,4.61 -16.21,-45.75 h 4.66 l 4.72,13.45 H 8.95 l 4.84,-13.45 h 5.72 L 3.35,4.61 h -5.53"
           style="fill:#000000;fill-opacity:1;fill-rule:nonzero;stroke:none"
           id="path464"
           inkscape:connector-curvature="0" /></g></g><g
       id="g466"
       transform="scale(0.1)"><g
         id="g468"
         transform="translate(1222.1801,3783.22)"><path
           d="m 0,0 c -5.91,-0.06 -8.89,5.8 -8.83,11.21 0.25,6.53 2.8,11.27 8.95,11.47 3.79,0.07 6.46,-1.31 8.76,-3.03 L 9.62,24 c -2.6,1.78 -5.46,2.97 -9.62,2.9 -0.57,0 -1.19,0 -1.75,-0.07 -7.2,-1.05 -11.74,-7.71 -11.93,-15.62 0,-1.52 0.19,-3.03 0.57,-4.48 1.61,-5.67 5.22,-9.83 11.3,-10.88 0.56,0 1.18,-0.07 1.74,-0.07 4.1,0 7.39,1.45 10,3.37 L 9.62,3.57 C 7.08,1.58 4.09,0.14 0,0"
           style="fill:#000000;fill-opacity:1;fill-rule:nonzero;stroke:none"
           id="path470"
           inkscape:connector-curvature="0" /></g></g><g
       id="g472"
       transform="scale(0.1)"><g
         id="g474"
         transform="translate(1249.23,3783.22)"><path
           d="m 0,0 c -5.9,-0.06 -8.88,5.8 -8.82,11.21 0.25,6.53 2.8,11.27 8.95,11.47 3.79,0.07 6.46,-1.31 8.76,-3.03 L 9.63,24 C 7.02,25.78 4.17,26.97 0,26.9 c -0.55,0 -1.18,0 -1.73,-0.07 -7.21,-1.05 -11.75,-7.71 -11.93,-15.62 0,-1.52 0.18,-3.03 0.55,-4.48 1.62,-5.67 5.22,-9.83 11.31,-10.88 0.56,0 1.18,-0.07 1.74,-0.07 4.1,0 7.4,1.45 10.01,3.37 L 9.63,3.57 C 7.09,1.58 4.11,0.14 0,0"
           style="fill:#000000;fill-opacity:1;fill-rule:nonzero;stroke:none"
           id="path476"
           inkscape:connector-curvature="0" /></g></g><g
       id="g478"
       transform="scale(0.1)"><g
         id="g480"
         transform="translate(1282.63,3797.8601)"><path
           d="m 0,0 h -15.41 c 1.12,4.09 3.23,7.98 7.96,8.18 C -2.79,8.04 -0.68,4.35 0,0 m -6.46,-14.77 c -1.87,0 -3.42,0.53 -4.72,1.52 -2.61,1.91 -4.41,5.27 -4.54,9.62 H 3.54 v 1.91 C 3.36,2.04 2.49,6 0.07,8.9 c -1.75,1.91 -4.23,3.36 -7.65,3.36 -0.68,0 -1.43,-0.07 -2.17,-0.26 -5.97,-1.25 -10.32,-7.78 -10.32,-15.23 0,-3.1 0.81,-6.26 2.37,-8.9 2.23,-3.69 5.77,-6.59 11.18,-6.73 0.43,0 0.87,0.07 1.3,0.07 3.17,0.27 6.34,1.65 8.52,3.3 l -0.38,4.35 c -2.36,-1.98 -5.46,-3.63 -9.38,-3.63"
           style="fill:#000000;fill-opacity:1;fill-rule:nonzero;stroke:none"
           id="path482"
           inkscape:connector-curvature="0" /></g></g><g
       id="g484"
       transform="scale(0.1)"><path
         d="m 1292.54,3779.73 h 4.66 v 47.598 h -4.66 z"
         style="fill:#000000;fill-opacity:1;fill-rule:nonzero;stroke:none"
         id="path486"
         inkscape:connector-curvature="0" /></g><g
       id="g488"
       transform="scale(0.1)"><g
         id="g490"
         transform="translate(1324.38,3797.8601)"><path
           d="m 0,0 h -15.41 c 1.12,4.09 3.23,7.98 7.95,8.18 C -2.8,8.04 -0.69,4.35 0,0 m -6.47,-14.77 c -1.86,0 -3.41,0.53 -4.72,1.52 -2.61,1.91 -4.41,5.27 -4.53,9.62 H 3.54 v 1.91 C 3.35,2.04 2.48,6 0.06,8.9 c -1.74,1.91 -4.23,3.36 -7.64,3.36 -0.69,0 -1.43,-0.07 -2.18,-0.26 -5.96,-1.25 -10.31,-7.78 -10.31,-15.23 0,-3.1 0.8,-6.26 2.36,-8.9 2.24,-3.69 5.78,-6.59 11.18,-6.73 0.44,0 0.87,0.07 1.31,0.07 3.16,0.27 6.33,1.65 8.51,3.3 l -0.37,4.35 c -2.37,-1.98 -5.47,-3.63 -9.39,-3.63"
           style="fill:#000000;fill-opacity:1;fill-rule:nonzero;stroke:none"
           id="path492"
           inkscape:connector-curvature="0" /></g></g><g
       id="g494"
       transform="scale(0.1)"><g
         id="g496"
         transform="translate(1338.64,3803.46)"><path
           d="m 0,0 v 5.94 h -4.35 v -29.67 h 4.66 v 13.84 c 0,3.37 0.87,5.61 2.48,7.65 C 4.53,0 7.27,1.72 10.87,1.85 V 6.27 C 5.59,6.13 2.48,3.56 0,0"
           style="fill:#000000;fill-opacity:1;fill-rule:nonzero;stroke:none"
           id="path498"
           inkscape:connector-curvature="0" /></g></g><g
       id="g500"
       transform="scale(0.1)"><g
         id="g502"
         transform="translate(1374.36,3794.96)"><path
           d="m 0,0 v -0.79 l -0.13,-1.72 c -0.56,-4.94 -3.54,-8.9 -8.2,-9.23 h -0.43 c -4.79,0.14 -8.14,4.22 -8.58,9.3 l -0.18,1.71 V 0 c -0.13,5.54 2.98,11.14 8.76,11.08 C -2.86,11.08 0,5.74 0,0 m -8.76,15.16 c -1.8,0 -3.61,-0.46 -5.22,-1.25 -4.79,-2.31 -8.27,-7.71 -8.39,-14.57 0,-1.85 0.25,-3.63 0.87,-5.34 1.86,-5.54 6.03,-9.69 12.74,-9.96 2.05,0 4.1,0.53 5.84,1.45 4.35,2.25 7.76,7.32 7.76,13.78 -0.06,7.98 -5.15,15.76 -13.6,15.89"
           style="fill:#000000;fill-opacity:1;fill-rule:nonzero;stroke:none"
           id="path504"
           inkscape:connector-curvature="0" /></g></g><g
       id="g506"
       transform="scale(0.1)"><g
         id="g508"
         transform="translate(1396.86,3805.7)"><path
           d="m 0,0 h 0.62 c 1.56,-0.13 3.11,-0.59 4.16,-1.91 1.25,-1.51 1.31,-3.62 1.31,-5.54 v -18.52 h 4.84 v 17.6 c 0.38,4.15 1.99,8.31 6.34,8.37 h 0.62 c 1.55,-0.13 3.11,-0.59 4.16,-1.91 1.25,-1.51 1.25,-3.62 1.25,-5.54 v -18.52 h 4.91 v 18.98 c 0,2.12 -0.13,4.23 -0.87,6.2 -1.12,3.04 -3.73,4.95 -7.65,4.82 -4.34,0 -7.45,-2.51 -9.38,-5.34 C 9.32,2.05 6.59,4.09 2.42,4.03 -1.49,4.09 -4.85,1.72 -6.65,-0.92 V 3.7 h -4.53 v -29.67 h 4.84 v 17.6 C -5.97,-4.22 -4.29,-0.13 0,0"
           style="fill:#000000;fill-opacity:1;fill-rule:nonzero;stroke:none"
           id="path510"
           inkscape:connector-curvature="0" /></g></g><g
       id="g512"
       transform="scale(0.1)"><g
         id="g514"
         transform="translate(1451.3,3797.8601)"><path
           d="m 0,0 h -15.41 c 1.12,4.09 3.23,7.98 7.96,8.18 C -2.79,8.04 -0.68,4.35 0,0 m -6.46,-14.77 c -1.86,0 -3.41,0.53 -4.72,1.52 -2.61,1.91 -4.41,5.27 -4.53,9.62 H 3.54 v 1.91 C 3.36,2.04 2.49,6 0.07,8.9 c -1.75,1.91 -4.23,3.36 -7.65,3.36 -0.68,0 -1.43,-0.07 -2.17,-0.26 -5.96,-1.25 -10.32,-7.78 -10.32,-15.23 0,-3.1 0.81,-6.26 2.37,-8.9 2.23,-3.69 5.78,-6.59 11.18,-6.73 0.43,0 0.87,0.07 1.31,0.07 3.16,0.27 6.33,1.65 8.51,3.3 l -0.38,4.35 c -2.36,-1.98 -5.47,-3.63 -9.38,-3.63"
           style="fill:#000000;fill-opacity:1;fill-rule:nonzero;stroke:none"
           id="path516"
           inkscape:connector-curvature="0" /></g></g><g
       id="g518"
       transform="scale(0.1)"><g
         id="g520"
         transform="translate(1467.6801,3779)"><path
           d="M 0,0 C 3.6,0.14 6.58,0.99 9.13,2.51 L 8.14,6.4 6.89,5.54 C 5.78,4.82 4.53,4.42 3.23,4.29 0,3.7 -0.75,7.12 -0.69,9.96 v 16.22 h 8.76 v 3.89 h -8.76 v 8.31 h -4.35 v -8.31 h -5.34 v -3.89 h 5.22 V 8.44 C -5.1,4.36 -4.16,0 0,0"
           style="fill:#000000;fill-opacity:1;fill-rule:nonzero;stroke:none"
           id="path522"
           inkscape:connector-curvature="0" /></g></g><g
       id="g524"
       transform="scale(0.1)"><g
         id="g526"
         transform="translate(1500.33,3797.8601)"><path
           d="m 0,0 h -15.41 c 1.12,4.09 3.23,7.98 7.95,8.18 C -2.8,8.04 -0.69,4.35 0,0 m -6.46,-14.77 c -1.87,0 -3.42,0.53 -4.73,1.52 -2.6,1.91 -4.41,5.27 -4.53,9.62 H 3.54 v 1.91 C 3.35,2.04 2.48,6 0.06,8.9 c -1.74,1.91 -4.23,3.36 -7.64,3.36 -0.69,0 -1.43,-0.07 -2.18,-0.26 -5.96,-1.25 -10.31,-7.78 -10.31,-15.23 0,-3.1 0.81,-6.26 2.36,-8.9 2.24,-3.69 5.78,-6.59 11.18,-6.73 0.44,0 0.87,0.07 1.31,0.07 3.17,0.27 6.34,1.65 8.51,3.3 l -0.37,4.35 c -2.36,-1.98 -5.47,-3.63 -9.38,-3.63"
           style="fill:#000000;fill-opacity:1;fill-rule:nonzero;stroke:none"
           id="path528"
           inkscape:connector-curvature="0" /></g></g><g
       id="g530"
       transform="scale(0.1)"><g
         id="g532"
         transform="translate(1514.59,3803.46)"><path
           d="m 0,0 v 5.94 h -4.35 v -29.67 h 4.66 v 13.84 c 0,3.37 0.87,5.61 2.48,7.65 C 4.53,0 7.27,1.72 10.87,1.85 V 6.27 C 5.59,6.13 2.48,3.56 0,0"
           style="fill:#000000;fill-opacity:1;fill-rule:nonzero;stroke:none"
           id="path534"
           inkscape:connector-curvature="0" /></g></g><g
       id="g536"
       transform="scale(0.1)"><g
         id="g538"
         transform="translate(1381.05,3721.1899)"><path
           d="m 0,0 c 0,0.33 0.06,0.65 0.06,0.99 -0.25,5.53 -3.85,8.11 -8.32,9.16 l -4.48,0.99 c -1.55,0.59 -3.11,1.71 -3.11,3.89 0.13,2.77 2.3,4.22 5.22,4.02 h 0.87 c 3.11,-0.07 5.84,-1.19 8.08,-2.44 L -1,20.96 c -2.48,1.25 -5.59,2.11 -9.07,2.05 -5.4,0.19 -9.75,-2.64 -10.19,-7.79 V 14.3 c 0.13,-4.61 3.17,-6.92 6.46,-8.11 3.73,-1.25 9.07,-0.79 9.45,-5.67 -0.06,-2.96 -2.74,-4.61 -5.78,-4.48 -0.37,0 -0.74,0.07 -1.18,0.07 -3.17,0.13 -6.4,1.71 -8.58,3.23 l -0.74,-4.49 c 2.55,-1.58 6.09,-2.77 9.57,-2.96 h 0.99 C -4.54,-8.31 -0.5,-5.21 0,0"
           style="fill:#000000;fill-opacity:1;fill-rule:nonzero;stroke:none"
           id="path540"
           inkscape:connector-curvature="0" /></g></g><g
       id="g542"
       transform="scale(0.1)"><g
         id="g544"
         transform="translate(1387.2,3743.1399)"><path
           d="M 0,0 V -29.34 H 4.72 V 0 H 0 M -0.44,15.43 V 9.56 h 5.59 v 5.87 h -5.59"
           style="fill:#000000;fill-opacity:1;fill-rule:nonzero;stroke:none"
           id="path546"
           inkscape:connector-curvature="0" /></g></g><g
       id="g548"
       transform="scale(0.1)"><g
         id="g550"
         transform="translate(1421.64,3709.05)"><path
           d="M 0,0 C -0.13,-1.12 -0.56,-1.84 -1.18,-2.43 -3.23,-4.28 -6.09,-5 -9.57,-5.07 c -3.79,0.07 -7.7,1.12 -9.07,3.95 -0.81,3.04 1.12,5.34 3.66,5.68 h 5.66 C -5.16,4.62 -0.25,4.03 0,0 m -5.59,24.07 v -0.92 c -0.07,-3.17 -2.24,-6.07 -5.22,-6.07 h -0.31 c -3.79,-0.06 -5.72,3.36 -5.59,6.92 v 0.86 c 0.12,1.38 0.43,2.77 1.18,3.89 1.05,1.38 2.48,2.24 4.28,2.24 3.79,0.07 5.72,-3.36 5.66,-6.92 M -19.26,6.86 c -1.99,-1.12 -3.98,-3.82 -3.98,-6.79 0,-0.79 0.12,-1.58 0.44,-2.31 2.11,-4.48 7.33,-6.46 13.36,-6.59 2.85,0 5.71,0.53 7.94,1.58 l 1.13,0.6 C 1.98,-5.2 4.29,-3.35 4.35,0.14 4.29,7.65 -2.49,9.43 -9.38,9.3 h -4.23 c -2.48,-0.39 -3.91,1.52 -3.91,3.49 0,0.27 0.06,0.54 0.06,0.73 0.12,0.59 0.37,1.12 0.62,1.72 l 1.12,-0.8 c 1.37,-0.79 2.92,-1.18 4.53,-1.18 5.72,0.33 9.76,4.35 9.94,10.74 0,2.84 -1.05,5.41 -2.42,7.06 l 0.56,-0.53 c 1.56,0.13 3.23,0.26 4.85,0.26 1.12,0 2.3,-0.06 3.48,-0.2 l -0.69,4.16 c -3.35,0 -6.65,-0.66 -9.75,-2.05 l 0.12,-0.13 c -1.49,1.19 -3.72,2.18 -6.09,2.18 -1.05,0 -2.11,-0.13 -3.1,-0.53 C -18.08,32.9 -21,29.01 -21.07,24 c 0,-2.63 0.88,-4.94 2.05,-6.52 v -0.07 c -2.11,-2.37 -2.42,-8.04 -0.24,-10.55"
           style="fill:#000000;fill-opacity:1;fill-rule:nonzero;stroke:none"
           id="path552"
           inkscape:connector-curvature="0" /></g></g><g
       id="g554"
       transform="scale(0.1)"><g
         id="g556"
         transform="translate(1443.34,3739.78)"><path
           d="m 0,0 h 0.62 c 1.55,-0.14 3.1,-0.6 4.16,-1.91 1.24,-1.52 1.3,-3.63 1.3,-5.54 v -18.53 h 4.85 V -6.99 C 11.24,-0.53 8.57,4.35 2.42,4.02 -1.8,4.02 -4.79,1.78 -6.65,-0.92 v 4.61 h -4.54 v -29.67 h 4.85 V -8.37 C -5.97,-4.22 -4.29,-0.14 0,0"
           style="fill:#000000;fill-opacity:1;fill-rule:nonzero;stroke:none"
           id="path558"
           inkscape:connector-curvature="0" /></g></g><g
       id="g560"
       transform="scale(0.1)"><g
         id="g562"
         transform="translate(1471.78,3717.1001)"><path
           d="M 0,0 C -2.8,0.13 -5.59,1.25 -5.78,4.22 -5.72,6 -4.54,6.86 -3.3,7.51 -0.56,8.83 3.29,9.36 6.96,9.43 V 4.22 C 6.27,1.05 3.23,0.2 0,0 m 1.43,23.14 c 3.48,-0.07 5.09,-2.9 5.53,-6.33 v -3.96 c -4.6,-0.13 -8.33,-0.59 -11.93,-2.11 -2.42,-1.12 -5.28,-2.89 -5.35,-6.59 0.25,-4.41 2.43,-8.04 7.09,-8.17 0.62,0 1.18,0.06 1.8,0.06 3.04,0.27 6.4,1.25 8.51,2.97 V -3.3 h 4.72 v 20.11 c -0.06,0.79 -0.18,1.52 -0.37,2.31 -1.3,4.42 -4.47,7.98 -10.07,7.98 -3.97,0 -7.02,-1.26 -9.62,-2.91 l 0.37,-4.41 c 2.42,1.84 5.34,3.36 9.32,3.36"
           style="fill:#000000;fill-opacity:1;fill-rule:nonzero;stroke:none"
           id="path564"
           inkscape:connector-curvature="0" /></g></g><g
       id="g566"
       transform="scale(0.1)"><path
         d="m 1493.01,3713.8 h 4.66 v 47.602 h -4.66 z"
         style="fill:#000000;fill-opacity:1;fill-rule:nonzero;stroke:none"
         id="path568"
         inkscape:connector-curvature="0" /></g><g
       id="g570"
       transform="scale(0.1)"><g
         id="g572"
         transform="translate(1524.96,3721.1899)"><path
           d="m 0,0 c 0,0.33 0.06,0.65 0.06,0.99 -0.24,5.53 -3.85,8.11 -8.32,9.16 l -4.47,0.99 c -1.56,0.59 -3.11,1.71 -3.11,3.89 0.13,2.77 2.3,4.22 5.22,4.02 h 0.87 c 3.11,-0.07 5.84,-1.19 8.08,-2.44 l 0.68,4.35 c -2.49,1.25 -5.59,2.11 -9.07,2.05 -5.41,0.19 -9.76,-2.64 -10.19,-7.79 V 14.3 c 0.12,-4.61 3.17,-6.92 6.46,-8.11 3.73,-1.25 9.07,-0.79 9.44,-5.67 -0.06,-2.96 -2.73,-4.61 -5.77,-4.48 -0.38,0 -0.75,0.07 -1.18,0.07 -3.17,0.13 -6.4,1.71 -8.58,3.23 l -0.74,-4.49 c 2.54,-1.58 6.09,-2.77 9.56,-2.96 h 1 C -4.53,-8.31 -0.5,-5.21 0,0"
           style="fill:#000000;fill-opacity:1;fill-rule:nonzero;stroke:none"
           id="path574"
           inkscape:connector-curvature="0" /></g></g><g
       id="g576"
       transform="scale(0.1)"><g
         id="g578"
         transform="translate(1174.89,4519.23)"><path
           d="m 0,0 0.93,5.48 c -3.1,1.65 -6.83,2.96 -10.99,3.16 h -1.31 c -2.54,0 -4.59,-0.4 -6.64,-1.25 -8.02,-2.97 -13.8,-12.92 -13.67,-23.08 0,-4.94 1.24,-9.95 3.72,-14.11 3.36,-5.47 8.21,-10.08 16.53,-10.22 4.84,0.07 9.26,1.33 12.86,3.17 v 18 h -13.11 v -4.09 h 8.27 v -11.47 l -2.37,-0.66 c -1.67,-0.39 -3.6,-0.73 -5.46,-0.73 -1.43,0 -2.86,0.2 -4.04,0.66 -6.52,2.71 -10.25,9.37 -10.81,18.07 v 1.45 c 0,4.42 0.99,8.9 3.23,12.66 2.61,4.02 5.65,7.25 11.49,7.38 C -6.4,4.42 -2.85,2.51 0,0"
           style="fill:#000000;fill-opacity:1;fill-rule:nonzero;stroke:none"
           id="path580"
           inkscape:connector-curvature="0" /></g></g><g
       id="g582"
       transform="scale(0.1)"><g
         id="g584"
         transform="translate(1184.79,4510)"><path
           d="M 0,0 V -29.33 H 4.72 V 0 H 0 M -0.43,15.43 V 9.56 h 5.59 v 5.87 h -5.59"
           style="fill:#000000;fill-opacity:1;fill-rule:nonzero;stroke:none"
           id="path586"
           inkscape:connector-curvature="0" /></g></g><g
       id="g588"
       transform="scale(0.1)"><g
         id="g590"
         transform="translate(1210.47,4506.6401)"><path
           d="m 0,0 h 0.62 c 1.55,-0.13 3.11,-0.59 4.16,-1.91 1.25,-1.52 1.31,-3.62 1.31,-5.54 v -18.52 h 4.85 v 17.6 c 0.37,4.15 1.98,8.3 6.33,8.37 h 0.62 c 1.56,-0.13 3.11,-0.59 4.17,-1.91 1.24,-1.52 1.24,-3.62 1.24,-5.54 v -18.52 h 4.91 v 18.98 c 0,2.11 -0.13,4.22 -0.87,6.2 -1.12,3.03 -3.73,4.95 -7.64,4.81 -4.35,0 -7.46,-2.5 -9.38,-5.34 -1,3.36 -3.73,5.41 -7.9,5.34 -3.91,0.07 -7.27,-2.3 -9.07,-4.94 v 4.61 h -4.53 v -29.66 h 4.84 v 17.6 C -5.96,-4.22 -4.29,-0.13 0,0"
           style="fill:#000000;fill-opacity:1;fill-rule:nonzero;stroke:none"
           id="path592"
           inkscape:connector-curvature="0" /></g></g><g
       id="g594"
       transform="scale(0.1)"><g
         id="g596"
         transform="translate(1267.65,4496.4199)"><path
           d="m 0,0 v -1.05 c 0.12,-5.67 -2.92,-11.14 -8.64,-11.34 h -0.31 c -2.36,0 -3.79,1.05 -5.03,2.57 l -0.62,0.86 c -0.12,0.26 -0.31,0.52 -0.44,0.79 V 5.34 c 0,0.46 0.07,0.86 0.25,1.26 1.18,1.91 3.54,3.49 5.97,3.62 h 0.43 C -3.42,10.15 -0.06,5.61 0,0 m -6.71,-16.48 c 1.3,0 2.55,0.26 3.67,0.79 4.84,2.05 7.95,8.18 7.95,14.7 0,2.91 -0.56,5.8 -1.62,8.25 L 2.67,8.64 c -1.86,3.1 -4.16,6 -8.76,5.6 -3.85,-0.33 -6.77,-1.78 -9.13,-3.82 v 21.43 h -4.66 v -47.6 h 4.84 v 3.03 c 1.99,-1.98 4.73,-3.69 8.33,-3.76"
           style="fill:#000000;fill-opacity:1;fill-rule:nonzero;stroke:none"
           id="path598"
           inkscape:connector-curvature="0" /></g></g><g
       id="g600"
       transform="scale(0.1)"><g
         id="g602"
         transform="translate(1287.33,4483.96)"><path
           d="m 0,0 c -2.79,0.13 -5.59,1.25 -5.78,4.22 0.07,1.78 1.25,2.64 2.49,3.3 2.73,1.32 6.58,1.84 10.25,1.91 V 4.22 C 6.28,1.06 3.23,0.2 0,0 m 1.43,23.14 c 3.48,-0.06 5.1,-2.9 5.53,-6.33 v -3.95 c -4.6,-0.13 -8.33,-0.59 -11.93,-2.11 -2.42,-1.12 -5.28,-2.9 -5.34,-6.59 0.25,-4.42 2.42,-8.05 7.08,-8.18 0.62,0 1.18,0.07 1.8,0.07 3.05,0.26 6.4,1.25 8.51,2.96 v -2.3 h 4.73 v 20.1 c -0.07,0.8 -0.19,1.52 -0.37,2.31 -1.31,4.42 -4.48,7.98 -10.07,7.98 -3.98,0 -7.02,-1.26 -9.63,-2.9 l 0.37,-4.42 c 2.42,1.85 5.35,3.36 9.32,3.36"
           style="fill:#000000;fill-opacity:1;fill-rule:nonzero;stroke:none"
           id="path604"
           inkscape:connector-curvature="0" /></g></g><g
       id="g606"
       transform="scale(0.1)"><path
         d="m 1308.56,4480.67 h 4.66 v 47.598 h -4.66 z"
         style="fill:#000000;fill-opacity:1;fill-rule:nonzero;stroke:none"
         id="path608"
         inkscape:connector-curvature="0" /></g><g
       id="g610"
       transform="scale(0.1)"><g
         id="g612"
         transform="translate(1351.52,4483.96)"><path
           d="M 0,0 C -2.79,0.13 -5.59,1.25 -5.77,4.22 -5.71,6 -4.53,6.86 -3.29,7.52 -0.56,8.84 3.3,9.36 6.96,9.43 V 4.22 C 6.28,1.06 3.23,0.2 0,0 m 1.43,23.14 c 3.48,-0.06 5.1,-2.9 5.53,-6.33 v -3.95 c -4.59,-0.13 -8.32,-0.59 -11.93,-2.11 -2.42,-1.12 -5.28,-2.9 -5.34,-6.59 0.25,-4.42 2.42,-8.05 7.08,-8.18 0.62,0 1.18,0.07 1.8,0.07 3.05,0.26 6.41,1.25 8.52,2.96 v -2.3 h 4.72 v 20.1 c -0.06,0.8 -0.19,1.52 -0.37,2.31 -1.31,4.42 -4.48,7.98 -10.07,7.98 -3.98,0 -7.02,-1.26 -9.63,-2.9 l 0.37,-4.42 c 2.43,1.85 5.35,3.36 9.32,3.36"
           style="fill:#000000;fill-opacity:1;fill-rule:nonzero;stroke:none"
           id="path614"
           inkscape:connector-curvature="0" /></g></g><g
       id="g616"
       transform="scale(0.1)"><g
         id="g618"
         transform="translate(1383.88,4506.6401)"><path
           d="m 0,0 h 0.62 c 1.55,-0.13 3.1,-0.59 4.16,-1.91 1.24,-1.52 1.3,-3.62 1.3,-5.54 v -18.52 h 4.85 v 18.98 c 0.31,6.46 -2.36,11.34 -8.51,11.01 -4.23,0 -7.21,-2.24 -9.07,-4.94 v 4.61 h -4.54 v -29.66 h 4.85 v 17.6 C -5.97,-4.22 -4.29,-0.13 0,0"
           style="fill:#000000;fill-opacity:1;fill-rule:nonzero;stroke:none"
           id="path620"
           inkscape:connector-curvature="0" /></g></g><g
       id="g622"
       transform="scale(0.1)"><g
         id="g624"
         transform="translate(1424.1899,4475.9199)"><path
           d="m 0,0 c -0.13,-1.12 -0.57,-1.85 -1.19,-2.44 -2.05,-1.85 -4.9,-2.57 -8.38,-2.64 -3.79,0.07 -7.71,1.12 -9.07,3.96 -0.81,3.03 1.11,5.34 3.66,5.67 h 5.66 C -5.16,4.62 -0.25,4.02 0,0 m -5.6,24.06 v -0.92 c -0.06,-3.17 -2.23,-6.06 -5.21,-6.06 h -0.31 c -3.8,-0.07 -5.72,3.36 -5.6,6.92 v 0.85 c 0.13,1.39 0.44,2.77 1.18,3.89 1.06,1.39 2.49,2.25 4.29,2.25 3.79,0.06 5.72,-3.37 5.65,-6.93 M -19.26,6.86 c -1.99,-1.12 -3.98,-3.83 -3.98,-6.8 0,-0.78 0.12,-1.58 0.43,-2.3 2.12,-4.48 7.33,-6.46 13.36,-6.59 2.86,0 5.72,0.52 7.96,1.58 l 1.11,0.59 c 2.36,1.45 4.66,3.3 4.73,6.79 -0.07,7.52 -6.84,9.3 -13.74,9.16 h -4.22 c -2.49,-0.39 -3.92,1.52 -3.92,3.5 0,0.26 0.07,0.53 0.07,0.72 0.12,0.6 0.37,1.12 0.62,1.72 l 1.12,-0.79 c 1.36,-0.79 2.92,-1.19 4.53,-1.19 5.72,0.33 9.76,4.35 9.94,10.75 0,2.83 -1.05,5.4 -2.42,7.05 l 0.56,-0.52 c 1.55,0.12 3.23,0.26 4.85,0.26 1.11,0 2.29,-0.07 3.48,-0.2 l -0.69,4.15 c -3.35,0 -6.65,-0.66 -9.75,-2.04 l 0.12,-0.13 c -1.49,1.19 -3.73,2.17 -6.09,2.17 -1.05,0 -2.11,-0.13 -3.11,-0.52 -3.78,-1.32 -6.7,-5.21 -6.77,-10.22 0,-2.64 0.87,-4.95 2.06,-6.53 V 17.4 c -2.12,-2.37 -2.43,-8.04 -0.25,-10.54"
           style="fill:#000000;fill-opacity:1;fill-rule:nonzero;stroke:none"
           id="path626"
           inkscape:connector-curvature="0" /></g></g><g
       id="g628"
       transform="scale(0.1)"><g
         id="g630"
         transform="translate(1444.52,4483.6299)"><path
           d="M 0,0 H -0.81 C -1.99,0.07 -3.42,0.27 -4.23,1.32 -4.91,2.11 -4.97,3.23 -4.97,4.29 V 26.37 H -9.82 V 5.08 c 0,-2.31 0,-4.88 1.49,-6.73 0.93,-1.38 3.11,-2.1 5.03,-2.04 h 0.81 l 1.12,0.13 1.62,0.27 c 2.98,0.52 5.46,1.71 7.33,3.49 V -2.96 H 12.3 V 26.37 H 7.45 L 7.45,6 C 6.83,2.18 4.03,0 0,0"
           style="fill:#000000;fill-opacity:1;fill-rule:nonzero;stroke:none"
           id="path632"
           inkscape:connector-curvature="0" /></g></g><g
       id="g634"
       transform="scale(0.1)"><path
         d="m 1466.31,4480.67 h 4.66 v 47.598 h -4.66 z"
         style="fill:#000000;fill-opacity:1;fill-rule:nonzero;stroke:none"
         id="path636"
         inkscape:connector-curvature="0" /></g><g
       id="g638"
       transform="scale(0.1)"><g
         id="g640"
         transform="translate(1489.01,4483.96)"><path
           d="m 0,0 c -2.8,0.13 -5.59,1.25 -5.78,4.22 0.06,1.78 1.24,2.64 2.49,3.3 2.73,1.32 6.58,1.84 10.25,1.91 V 4.22 C 6.28,1.06 3.23,0.2 0,0 m 1.43,23.14 c 3.48,-0.06 5.1,-2.9 5.53,-6.33 v -3.95 c -4.6,-0.13 -8.33,-0.59 -11.93,-2.11 -2.42,-1.12 -5.28,-2.9 -5.34,-6.59 0.25,-4.42 2.42,-8.05 7.08,-8.18 0.62,0 1.18,0.07 1.8,0.07 3.04,0.26 6.4,1.25 8.51,2.96 v -2.3 h 4.72 v 20.1 c -0.06,0.8 -0.18,1.52 -0.37,2.31 -1.3,4.42 -4.47,7.98 -10.06,7.98 -3.98,0 -7.02,-1.26 -9.63,-2.9 l 0.37,-4.42 c 2.42,1.85 5.34,3.36 9.32,3.36"
           style="fill:#000000;fill-opacity:1;fill-rule:nonzero;stroke:none"
           id="path642"
           inkscape:connector-curvature="0" /></g></g><g
       id="g644"
       transform="scale(0.1)"><g
         id="g646"
         transform="translate(1514.59,4504.3999)"><path
           d="m 0,0 v 5.93 h -4.35 v -29.66 h 4.66 v 13.84 c 0,3.37 0.87,5.6 2.48,7.65 C 4.53,0 7.27,1.71 10.87,1.85 V 6.26 C 5.59,6.13 2.48,3.56 0,0"
           style="fill:#000000;fill-opacity:1;fill-rule:nonzero;stroke:none"
           id="path648"
           inkscape:connector-curvature="0" /></g></g><g
       id="g650"
       transform="scale(0.1)"><g
         id="g652"
         transform="translate(1192.41,4429.3799)"><path
           d="m 0,0 c 0.07,-6 -3.54,-11.01 -9,-11.34 -3.17,0.06 -4.85,2.04 -6.03,4.28 V 7.38 l 0.87,1.05 c 1.37,1.46 3.11,2.71 5.71,2.71 C -2.73,10.94 0,5.2 0,0 m -6.64,-15.36 c 1.18,0 2.42,0.26 3.54,0.72 4.9,2.04 8.01,8.24 8.01,14.83 0,2.77 -0.56,5.61 -1.49,8.05 L 2.8,9.62 c -1.43,2.77 -3.73,5.34 -6.77,5.73 h -1.99 c -3.85,-0.32 -6.83,-1.77 -9.26,-3.88 v 3.23 h -4.66 v -42.2 h 4.85 v 15.89 c 1.99,-1.98 4.72,-3.75 8.39,-3.75"
           style="fill:#000000;fill-opacity:1;fill-rule:nonzero;stroke:none"
           id="path654"
           inkscape:connector-curvature="0" /></g></g><g
       id="g656"
       transform="scale(0.1)"><g
         id="g658"
         transform="translate(1204.08,4444.0801)"><path
           d="M 0,0 V -29.34 H 4.72 V 0 H 0 M -0.43,15.42 V 9.56 h 5.59 v 5.86 h -5.59"
           style="fill:#000000;fill-opacity:1;fill-rule:nonzero;stroke:none"
           id="path660"
           inkscape:connector-curvature="0" /></g></g><g
       id="g662"
       transform="scale(0.1)"><g
         id="g664"
         transform="translate(1229.45,4418.23)"><path
           d="m 0,0 c -5.9,-0.06 -8.88,5.81 -8.82,11.21 0.25,6.53 2.8,11.27 8.95,11.47 3.79,0.07 6.46,-1.32 8.76,-3.03 L 9.64,24 C 7.03,25.78 4.17,26.97 0,26.9 c -0.56,0 -1.18,0 -1.74,-0.06 -7.2,-1.06 -11.74,-7.72 -11.92,-15.63 0,-1.51 0.18,-3.03 0.56,-4.48 1.61,-5.67 5.22,-9.82 11.3,-10.88 0.56,0 1.18,-0.06 1.74,-0.06 4.1,0 7.4,1.44 10,3.36 L 9.64,3.56 C 7.09,1.59 4.1,0.14 0,0"
           style="fill:#000000;fill-opacity:1;fill-rule:nonzero;stroke:none"
           id="path666"
           inkscape:connector-curvature="0" /></g></g><g
       id="g668"
       transform="scale(0.1)"><g
         id="g670"
         transform="translate(1245.83,4462.3398)"><path
           d="m 0,0 v -47.6 h 4.35 v 9.36 l 4.97,5.41 9.69,-14.77 h 5.09 l -11.8,18 10.44,11.34 H 17.15 L 4.47,-32.04 V 0 H 0"
           style="fill:#000000;fill-opacity:1;fill-rule:nonzero;stroke:none"
           id="path672"
           inkscape:connector-curvature="0" /></g></g><g
       id="g674"
       transform="scale(0.1)"><g
         id="g676"
         transform="translate(1294.75,4429.9702)"><path
           d="m 0,0 v -0.79 l -0.12,-1.72 c -0.56,-4.94 -3.54,-8.9 -8.2,-9.23 h -0.44 c -4.78,0.14 -8.13,4.22 -8.57,9.3 l -0.19,1.71 V 0 c -0.12,5.54 2.98,11.14 8.76,11.07 C -2.86,11.07 0,5.73 0,0 m -8.76,15.16 c -1.8,0 -3.6,-0.46 -5.22,-1.25 -4.78,-2.31 -8.26,-7.72 -8.38,-14.57 0,-1.85 0.25,-3.63 0.87,-5.34 1.86,-5.54 6.03,-9.69 12.73,-9.95 2.05,0 4.1,0.52 5.84,1.44 4.35,2.25 7.77,7.32 7.77,13.78 -0.06,7.98 -5.16,15.76 -13.61,15.89"
           style="fill:#000000;fill-opacity:1;fill-rule:nonzero;stroke:none"
           id="path678"
           inkscape:connector-curvature="0" /></g></g><g
       id="g680"
       transform="scale(0.1)"><g
         id="g682"
         transform="translate(1317.8199,4459.04)"><path
           d="M 0,0 C 1.8,0 3.35,-0.52 4.84,-1.12 V 3.3 C 3.35,3.69 1.67,4.02 0,4.02 -6.22,3.96 -9.57,-0.72 -10.44,-6.26 v -8.7 h -4.6 v -3.89 h 4.6 V -44.3 h 4.66 v 25.45 h 6.83 v 3.89 H -5.97 V -6 c 0,3.96 2.49,5.94 5.97,6"
           style="fill:#000000;fill-opacity:1;fill-rule:nonzero;stroke:none"
           id="path684"
           inkscape:connector-curvature="0" /></g></g><g
       id="g686"
       transform="scale(0.1)"><g
         id="g688"
         transform="translate(1336.5,4459.04)"><path
           d="M 0,0 C 1.8,0 3.36,-0.52 4.85,-1.12 V 3.3 C 3.36,3.69 1.68,4.02 0,4.02 -6.21,3.96 -9.57,-0.72 -10.43,-6.26 v -8.7 h -4.6 v -3.89 h 4.6 V -44.3 h 4.66 v 25.45 h 6.83 v 3.89 H -5.96 V -6 c 0,3.96 2.48,5.94 5.96,6"
           style="fill:#000000;fill-opacity:1;fill-rule:nonzero;stroke:none"
           id="path690"
           inkscape:connector-curvature="0" /></g></g><g
       id="g692"
       transform="scale(0.1)"><g
         id="g694"
         transform="translate(1381.05,4422.1201)"><path
           d="m 0,0 c 0,0.33 0.06,0.66 0.06,0.99 -0.25,5.54 -3.85,8.11 -8.32,9.17 l -4.48,0.99 c -1.55,0.59 -3.11,1.71 -3.11,3.89 0.13,2.76 2.3,4.22 5.22,4.02 h 0.87 c 3.11,-0.07 5.84,-1.19 8.08,-2.44 L -1,20.97 c -2.48,1.25 -5.59,2.11 -9.07,2.04 -5.4,0.2 -9.75,-2.63 -10.19,-7.78 v -0.92 c 0.13,-4.62 3.17,-6.92 6.46,-8.11 3.73,-1.25 9.07,-0.79 9.45,-5.67 -0.06,-2.97 -2.74,-4.61 -5.78,-4.48 -0.37,0 -0.74,0.06 -1.18,0.06 -3.17,0.14 -6.4,1.72 -8.58,3.23 l -0.74,-4.48 c 2.55,-1.58 6.09,-2.77 9.57,-2.96 h 0.99 C -4.54,-8.3 -0.5,-5.21 0,0"
           style="fill:#000000;fill-opacity:1;fill-rule:nonzero;stroke:none"
           id="path696"
           inkscape:connector-curvature="0" /></g></g><g
       id="g698"
       transform="scale(0.1)"><g
         id="g700"
         transform="translate(1387.2,4444.0801)"><path
           d="M 0,0 V -29.34 H 4.72 V 0 H 0 M -0.44,15.42 V 9.56 h 5.59 v 5.86 h -5.59"
           style="fill:#000000;fill-opacity:1;fill-rule:nonzero;stroke:none"
           id="path702"
           inkscape:connector-curvature="0" /></g></g><g
       id="g704"
       transform="scale(0.1)"><g
         id="g706"
         transform="translate(1421.64,4409.9902)"><path
           d="m 0,0 c -0.13,-1.12 -0.56,-1.84 -1.18,-2.44 -2.05,-1.84 -4.91,-2.57 -8.39,-2.63 -3.79,0.06 -7.7,1.12 -9.07,3.95 -0.81,3.04 1.12,5.34 3.66,5.67 h 5.66 C -5.16,4.62 -0.25,4.03 0,0 m -5.59,24.06 v -0.92 c -0.07,-3.16 -2.24,-6.06 -5.22,-6.06 h -0.31 c -3.79,-0.07 -5.72,3.36 -5.59,6.92 v 0.86 c 0.12,1.38 0.43,2.77 1.18,3.89 1.05,1.38 2.48,2.24 4.28,2.24 3.79,0.06 5.72,-3.36 5.66,-6.93 M -19.26,6.86 c -1.99,-1.12 -3.98,-3.83 -3.98,-6.79 0,-0.79 0.12,-1.58 0.44,-2.31 2.11,-4.48 7.33,-6.46 13.36,-6.59 2.85,0 5.71,0.53 7.94,1.58 l 1.13,0.59 c 2.35,1.46 4.66,3.3 4.72,6.79 -0.06,7.52 -6.84,9.3 -13.73,9.17 h -4.23 c -2.48,-0.4 -3.91,1.51 -3.91,3.49 0,0.27 0.06,0.53 0.06,0.73 0.12,0.59 0.37,1.12 0.62,1.71 l 1.12,-0.79 c 1.37,-0.79 2.92,-1.19 4.53,-1.19 5.72,0.33 9.76,4.35 9.94,10.75 0,2.83 -1.05,5.4 -2.42,7.05 l 0.56,-0.52 c 1.56,0.13 3.23,0.26 4.85,0.26 1.12,0 2.3,-0.07 3.48,-0.2 l -0.69,4.15 c -3.35,0 -6.65,-0.65 -9.75,-2.04 l 0.12,-0.13 c -1.49,1.19 -3.72,2.17 -6.09,2.17 -1.05,0 -2.11,-0.12 -3.1,-0.52 C -18.08,32.9 -21,29.01 -21.07,24 c 0,-2.64 0.88,-4.94 2.05,-6.53 v -0.06 c -2.11,-2.38 -2.42,-8.04 -0.24,-10.55"
           style="fill:#000000;fill-opacity:1;fill-rule:nonzero;stroke:none"
           id="path708"
           inkscape:connector-curvature="0" /></g></g><g
       id="g710"
       transform="scale(0.1)"><g
         id="g712"
         transform="translate(1443.34,4440.71)"><path
           d="m 0,0 h 0.62 c 1.55,-0.13 3.1,-0.59 4.16,-1.91 1.24,-1.51 1.3,-3.62 1.3,-5.53 v -18.53 h 4.85 v 18.99 c 0.31,6.46 -2.36,11.34 -8.51,11 -4.22,0 -7.21,-2.23 -9.07,-4.94 V 3.7 h -4.54 v -29.67 h 4.85 v 17.6 C -5.97,-4.21 -4.29,-0.13 0,0"
           style="fill:#000000;fill-opacity:1;fill-rule:nonzero;stroke:none"
           id="path714"
           inkscape:connector-curvature="0" /></g></g><g
       id="g716"
       transform="scale(0.1)"><g
         id="g718"
         transform="translate(1471.78,4418.04)"><path
           d="M 0,0 C -2.8,0.13 -5.59,1.25 -5.78,4.21 -5.72,6 -4.54,6.85 -3.3,7.51 -0.56,8.83 3.29,9.36 6.96,9.42 V 4.21 C 6.27,1.05 3.23,0.19 0,0 m 1.43,23.14 c 3.48,-0.07 5.09,-2.91 5.53,-6.33 v -3.96 c -4.6,-0.13 -8.33,-0.59 -11.93,-2.11 -2.42,-1.12 -5.28,-2.9 -5.35,-6.59 0.25,-4.42 2.43,-8.05 7.09,-8.17 0.62,0 1.18,0.06 1.8,0.06 3.04,0.26 6.4,1.25 8.51,2.97 V -3.3 h 4.72 v 20.11 c -0.06,0.79 -0.18,1.51 -0.37,2.31 -1.3,4.41 -4.47,7.97 -10.07,7.97 -3.97,0 -7.02,-1.25 -9.62,-2.9 l 0.37,-4.42 c 2.42,1.85 5.34,3.37 9.32,3.37"
           style="fill:#000000;fill-opacity:1;fill-rule:nonzero;stroke:none"
           id="path720"
           inkscape:connector-curvature="0" /></g></g><g
       id="g722"
       transform="scale(0.1)"><path
         d="m 1493.01,4414.74 h 4.66 v 47.602 h -4.66 z"
         style="fill:#000000;fill-opacity:1;fill-rule:nonzero;stroke:none"
         id="path724"
         inkscape:connector-curvature="0" /></g><g
       id="g726"
       transform="scale(0.1)"><g
         id="g728"
         transform="translate(1524.96,4422.1201)"><path
           d="m 0,0 c 0,0.33 0.06,0.66 0.06,0.99 -0.24,5.54 -3.85,8.11 -8.32,9.17 l -4.47,0.99 c -1.56,0.59 -3.11,1.71 -3.11,3.89 0.13,2.76 2.3,4.22 5.22,4.02 h 0.87 c 3.11,-0.07 5.84,-1.19 8.08,-2.44 l 0.68,4.35 c -2.49,1.25 -5.59,2.11 -9.07,2.04 -5.41,0.2 -9.76,-2.63 -10.19,-7.78 v -0.92 c 0.12,-4.62 3.17,-6.92 6.46,-8.11 3.73,-1.25 9.07,-0.79 9.44,-5.67 -0.06,-2.97 -2.73,-4.61 -5.77,-4.48 -0.38,0 -0.75,0.06 -1.18,0.06 -3.17,0.14 -6.4,1.72 -8.58,3.23 l -0.74,-4.48 c 2.54,-1.58 6.09,-2.77 9.56,-2.96 h 1 C -4.53,-8.3 -0.5,-5.21 0,0"
           style="fill:#000000;fill-opacity:1;fill-rule:nonzero;stroke:none"
           id="path730"
           inkscape:connector-curvature="0" /></g></g><g
       id="g732"
       transform="scale(0.1)"><g
         id="g734"
         transform="translate(1543.02,4466.79)"><path
           d="M 0,0 H 815.63"
           style="fill:none;stroke:#000000;stroke-width:4;stroke-linecap:butt;stroke-linejoin:miter;stroke-miterlimit:10;stroke-dasharray:none;stroke-opacity:1"
           id="path736"
           inkscape:connector-curvature="0" /></g></g><g
       id="g738"
       transform="scale(0.1)"><g
         id="g740"
         transform="translate(2377.1101,4466.7798)"><path
           d="M 0,0 -27.68,-15.99 V 16 L 0,0"
           style="fill:#000000;fill-opacity:1;fill-rule:evenodd;stroke:none"
           id="path742"
           inkscape:connector-curvature="0" /></g></g><g
       id="g744"
       transform="scale(0.1)"><g
         id="g746"
         transform="translate(2377.1101,4466.7798)"><path
           d="M 0,0 -27.68,-15.99 V 16 Z"
           style="fill:none;stroke:#000000;stroke-width:4;stroke-linecap:butt;stroke-linejoin:miter;stroke-miterlimit:10;stroke-dasharray:none;stroke-opacity:1"
           id="path748"
           inkscape:connector-curvature="0" /></g></g><g
       id="g750"
       transform="scale(0.1)"><g
         id="g752"
         transform="translate(2426.3799,4468.1499)"><path
           d="m 0,0 c -0.07,-4.48 -0.75,-8.24 -2.49,-12.13 -2.24,-4.41 -5.28,-8.37 -11.31,-8.7 -1.24,0 -2.42,0.26 -3.42,0.59 -6.46,2.51 -10.06,10.16 -10.43,18.79 V 0 c 0,3.63 0.56,7.32 2.05,10.62 2.36,4.55 5.65,8.44 11.68,8.7 1.3,0 2.54,-0.2 3.6,-0.59 C -3.92,16.55 0.06,8.64 0,0 m -33.24,-0.92 c 0,-5.54 1.48,-11.14 4.59,-15.62 3.11,-4.56 7.77,-8.44 14.79,-8.57 2.11,0 4.16,0.39 6.09,1.18 7.83,3.03 13.35,12.73 13.3,23.01 -0.19,11.67 -5.72,20.24 -13.98,23.54 -1.62,0.52 -3.36,0.92 -5.35,0.92 -2.48,0 -4.78,-0.6 -6.65,-1.45 -7.7,-3.76 -12.55,-11.8 -12.79,-23.01"
           style="fill:#000000;fill-opacity:1;fill-rule:nonzero;stroke:none"
           id="path754"
           inkscape:connector-curvature="0" /></g></g><g
       id="g756"
       transform="scale(0.1)"><g
         id="g758"
         transform="translate(2444,4468.2202)"><path
           d="m 0,0 v 5.93 h -4.35 v -29.67 h 4.66 v 13.85 c 0,3.36 0.87,5.6 2.48,7.65 C 4.54,0 7.27,1.71 10.87,1.85 V 6.26 C 5.59,6.13 2.48,3.56 0,0"
           style="fill:#000000;fill-opacity:1;fill-rule:nonzero;stroke:none"
           id="path760"
           inkscape:connector-curvature="0" /></g></g><g
       id="g762"
       transform="scale(0.1)"><g
         id="g764"
         transform="translate(2460.52,4473.8198)"><path
           d="M 0,0 V -29.34 H 4.72 V 0 H 0 M -0.43,15.43 V 9.56 h 5.59 v 5.87 h -5.59"
           style="fill:#000000;fill-opacity:1;fill-rule:nonzero;stroke:none"
           id="path766"
           inkscape:connector-curvature="0" /></g></g><g
       id="g768"
       transform="scale(0.1)"><g
         id="g770"
         transform="translate(2492.23,4462.6099)"><path
           d="m 0,0 h -15.41 c 1.12,4.09 3.23,7.98 7.95,8.18 C -2.8,8.05 -0.68,4.35 0,0 m -6.46,-14.76 c -1.86,0 -3.42,0.53 -4.72,1.51 -2.61,1.92 -4.41,5.28 -4.54,9.63 H 3.54 v 1.91 C 3.36,2.05 2.48,6 0.06,8.91 c -1.74,1.91 -4.22,3.36 -7.64,3.36 -0.69,0 -1.43,-0.07 -2.17,-0.27 -5.97,-1.25 -10.32,-7.77 -10.32,-15.23 0,-3.09 0.81,-6.26 2.36,-8.9 2.24,-3.69 5.78,-6.59 11.19,-6.72 0.43,0 0.87,0.06 1.3,0.06 3.17,0.27 6.34,1.65 8.51,3.3 l -0.37,4.35 c -2.36,-1.97 -5.47,-3.62 -9.38,-3.62"
           style="fill:#000000;fill-opacity:1;fill-rule:nonzero;stroke:none"
           id="path772"
           inkscape:connector-curvature="0" /></g></g><g
       id="g774"
       transform="scale(0.1)"><g
         id="g776"
         transform="translate(2513.26,4470.46)"><path
           d="m 0,0 h 0.63 c 1.55,-0.13 3.1,-0.59 4.16,-1.91 1.24,-1.52 1.3,-3.63 1.3,-5.54 v -18.53 h 4.85 V -6.99 C 11.25,-0.53 8.58,4.35 2.43,4.02 -1.8,4.02 -4.78,1.78 -6.64,-0.92 v 4.61 h -4.54 v -29.67 h 4.85 V -8.37 C -5.96,-4.22 -4.28,-0.13 0,0"
           style="fill:#000000;fill-opacity:1;fill-rule:nonzero;stroke:none"
           id="path778"
           inkscape:connector-curvature="0" /></g></g><g
       id="g780"
       transform="scale(0.1)"><g
         id="g782"
         transform="translate(2540.1499,4443.7598)"><path
           d="M 0,0 C 3.61,0.13 6.59,0.99 9.14,2.51 L 8.14,6.4 6.9,5.54 C 5.78,4.81 4.54,4.42 3.23,4.29 0,3.69 -0.74,7.12 -0.68,9.95 v 16.22 h 8.76 v 3.89 h -8.76 v 8.31 h -4.35 v -8.31 h -5.34 v -3.89 h 5.22 V 8.44 C -5.09,4.35 -4.16,0 0,0"
           style="fill:#000000;fill-opacity:1;fill-rule:nonzero;stroke:none"
           id="path784"
           inkscape:connector-curvature="0" /></g></g><g
       id="g786"
       transform="scale(0.1)"><g
         id="g788"
         transform="translate(2563.6699,4447.7798)"><path
           d="m 0,0 c -2.79,0.13 -5.59,1.26 -5.78,4.22 0.06,1.78 1.25,2.64 2.49,3.3 2.73,1.32 6.58,1.84 10.25,1.91 V 4.22 C 6.28,1.06 3.23,0.2 0,0 m 1.43,23.14 c 3.48,-0.06 5.1,-2.9 5.53,-6.33 v -3.95 c -4.6,-0.14 -8.33,-0.6 -11.93,-2.11 -2.42,-1.12 -5.28,-2.91 -5.34,-6.6 0.25,-4.41 2.42,-8.04 7.08,-8.17 0.62,0 1.18,0.06 1.8,0.06 3.05,0.27 6.4,1.26 8.51,2.97 V -3.3 h 4.73 v 20.11 c -0.07,0.79 -0.19,1.52 -0.38,2.31 -1.3,4.42 -4.47,7.98 -10.06,7.98 -3.98,0 -7.02,-1.26 -9.63,-2.9 l 0.37,-4.42 c 2.42,1.85 5.34,3.36 9.32,3.36"
           style="fill:#000000;fill-opacity:1;fill-rule:nonzero;stroke:none"
           id="path790"
           inkscape:connector-curvature="0" /></g></g><g
       id="g792"
       transform="scale(0.1)"><g
         id="g794"
         transform="translate(2591.3601,4443.7598)"><path
           d="M 0,0 C 3.6,0.13 6.59,0.99 9.14,2.51 L 8.14,6.4 6.9,5.54 C 5.78,4.81 4.54,4.42 3.23,4.29 0,3.69 -0.74,7.12 -0.68,9.95 v 16.22 h 8.76 v 3.89 h -8.76 v 8.31 h -4.35 v -8.31 h -5.34 v -3.89 h 5.22 V 8.44 C -5.09,4.35 -4.16,0 0,0"
           style="fill:#000000;fill-opacity:1;fill-rule:nonzero;stroke:none"
           id="path796"
           inkscape:connector-curvature="0" /></g></g><g
       id="g798"
       transform="scale(0.1)"><g
         id="g800"
         transform="translate(2606.8601,4473.8198)"><path
           d="M 0,0 V -29.34 H 4.73 V 0 H 0 M -0.43,15.43 V 9.56 h 5.59 v 5.87 h -5.59"
           style="fill:#000000;fill-opacity:1;fill-rule:nonzero;stroke:none"
           id="path802"
           inkscape:connector-curvature="0" /></g></g><g
       id="g804"
       transform="scale(0.1)"><g
         id="g806"
         transform="translate(2640.6201,4459.71)"><path
           d="M 0,0 V -0.79 L -0.12,-2.5 c -0.56,-4.94 -3.54,-8.9 -8.2,-9.23 h -0.44 c -4.78,0.13 -8.14,4.22 -8.57,9.29 l -0.19,1.72 V 0 c -0.12,5.54 2.99,11.15 8.76,11.08 C -2.85,11.08 0,5.74 0,0 m -8.76,15.17 c -1.8,0 -3.6,-0.47 -5.22,-1.26 -4.78,-2.3 -8.26,-7.71 -8.38,-14.57 0,-1.84 0.24,-3.62 0.87,-5.34 1.86,-5.53 6.02,-9.69 12.73,-9.95 2.05,0 4.1,0.53 5.84,1.45 4.35,2.24 7.77,7.32 7.77,13.78 -0.06,7.97 -5.16,15.76 -13.61,15.89"
           style="fill:#000000;fill-opacity:1;fill-rule:nonzero;stroke:none"
           id="path808"
           inkscape:connector-curvature="0" /></g></g><g
       id="g810"
       transform="scale(0.1)"><g
         id="g812"
         transform="translate(2663.1201,4470.46)"><path
           d="m 0,0 h 0.63 c 1.55,-0.13 3.11,-0.59 4.16,-1.91 1.24,-1.52 1.3,-3.63 1.3,-5.54 v -18.53 h 4.85 V -6.99 C 11.25,-0.53 8.58,4.35 2.43,4.02 -1.8,4.02 -4.78,1.78 -6.64,-0.92 v 4.61 h -4.54 v -29.67 h 4.85 V -8.37 C -5.96,-4.22 -4.28,-0.13 0,0"
           style="fill:#000000;fill-opacity:1;fill-rule:nonzero;stroke:none"
           id="path814"
           inkscape:connector-curvature="0" /></g></g><g
       id="g816"
       transform="scale(0.1)"><g
         id="g818"
         transform="translate(3350.04,4116.8599)"><path
           d="M 0,0 V -91.31"
           style="fill:none;stroke:#000000;stroke-width:4;stroke-linecap:butt;stroke-linejoin:miter;stroke-miterlimit:10;stroke-dasharray:none;stroke-opacity:1"
           id="path820"
           inkscape:connector-curvature="0" /></g></g><g
       id="g822"
       transform="scale(0.1)"><g
         id="g824"
         transform="translate(3350.04,4007.0801)"><path
           d="M 0,0 -16,27.68 H 16 L 0,0"
           style="fill:#000000;fill-opacity:1;fill-rule:evenodd;stroke:none"
           id="path826"
           inkscape:connector-curvature="0" /></g></g><g
       id="g828"
       transform="scale(0.1)"><g
         id="g830"
         transform="translate(3350.04,4007.0801)"><path
           d="M 0,0 -16,27.68 H 16 Z"
           style="fill:none;stroke:#000000;stroke-width:4;stroke-linecap:butt;stroke-linejoin:miter;stroke-miterlimit:10;stroke-dasharray:none;stroke-opacity:1"
           id="path832"
           inkscape:connector-curvature="0" /></g></g><g
       id="g834"
       transform="scale(0.1)"><path
         d="m 4022.85,4204.44 h 5.594 v 45.754 h -5.594 z"
         style="fill:#000000;fill-opacity:1;fill-rule:nonzero;stroke:none"
         id="path836"
         inkscape:connector-curvature="0" /></g><g
       id="g838"
       transform="scale(0.1)"><g
         id="g840"
         transform="translate(4050.03,4230.4102)"><path
           d="m 0,0 h 0.62 c 1.55,-0.12 3.11,-0.59 4.16,-1.91 1.24,-1.51 1.31,-3.62 1.31,-5.54 v -18.52 h 4.84 V -6.98 C 11.24,-0.52 8.57,4.36 2.42,4.03 -1.8,4.03 -4.78,1.79 -6.65,-0.92 V 3.7 h -4.54 v -29.67 h 4.85 v 17.6 C -5.97,-4.21 -4.29,-0.12 0,0"
           style="fill:#000000;fill-opacity:1;fill-rule:nonzero;stroke:none"
           id="path842"
           inkscape:connector-curvature="0" /></g></g><g
       id="g844"
       transform="scale(0.1)"><g
         id="g846"
         transform="translate(4070.46,4233.7798)"><path
           d="M 0,0 V -29.34 H 4.72 V 0 H 0 M -0.44,15.42 V 9.56 h 5.59 v 5.86 h -5.59"
           style="fill:#000000;fill-opacity:1;fill-rule:nonzero;stroke:none"
           id="path848"
           inkscape:connector-curvature="0" /></g></g><g
       id="g850"
       transform="scale(0.1)"><g
         id="g852"
         transform="translate(4091.48,4203.71)"><path
           d="M 0,0 C 3.6,0.14 6.59,0.99 9.13,2.51 L 8.14,6.4 6.9,5.54 C 5.78,4.82 4.54,4.42 3.23,4.29 0,3.7 -0.75,7.13 -0.68,9.96 v 16.22 h 8.76 v 3.89 h -8.76 v 8.31 h -4.35 v -8.31 h -5.34 v -3.89 h 5.21 V 8.44 C -5.09,4.36 -4.16,0 0,0"
           style="fill:#000000;fill-opacity:1;fill-rule:nonzero;stroke:none"
           id="path854"
           inkscape:connector-curvature="0" /></g></g><g
       id="g856"
       transform="scale(0.1)"><g
         id="g858"
         transform="translate(4106.98,4233.7798)"><path
           d="M 0,0 V -29.34 H 4.72 V 0 H 0 M -0.43,15.42 V 9.56 h 5.59 v 5.86 h -5.59"
           style="fill:#000000;fill-opacity:1;fill-rule:nonzero;stroke:none"
           id="path860"
           inkscape:connector-curvature="0" /></g></g><g
       id="g862"
       transform="scale(0.1)"><g
         id="g864"
         transform="translate(4129.5601,4207.7402)"><path
           d="m 0,0 c -2.8,0.13 -5.59,1.25 -5.78,4.22 0.06,1.77 1.24,2.63 2.49,3.29 2.73,1.32 6.58,1.85 10.25,1.91 V 4.22 C 6.27,1.05 3.23,0.19 0,0 m 1.43,23.14 c 3.48,-0.07 5.09,-2.9 5.53,-6.33 v -3.96 c -4.6,-0.13 -8.33,-0.59 -11.93,-2.11 -2.43,-1.12 -5.28,-2.9 -5.34,-6.59 0.24,-4.42 2.42,-8.04 7.08,-8.18 0.62,0 1.18,0.07 1.8,0.07 3.05,0.26 6.4,1.26 8.51,2.97 V -3.3 h 4.72 v 20.11 c -0.06,0.79 -0.18,1.51 -0.37,2.31 -1.3,4.41 -4.47,7.97 -10.06,7.97 -3.98,0 -7.02,-1.25 -9.63,-2.9 l 0.37,-4.41 c 2.42,1.84 5.34,3.36 9.32,3.36"
           style="fill:#000000;fill-opacity:1;fill-rule:nonzero;stroke:none"
           id="path866"
           inkscape:connector-curvature="0" /></g></g><g
       id="g868"
       transform="scale(0.1)"><path
         d="m 4150.79,4204.44 h 4.66 v 47.598 h -4.66 z"
         style="fill:#000000;fill-opacity:1;fill-rule:nonzero;stroke:none"
         id="path870"
         inkscape:connector-curvature="0" /></g><g
       id="g872"
       transform="scale(0.1)"><g
         id="g874"
         transform="translate(4016.77,4171.02)"><path
           d="m 0,0 c -0.31,-6.53 -5.1,-9.83 -11.87,-9.63 h -7.95 V 9.55 h 8.01 C -5.22,9.82 -0.25,6.52 0,0 M 5.03,0 C 4.91,5.2 2.23,8.57 -1,10.68 c -2.67,1.78 -5.28,2.57 -9.07,2.57 h -15.16 v -45.76 h 5.59 v 19.06 H -7.89 C -1,-12.66 4.78,-7.59 5.03,0"
           style="fill:#000000;fill-opacity:1;fill-rule:nonzero;stroke:none"
           id="path876"
           inkscape:connector-curvature="0" /></g></g><g
       id="g878"
       transform="scale(0.1)"><g
         id="g880"
         transform="translate(4048.8201,4153.7402)"><path
           d="M 0,0 V -0.79 L -0.12,-2.5 c -0.56,-4.95 -3.54,-8.9 -8.2,-9.23 h -0.44 c -4.78,0.13 -8.14,4.22 -8.57,9.29 l -0.19,1.72 V 0 c -0.12,5.54 2.99,11.14 8.76,11.08 C -2.86,11.08 0,5.74 0,0 m -8.76,15.17 c -1.8,0 -3.6,-0.46 -5.22,-1.26 -4.78,-2.31 -8.26,-7.71 -8.38,-14.57 0,-1.84 0.24,-3.62 0.86,-5.34 1.87,-5.54 6.03,-9.69 12.74,-9.95 2.05,0 4.1,0.53 5.84,1.45 4.35,2.24 7.77,7.31 7.77,13.78 -0.06,7.98 -5.16,15.75 -13.61,15.89"
           style="fill:#000000;fill-opacity:1;fill-rule:nonzero;stroke:none"
           id="path882"
           inkscape:connector-curvature="0" /></g></g><g
       id="g884"
       transform="scale(0.1)"><g
         id="g886"
         transform="translate(4077.48,4145.8999)"><path
           d="m 0,0 c 0,0.33 0.06,0.65 0.06,0.99 -0.25,5.53 -3.85,8.11 -8.33,9.16 l -4.47,0.99 c -1.55,0.59 -3.11,1.71 -3.11,3.89 0.13,2.77 2.3,4.22 5.22,4.02 h 0.87 c 3.11,-0.07 5.84,-1.19 8.08,-2.44 L -1,20.96 c -2.48,1.25 -5.59,2.11 -9.07,2.05 -5.41,0.19 -9.75,-2.64 -10.19,-7.79 V 14.3 c 0.12,-4.61 3.17,-6.92 6.46,-8.11 3.73,-1.25 9.07,-0.79 9.44,-5.66 -0.05,-2.97 -2.73,-4.62 -5.77,-4.49 -0.37,0 -0.75,0.07 -1.18,0.07 -3.17,0.13 -6.4,1.71 -8.58,3.23 l -0.74,-4.49 c 2.54,-1.58 6.09,-2.77 9.57,-2.96 h 0.99 C -4.54,-8.31 -0.5,-5.21 0,0"
           style="fill:#000000;fill-opacity:1;fill-rule:nonzero;stroke:none"
           id="path888"
           inkscape:connector-curvature="0" /></g></g><g
       id="g890"
       transform="scale(0.1)"><g
         id="g892"
         transform="translate(4083.6201,4167.8501)"><path
           d="M 0,0 V -29.34 H 4.72 V 0 H 0 M -0.43,15.43 V 9.56 h 5.59 v 5.87 h -5.59"
           style="fill:#000000;fill-opacity:1;fill-rule:nonzero;stroke:none"
           id="path894"
           inkscape:connector-curvature="0" /></g></g><g
       id="g896"
       transform="scale(0.1)"><g
         id="g898"
         transform="translate(4104.6499,4137.79)"><path
           d="M 0,0 C 3.6,0.13 6.58,0.99 9.13,2.5 L 8.14,6.39 6.89,5.53 C 5.78,4.81 4.53,4.41 3.23,4.28 0,3.69 -0.75,7.12 -0.69,9.95 v 16.22 h 8.76 v 3.89 h -8.76 v 8.31 h -4.35 v -8.31 h -5.34 v -3.89 h 5.22 V 8.44 C -5.1,4.35 -4.17,0 0,0"
           style="fill:#000000;fill-opacity:1;fill-rule:nonzero;stroke:none"
           id="path900"
           inkscape:connector-curvature="0" /></g></g><g
       id="g902"
       transform="scale(0.1)"><g
         id="g904"
         transform="translate(4120.1499,4167.8501)"><path
           d="M 0,0 V -29.34 H 4.72 V 0 H 0 M -0.44,15.43 V 9.56 h 5.59 v 5.87 h -5.59"
           style="fill:#000000;fill-opacity:1;fill-rule:nonzero;stroke:none"
           id="path906"
           inkscape:connector-curvature="0" /></g></g><g
       id="g908"
       transform="scale(0.1)"><g
         id="g910"
         transform="translate(4153.9102,4153.7402)"><path
           d="M 0,0 V -0.79 L -0.12,-2.5 c -0.56,-4.95 -3.55,-8.9 -8.21,-9.23 h -0.43 c -4.79,0.13 -8.14,4.22 -8.58,9.29 l -0.18,1.72 V 0 c -0.13,5.54 2.98,11.14 8.76,11.08 C -2.86,11.08 0,5.74 0,0 m -8.76,15.17 c -1.8,0 -3.61,-0.46 -5.22,-1.26 -4.79,-2.31 -8.27,-7.71 -8.39,-14.57 0,-1.84 0.25,-3.62 0.87,-5.34 1.87,-5.54 6.03,-9.69 12.74,-9.95 2.05,0 4.1,0.53 5.84,1.45 4.35,2.24 7.76,7.31 7.76,13.78 -0.06,7.98 -5.15,15.75 -13.6,15.89"
           style="fill:#000000;fill-opacity:1;fill-rule:nonzero;stroke:none"
           id="path912"
           inkscape:connector-curvature="0" /></g></g><g
       id="g914"
       transform="scale(0.1)"><g
         id="g916"
         transform="translate(4176.4102,4164.4902)"><path
           d="m 0,0 h 0.62 c 1.56,-0.13 3.11,-0.6 4.17,-1.91 1.24,-1.52 1.3,-3.63 1.3,-5.54 v -18.53 h 4.84 V -6.99 C 11.25,-0.53 8.57,4.35 2.42,4.02 -1.8,4.02 -4.79,1.78 -6.65,-0.92 v 4.61 h -4.53 v -29.67 h 4.84 V -8.37 C -5.96,-4.22 -4.29,-0.13 0,0"
           style="fill:#000000;fill-opacity:1;fill-rule:nonzero;stroke:none"
           id="path918"
           inkscape:connector-curvature="0" /></g></g><g
       id="g920"
       transform="scale(0.1)"><g
         id="g922"
         transform="translate(4089,4116.48)"><path
           d="M 0,0 V -91.31"
           style="fill:none;stroke:#000000;stroke-width:4;stroke-linecap:butt;stroke-linejoin:miter;stroke-miterlimit:10;stroke-dasharray:none;stroke-opacity:1"
           id="path924"
           inkscape:connector-curvature="0" /></g></g><g
       id="g926"
       transform="scale(0.1)"><g
         id="g928"
         transform="translate(4089,4006.7)"><path
           d="M 0,0 -16,27.68 H 16 L 0,0"
           style="fill:#000000;fill-opacity:1;fill-rule:evenodd;stroke:none"
           id="path930"
           inkscape:connector-curvature="0" /></g></g><g
       id="g932"
       transform="scale(0.1)"><g
         id="g934"
         transform="translate(4089,4006.7)"><path
           d="M 0,0 -16,27.68 H 16 Z"
           style="fill:none;stroke:#000000;stroke-width:4;stroke-linecap:butt;stroke-linejoin:miter;stroke-miterlimit:10;stroke-dasharray:none;stroke-opacity:1"
           id="path936"
           inkscape:connector-curvature="0" /></g></g></g></svg>