<?xml version="1.0" encoding="UTF-8" standalone="no"?>
<!-- Created with Inkscape (http://www.inkscape.org/) -->

<svg
   xmlns:dc="http://purl.org/dc/elements/1.1/"
   xmlns:cc="http://creativecommons.org/ns#"
   xmlns:rdf="http://www.w3.org/1999/02/22-rdf-syntax-ns#"
   xmlns:svg="http://www.w3.org/2000/svg"
   xmlns="http://www.w3.org/2000/svg"
   xmlns:sodipodi="http://sodipodi.sourceforge.net/DTD/sodipodi-0.dtd"
   xmlns:inkscape="http://www.inkscape.org/namespaces/inkscape"
   version="1.1"
   id="svg2"
   xml:space="preserve"
   width="816"
   height="1056"
   viewBox="0 0 816 1056"
   sodipodi:docname="gyro_fiber.svg"
   inkscape:version="0.92.2 (5c3e80d, 2017-08-06)"><metadata
     id="metadata8"><rdf:RDF><cc:Work
         rdf:about=""><dc:format>image/svg+xml</dc:format><dc:type
           rdf:resource="http://purl.org/dc/dcmitype/StillImage" /><dc:title></dc:title></cc:Work></rdf:RDF></metadata><defs
     id="defs6"><clipPath
       clipPathUnits="userSpaceOnUse"
       id="clipPath32"><path
         d="m 54.3,89.772 h 237.901 v 96.471 H 54.3 Z"
         id="path30"
         inkscape:connector-curvature="0" /></clipPath></defs><sodipodi:namedview
     pagecolor="#ffffff"
     bordercolor="#666666"
     borderopacity="1"
     objecttolerance="10"
     gridtolerance="10"
     guidetolerance="10"
     inkscape:pageopacity="0"
     inkscape:pageshadow="2"
     inkscape:window-width="1680"
     inkscape:window-height="988"
     id="namedview4"
     showgrid="false"
     inkscape:zoom="0.22348485"
     inkscape:cx="408"
     inkscape:cy="528"
     inkscape:window-x="1358"
     inkscape:window-y="-8"
     inkscape:window-maximized="1"
     inkscape:current-layer="g10" /><g
     id="g10"
     inkscape:groupmode="layer"
     inkscape:label="A9R8FFC"
     transform="matrix(1.3333333,0,0,-1.3333333,0,1056)"><g
       id="g12"
       transform="translate(193.454,110.876)"><path
         d="M 0,0 H 2.272 C 2.242,0.329 2.155,0.575 2.012,0.739 1.792,0.994 1.507,1.122 1.157,1.122 0.841,1.122 0.574,1.02 0.358,0.817 0.142,0.613 0.023,0.341 0,0 M 2.265,-1.064 2.913,-1.151 C 2.804,-1.552 2.603,-1.863 2.309,-2.084 2.015,-2.306 1.64,-2.417 1.183,-2.417 c -0.575,0 -1.031,0.177 -1.368,0.529 -0.337,0.352 -0.506,0.845 -0.506,1.481 0,0.657 0.171,1.168 0.511,1.531 0.341,0.363 0.783,0.545 1.326,0.545 0.526,0 0.955,-0.179 1.288,-0.535 0.333,-0.356 0.5,-0.857 0.5,-1.504 L 2.931,-0.547 h -2.96 c 0.026,-0.427 0.152,-0.755 0.378,-0.982 0.227,-0.227 0.509,-0.341 0.847,-0.341 0.252,0 0.467,0.064 0.645,0.192 0.179,0.128 0.32,0.333 0.424,0.614 M -6.662,-2.33 v 3.912 h 0.604 V 1.031 c 0.12,0.191 0.281,0.346 0.482,0.462 0.201,0.117 0.429,0.176 0.685,0.176 0.286,0 0.52,-0.061 0.702,-0.181 0.183,-0.12 0.311,-0.289 0.386,-0.505 0.308,0.457 0.709,0.686 1.203,0.686 0.386,0 0.683,-0.108 0.89,-0.323 0.208,-0.215 0.312,-0.545 0.312,-0.992 V -2.33 H -2.06 v 2.463 c 0,0.264 -0.021,0.455 -0.064,0.572 -0.042,0.116 -0.119,0.21 -0.231,0.281 -0.113,0.071 -0.244,0.107 -0.395,0.107 -0.273,0 -0.499,-0.091 -0.679,-0.274 -0.18,-0.183 -0.27,-0.475 -0.27,-0.878 V -2.33 h -0.662 v 2.54 c 0,0.294 -0.053,0.515 -0.16,0.662 -0.107,0.147 -0.281,0.221 -0.523,0.221 -0.185,0 -0.355,-0.049 -0.511,-0.147 C -5.712,0.848 -5.825,0.704 -5.895,0.515 -5.966,0.326 -6.001,0.054 -6.001,-0.302 V -2.33 Z m -1.628,1.956 c -0.248,-0.098 -0.619,-0.181 -1.114,-0.249 -0.28,-0.039 -0.478,-0.083 -0.594,-0.132 -0.116,-0.049 -0.206,-0.121 -0.269,-0.215 -0.063,-0.094 -0.094,-0.198 -0.094,-0.313 0,-0.176 0.068,-0.322 0.206,-0.44 0.137,-0.117 0.338,-0.176 0.602,-0.176 0.262,0 0.496,0.056 0.7,0.168 0.204,0.111 0.354,0.264 0.449,0.456 0.073,0.149 0.11,0.369 0.11,0.659 z m 0.029,-1.467 C -8.497,-2.051 -8.73,-2.2 -8.96,-2.287 c -0.229,-0.086 -0.476,-0.13 -0.739,-0.13 -0.435,0 -0.769,0.105 -1.003,0.314 -0.233,0.209 -0.35,0.476 -0.35,0.802 0,0.19 0.044,0.364 0.132,0.522 0.089,0.158 0.204,0.285 0.347,0.38 0.144,0.095 0.305,0.168 0.484,0.217 0.132,0.034 0.331,0.067 0.597,0.098 0.542,0.064 0.942,0.14 1.198,0.228 0.003,0.091 0.004,0.15 0.004,0.175 0,0.272 -0.064,0.464 -0.193,0.576 -0.174,0.151 -0.432,0.227 -0.774,0.227 -0.32,0 -0.556,-0.055 -0.709,-0.165 -0.152,-0.11 -0.265,-0.304 -0.338,-0.583 l -0.661,0.086 c 0.059,0.279 0.157,0.503 0.293,0.674 0.136,0.172 0.333,0.302 0.591,0.396 0.258,0.092 0.556,0.139 0.896,0.139 0.337,0 0.611,-0.04 0.822,-0.119 0.21,-0.079 0.365,-0.178 0.464,-0.297 C -7.8,1.134 -7.73,0.983 -7.691,0.801 -7.668,0.688 -7.657,0.484 -7.657,0.19 v -0.883 c 0,-0.615 0.013,-1.005 0.04,-1.168 0.027,-0.163 0.081,-0.319 0.161,-0.469 h -0.662 c -0.074,0.139 -0.122,0.302 -0.143,0.489 m -6.581,0.69 0.661,0.087 c 0.037,-0.261 0.138,-0.46 0.305,-0.598 0.168,-0.139 0.401,-0.208 0.701,-0.208 0.302,0 0.527,0.062 0.673,0.185 0.147,0.124 0.22,0.269 0.22,0.436 0,0.149 -0.07,0.266 -0.211,0.352 -0.097,0.059 -0.323,0.134 -0.677,0.224 -0.477,0.123 -0.811,0.229 -1.003,0.318 -0.191,0.09 -0.336,0.214 -0.435,0.372 -0.099,0.159 -0.148,0.334 -0.148,0.525 0,0.174 0.04,0.335 0.119,0.484 0.08,0.148 0.189,0.272 0.327,0.37 0.103,0.076 0.243,0.141 0.421,0.193 0.179,0.053 0.37,0.08 0.573,0.08 0.308,0 0.577,-0.046 0.809,-0.136 0.232,-0.09 0.404,-0.213 0.514,-0.367 0.111,-0.154 0.187,-0.361 0.229,-0.619 L -12.426,0.46 c -0.029,0.208 -0.112,0.371 -0.251,0.487 -0.138,0.117 -0.334,0.175 -0.587,0.175 -0.298,0 -0.511,-0.05 -0.639,-0.151 -0.128,-0.1 -0.192,-0.217 -0.192,-0.352 l 0.08,-0.231 c 0.053,-0.071 0.136,-0.13 0.249,-0.176 0.065,-0.026 0.256,-0.081 0.574,-0.169 0.46,-0.126 0.783,-0.228 0.97,-0.308 0.188,-0.08 0.335,-0.195 0.441,-0.348 0.107,-0.152 0.16,-0.341 0.16,-0.567 0,-0.22 -0.064,-0.428 -0.192,-0.623 -0.127,-0.195 -0.312,-0.347 -0.553,-0.454 -0.241,-0.106 -0.513,-0.16 -0.818,-0.16 -0.504,0 -0.889,0.107 -1.153,0.32 -0.264,0.212 -0.432,0.528 -0.505,0.946 m -6.026,-1.179 v 3.912 h 0.604 V 1.028 c 0.282,0.427 0.689,0.641 1.221,0.641 0.231,0 0.443,-0.043 0.637,-0.128 0.194,-0.084 0.339,-0.195 0.435,-0.333 0.096,-0.137 0.164,-0.3 0.203,-0.489 0.024,-0.123 0.036,-0.338 0.036,-0.645 V -2.33 h -0.662 v 2.378 c 0,0.27 -0.025,0.471 -0.076,0.605 -0.05,0.134 -0.14,0.241 -0.268,0.321 -0.129,0.079 -0.279,0.119 -0.453,0.119 -0.276,0 -0.514,-0.089 -0.715,-0.269 -0.2,-0.178 -0.3,-0.518 -0.3,-1.019 V -2.33 Z m -1.676,3.912 h 0.661 V -2.33 h -0.661 z m 0,1.467 h 0.661 V 2.301 h -0.661 z m -6.208,-5.379 v 3.912 h 0.604 V 1.028 c 0.282,0.427 0.689,0.641 1.221,0.641 0.231,0 0.443,-0.043 0.637,-0.128 0.194,-0.084 0.339,-0.195 0.435,-0.333 0.096,-0.137 0.164,-0.3 0.203,-0.489 0.024,-0.123 0.036,-0.338 0.036,-0.645 V -2.33 h -0.662 v 2.378 c 0,0.27 -0.025,0.471 -0.076,0.605 -0.05,0.134 -0.14,0.241 -0.268,0.321 -0.129,0.079 -0.279,0.119 -0.453,0.119 -0.276,0 -0.514,-0.089 -0.715,-0.269 -0.2,-0.178 -0.3,-0.518 -0.3,-1.019 V -2.33 Z m -3.779,1.958 c 0,-0.501 0.109,-0.875 0.327,-1.124 0.219,-0.249 0.494,-0.374 0.825,-0.374 0.329,0 0.603,0.125 0.821,0.375 0.219,0.251 0.328,0.632 0.328,1.145 0,0.483 -0.11,0.849 -0.33,1.098 -0.219,0.249 -0.492,0.374 -0.819,0.374 -0.331,0 -0.606,-0.124 -0.825,-0.372 -0.218,-0.248 -0.327,-0.622 -0.327,-1.122 m -0.662,-0.002 c 0,0.724 0.199,1.26 0.597,1.608 0.333,0.29 0.739,0.435 1.217,0.435 0.532,0 0.967,-0.177 1.304,-0.529 0.338,-0.352 0.507,-0.838 0.507,-1.459 0,-0.503 -0.075,-0.899 -0.225,-1.187 -0.149,-0.288 -0.366,-0.512 -0.651,-0.671 -0.286,-0.16 -0.597,-0.24 -0.935,-0.24 -0.541,0 -0.979,0.176 -1.313,0.527 -0.334,0.351 -0.501,0.856 -0.501,1.516 m -1.417,1.956 h 0.661 V -2.33 h -0.661 z m 0,1.467 h 0.661 V 2.301 h -0.661 z m -0.687,-4.822 0.086,-0.583 c -0.185,-0.04 -0.35,-0.061 -0.496,-0.061 -0.239,0 -0.424,0.039 -0.556,0.116 -0.131,0.077 -0.224,0.178 -0.277,0.303 -0.054,0.125 -0.08,0.389 -0.08,0.79 v 2.272 h -0.489 v 0.518 h 0.489 v 0.964 l 0.661,0.396 v -1.36 h 0.662 V 1.064 h -0.662 v -2.302 c 0,-0.191 0.012,-0.313 0.035,-0.368 l 0.113,-0.13 c 0.053,-0.032 0.128,-0.048 0.225,-0.048 0.074,0 0.17,0.004 0.289,0.011 m -2.984,1.399 c -0.247,-0.098 -0.618,-0.181 -1.113,-0.249 -0.28,-0.039 -0.478,-0.083 -0.595,-0.132 -0.116,-0.049 -0.205,-0.121 -0.269,-0.215 -0.062,-0.094 -0.094,-0.198 -0.094,-0.313 0,-0.176 0.069,-0.322 0.206,-0.44 0.137,-0.117 0.338,-0.176 0.603,-0.176 0.262,0 0.495,0.056 0.699,0.168 0.204,0.111 0.354,0.264 0.45,0.456 0.073,0.149 0.109,0.369 0.109,0.659 z m 0.029,-1.467 c -0.236,-0.21 -0.469,-0.359 -0.698,-0.446 -0.23,-0.086 -0.476,-0.13 -0.74,-0.13 -0.435,0 -0.769,0.105 -1.002,0.314 -0.234,0.209 -0.35,0.476 -0.35,0.802 0,0.19 0.044,0.364 0.132,0.522 0.088,0.158 0.204,0.285 0.347,0.38 0.143,0.095 0.304,0.168 0.484,0.217 0.131,0.034 0.33,0.067 0.596,0.098 0.543,0.064 0.942,0.14 1.198,0.228 0.003,0.091 0.004,0.15 0.004,0.175 0,0.272 -0.064,0.464 -0.193,0.576 -0.173,0.151 -0.431,0.227 -0.774,0.227 -0.32,0 -0.556,-0.055 -0.708,-0.165 -0.153,-0.11 -0.265,-0.304 -0.338,-0.583 l -0.662,0.086 c 0.059,0.279 0.157,0.503 0.293,0.674 0.137,0.172 0.334,0.302 0.592,0.396 0.257,0.092 0.556,0.139 0.895,0.139 0.338,0 0.611,-0.04 0.822,-0.119 0.211,-0.079 0.365,-0.178 0.464,-0.297 0.1,-0.119 0.169,-0.27 0.209,-0.452 0.022,-0.113 0.033,-0.317 0.033,-0.611 v -0.883 c 0,-0.615 0.014,-1.005 0.041,-1.168 0.027,-0.163 0.081,-0.319 0.161,-0.469 h -0.662 c -0.075,0.139 -0.123,0.302 -0.144,0.489 m -3.301,0.068 0.086,-0.583 c -0.185,-0.04 -0.35,-0.061 -0.496,-0.061 -0.239,0 -0.424,0.039 -0.555,0.116 -0.132,0.077 -0.225,0.178 -0.278,0.303 -0.054,0.125 -0.08,0.389 -0.08,0.79 v 2.272 h -0.489 v 0.518 h 0.489 v 0.964 l 0.661,0.396 v -1.36 h 0.662 V 1.064 h -0.662 v -2.302 c 0,-0.191 0.012,-0.313 0.035,-0.368 l 0.113,-0.13 c 0.053,-0.032 0.128,-0.048 0.225,-0.048 0.074,0 0.17,0.004 0.289,0.011 m -5.112,1.401 c 0,-0.501 0.109,-0.875 0.327,-1.124 0.219,-0.249 0.494,-0.374 0.825,-0.374 0.329,0 0.603,0.125 0.821,0.375 0.219,0.251 0.328,0.632 0.328,1.145 0,0.483 -0.11,0.849 -0.329,1.098 -0.22,0.249 -0.493,0.374 -0.82,0.374 -0.331,0 -0.606,-0.124 -0.825,-0.372 -0.218,-0.248 -0.327,-0.622 -0.327,-1.122 m -0.662,-0.002 c 0,0.724 0.199,1.26 0.597,1.608 0.333,0.29 0.739,0.435 1.217,0.435 0.532,0 0.967,-0.177 1.304,-0.529 0.338,-0.352 0.507,-0.838 0.507,-1.459 0,-0.503 -0.075,-0.899 -0.225,-1.187 -0.149,-0.288 -0.366,-0.512 -0.651,-0.671 -0.286,-0.16 -0.597,-0.24 -0.935,-0.24 -0.541,0 -0.979,0.176 -1.313,0.527 -0.334,0.351 -0.501,0.856 -0.501,1.516 m -4.33,1.064 h 1.509 c 0.321,0 0.572,0.034 0.753,0.1 0.182,0.066 0.321,0.172 0.415,0.318 0.095,0.146 0.142,0.305 0.142,0.476 0,0.251 -0.091,0.457 -0.274,0.619 -0.183,0.161 -0.472,0.242 -0.866,0.242 h -1.679 z m -0.719,-3.02 v 5.379 h 2.369 c 0.473,0 0.832,-0.048 1.078,-0.145 0.246,-0.096 0.442,-0.267 0.589,-0.512 0.148,-0.245 0.221,-0.515 0.221,-0.812 0,-0.382 -0.122,-0.704 -0.365,-0.966 -0.244,-0.261 -0.62,-0.428 -1.129,-0.499 0.18,-0.093 0.317,-0.184 0.41,-0.275 0.198,-0.195 0.388,-0.431 0.569,-0.707 l 0.911,-1.463 h -0.844 l -0.702,1.118 c -0.205,0.323 -0.374,0.569 -0.507,0.741 -0.132,0.171 -0.251,0.29 -0.356,0.359 -0.104,0.069 -0.211,0.117 -0.32,0.144 -0.08,0.017 -0.21,0.025 -0.391,0.025 h -0.814 V -2.33"
         style="fill:#231f20;fill-opacity:1;fill-rule:nonzero;stroke:none"
         id="path14"
         inkscape:connector-curvature="0" /></g><path
       d="m 194.619,102.136 h 4.142 v -0.518 h -4.142 z m -2.325,-1.629 0.086,-0.583 c -0.185,-0.04 -0.351,-0.06 -0.497,-0.06 -0.238,0 -0.423,0.038 -0.555,0.115 -0.131,0.077 -0.224,0.178 -0.278,0.303 -0.053,0.125 -0.08,0.389 -0.08,0.79 v 2.273 h -0.489 v 0.517 h 0.489 v 0.965 l 0.662,0.396 v -1.361 h 0.662 v -0.517 h -0.662 v -2.303 c 0,-0.19 0.012,-0.313 0.035,-0.367 l 0.113,-0.13 c 0.052,-0.032 0.127,-0.048 0.225,-0.048 0.073,0 0.169,0.003 0.289,0.01 m -5.516,-0.557 v 5.38 h 0.662 v -1.923 c 0.303,0.361 0.686,0.542 1.149,0.542 0.284,0 0.53,-0.057 0.74,-0.172 0.209,-0.114 0.359,-0.271 0.449,-0.473 0.091,-0.201 0.136,-0.493 0.136,-0.876 V 99.95 h -0.662 v 2.475 c 0,0.331 -0.07,0.572 -0.209,0.722 -0.14,0.151 -0.338,0.226 -0.594,0.226 -0.192,0 -0.372,-0.05 -0.541,-0.152 -0.168,-0.102 -0.289,-0.239 -0.36,-0.414 -0.072,-0.174 -0.108,-0.414 -0.108,-0.72 V 99.95 Z m -3.779,2.025 c 0,-0.514 0.101,-0.888 0.303,-1.125 0.202,-0.235 0.455,-0.353 0.759,-0.353 0.302,0 0.555,0.117 0.76,0.352 0.204,0.235 0.307,0.603 0.307,1.104 0,0.479 -0.106,0.841 -0.316,1.084 -0.211,0.243 -0.464,0.365 -0.761,0.365 -0.293,0 -0.541,-0.12 -0.746,-0.359 -0.204,-0.24 -0.306,-0.596 -0.306,-1.068 m -0.518,-2.341 0.662,-0.087 c 0.026,-0.203 0.099,-0.351 0.22,-0.444 0.161,-0.126 0.381,-0.189 0.66,-0.189 0.301,0 0.533,0.061 0.697,0.182 0.164,0.12 0.274,0.289 0.332,0.507 0.034,0.132 0.049,0.411 0.047,0.836 -0.289,-0.326 -0.648,-0.489 -1.078,-0.489 -0.536,0 -0.95,0.194 -1.244,0.582 -0.293,0.388 -0.44,0.853 -0.44,1.395 0,0.373 0.067,0.718 0.202,1.033 0.134,0.315 0.328,0.559 0.583,0.731 0.255,0.172 0.555,0.258 0.899,0.258 0.459,0 0.837,-0.192 1.135,-0.576 v 0.489 h 0.604 v -3.378 c 0,-0.609 -0.061,-1.04 -0.184,-1.294 -0.122,-0.253 -0.317,-0.454 -0.583,-0.601 -0.266,-0.147 -0.593,-0.221 -0.981,-0.221 -0.462,0 -0.835,0.105 -1.119,0.315 -0.285,0.211 -0.422,0.528 -0.412,0.951 m -1.526,4.228 h 0.661 V 99.95 h -0.661 z m 0,1.468 h 0.661 v -0.748 h -0.661 z m -1.67,0 h 0.661 v -5.379 h -0.661 z m -6.134,-4.2 0.662,0.086 c 0.036,-0.26 0.138,-0.46 0.305,-0.598 0.167,-0.138 0.401,-0.208 0.701,-0.208 0.302,0 0.526,0.062 0.672,0.186 0.147,0.123 0.22,0.268 0.22,0.435 0,0.149 -0.07,0.267 -0.21,0.352 -0.098,0.059 -0.324,0.134 -0.678,0.224 -0.477,0.123 -0.811,0.229 -1.002,0.319 -0.192,0.089 -0.337,0.213 -0.435,0.371 -0.099,0.159 -0.149,0.334 -0.149,0.525 0,0.174 0.04,0.336 0.12,0.484 0.08,0.149 0.189,0.272 0.326,0.37 0.103,0.076 0.244,0.141 0.422,0.194 0.178,0.052 0.369,0.079 0.573,0.079 0.307,0 0.576,-0.046 0.808,-0.136 0.233,-0.09 0.404,-0.213 0.515,-0.367 0.11,-0.154 0.186,-0.361 0.228,-0.619 l -0.662,-0.086 c -0.028,0.207 -0.112,0.37 -0.25,0.486 -0.139,0.117 -0.335,0.175 -0.588,0.175 -0.298,0 -0.511,-0.05 -0.639,-0.15 -0.127,-0.101 -0.191,-0.218 -0.191,-0.353 l 0.079,-0.231 c 0.053,-0.071 0.136,-0.13 0.249,-0.176 0.065,-0.025 0.256,-0.081 0.574,-0.169 0.46,-0.125 0.784,-0.228 0.971,-0.308 0.187,-0.079 0.334,-0.195 0.441,-0.347 0.107,-0.153 0.16,-0.342 0.16,-0.567 0,-0.221 -0.064,-0.429 -0.192,-0.624 -0.128,-0.195 -0.312,-0.346 -0.553,-0.453 -0.241,-0.107 -0.514,-0.16 -0.819,-0.16 -0.504,0 -0.888,0.106 -1.152,0.319 -0.264,0.213 -0.433,0.528 -0.506,0.947 m -1.315,0.776 c -0.248,-0.097 -0.619,-0.18 -1.114,-0.249 -0.28,-0.039 -0.478,-0.083 -0.594,-0.132 -0.116,-0.049 -0.206,-0.12 -0.269,-0.214 -0.063,-0.094 -0.095,-0.199 -0.095,-0.314 0,-0.176 0.069,-0.322 0.206,-0.44 0.138,-0.117 0.339,-0.175 0.603,-0.175 0.262,0 0.495,0.055 0.7,0.167 0.204,0.112 0.353,0.264 0.449,0.456 0.073,0.149 0.11,0.369 0.11,0.659 z m 0.028,-1.467 c -0.235,-0.21 -0.468,-0.359 -0.698,-0.445 -0.23,-0.087 -0.476,-0.13 -0.739,-0.13 -0.435,0 -0.769,0.104 -1.003,0.313 -0.233,0.209 -0.35,0.477 -0.35,0.802 0,0.191 0.044,0.365 0.132,0.522 0.089,0.158 0.204,0.285 0.347,0.38 0.143,0.096 0.305,0.168 0.484,0.217 0.132,0.034 0.331,0.067 0.597,0.099 0.542,0.063 0.941,0.139 1.198,0.227 0.002,0.092 0.004,0.15 0.004,0.175 0,0.273 -0.065,0.465 -0.193,0.576 -0.174,0.151 -0.432,0.227 -0.775,0.227 -0.319,0 -0.555,-0.055 -0.708,-0.165 -0.152,-0.109 -0.265,-0.304 -0.338,-0.583 l -0.662,0.087 c 0.06,0.278 0.158,0.503 0.294,0.674 0.136,0.171 0.333,0.303 0.591,0.395 0.258,0.092 0.556,0.139 0.896,0.139 0.337,0 0.611,-0.04 0.821,-0.118 0.211,-0.079 0.366,-0.178 0.465,-0.298 0.099,-0.119 0.168,-0.27 0.208,-0.452 0.023,-0.113 0.034,-0.317 0.034,-0.611 v -0.882 c 0,-0.616 0.013,-1.005 0.04,-1.169 0.027,-0.163 0.081,-0.319 0.161,-0.469 h -0.662 c -0.074,0.139 -0.122,0.302 -0.144,0.489 m -8.816,-0.489 v 3.912 h 0.604 v -0.553 c 0.282,0.426 0.689,0.64 1.221,0.64 0.231,0 0.444,-0.043 0.637,-0.128 0.194,-0.084 0.339,-0.195 0.435,-0.333 0.097,-0.137 0.164,-0.3 0.203,-0.489 0.024,-0.123 0.036,-0.338 0.036,-0.645 V 99.95 h -0.662 v 2.378 c 0,0.27 -0.025,0.472 -0.076,0.605 -0.05,0.134 -0.139,0.241 -0.268,0.321 -0.128,0.08 -0.279,0.119 -0.452,0.119 -0.276,0 -0.515,-0.089 -0.715,-0.268 -0.201,-0.179 -0.301,-0.519 -0.301,-1.02 V 99.95 Z m -3.751,1.958 c 0,-0.5 0.11,-0.875 0.328,-1.124 0.219,-0.249 0.494,-0.374 0.825,-0.374 0.329,0 0.603,0.125 0.821,0.376 0.219,0.25 0.328,0.631 0.328,1.144 0,0.483 -0.11,0.85 -0.33,1.099 -0.219,0.249 -0.492,0.373 -0.819,0.373 -0.331,0 -0.606,-0.124 -0.825,-0.372 -0.218,-0.247 -0.328,-0.622 -0.328,-1.122 m -0.661,-0.002 c 0,0.724 0.199,1.26 0.597,1.609 0.333,0.289 0.738,0.434 1.217,0.434 0.532,0 0.966,-0.176 1.304,-0.528 0.338,-0.353 0.506,-0.839 0.506,-1.459 0,-0.504 -0.074,-0.899 -0.224,-1.188 -0.149,-0.288 -0.366,-0.512 -0.652,-0.671 -0.285,-0.16 -0.596,-0.239 -0.934,-0.239 -0.542,0 -0.979,0.175 -1.313,0.526 -0.334,0.351 -0.501,0.856 -0.501,1.516 m -1.411,1.956 h 0.661 V 99.95 h -0.661 z m 0,1.468 h 0.661 v -0.748 h -0.661 z m -0.693,-4.823 0.086,-0.583 c -0.185,-0.04 -0.35,-0.06 -0.497,-0.06 -0.238,0 -0.423,0.038 -0.555,0.115 -0.131,0.077 -0.224,0.178 -0.277,0.303 -0.054,0.125 -0.08,0.389 -0.08,0.79 v 2.273 h -0.489 v 0.517 h 0.489 v 0.965 l 0.661,0.396 v -1.361 h 0.662 v -0.517 h -0.662 v -2.303 c 0,-0.19 0.012,-0.313 0.035,-0.367 l 0.113,-0.13 c 0.053,-0.032 0.128,-0.048 0.225,-0.048 0.073,0 0.17,0.003 0.289,0.01 m -2.651,0.881 0.662,-0.086 c -0.072,-0.45 -0.255,-0.802 -0.55,-1.057 -0.295,-0.254 -0.657,-0.381 -1.086,-0.381 -0.538,0 -0.97,0.174 -1.297,0.524 -0.327,0.35 -0.49,0.851 -0.49,1.503 0,0.422 0.069,0.792 0.209,1.108 0.14,0.317 0.352,0.554 0.637,0.712 0.286,0.159 0.597,0.238 0.932,0.238 0.424,0 0.771,-0.108 1.04,-0.323 0.27,-0.214 0.443,-0.519 0.519,-0.914 l -0.662,-0.087 c -0.061,0.258 -0.17,0.452 -0.325,0.582 -0.156,0.13 -0.344,0.195 -0.564,0.195 -0.333,0 -0.604,-0.119 -0.812,-0.358 -0.209,-0.239 -0.313,-0.617 -0.313,-1.134 0,-0.525 0.102,-0.906 0.306,-1.143 0.204,-0.238 0.47,-0.357 0.798,-0.357 0.264,0 0.484,0.08 0.661,0.24 0.176,0.16 0.288,0.406 0.335,0.738 m -6.205,0.892 h 2.272 c -0.03,0.329 -0.117,0.575 -0.26,0.74 -0.22,0.255 -0.505,0.382 -0.855,0.382 -0.317,0 -0.583,-0.102 -0.799,-0.305 -0.216,-0.204 -0.335,-0.476 -0.358,-0.817 m 2.265,-1.064 0.648,-0.086 c -0.109,-0.401 -0.31,-0.713 -0.604,-0.934 -0.294,-0.222 -0.669,-0.332 -1.126,-0.332 -0.575,0 -1.031,0.176 -1.369,0.528 -0.336,0.352 -0.505,0.846 -0.505,1.481 0,0.658 0.17,1.168 0.511,1.531 0.341,0.363 0.783,0.545 1.326,0.545 0.525,0 0.955,-0.178 1.288,-0.535 0.333,-0.356 0.5,-0.857 0.5,-1.503 l -0.004,-0.177 h -2.959 c 0.025,-0.428 0.151,-0.756 0.378,-0.983 0.226,-0.227 0.509,-0.341 0.847,-0.341 0.252,0 0.467,0.064 0.645,0.192 0.179,0.129 0.32,0.333 0.424,0.614 m -5.228,-1.266 v 3.912 h 0.576 v -0.6 c 0.149,0.28 0.286,0.464 0.412,0.553 0.127,0.089 0.265,0.134 0.417,0.134 0.218,0 0.441,-0.071 0.667,-0.213 l -0.226,-0.606 c -0.155,0.086 -0.31,0.128 -0.465,0.128 -0.139,0 -0.264,-0.043 -0.374,-0.13 -0.11,-0.087 -0.19,-0.208 -0.237,-0.362 -0.072,-0.236 -0.108,-0.493 -0.108,-0.772 V 99.95 Z m -1.67,3.912 h 0.662 V 99.95 h -0.662 z m 0,1.468 h 0.662 v -0.748 h -0.662 z m -3.703,-3.426 c 0,-0.5 0.108,-0.874 0.325,-1.122 0.216,-0.248 0.471,-0.372 0.765,-0.372 0.297,0 0.549,0.119 0.757,0.355 0.207,0.237 0.311,0.598 0.311,1.084 0,0.535 -0.106,0.928 -0.317,1.178 -0.211,0.25 -0.471,0.375 -0.781,0.375 -0.301,0 -0.554,-0.12 -0.756,-0.361 -0.202,-0.24 -0.304,-0.619 -0.304,-1.137 m 2.129,-1.954 v 0.497 c -0.249,-0.389 -0.615,-0.583 -1.099,-0.583 -0.313,0 -0.601,0.086 -0.864,0.257 -0.263,0.172 -0.467,0.412 -0.611,0.72 -0.144,0.308 -0.216,0.662 -0.216,1.062 0,0.39 0.065,0.744 0.195,1.061 0.13,0.318 0.325,0.561 0.586,0.731 0.26,0.169 0.551,0.254 0.872,0.254 0.236,0 0.446,-0.05 0.63,-0.149 0.184,-0.099 0.334,-0.228 0.45,-0.387 v 1.917 h 0.661 v -5.38"
       style="fill:#231f20;fill-opacity:1;fill-rule:nonzero;stroke:none"
       id="path16"
       inkscape:connector-curvature="0" /><g
       id="g18"
       transform="translate(200.639,92.534)"><path
         d="m 0,0 0.662,0.086 c 0.036,-0.26 0.138,-0.459 0.305,-0.598 0.167,-0.138 0.401,-0.207 0.701,-0.207 0.302,0 0.526,0.062 0.673,0.185 0.146,0.124 0.22,0.269 0.22,0.436 C 2.561,0.051 2.49,0.168 2.35,0.254 2.252,0.313 2.027,0.387 1.672,0.478 1.196,0.601 0.861,0.707 0.67,0.796 0.479,0.886 0.334,1.01 0.235,1.168 0.136,1.326 0.087,1.501 0.087,1.693 c 0,0.174 0.039,0.335 0.119,0.483 0.08,0.149 0.189,0.273 0.326,0.371 0.104,0.076 0.244,0.14 0.422,0.193 0.178,0.053 0.369,0.079 0.573,0.079 0.307,0 0.577,-0.045 0.809,-0.136 C 2.568,2.593 2.739,2.471 2.85,2.317 2.961,2.162 3.037,1.956 3.078,1.697 L 2.417,1.611 C 2.388,1.819 2.304,1.981 2.166,2.098 2.027,2.214 1.832,2.273 1.579,2.273 1.28,2.273 1.067,2.222 0.94,2.122 0.812,2.022 0.748,1.904 0.748,1.77 L 0.828,1.539 C 0.88,1.467 0.963,1.409 1.076,1.362 1.141,1.338 1.333,1.281 1.651,1.193 2.111,1.068 2.434,0.966 2.621,0.886 2.808,0.806 2.955,0.69 3.062,0.538 3.169,0.386 3.222,0.197 3.222,-0.029 3.222,-0.25 3.158,-0.458 3.03,-0.653 2.903,-0.848 2.718,-0.999 2.477,-1.106 2.236,-1.212 1.963,-1.266 1.659,-1.266 1.154,-1.266 0.77,-1.159 0.506,-0.947 0.242,-0.734 0.073,-0.418 0,0 M -3.482,1.151 H -1.21 C -1.24,1.479 -1.327,1.726 -1.471,1.89 -1.69,2.145 -1.975,2.273 -2.325,2.273 -2.642,2.273 -2.908,2.171 -3.124,1.967 -3.34,1.764 -3.459,1.492 -3.482,1.151 M -1.217,0.086 -0.569,0 c -0.109,-0.401 -0.31,-0.712 -0.604,-0.934 -0.294,-0.221 -0.669,-0.332 -1.126,-0.332 -0.575,0 -1.032,0.176 -1.369,0.528 -0.336,0.353 -0.505,0.846 -0.505,1.481 0,0.658 0.17,1.168 0.511,1.531 0.34,0.364 0.782,0.545 1.326,0.545 0.525,0 0.955,-0.178 1.288,-0.534 0.333,-0.357 0.5,-0.858 0.5,-1.504 L -0.552,0.604 h -2.959 c 0.025,-0.427 0.151,-0.755 0.378,-0.982 0.226,-0.228 0.509,-0.341 0.847,-0.341 0.252,0 0.467,0.064 0.645,0.192 0.178,0.128 0.32,0.333 0.424,0.613 M -7.926,0 -7.264,0.086 c 0.036,-0.26 0.138,-0.459 0.305,-0.598 0.167,-0.138 0.401,-0.207 0.701,-0.207 0.302,0 0.526,0.062 0.673,0.185 0.146,0.124 0.219,0.269 0.219,0.436 0,0.149 -0.07,0.266 -0.21,0.352 C -5.674,0.313 -5.9,0.387 -6.254,0.478 -6.73,0.601 -7.065,0.707 -7.256,0.796 -7.447,0.886 -7.592,1.01 -7.691,1.168 -7.79,1.326 -7.84,1.501 -7.84,1.693 c 0,0.174 0.04,0.335 0.12,0.483 0.08,0.149 0.189,0.273 0.326,0.371 0.103,0.076 0.244,0.14 0.422,0.193 0.178,0.053 0.369,0.079 0.573,0.079 0.307,0 0.577,-0.045 0.809,-0.136 0.232,-0.09 0.403,-0.212 0.514,-0.366 0.111,-0.155 0.187,-0.361 0.228,-0.62 L -5.509,1.611 c -0.029,0.208 -0.113,0.37 -0.251,0.487 -0.139,0.116 -0.334,0.175 -0.587,0.175 -0.299,0 -0.512,-0.051 -0.639,-0.151 -0.128,-0.1 -0.192,-0.218 -0.192,-0.352 l 0.08,-0.231 c 0.052,-0.072 0.135,-0.13 0.248,-0.177 0.065,-0.024 0.257,-0.081 0.575,-0.169 0.46,-0.125 0.783,-0.227 0.97,-0.307 0.187,-0.08 0.334,-0.196 0.441,-0.348 0.107,-0.152 0.16,-0.341 0.16,-0.567 0,-0.221 -0.064,-0.429 -0.192,-0.624 -0.127,-0.195 -0.312,-0.346 -0.553,-0.453 -0.241,-0.106 -0.514,-0.16 -0.818,-0.16 -0.505,0 -0.889,0.107 -1.153,0.319 C -7.684,-0.734 -7.853,-0.418 -7.926,0 M -9.241,0.777 C -9.489,0.679 -9.86,0.596 -10.354,0.528 c -0.281,-0.04 -0.479,-0.084 -0.595,-0.132 -0.116,-0.049 -0.206,-0.121 -0.269,-0.215 -0.063,-0.094 -0.094,-0.198 -0.094,-0.313 0,-0.176 0.068,-0.323 0.206,-0.44 0.137,-0.117 0.338,-0.176 0.602,-0.176 0.263,0 0.496,0.056 0.7,0.167 0.204,0.112 0.354,0.264 0.449,0.457 0.073,0.149 0.11,0.369 0.11,0.659 z m 0.029,-1.467 c -0.236,-0.211 -0.469,-0.359 -0.699,-0.446 -0.229,-0.087 -0.476,-0.13 -0.739,-0.13 -0.435,0 -0.769,0.105 -1.002,0.313 -0.234,0.21 -0.351,0.477 -0.351,0.802 0,0.191 0.044,0.365 0.133,0.523 0.088,0.158 0.204,0.284 0.347,0.38 0.143,0.095 0.304,0.167 0.483,0.216 0.132,0.034 0.331,0.067 0.597,0.099 0.542,0.064 0.942,0.139 1.198,0.227 0.003,0.092 0.004,0.151 0.004,0.175 0,0.273 -0.064,0.465 -0.193,0.577 -0.174,0.151 -0.432,0.227 -0.774,0.227 -0.32,0 -0.556,-0.055 -0.709,-0.165 -0.152,-0.11 -0.265,-0.304 -0.338,-0.583 l -0.661,0.086 c 0.059,0.278 0.157,0.503 0.293,0.674 0.137,0.171 0.334,0.303 0.591,0.395 0.258,0.093 0.557,0.139 0.896,0.139 0.337,0 0.611,-0.039 0.822,-0.118 0.21,-0.079 0.365,-0.178 0.464,-0.297 0.099,-0.119 0.169,-0.27 0.209,-0.452 0.022,-0.114 0.033,-0.317 0.033,-0.612 V 0.458 c 0,-0.616 0.013,-1.005 0.04,-1.168 0.028,-0.163 0.081,-0.32 0.161,-0.47 h -0.661 c -0.075,0.14 -0.123,0.303 -0.144,0.49 m -6.302,1.841 h 2.273 c -0.031,0.328 -0.118,0.575 -0.261,0.739 -0.22,0.255 -0.505,0.383 -0.855,0.383 -0.316,0 -0.583,-0.102 -0.799,-0.306 -0.216,-0.203 -0.335,-0.475 -0.358,-0.816 M -13.249,0.086 -12.601,0 c -0.109,-0.401 -0.31,-0.712 -0.604,-0.934 -0.294,-0.221 -0.669,-0.332 -1.126,-0.332 -0.575,0 -1.031,0.176 -1.368,0.528 -0.337,0.353 -0.506,0.846 -0.506,1.481 0,0.658 0.171,1.168 0.511,1.531 0.341,0.364 0.783,0.545 1.326,0.545 0.526,0 0.955,-0.178 1.288,-0.534 0.334,-0.357 0.5,-0.858 0.5,-1.504 l -0.003,-0.177 h -2.96 c 0.026,-0.427 0.152,-0.755 0.378,-0.982 0.227,-0.228 0.509,-0.341 0.847,-0.341 0.252,0 0.467,0.064 0.645,0.192 0.179,0.128 0.32,0.333 0.424,0.613 m -5.132,-1.266 v 3.913 h 0.575 v -0.6 c 0.149,0.279 0.287,0.464 0.413,0.553 0.126,0.089 0.265,0.133 0.416,0.133 0.219,0 0.441,-0.071 0.667,-0.212 l -0.225,-0.606 c -0.155,0.085 -0.31,0.128 -0.466,0.128 -0.138,0 -0.263,-0.044 -0.374,-0.131 -0.11,-0.087 -0.189,-0.208 -0.237,-0.362 -0.072,-0.235 -0.107,-0.492 -0.107,-0.772 V -1.18 Z m -1.289,1.439 0.662,-0.086 c -0.072,-0.45 -0.255,-0.803 -0.55,-1.057 -0.295,-0.255 -0.657,-0.382 -1.086,-0.382 -0.538,0 -0.97,0.175 -1.297,0.524 -0.327,0.35 -0.491,0.851 -0.491,1.504 0,0.422 0.07,0.791 0.21,1.107 0.139,0.317 0.352,0.555 0.637,0.713 0.286,0.158 0.596,0.237 0.932,0.237 0.424,0 0.771,-0.107 1.04,-0.322 0.27,-0.215 0.443,-0.52 0.518,-0.915 l -0.661,-0.086 c -0.061,0.258 -0.17,0.452 -0.326,0.581 -0.155,0.131 -0.343,0.196 -0.563,0.196 -0.334,0 -0.604,-0.12 -0.813,-0.359 -0.208,-0.238 -0.312,-0.617 -0.312,-1.134 0,-0.524 0.102,-0.905 0.306,-1.143 0.204,-0.237 0.47,-0.356 0.798,-0.356 0.264,0 0.484,0.08 0.66,0.239 0.177,0.16 0.289,0.407 0.336,0.739 m -6.705,-1.439 v 3.913 h 0.604 V 2.179 c 0.282,0.427 0.689,0.64 1.221,0.64 0.231,0 0.444,-0.042 0.637,-0.127 0.194,-0.085 0.339,-0.196 0.435,-0.333 0.097,-0.138 0.164,-0.301 0.203,-0.49 0.024,-0.123 0.036,-0.337 0.036,-0.644 V -1.18 h -0.662 v 2.378 c 0,0.27 -0.025,0.472 -0.076,0.606 -0.05,0.134 -0.139,0.241 -0.268,0.32 -0.128,0.08 -0.279,0.12 -0.452,0.12 -0.276,0 -0.514,-0.09 -0.715,-0.269 -0.201,-0.179 -0.301,-0.519 -0.301,-1.019 V -1.18 Z m -1.667,3.913 h 0.662 v -3.912 h -0.662 z m 0,1.467 h 0.662 V 3.452 h -0.662 z m -6.275,-5.38 V 4.2 h 0.661 V 2.277 c 0.304,0.362 0.687,0.542 1.149,0.542 0.284,0 0.531,-0.057 0.74,-0.171 0.21,-0.114 0.36,-0.272 0.45,-0.473 0.09,-0.202 0.135,-0.493 0.135,-0.877 V -1.18 h -0.661 v 2.475 c 0,0.331 -0.07,0.572 -0.21,0.723 -0.14,0.15 -0.338,0.226 -0.594,0.226 -0.191,0 -0.371,-0.051 -0.54,-0.153 C -33.356,1.99 -33.476,1.852 -33.548,1.678 -33.62,1.504 -33.656,1.264 -33.656,0.957 V -1.18 Z m -0.678,0.557 0.086,-0.583 c -0.184,-0.04 -0.35,-0.06 -0.496,-0.06 -0.239,0 -0.424,0.039 -0.555,0.115 -0.132,0.077 -0.225,0.178 -0.278,0.304 -0.054,0.125 -0.08,0.388 -0.08,0.79 v 2.272 h -0.489 v 0.518 h 0.489 v 0.964 l 0.661,0.396 v -1.36 h 0.662 V 2.215 h -0.662 v -2.303 c 0,-0.19 0.012,-0.312 0.035,-0.367 l 0.113,-0.13 c 0.053,-0.032 0.128,-0.048 0.226,-0.048 0.073,0 0.169,0.004 0.288,0.01 m -5.141,1.468 c 0,-0.513 0.101,-0.888 0.303,-1.124 0.202,-0.236 0.455,-0.354 0.759,-0.354 0.302,0 0.555,0.117 0.76,0.352 0.204,0.235 0.307,0.603 0.307,1.104 0,0.48 -0.106,0.841 -0.316,1.085 -0.211,0.243 -0.464,0.365 -0.761,0.365 -0.292,0 -0.541,-0.12 -0.746,-0.36 -0.204,-0.24 -0.306,-0.596 -0.306,-1.068 m -0.518,-2.341 0.662,-0.086 c 0.026,-0.204 0.1,-0.352 0.22,-0.445 0.161,-0.125 0.381,-0.188 0.66,-0.188 0.301,0 0.533,0.06 0.697,0.181 0.164,0.121 0.274,0.29 0.332,0.507 0.034,0.133 0.049,0.412 0.047,0.837 -0.289,-0.326 -0.648,-0.49 -1.078,-0.49 -0.536,0 -0.95,0.194 -1.244,0.582 -0.293,0.388 -0.44,0.854 -0.44,1.396 0,0.373 0.067,0.717 0.202,1.032 0.134,0.316 0.329,0.559 0.584,0.731 0.255,0.172 0.554,0.258 0.898,0.258 0.459,0 0.838,-0.192 1.135,-0.575 v 0.489 h 0.605 v -3.379 c 0,-0.608 -0.062,-1.039 -0.185,-1.293 -0.122,-0.254 -0.317,-0.454 -0.583,-0.602 -0.266,-0.147 -0.593,-0.221 -0.981,-0.221 -0.462,0 -0.835,0.106 -1.119,0.316 -0.285,0.21 -0.422,0.527 -0.412,0.95 m -4.029,0.316 v 3.913 h 0.604 V 2.179 c 0.282,0.427 0.689,0.64 1.221,0.64 0.231,0 0.443,-0.042 0.637,-0.127 0.194,-0.085 0.339,-0.196 0.435,-0.333 0.096,-0.138 0.164,-0.301 0.202,-0.49 0.024,-0.123 0.036,-0.337 0.036,-0.644 V -1.18 h -0.661 v 2.378 c 0,0.27 -0.026,0.472 -0.076,0.606 -0.05,0.134 -0.14,0.241 -0.269,0.32 -0.128,0.08 -0.278,0.12 -0.452,0.12 -0.276,0 -0.514,-0.09 -0.715,-0.269 -0.2,-0.179 -0.301,-0.519 -0.301,-1.019 V -1.18 Z m -3.742,2.331 h 2.273 c -0.031,0.328 -0.118,0.575 -0.261,0.739 -0.22,0.255 -0.504,0.383 -0.854,0.383 -0.317,0 -0.584,-0.102 -0.8,-0.306 -0.215,-0.203 -0.335,-0.475 -0.358,-0.816 M -46.159,0.086 -45.512,0 c -0.108,-0.401 -0.31,-0.712 -0.604,-0.934 -0.293,-0.221 -0.669,-0.332 -1.125,-0.332 -0.576,0 -1.032,0.176 -1.369,0.528 -0.337,0.353 -0.505,0.846 -0.505,1.481 0,0.658 0.17,1.168 0.51,1.531 0.341,0.364 0.783,0.545 1.326,0.545 0.526,0 0.955,-0.178 1.289,-0.534 0.333,-0.357 0.499,-0.858 0.499,-1.504 l -0.003,-0.177 h -2.96 c 0.026,-0.427 0.152,-0.755 0.378,-0.982 0.227,-0.228 0.509,-0.341 0.848,-0.341 0.252,0 0.467,0.064 0.645,0.192 0.178,0.128 0.319,0.333 0.424,0.613 M -50.523,4.2 h 0.662 v -5.379 h -0.662 z m -6.276,-5.38 V 4.2 h 0.662 V 2.277 c 0.303,0.362 0.686,0.542 1.148,0.542 0.284,0 0.531,-0.057 0.741,-0.171 0.209,-0.114 0.359,-0.272 0.449,-0.473 0.09,-0.202 0.136,-0.493 0.136,-0.877 V -1.18 h -0.662 v 2.475 c 0,0.331 -0.07,0.572 -0.21,0.723 -0.14,0.15 -0.338,0.226 -0.594,0.226 -0.191,0 -0.371,-0.051 -0.54,-0.153 C -55.838,1.99 -55.958,1.852 -56.03,1.678 -56.101,1.504 -56.137,1.264 -56.137,0.957 V -1.18 Z m -0.678,0.557 0.087,-0.583 c -0.185,-0.04 -0.351,-0.06 -0.497,-0.06 -0.239,0 -0.424,0.039 -0.555,0.115 -0.132,0.077 -0.224,0.178 -0.278,0.304 -0.053,0.125 -0.08,0.388 -0.08,0.79 v 2.272 h -0.489 v 0.518 h 0.489 v 0.964 l 0.662,0.396 v -1.36 h 0.661 V 2.215 h -0.661 v -2.303 c 0,-0.19 0.011,-0.312 0.034,-0.367 l 0.114,-0.13 c 0.052,-0.032 0.127,-0.048 0.225,-0.048 0.073,0 0.169,0.004 0.288,0.01 m -3.031,1.4 c -0.248,-0.098 -0.619,-0.181 -1.114,-0.249 -0.28,-0.04 -0.478,-0.084 -0.594,-0.132 -0.116,-0.049 -0.206,-0.121 -0.269,-0.215 -0.063,-0.094 -0.095,-0.198 -0.095,-0.313 0,-0.176 0.069,-0.323 0.206,-0.44 0.138,-0.117 0.339,-0.176 0.603,-0.176 0.262,0 0.495,0.056 0.7,0.167 0.204,0.112 0.353,0.264 0.449,0.457 0.073,0.149 0.11,0.369 0.11,0.659 z m 0.028,-1.467 c -0.235,-0.211 -0.468,-0.359 -0.698,-0.446 -0.23,-0.087 -0.476,-0.13 -0.739,-0.13 -0.435,0 -0.769,0.105 -1.003,0.313 -0.233,0.21 -0.35,0.477 -0.35,0.802 0,0.191 0.044,0.365 0.132,0.523 0.089,0.158 0.204,0.284 0.347,0.38 0.143,0.095 0.305,0.167 0.484,0.216 0.132,0.034 0.331,0.067 0.597,0.099 0.542,0.064 0.941,0.139 1.198,0.227 0.002,0.092 0.004,0.151 0.004,0.175 0,0.273 -0.065,0.465 -0.193,0.577 -0.174,0.151 -0.432,0.227 -0.775,0.227 -0.319,0 -0.555,-0.055 -0.708,-0.165 -0.152,-0.11 -0.265,-0.304 -0.338,-0.583 l -0.662,0.086 c 0.06,0.278 0.158,0.503 0.294,0.674 0.136,0.171 0.333,0.303 0.591,0.395 0.258,0.093 0.556,0.139 0.896,0.139 0.337,0 0.611,-0.039 0.821,-0.118 0.211,-0.079 0.366,-0.178 0.465,-0.297 0.099,-0.119 0.168,-0.27 0.208,-0.452 0.022,-0.114 0.034,-0.317 0.034,-0.612 V 0.458 c 0,-0.616 0.013,-1.005 0.04,-1.168 0.027,-0.163 0.081,-0.32 0.161,-0.47 h -0.662 c -0.074,0.14 -0.122,0.303 -0.144,0.49 m -6.119,1.446 c 0,-0.503 0.104,-0.874 0.312,-1.115 0.207,-0.24 0.459,-0.36 0.754,-0.36 0.3,0 0.557,0.124 0.771,0.373 0.214,0.249 0.321,0.635 0.321,1.157 0,0.498 -0.105,0.871 -0.314,1.119 -0.208,0.247 -0.458,0.371 -0.748,0.371 -0.288,0 -0.542,-0.132 -0.764,-0.395 -0.221,-0.264 -0.332,-0.647 -0.332,-1.15 m -0.575,-3.431 v 5.408 h 0.604 V 2.224 c 0.142,0.198 0.303,0.347 0.482,0.446 0.179,0.1 0.397,0.149 0.652,0.149 0.334,0 0.628,-0.086 0.883,-0.257 0.256,-0.172 0.448,-0.414 0.578,-0.727 0.13,-0.313 0.195,-0.656 0.195,-1.029 0,-0.4 -0.072,-0.76 -0.215,-1.08 -0.144,-0.32 -0.353,-0.565 -0.626,-0.736 -0.274,-0.17 -0.562,-0.256 -0.864,-0.256 -0.221,0 -0.419,0.047 -0.595,0.14 -0.175,0.094 -0.32,0.213 -0.433,0.356 v -1.905"
         style="fill:#231f20;fill-opacity:1;fill-rule:nonzero;stroke:none"
         id="path20"
         inkscape:connector-curvature="0" /></g><g
       id="g22"
       transform="translate(95.001,108.641)"><path
         d="M 0,0 V 3.912 H 0.604 V 3.359 c 0.282,0.426 0.689,0.64 1.221,0.64 0.231,0 0.443,-0.043 0.637,-0.128 C 2.656,3.787 2.801,3.676 2.897,3.538 2.993,3.401 3.061,3.238 3.1,3.049 3.124,2.926 3.136,2.711 3.136,2.404 V 0 H 2.474 V 2.378 C 2.474,2.648 2.449,2.85 2.398,2.983 2.348,3.117 2.258,3.224 2.13,3.304 2.001,3.383 1.851,3.423 1.677,3.423 1.401,3.423 1.163,3.334 0.962,3.154 0.762,2.976 0.662,2.636 0.662,2.135 V 0 Z m -3.703,1.958 c 0,-0.501 0.109,-0.875 0.328,-1.124 0.218,-0.249 0.493,-0.374 0.825,-0.374 0.329,0 0.602,0.125 0.821,0.376 0.218,0.25 0.328,0.631 0.328,1.144 0,0.483 -0.11,0.849 -0.33,1.098 -0.22,0.25 -0.493,0.374 -0.819,0.374 -0.332,0 -0.607,-0.124 -0.825,-0.372 C -3.594,2.833 -3.703,2.458 -3.703,1.958 M -4.365,1.956 c 0,0.724 0.2,1.26 0.598,1.608 0.333,0.29 0.738,0.435 1.217,0.435 0.532,0 0.966,-0.176 1.304,-0.529 0.337,-0.352 0.506,-0.838 0.506,-1.459 0,-0.503 -0.075,-0.898 -0.224,-1.187 -0.149,-0.288 -0.367,-0.512 -0.652,-0.671 -0.285,-0.16 -0.597,-0.239 -0.934,-0.239 -0.542,0 -0.98,0.175 -1.314,0.526 -0.334,0.351 -0.501,0.856 -0.501,1.516 m -1.404,1.956 h 0.662 V 0 h -0.662 z m 0,1.467 h 0.662 V 4.631 h -0.662 z m -0.674,-4.822 0.086,-0.583 c -0.185,-0.04 -0.35,-0.06 -0.496,-0.06 -0.239,0 -0.424,0.038 -0.556,0.115 -0.131,0.077 -0.224,0.178 -0.277,0.303 -0.054,0.125 -0.08,0.389 -0.08,0.79 v 2.273 h -0.489 v 0.517 h 0.489 v 0.964 l 0.661,0.396 v -1.36 h 0.662 V 3.395 H -7.105 V 1.092 c 0,-0.191 0.012,-0.313 0.035,-0.367 l 0.113,-0.13 c 0.053,-0.032 0.128,-0.049 0.225,-0.049 0.074,0 0.17,0.004 0.289,0.011 M -9.49,1.956 c -0.248,-0.098 -0.619,-0.181 -1.114,-0.249 -0.28,-0.039 -0.478,-0.083 -0.594,-0.132 -0.116,-0.049 -0.206,-0.12 -0.269,-0.214 -0.063,-0.095 -0.095,-0.199 -0.095,-0.314 0,-0.176 0.069,-0.322 0.206,-0.44 0.138,-0.117 0.339,-0.176 0.603,-0.176 0.262,0 0.495,0.056 0.699,0.168 0.204,0.111 0.354,0.264 0.45,0.456 0.073,0.149 0.11,0.369 0.11,0.659 z M -9.462,0.489 C -9.697,0.279 -9.93,0.13 -10.16,0.044 c -0.23,-0.087 -0.476,-0.13 -0.739,-0.13 -0.435,0 -0.769,0.104 -1.003,0.313 -0.233,0.209 -0.35,0.476 -0.35,0.802 0,0.19 0.044,0.365 0.132,0.522 0.089,0.158 0.204,0.285 0.347,0.38 0.143,0.096 0.305,0.168 0.484,0.217 0.132,0.034 0.331,0.067 0.597,0.098 0.542,0.064 0.941,0.14 1.198,0.228 0.002,0.092 0.004,0.15 0.004,0.175 0,0.272 -0.065,0.464 -0.193,0.576 -0.174,0.151 -0.432,0.227 -0.775,0.227 -0.319,0 -0.556,-0.055 -0.708,-0.165 -0.152,-0.11 -0.265,-0.304 -0.338,-0.583 l -0.662,0.086 c 0.06,0.279 0.157,0.503 0.294,0.675 0.136,0.171 0.333,0.302 0.591,0.395 0.258,0.092 0.556,0.139 0.896,0.139 0.337,0 0.611,-0.04 0.821,-0.119 C -9.353,3.802 -9.198,3.703 -9.099,3.583 -9,3.464 -8.931,3.313 -8.891,3.131 -8.869,3.018 -8.857,2.814 -8.857,2.52 V 1.637 c 0,-0.615 0.013,-1.004 0.04,-1.168 C -8.79,0.306 -8.736,0.15 -8.656,0 H -9.318 C -9.392,0.139 -9.44,0.302 -9.462,0.489 m -3.234,0.068 0.086,-0.583 c -0.184,-0.04 -0.35,-0.06 -0.496,-0.06 -0.239,0 -0.424,0.038 -0.555,0.115 -0.132,0.077 -0.224,0.178 -0.278,0.303 -0.053,0.125 -0.08,0.389 -0.08,0.79 v 2.273 h -0.489 v 0.517 h 0.489 v 0.964 l 0.662,0.396 v -1.36 h 0.661 V 3.395 h -0.661 V 1.092 c 0,-0.191 0.011,-0.313 0.034,-0.367 l 0.113,-0.13 c 0.053,-0.032 0.128,-0.049 0.226,-0.049 0.073,0 0.169,0.004 0.288,0.011 m -5.176,1.401 c 0,-0.501 0.109,-0.875 0.328,-1.124 0.218,-0.249 0.493,-0.374 0.824,-0.374 0.329,0 0.603,0.125 0.822,0.376 0.218,0.25 0.327,0.631 0.327,1.144 0,0.483 -0.109,0.849 -0.329,1.098 -0.22,0.25 -0.493,0.374 -0.82,0.374 -0.331,0 -0.606,-0.124 -0.824,-0.372 -0.219,-0.247 -0.328,-0.622 -0.328,-1.122 m -0.662,-0.002 c 0,0.724 0.199,1.26 0.598,1.608 0.332,0.29 0.738,0.435 1.216,0.435 0.532,0 0.967,-0.176 1.304,-0.529 0.338,-0.352 0.507,-0.838 0.507,-1.459 0,-0.503 -0.075,-0.898 -0.224,-1.187 -0.15,-0.288 -0.367,-0.512 -0.652,-0.671 -0.285,-0.16 -0.597,-0.239 -0.935,-0.239 -0.541,0 -0.979,0.175 -1.313,0.526 -0.334,0.351 -0.501,0.856 -0.501,1.516 M -20.771,0 v 3.912 h 0.575 v -0.6 c 0.149,0.28 0.287,0.464 0.413,0.553 0.126,0.089 0.265,0.134 0.416,0.134 0.219,0 0.441,-0.071 0.667,-0.213 L -18.925,3.18 c -0.155,0.086 -0.31,0.128 -0.466,0.128 -0.138,0 -0.263,-0.043 -0.374,-0.131 -0.11,-0.086 -0.189,-0.207 -0.237,-0.361 -0.072,-0.236 -0.107,-0.493 -0.107,-0.772 V 0 Z m -5.853,1.958 c 0,-0.501 0.109,-0.875 0.328,-1.124 0.218,-0.249 0.493,-0.374 0.824,-0.374 0.329,0 0.603,0.125 0.822,0.376 0.218,0.25 0.327,0.631 0.327,1.144 0,0.483 -0.11,0.849 -0.329,1.098 -0.22,0.25 -0.493,0.374 -0.82,0.374 -0.331,0 -0.606,-0.124 -0.824,-0.372 -0.219,-0.247 -0.328,-0.622 -0.328,-1.122 m -0.662,-0.002 c 0,0.724 0.199,1.26 0.598,1.608 0.332,0.29 0.738,0.435 1.216,0.435 0.532,0 0.967,-0.176 1.304,-0.529 0.338,-0.352 0.507,-0.838 0.507,-1.459 0,-0.503 -0.075,-0.898 -0.224,-1.187 -0.15,-0.288 -0.367,-0.512 -0.652,-0.671 -0.285,-0.16 -0.597,-0.239 -0.935,-0.239 -0.541,0 -0.979,0.175 -1.313,0.526 -0.334,0.351 -0.501,0.856 -0.501,1.516 M -32.335,0 v 5.379 h 0.765 l 2.716,-4.128 v 4.128 h 0.719 V 0 H -28.9 l -2.716,4.129 V 0"
         style="fill:#231f20;fill-opacity:1;fill-rule:nonzero;stroke:none"
         id="path24"
         inkscape:connector-curvature="0" /></g><g
       id="g26"><g
         id="g28"
         clip-path="url(#clipPath32)"><g
           id="g34"
           transform="translate(96.185,179.817)"><path
             d="m 0,0 8.643,-8.596 1.188,1.195 -8.643,8.596 z m -40.639,-8.4 8.548,8.644 -1.198,1.184 -8.548,-8.643 z m 42.257,-43.317 8.643,8.595 -1.188,1.195 -8.643,-8.596 z m -43.503,8.171 8.548,-8.644 1.198,1.185 -8.548,8.643"
             style="fill:#525254;fill-opacity:1;fill-rule:nonzero;stroke:none"
             id="path36"
             inkscape:connector-curvature="0" /></g></g></g><g
       id="g38"
       transform="translate(63.781,130.703)"><path
         d="M 0,0 -4.489,2.244 0.048,4.489 M -0.716,2.817 37.869,2.722 V 1.576 L -0.716,1.671"
         style="fill:#3b5cb2;fill-opacity:1;fill-rule:nonzero;stroke:none"
         id="path40"
         inkscape:connector-curvature="0" /></g><g
       id="g42"
       transform="translate(96.922,178.075)"><path
         d="M 0,0 4.489,-2.244 0,-4.489 m -37.821,2.865 38.585,-0.047 v -1.146 l -38.585,0.047"
         style="fill:#3b5cb2;fill-opacity:1;fill-rule:nonzero;stroke:none"
         id="path44"
         inkscape:connector-curvature="0" /></g><g
       id="g46"
       transform="translate(103.56,137.771)"><path
         d="M 0,0 -2.292,-4.489 -4.536,0 m 1.719,-0.764 0.095,38.728 h 1.098 L -1.719,-0.764"
         style="fill:#3b5cb2;fill-opacity:1;fill-rule:nonzero;stroke:none"
         id="path48"
         inkscape:connector-curvature="0" /></g><g
       id="g50"
       transform="translate(57.239,171.294)"><path
         d="M 0,0 2.244,4.489 4.489,-0.048 M 1.624,-37.964 1.671,0.716 H 2.817 L 2.77,-37.964"
         style="fill:#3b5cb2;fill-opacity:1;fill-rule:nonzero;stroke:none"
         id="path52"
         inkscape:connector-curvature="0" /></g><g
       id="g54"
       transform="translate(194.65,175.763)"><path
         d="m 0,0 5.205,-9.599 1.481,0.804 -5.205,9.598 z m -46.982,1.831 9.646,7.306 -1.017,1.344 L -48,3.174 Z m 27.603,-51.938 11.508,3.915 -0.542,1.595 -11.509,-3.915 z m -31.235,13.139 8.595,-8.5 1.185,1.198 -8.596,8.5"
         style="fill:#525254;fill-opacity:1;fill-rule:nonzero;stroke:none"
         id="path56"
         inkscape:connector-curvature="0" /></g><g
       id="g58"
       transform="translate(143.052,148.515)"><path
         d="M 0,0 -2.674,4.25 2.34,3.82 M 0.812,2.77 37.63,-19.388 37.057,-20.343 0.239,1.815"
         style="fill:#3b5cb2;fill-opacity:1;fill-rule:nonzero;stroke:none"
         id="path60"
         inkscape:connector-curvature="0" /></g><g
       id="g62"
       transform="translate(194.149,174.493)"><path
         d="M 0,0 3.868,-3.2 -1.003,-4.346 M -41.498,7.927 0.334,-1.815 0.095,-2.913 -41.737,6.829"
         style="fill:#3b5cb2;fill-opacity:1;fill-rule:nonzero;stroke:none"
         id="path64"
         inkscape:connector-curvature="0" /></g><g
       id="g66"
       transform="translate(184.216,131.419)"><path
         d="M 0,0 -3.773,-3.343 -4.155,1.671 M -2.865,0.334 13.18,40.113 14.23,39.683 -1.863,-0.095"
         style="fill:#3b5cb2;fill-opacity:1;fill-rule:nonzero;stroke:none"
         id="path68"
         inkscape:connector-curvature="0" /></g><g
       id="g70"
       transform="translate(149.69,177.502)"><path
         d="m 0,0 2.579,4.346 1.91,-4.633 M -1.385,-42.166 1.719,0.621 2.865,0.573 -0.287,-42.262"
         style="fill:#3b5cb2;fill-opacity:1;fill-rule:nonzero;stroke:none"
         id="path72"
         inkscape:connector-curvature="0" /></g><g
       id="g74"
       transform="translate(177.483,166.423)"><path
         d="m 0,0 1.91,-4.632 -4.823,1.242 m -2.293,-15.855 h -0.238 l -0.478,0.048 h -0.477 l -0.478,0.096 -0.478,0.047 -0.429,0.096 -0.478,0.143 -0.43,0.143 -1.289,0.573 -0.764,0.478 -0.716,0.525 -0.669,0.621 -0.621,0.669 -0.573,0.764 -0.477,0.764 -0.573,1.289 -0.144,0.43 -0.143,0.43 -0.191,0.955 -0.095,0.955 v 0.955 l 0.047,0.477 0.048,0.526 0.096,0.429 0.095,0.478 0.143,0.43 0.144,0.477 0.143,0.43 0.191,0.382 0.239,0.43 0.477,0.764 0.526,0.764 0.62,0.669 0.669,0.62 0.716,0.526 0.812,0.477 0.382,0.239 0.43,0.191 0.43,0.143 0.477,0.143 0.43,0.144 0.477,0.095 0.43,0.096 0.478,0.095 h 0.525 l 0.478,0.048 1.146,-0.096 1.146,-0.191 0.525,-0.191 0.573,-0.143 0.525,-0.239 0.096,-0.047 0.86,-0.669 -0.669,-0.907 -0.86,0.668 0.144,-0.095 -0.955,0.382 -0.478,0.143 -0.525,0.096 -0.478,0.095 -0.525,0.048 h -0.955 l -0.43,-0.048 -0.382,-0.048 -0.43,-0.047 -0.382,-0.096 -0.43,-0.143 -1.146,-0.43 -0.334,-0.191 -0.716,-0.43 -0.621,-0.477 -0.621,-0.526 -0.525,-0.573 -0.478,-0.668 -0.429,-0.716 -0.191,-0.335 -0.191,-0.382 -0.144,-0.382 -0.143,-0.382 -0.095,-0.382 -0.192,-0.859 -0.047,-0.382 v -0.43 l -0.048,-0.43 0.048,-0.43 v -0.43 l 0.047,-0.429 0.096,-0.43 0.096,-0.382 0.095,-0.43 0.287,-0.764 0.191,-0.334 0.143,-0.382 0.43,-0.669 0.477,-0.668 0.525,-0.573 0.621,-0.573 0.621,-0.478 0.716,-0.43 0.382,-0.191 0.335,-0.143 0.382,-0.143 0.429,-0.144 0.382,-0.143 0.383,-0.095 1.289,-0.144 h 0.621"
         style="fill:#ed1c24;fill-opacity:1;fill-rule:nonzero;stroke:none"
         id="path76"
         inkscape:connector-curvature="0" /></g><g
       id="g78"
       transform="translate(262.117,179.609)"><path
         d="m 0,0 10.935,-5.301 0.735,1.517 -10.936,5.3 z m -34.039,-16.865 6.876,9.933 -1.385,0.959 -6.877,-9.933 z m 54.263,-26.421 3.677,11.604 -1.606,0.509 -3.677,-11.605 z m -53.154,-2.501 8.644,-8.356 1.171,1.211 -8.644,8.357"
         style="fill:#525254;fill-opacity:1;fill-rule:nonzero;stroke:none"
         id="path80"
         inkscape:connector-curvature="0" /></g><g
       id="g82"
       transform="translate(255.751,122.346)"><path
         d="M 0,0 -5.014,-0.478 -2.34,3.82 M -2.101,2.006 27.076,20.104 27.697,19.149 -1.528,1.05"
         style="fill:#3b5cb2;fill-opacity:1;fill-rule:nonzero;stroke:none"
         id="path84"
         inkscape:connector-curvature="0" /></g><g
       id="g86"
       transform="translate(263.487,178.266)"><path
         d="M 0,0 4.871,-1.098 1.05,-4.346 M -32.329,-9.742 1.098,-1.48 1.385,-2.531 -32.043,-10.84"
         style="fill:#3b5cb2;fill-opacity:1;fill-rule:nonzero;stroke:none"
         id="path88"
         inkscape:connector-curvature="0" /></g><g
       id="g90"
       transform="translate(283.4,146.939)"><path
         d="m 0,0 -0.334,-5.014 -3.821,3.247 m 1.863,0 -13.419,31.708 1.051,0.43 13.371,-31.708"
         style="fill:#3b5cb2;fill-opacity:1;fill-rule:nonzero;stroke:none"
         id="path92"
         inkscape:connector-curvature="0" /></g><g
       id="g94"
       transform="translate(229.009,163.176)"><path
         d="M 0,0 1.814,4.632 4.441,0.382 M 4.536,-33.427 1.576,0.86 2.722,0.955 5.682,-33.332"
         style="fill:#3b5cb2;fill-opacity:1;fill-rule:nonzero;stroke:none"
         id="path96"
         inkscape:connector-curvature="0" /></g><g
       id="g98"
       transform="translate(249.113,154.007)"><path
         d="m 0,0 -3.582,-3.534 -0.716,4.967 m 13.896,-12.846 0.478,0.334 0.86,0.669 0.382,0.382 0.334,0.382 0.668,0.859 0.287,0.478 0.239,0.477 0.191,0.478 0.382,1.051 0.095,0.525 0.096,0.525 0.048,0.573 v 1.385 l -0.096,0.43 -0.048,0.382 -0.095,0.43 -0.096,0.382 -0.286,0.764 -0.382,0.764 -0.43,0.716 L 11.747,1.194 11.222,1.815 10.601,2.34 9.98,2.818 9.264,3.247 8.93,3.391 8.548,3.582 7.784,3.868 7.402,3.964 6.972,4.059 6.59,4.155 6.16,4.202 H 5.73 L 5.301,4.25 4.919,4.202 H 4.489 L 4.107,4.155 3.725,4.059 3.295,3.964 2.913,3.868 2.579,3.773 2.197,3.629 1.48,3.295 0.812,2.913 0.191,2.436 -0.382,1.958 -0.955,1.385 -1.433,0.812 l 0.096,0.095 -0.525,-1.146 -1.051,0.478 0.525,1.146 0.096,0.143 0.573,0.669 0.573,0.621 0.668,0.573 0.717,0.477 0.764,0.43 0.812,0.382 0.382,0.143 0.429,0.143 0.43,0.096 0.478,0.095 0.43,0.096 0.429,0.048 0.478,0.047 H 5.826 L 6.781,5.253 7.259,5.157 7.688,5.062 8.166,4.919 8.596,4.775 9.885,4.202 10.649,3.725 11.365,3.152 12.034,2.531 12.655,1.862 13.18,1.146 l 0.478,-0.764 0.238,-0.43 0.144,-0.43 0.191,-0.429 0.143,-0.43 0.143,-0.478 0.096,-0.429 0.095,-0.478 0.048,-0.477 0.048,-0.478 v -1.146 l -0.096,-0.621 -0.095,-0.621 -0.144,-0.573 -0.382,-1.146 -0.238,-0.573 -0.287,-0.525 -0.334,-0.525 -0.335,-0.478 -0.382,-0.477 -0.429,-0.478 -0.43,-0.43 -0.955,-0.764 -0.526,-0.286"
         style="fill:#ed1c24;fill-opacity:1;fill-rule:nonzero;stroke:none"
         id="path100"
         inkscape:connector-curvature="0" /></g><g
       id="g102"
       transform="translate(284.953,110.876)"><path
         d="M 0,0 H 2.272 C 2.242,0.329 2.155,0.575 2.012,0.739 1.792,0.994 1.507,1.122 1.157,1.122 0.841,1.122 0.574,1.02 0.358,0.817 0.142,0.613 0.023,0.341 0,0 M 2.265,-1.064 2.913,-1.151 C 2.804,-1.552 2.603,-1.863 2.309,-2.084 2.015,-2.306 1.64,-2.417 1.183,-2.417 c -0.575,0 -1.031,0.177 -1.368,0.529 -0.337,0.352 -0.506,0.845 -0.506,1.481 0,0.657 0.171,1.168 0.511,1.531 0.341,0.363 0.783,0.545 1.326,0.545 0.526,0 0.955,-0.179 1.288,-0.535 0.334,-0.356 0.5,-0.857 0.5,-1.504 L 2.931,-0.547 h -2.96 c 0.026,-0.427 0.152,-0.755 0.378,-0.982 0.227,-0.227 0.509,-0.341 0.847,-0.341 0.252,0 0.467,0.064 0.645,0.192 0.179,0.128 0.32,0.333 0.424,0.614 M -1.1,-1.773 -1.014,-2.356 c -0.185,-0.04 -0.35,-0.061 -0.497,-0.061 -0.238,0 -0.423,0.039 -0.555,0.116 -0.131,0.077 -0.224,0.178 -0.278,0.303 -0.053,0.125 -0.08,0.389 -0.08,0.79 v 2.272 h -0.489 v 0.518 h 0.489 v 0.964 l 0.662,0.396 V 1.582 H -1.1 V 1.064 h -0.662 v -2.302 c 0,-0.191 0.012,-0.313 0.035,-0.368 l 0.113,-0.13 c 0.052,-0.032 0.127,-0.048 0.225,-0.048 0.073,0 0.169,0.004 0.289,0.011 m -3.068,3.355 h 0.662 V -2.33 h -0.662 z m 0,1.467 h 0.662 V 2.301 h -0.662 z m -4.031,-4.2 0.661,0.087 c 0.037,-0.261 0.139,-0.46 0.305,-0.598 0.168,-0.139 0.401,-0.208 0.701,-0.208 0.303,0 0.527,0.062 0.673,0.185 0.147,0.124 0.22,0.269 0.22,0.436 0,0.149 -0.07,0.266 -0.21,0.352 -0.098,0.059 -0.324,0.134 -0.678,0.224 -0.477,0.123 -0.811,0.229 -1.003,0.318 -0.191,0.09 -0.336,0.214 -0.435,0.372 -0.099,0.159 -0.148,0.334 -0.148,0.525 0,0.174 0.04,0.335 0.119,0.484 0.08,0.148 0.189,0.272 0.327,0.37 0.103,0.076 0.243,0.141 0.421,0.193 0.179,0.053 0.37,0.08 0.573,0.08 0.308,0 0.577,-0.046 0.809,-0.136 C -5.632,1.443 -5.46,1.32 -5.35,1.166 -5.239,1.012 -5.163,0.805 -5.121,0.547 L -5.783,0.46 c -0.029,0.208 -0.112,0.371 -0.251,0.487 -0.138,0.117 -0.334,0.175 -0.587,0.175 -0.298,0 -0.511,-0.05 -0.639,-0.151 -0.128,-0.1 -0.191,-0.217 -0.191,-0.352 l 0.079,-0.231 c 0.053,-0.071 0.136,-0.13 0.249,-0.176 0.065,-0.026 0.256,-0.081 0.574,-0.169 0.46,-0.126 0.784,-0.228 0.971,-0.308 0.187,-0.08 0.334,-0.195 0.44,-0.348 0.107,-0.152 0.161,-0.341 0.161,-0.567 0,-0.22 -0.064,-0.428 -0.192,-0.623 -0.128,-0.195 -0.313,-0.347 -0.554,-0.454 -0.241,-0.106 -0.513,-0.16 -0.818,-0.16 -0.504,0 -0.888,0.107 -1.153,0.32 -0.264,0.212 -0.432,0.528 -0.505,0.946 m -3.503,0.779 c 0,-0.501 0.109,-0.875 0.328,-1.124 0.218,-0.249 0.493,-0.374 0.825,-0.374 0.329,0 0.602,0.125 0.821,0.375 0.218,0.251 0.327,0.632 0.327,1.145 0,0.483 -0.109,0.849 -0.329,1.098 -0.22,0.249 -0.493,0.374 -0.819,0.374 -0.332,0 -0.607,-0.124 -0.825,-0.372 -0.219,-0.248 -0.328,-0.622 -0.328,-1.122 m -0.662,-0.002 c 0,0.724 0.2,1.26 0.598,1.608 0.332,0.29 0.738,0.435 1.217,0.435 0.532,0 0.966,-0.177 1.304,-0.529 0.337,-0.352 0.506,-0.838 0.506,-1.459 0,-0.503 -0.075,-0.899 -0.224,-1.187 -0.149,-0.288 -0.367,-0.512 -0.652,-0.671 -0.285,-0.16 -0.597,-0.24 -0.934,-0.24 -0.542,0 -0.98,0.176 -1.314,0.527 -0.334,0.351 -0.501,0.856 -0.501,1.516 m -3.358,-0.021 c 0,-0.503 0.104,-0.874 0.311,-1.114 0.208,-0.241 0.459,-0.361 0.755,-0.361 0.3,0 0.557,0.125 0.77,0.374 0.214,0.249 0.321,0.634 0.321,1.157 0,0.498 -0.104,0.87 -0.313,1.118 -0.209,0.248 -0.458,0.372 -0.748,0.372 -0.288,0 -0.543,-0.132 -0.764,-0.396 -0.221,-0.264 -0.332,-0.647 -0.332,-1.15 m -0.575,-3.431 v 5.408 h 0.604 V 1.073 c 0.142,0.199 0.303,0.347 0.482,0.447 0.179,0.099 0.396,0.149 0.652,0.149 0.333,0 0.628,-0.086 0.883,-0.258 0.255,-0.172 0.448,-0.414 0.578,-0.727 0.13,-0.313 0.195,-0.656 0.195,-1.029 0,-0.4 -0.072,-0.76 -0.216,-1.08 -0.143,-0.32 -0.352,-0.565 -0.626,-0.736 -0.273,-0.17 -0.561,-0.256 -0.863,-0.256 -0.221,0 -0.419,0.047 -0.595,0.141 -0.176,0.094 -0.32,0.212 -0.433,0.355 v -1.905 z m -3.589,3.431 c 0,-0.503 0.104,-0.874 0.311,-1.114 0.208,-0.241 0.459,-0.361 0.755,-0.361 0.3,0 0.557,0.125 0.77,0.374 0.214,0.249 0.321,0.634 0.321,1.157 0,0.498 -0.104,0.87 -0.313,1.118 -0.209,0.248 -0.458,0.372 -0.748,0.372 -0.288,0 -0.543,-0.132 -0.764,-0.396 -0.222,-0.264 -0.332,-0.647 -0.332,-1.15 m -0.576,-3.431 v 5.408 h 0.605 V 1.073 c 0.142,0.199 0.303,0.347 0.482,0.447 0.179,0.099 0.396,0.149 0.652,0.149 0.333,0 0.628,-0.086 0.883,-0.258 0.255,-0.172 0.448,-0.414 0.578,-0.727 0.13,-0.313 0.195,-0.656 0.195,-1.029 0,-0.4 -0.072,-0.76 -0.216,-1.08 -0.143,-0.32 -0.352,-0.565 -0.626,-0.736 -0.274,-0.17 -0.561,-0.256 -0.863,-0.256 -0.221,0 -0.42,0.047 -0.595,0.141 -0.176,0.094 -0.32,0.212 -0.433,0.355 v -1.905 z m -3.732,3.454 c 0,-0.501 0.109,-0.875 0.327,-1.124 0.219,-0.249 0.494,-0.374 0.825,-0.374 0.329,0 0.603,0.125 0.822,0.375 0.218,0.251 0.327,0.632 0.327,1.145 0,0.483 -0.11,0.849 -0.329,1.098 -0.22,0.249 -0.493,0.374 -0.82,0.374 -0.331,0 -0.606,-0.124 -0.825,-0.372 -0.218,-0.248 -0.327,-0.622 -0.327,-1.122 m -0.662,-0.002 c 0,0.724 0.199,1.26 0.598,1.608 0.332,0.29 0.738,0.435 1.216,0.435 0.532,0 0.967,-0.177 1.304,-0.529 0.338,-0.352 0.507,-0.838 0.507,-1.459 0,-0.503 -0.075,-0.899 -0.224,-1.187 -0.15,-0.288 -0.367,-0.512 -0.652,-0.671 -0.285,-0.16 -0.597,-0.24 -0.935,-0.24 -0.541,0 -0.979,0.176 -1.313,0.527 -0.334,0.351 -0.501,0.856 -0.501,1.516 m -5.997,-1.956 v 3.912 h 0.604 V 1.028 c 0.282,0.427 0.689,0.641 1.221,0.641 0.231,0 0.443,-0.043 0.637,-0.128 0.194,-0.084 0.339,-0.195 0.435,-0.333 0.097,-0.137 0.164,-0.3 0.203,-0.489 0.024,-0.123 0.036,-0.338 0.036,-0.645 V -2.33 h -0.662 v 2.378 c 0,0.27 -0.025,0.471 -0.076,0.605 -0.05,0.134 -0.14,0.241 -0.268,0.321 -0.128,0.079 -0.279,0.119 -0.452,0.119 -0.276,0 -0.515,-0.089 -0.715,-0.269 -0.201,-0.178 -0.301,-0.518 -0.301,-1.019 V -2.33 Z m -1.658,3.912 h 0.662 V -2.33 h -0.662 z m 0,1.467 h 0.662 V 2.301 h -0.662 z m -6.266,-5.379 v 3.912 h 0.604 V 1.028 c 0.281,0.427 0.688,0.641 1.221,0.641 0.231,0 0.443,-0.043 0.636,-0.128 0.194,-0.084 0.339,-0.195 0.436,-0.333 0.096,-0.137 0.164,-0.3 0.202,-0.489 0.024,-0.123 0.036,-0.338 0.036,-0.645 V -2.33 h -0.661 v 2.378 c 0,0.27 -0.026,0.471 -0.076,0.605 -0.051,0.134 -0.14,0.241 -0.269,0.321 -0.128,0.079 -0.279,0.119 -0.452,0.119 -0.276,0 -0.514,-0.089 -0.715,-0.269 -0.2,-0.178 -0.301,-0.518 -0.301,-1.019 V -2.33 Z m -3.762,1.958 c 0,-0.501 0.109,-0.875 0.328,-1.124 0.218,-0.249 0.493,-0.374 0.825,-0.374 0.329,0 0.603,0.125 0.821,0.375 0.218,0.251 0.328,0.632 0.328,1.145 0,0.483 -0.11,0.849 -0.33,1.098 -0.219,0.249 -0.493,0.374 -0.819,0.374 -0.332,0 -0.607,-0.124 -0.825,-0.372 -0.219,-0.248 -0.328,-0.622 -0.328,-1.122 M -43.2,-0.374 c 0,0.724 0.199,1.26 0.597,1.608 0.333,0.29 0.738,0.435 1.217,0.435 0.532,0 0.966,-0.177 1.304,-0.529 0.337,-0.352 0.506,-0.838 0.506,-1.459 0,-0.503 -0.074,-0.899 -0.224,-1.187 -0.149,-0.288 -0.367,-0.512 -0.652,-0.671 -0.285,-0.16 -0.597,-0.24 -0.934,-0.24 -0.542,0 -0.98,0.176 -1.314,0.527 -0.333,0.351 -0.5,0.856 -0.5,1.516 m -1.4,1.956 h 0.662 V -2.33 H -44.6 Z m 0,1.467 h 0.662 V 2.301 H -44.6 Z m -0.668,-4.822 0.086,-0.583 c -0.185,-0.04 -0.35,-0.061 -0.497,-0.061 -0.238,0 -0.423,0.039 -0.555,0.116 -0.131,0.077 -0.224,0.178 -0.278,0.303 -0.053,0.125 -0.08,0.389 -0.08,0.79 v 2.272 h -0.489 v 0.518 h 0.489 v 0.964 l 0.662,0.396 v -1.36 h 0.662 V 1.064 h -0.662 v -2.302 c 0,-0.191 0.012,-0.313 0.035,-0.368 l 0.113,-0.13 c 0.052,-0.032 0.127,-0.048 0.225,-0.048 0.073,0 0.169,0.004 0.289,0.011 m -3.043,1.399 c -0.247,-0.098 -0.618,-0.181 -1.113,-0.249 -0.28,-0.039 -0.478,-0.083 -0.595,-0.132 -0.116,-0.049 -0.205,-0.121 -0.268,-0.215 -0.063,-0.094 -0.095,-0.198 -0.095,-0.313 0,-0.176 0.069,-0.322 0.206,-0.44 0.138,-0.117 0.339,-0.176 0.603,-0.176 0.262,0 0.495,0.056 0.699,0.168 0.204,0.111 0.354,0.264 0.45,0.456 0.073,0.149 0.109,0.369 0.109,0.659 z m 0.029,-1.467 c -0.236,-0.21 -0.468,-0.359 -0.698,-0.446 -0.23,-0.086 -0.476,-0.13 -0.74,-0.13 -0.434,0 -0.769,0.105 -1.002,0.314 -0.233,0.209 -0.35,0.476 -0.35,0.802 0,0.19 0.044,0.364 0.132,0.522 0.088,0.158 0.204,0.285 0.347,0.38 0.143,0.095 0.304,0.168 0.484,0.217 0.131,0.034 0.33,0.067 0.597,0.098 0.542,0.064 0.941,0.14 1.197,0.228 0.003,0.091 0.004,0.15 0.004,0.175 0,0.272 -0.064,0.464 -0.192,0.576 -0.174,0.151 -0.432,0.227 -0.775,0.227 -0.32,0 -0.556,-0.055 -0.708,-0.165 -0.152,-0.11 -0.265,-0.304 -0.338,-0.583 l -0.662,0.086 c 0.059,0.279 0.157,0.503 0.294,0.674 0.136,0.172 0.333,0.302 0.591,0.396 0.257,0.092 0.556,0.139 0.896,0.139 0.337,0 0.611,-0.04 0.821,-0.119 0.211,-0.079 0.366,-0.178 0.465,-0.297 0.099,-0.119 0.168,-0.27 0.208,-0.452 0.022,-0.113 0.033,-0.317 0.033,-0.611 v -0.883 c 0,-0.615 0.014,-1.005 0.041,-1.168 0.027,-0.163 0.081,-0.319 0.161,-0.469 h -0.662 c -0.075,0.139 -0.122,0.302 -0.144,0.489 m -3.229,0.068 0.087,-0.583 c -0.185,-0.04 -0.351,-0.061 -0.497,-0.061 -0.239,0 -0.424,0.039 -0.555,0.116 -0.132,0.077 -0.224,0.178 -0.278,0.303 -0.053,0.125 -0.08,0.389 -0.08,0.79 v 2.272 h -0.489 v 0.518 h 0.489 v 0.964 l 0.662,0.396 v -1.36 h 0.661 V 1.064 h -0.661 v -2.302 c 0,-0.191 0.011,-0.313 0.034,-0.368 l 0.113,-0.13 c 0.053,-0.032 0.128,-0.048 0.226,-0.048 0.073,0 0.169,0.004 0.288,0.011 m -5.171,1.401 c 0,-0.501 0.11,-0.875 0.328,-1.124 0.218,-0.249 0.493,-0.374 0.825,-0.374 0.329,0 0.603,0.125 0.821,0.375 0.218,0.251 0.328,0.632 0.328,1.145 0,0.483 -0.11,0.849 -0.33,1.098 -0.219,0.249 -0.493,0.374 -0.819,0.374 -0.332,0 -0.607,-0.124 -0.825,-0.372 -0.218,-0.248 -0.328,-0.622 -0.328,-1.122 m -0.661,-0.002 c 0,0.724 0.199,1.26 0.597,1.608 0.333,0.29 0.738,0.435 1.217,0.435 0.532,0 0.966,-0.177 1.304,-0.529 0.337,-0.352 0.506,-0.838 0.506,-1.459 0,-0.503 -0.074,-0.899 -0.224,-1.187 -0.149,-0.288 -0.366,-0.512 -0.652,-0.671 -0.285,-0.16 -0.596,-0.24 -0.934,-0.24 -0.542,0 -0.979,0.176 -1.314,0.527 -0.333,0.351 -0.5,0.856 -0.5,1.516 m -4.346,1.064 h 1.51 c 0.32,0 0.571,0.034 0.753,0.1 0.182,0.066 0.32,0.172 0.415,0.318 0.094,0.146 0.142,0.305 0.142,0.476 0,0.251 -0.092,0.457 -0.275,0.619 -0.182,0.161 -0.471,0.242 -0.865,0.242 h -1.68 z m -0.719,-3.02 v 5.379 h 2.37 c 0.473,0 0.832,-0.048 1.077,-0.145 0.246,-0.096 0.443,-0.267 0.59,-0.512 0.147,-0.245 0.221,-0.515 0.221,-0.812 0,-0.382 -0.122,-0.704 -0.366,-0.966 -0.243,-0.261 -0.619,-0.428 -1.128,-0.499 0.18,-0.093 0.316,-0.184 0.41,-0.275 0.198,-0.195 0.388,-0.431 0.569,-0.707 l 0.911,-1.463 h -0.844 l -0.702,1.118 c -0.205,0.323 -0.374,0.569 -0.507,0.741 -0.132,0.171 -0.251,0.29 -0.356,0.359 -0.105,0.069 -0.212,0.117 -0.32,0.144 -0.08,0.017 -0.21,0.025 -0.391,0.025 h -0.815 V -2.33"
         style="fill:#231f20;fill-opacity:1;fill-rule:nonzero;stroke:none"
         id="path104"
         inkscape:connector-curvature="0" /></g><g
       id="g106"
       transform="translate(289.064,99.95)"><path
         d="M 0,0 V 5.379 H 0.662 V 3.457 C 0.965,3.818 1.348,3.999 1.81,3.999 2.095,3.999 2.341,3.942 2.551,3.827 2.76,3.713 2.91,3.556 3,3.354 3.091,3.153 3.136,2.861 3.136,2.478 V 0 H 2.474 v 2.474 c 0,0.332 -0.07,0.573 -0.21,0.723 C 2.125,3.348 1.927,3.423 1.671,3.423 1.479,3.423 1.299,3.372 1.13,3.271 0.962,3.169 0.841,3.032 0.769,2.857 0.698,2.683 0.662,2.443 0.662,2.137 V 0 Z m -0.692,0.557 0.086,-0.583 c -0.185,-0.04 -0.35,-0.06 -0.497,-0.06 -0.238,0 -0.423,0.038 -0.555,0.115 -0.131,0.077 -0.224,0.178 -0.278,0.303 -0.053,0.125 -0.08,0.389 -0.08,0.79 v 2.273 h -0.489 v 0.517 h 0.489 v 0.965 l 0.662,0.395 v -1.36 h 0.662 V 3.395 H -1.354 V 1.092 c 0,-0.19 0.012,-0.313 0.035,-0.367 l 0.113,-0.13 c 0.052,-0.032 0.127,-0.048 0.225,-0.048 0.073,0 0.169,0.003 0.289,0.01 M -3.724,1.956 C -3.972,1.858 -4.343,1.776 -4.837,1.707 -5.118,1.668 -5.316,1.624 -5.432,1.575 -5.548,1.526 -5.638,1.455 -5.701,1.361 -5.764,1.267 -5.795,1.162 -5.795,1.047 c 0,-0.176 0.068,-0.322 0.206,-0.44 0.137,-0.117 0.338,-0.175 0.602,-0.175 0.263,0 0.496,0.055 0.7,0.167 0.204,0.112 0.354,0.264 0.449,0.456 0.073,0.149 0.11,0.369 0.11,0.659 z M -3.695,0.489 C -3.931,0.279 -4.164,0.13 -4.394,0.044 c -0.229,-0.087 -0.476,-0.13 -0.739,-0.13 -0.435,0 -0.769,0.104 -1.003,0.313 -0.233,0.209 -0.35,0.476 -0.35,0.802 0,0.191 0.044,0.365 0.133,0.522 0.088,0.158 0.204,0.285 0.347,0.38 0.143,0.096 0.304,0.168 0.483,0.217 0.132,0.034 0.331,0.067 0.597,0.099 0.542,0.063 0.942,0.139 1.198,0.227 0.003,0.092 0.004,0.15 0.004,0.175 0,0.273 -0.064,0.465 -0.193,0.576 -0.174,0.151 -0.432,0.227 -0.774,0.227 -0.32,0 -0.556,-0.055 -0.709,-0.165 -0.152,-0.11 -0.265,-0.304 -0.338,-0.583 l -0.661,0.087 c 0.059,0.278 0.157,0.503 0.293,0.674 0.136,0.171 0.334,0.303 0.591,0.395 0.258,0.092 0.557,0.139 0.896,0.139 0.337,0 0.611,-0.04 0.822,-0.118 0.21,-0.079 0.365,-0.178 0.464,-0.298 0.099,-0.119 0.169,-0.27 0.209,-0.452 0.022,-0.113 0.033,-0.317 0.033,-0.611 V 1.638 c 0,-0.616 0.013,-1.005 0.04,-1.169 C -3.023,0.306 -2.97,0.15 -2.89,0 h -0.661 c -0.075,0.139 -0.123,0.302 -0.144,0.489 m -6.168,1.446 c 0,-0.502 0.104,-0.874 0.312,-1.114 0.208,-0.241 0.459,-0.361 0.754,-0.361 0.3,0 0.557,0.125 0.771,0.374 0.214,0.249 0.321,0.635 0.321,1.157 0,0.498 -0.104,0.871 -0.313,1.118 -0.209,0.248 -0.459,0.372 -0.749,0.372 -0.287,0 -0.542,-0.132 -0.763,-0.396 -0.222,-0.263 -0.333,-0.647 -0.333,-1.15 m -0.575,-3.431 v 5.408 h 0.604 V 3.403 c 0.143,0.199 0.303,0.348 0.483,0.447 0.179,0.099 0.396,0.149 0.651,0.149 0.334,0 0.628,-0.086 0.884,-0.258 0.255,-0.172 0.448,-0.414 0.578,-0.727 0.13,-0.313 0.195,-0.655 0.195,-1.029 0,-0.399 -0.072,-0.759 -0.216,-1.08 -0.144,-0.32 -0.352,-0.565 -0.626,-0.736 -0.274,-0.17 -0.562,-0.255 -0.864,-0.255 -0.221,0 -0.419,0.047 -0.594,0.14 -0.176,0.094 -0.32,0.212 -0.433,0.355 v -1.905 z m -6.701,3.682 h 4.142 V 1.668 h -4.142 z m -2.326,-1.629 0.087,-0.583 c -0.185,-0.04 -0.351,-0.06 -0.497,-0.06 -0.238,0 -0.424,0.038 -0.555,0.115 -0.132,0.077 -0.224,0.178 -0.278,0.303 -0.053,0.125 -0.08,0.389 -0.08,0.79 v 2.273 h -0.489 v 0.517 h 0.489 v 0.965 l 0.662,0.395 v -1.36 h 0.661 V 3.395 h -0.661 V 1.092 c 0,-0.19 0.011,-0.313 0.034,-0.367 l 0.114,-0.13 c 0.052,-0.032 0.127,-0.048 0.225,-0.048 0.073,0 0.169,0.003 0.288,0.01 M -24.98,0 v 5.379 h 0.662 V 3.457 c 0.303,0.361 0.686,0.542 1.148,0.542 0.284,0 0.531,-0.057 0.741,-0.172 0.209,-0.114 0.359,-0.271 0.449,-0.473 0.091,-0.201 0.136,-0.493 0.136,-0.876 V 0 h -0.662 v 2.474 c 0,0.332 -0.07,0.573 -0.21,0.723 -0.14,0.151 -0.338,0.226 -0.593,0.226 -0.192,0 -0.372,-0.051 -0.541,-0.152 -0.168,-0.102 -0.289,-0.239 -0.361,-0.414 -0.071,-0.174 -0.107,-0.414 -0.107,-0.72 V 0 Z m -3.779,2.025 c 0,-0.514 0.101,-0.888 0.303,-1.125 0.202,-0.235 0.455,-0.353 0.759,-0.353 0.302,0 0.555,0.117 0.759,0.351 0.205,0.235 0.307,0.604 0.307,1.105 0,0.479 -0.105,0.841 -0.316,1.084 -0.21,0.243 -0.464,0.365 -0.761,0.365 -0.292,0 -0.54,-0.12 -0.745,-0.359 -0.204,-0.24 -0.306,-0.596 -0.306,-1.068 m -0.518,-2.341 0.661,-0.087 c 0.027,-0.203 0.1,-0.351 0.221,-0.444 0.161,-0.126 0.381,-0.189 0.66,-0.189 0.301,0 0.533,0.061 0.697,0.181 0.163,0.121 0.274,0.29 0.332,0.508 0.033,0.132 0.049,0.411 0.047,0.836 C -26.948,0.163 -27.307,0 -27.738,0 c -0.535,0 -0.95,0.194 -1.243,0.582 -0.293,0.388 -0.44,0.853 -0.44,1.395 0,0.373 0.067,0.718 0.201,1.033 0.135,0.315 0.329,0.559 0.584,0.731 0.255,0.172 0.555,0.258 0.899,0.258 0.459,0 0.837,-0.192 1.135,-0.576 v 0.489 h 0.604 V 0.534 c 0,-0.609 -0.061,-1.04 -0.184,-1.294 -0.123,-0.253 -0.317,-0.454 -0.583,-0.601 -0.266,-0.147 -0.593,-0.221 -0.982,-0.221 -0.461,0 -0.834,0.105 -1.118,0.315 -0.285,0.211 -0.422,0.527 -0.412,0.951 m -1.526,4.228 h 0.661 V 0 h -0.661 z m 0,1.467 h 0.661 V 4.631 h -0.661 z m -1.605,0 h 0.662 V 0 h -0.662 z m -5.853,-3.421 c 0,-0.5 0.109,-0.875 0.328,-1.124 0.218,-0.249 0.493,-0.374 0.825,-0.374 0.329,0 0.602,0.125 0.821,0.376 0.218,0.25 0.328,0.631 0.328,1.144 0,0.483 -0.11,0.85 -0.33,1.099 -0.219,0.249 -0.493,0.373 -0.819,0.373 -0.332,0 -0.607,-0.124 -0.825,-0.372 -0.219,-0.247 -0.328,-0.622 -0.328,-1.122 m -0.661,-0.002 c 0,0.724 0.199,1.26 0.597,1.609 0.333,0.289 0.738,0.434 1.217,0.434 0.532,0 0.966,-0.176 1.304,-0.529 0.337,-0.352 0.506,-0.838 0.506,-1.458 0,-0.504 -0.075,-0.899 -0.224,-1.188 -0.149,-0.288 -0.367,-0.512 -0.652,-0.671 -0.285,-0.16 -0.597,-0.239 -0.934,-0.239 -0.542,0 -0.98,0.175 -1.314,0.526 -0.334,0.351 -0.5,0.856 -0.5,1.516 m -0.434,-1.399 0.086,-0.583 c -0.185,-0.04 -0.35,-0.06 -0.497,-0.06 -0.238,0 -0.423,0.038 -0.555,0.115 -0.131,0.077 -0.224,0.178 -0.277,0.303 -0.054,0.125 -0.08,0.389 -0.08,0.79 v 2.273 h -0.49 v 0.517 h 0.49 v 0.965 l 0.661,0.395 v -1.36 h 0.662 V 3.395 h -0.662 V 1.092 c 0,-0.19 0.012,-0.313 0.035,-0.367 l 0.113,-0.13 c 0.052,-0.032 0.128,-0.048 0.225,-0.048 0.073,0 0.169,0.003 0.289,0.01 M -47.026,0 v 3.912 h 0.604 V 3.359 c 0.282,0.426 0.689,0.64 1.221,0.64 0.231,0 0.443,-0.043 0.637,-0.128 0.193,-0.084 0.339,-0.195 0.435,-0.333 0.096,-0.137 0.164,-0.3 0.202,-0.489 0.024,-0.123 0.036,-0.338 0.036,-0.645 V 0 h -0.661 v 2.378 c 0,0.27 -0.026,0.472 -0.076,0.605 -0.051,0.134 -0.14,0.241 -0.269,0.321 -0.128,0.079 -0.279,0.119 -0.452,0.119 -0.276,0 -0.514,-0.089 -0.715,-0.268 -0.2,-0.179 -0.301,-0.519 -0.301,-1.02 V 0 Z m -3.751,1.958 c 0,-0.5 0.109,-0.875 0.328,-1.124 0.218,-0.249 0.493,-0.374 0.824,-0.374 0.329,0 0.603,0.125 0.822,0.376 0.218,0.25 0.327,0.631 0.327,1.144 0,0.483 -0.11,0.85 -0.329,1.099 -0.22,0.249 -0.493,0.373 -0.82,0.373 -0.331,0 -0.606,-0.124 -0.824,-0.372 -0.219,-0.247 -0.328,-0.622 -0.328,-1.122 m -0.662,-0.002 c 0,0.724 0.199,1.26 0.598,1.609 0.332,0.289 0.738,0.434 1.216,0.434 0.532,0 0.967,-0.176 1.304,-0.529 0.338,-0.352 0.507,-0.838 0.507,-1.458 0,-0.504 -0.075,-0.899 -0.224,-1.188 -0.15,-0.288 -0.367,-0.512 -0.652,-0.671 -0.285,-0.16 -0.597,-0.239 -0.935,-0.239 -0.541,0 -0.979,0.175 -1.313,0.526 -0.334,0.351 -0.501,0.856 -0.501,1.516 m -1.411,1.956 h 0.662 V 0 h -0.662 z m 0,1.467 h 0.662 V 4.631 h -0.662 z m -0.693,-4.822 0.087,-0.583 c -0.185,-0.04 -0.351,-0.06 -0.497,-0.06 -0.239,0 -0.424,0.038 -0.555,0.115 -0.132,0.077 -0.224,0.178 -0.278,0.303 -0.053,0.125 -0.08,0.389 -0.08,0.79 v 2.273 h -0.489 v 0.517 h 0.489 v 0.965 l 0.662,0.395 v -1.36 h 0.661 V 3.395 h -0.661 V 1.092 c 0,-0.19 0.011,-0.313 0.034,-0.367 l 0.114,-0.13 c 0.052,-0.032 0.127,-0.048 0.225,-0.048 0.073,0 0.169,0.003 0.288,0.01 m -2.65,0.881 0.661,-0.086 c -0.071,-0.45 -0.254,-0.802 -0.549,-1.057 -0.295,-0.254 -0.657,-0.381 -1.086,-0.381 -0.538,0 -0.971,0.174 -1.297,0.524 -0.327,0.35 -0.491,0.851 -0.491,1.503 0,0.422 0.07,0.792 0.21,1.108 0.139,0.317 0.352,0.554 0.637,0.712 0.286,0.159 0.596,0.238 0.932,0.238 0.424,0 0.77,-0.108 1.04,-0.323 0.27,-0.214 0.442,-0.519 0.518,-0.914 L -56.28,2.675 c -0.061,0.258 -0.169,0.452 -0.325,0.582 -0.155,0.13 -0.343,0.195 -0.564,0.195 -0.333,0 -0.604,-0.119 -0.812,-0.358 -0.208,-0.239 -0.312,-0.617 -0.312,-1.134 0,-0.525 0.102,-0.906 0.305,-1.143 0.205,-0.238 0.471,-0.357 0.799,-0.357 0.263,0 0.484,0.08 0.66,0.24 0.176,0.16 0.288,0.406 0.336,0.738 m -6.206,0.892 h 2.273 c -0.031,0.329 -0.118,0.575 -0.261,0.74 -0.22,0.255 -0.504,0.382 -0.854,0.382 -0.317,0 -0.583,-0.102 -0.8,-0.305 -0.215,-0.204 -0.335,-0.476 -0.358,-0.817 m 2.266,-1.064 0.647,-0.086 c -0.108,-0.401 -0.31,-0.713 -0.604,-0.934 -0.293,-0.222 -0.669,-0.332 -1.125,-0.332 -0.576,0 -1.032,0.176 -1.369,0.528 -0.337,0.352 -0.505,0.846 -0.505,1.481 0,0.658 0.17,1.168 0.51,1.531 0.341,0.363 0.783,0.545 1.326,0.545 0.526,0 0.955,-0.178 1.289,-0.535 0.333,-0.356 0.499,-0.857 0.499,-1.503 l -0.003,-0.177 h -2.96 c 0.026,-0.428 0.152,-0.756 0.378,-0.983 0.227,-0.227 0.509,-0.341 0.848,-0.341 0.252,0 0.467,0.064 0.645,0.192 0.178,0.128 0.319,0.333 0.424,0.614 M -65.361,0 v 3.912 h 0.575 v -0.6 c 0.149,0.28 0.287,0.464 0.413,0.553 0.126,0.089 0.265,0.134 0.416,0.134 0.219,0 0.441,-0.071 0.667,-0.213 L -63.515,3.18 c -0.155,0.086 -0.31,0.128 -0.466,0.128 -0.138,0 -0.263,-0.043 -0.374,-0.131 -0.11,-0.086 -0.189,-0.207 -0.237,-0.361 -0.072,-0.236 -0.107,-0.493 -0.107,-0.772 V 0 Z m -1.67,3.912 h 0.661 V 0 h -0.661 z m 0,1.467 h 0.661 V 4.631 h -0.661 z m -3.707,-3.425 c 0,-0.5 0.108,-0.874 0.324,-1.122 0.216,-0.248 0.471,-0.372 0.766,-0.372 0.296,0 0.548,0.119 0.756,0.355 0.207,0.237 0.311,0.598 0.311,1.084 0,0.535 -0.106,0.928 -0.317,1.178 -0.211,0.25 -0.471,0.375 -0.781,0.375 -0.301,0 -0.554,-0.12 -0.756,-0.361 -0.202,-0.24 -0.303,-0.619 -0.303,-1.137 M -68.61,0 v 0.497 c -0.249,-0.389 -0.615,-0.583 -1.099,-0.583 -0.313,0 -0.601,0.086 -0.864,0.257 -0.263,0.172 -0.467,0.412 -0.611,0.72 -0.144,0.307 -0.216,0.661 -0.216,1.062 0,0.39 0.065,0.744 0.195,1.061 0.13,0.318 0.325,0.561 0.586,0.731 0.26,0.169 0.551,0.254 0.872,0.254 0.236,0 0.446,-0.05 0.63,-0.149 0.185,-0.099 0.334,-0.228 0.45,-0.387 v 1.916 h 0.661 V 0"
         style="fill:#231f20;fill-opacity:1;fill-rule:nonzero;stroke:none"
         id="path108"
         inkscape:connector-curvature="0" /></g><g
       id="g110"
       transform="translate(280.062,92.581)"><path
         d="m 0,0 0.662,0.086 c 0.037,-0.26 0.138,-0.459 0.305,-0.598 0.167,-0.138 0.401,-0.207 0.701,-0.207 0.302,0 0.527,0.062 0.673,0.185 0.146,0.124 0.22,0.269 0.22,0.436 0,0.149 -0.07,0.266 -0.211,0.352 C 2.253,0.313 2.027,0.387 1.672,0.478 1.196,0.601 0.862,0.707 0.67,0.796 0.479,0.886 0.334,1.01 0.235,1.168 0.136,1.326 0.087,1.501 0.087,1.693 c 0,0.174 0.04,0.335 0.119,0.483 0.08,0.149 0.189,0.272 0.327,0.371 0.103,0.076 0.243,0.14 0.421,0.193 0.178,0.053 0.37,0.079 0.573,0.079 0.307,0 0.577,-0.045 0.809,-0.135 C 2.568,2.593 2.74,2.471 2.85,2.317 2.961,2.162 3.037,1.956 3.078,1.697 L 2.417,1.611 C 2.388,1.819 2.304,1.981 2.166,2.098 2.028,2.214 1.832,2.273 1.579,2.273 1.281,2.273 1.067,2.223 0.94,2.122 0.812,2.022 0.748,1.904 0.748,1.77 L 0.828,1.539 C 0.881,1.468 0.963,1.409 1.076,1.362 1.141,1.338 1.333,1.281 1.651,1.193 2.111,1.068 2.434,0.966 2.621,0.886 2.809,0.806 2.956,0.69 3.062,0.538 3.169,0.386 3.222,0.197 3.222,-0.029 3.222,-0.25 3.158,-0.458 3.03,-0.653 2.903,-0.848 2.718,-0.999 2.477,-1.106 2.236,-1.212 1.963,-1.266 1.659,-1.266 1.155,-1.266 0.77,-1.159 0.506,-0.947 0.242,-0.734 0.073,-0.418 0,0 m -3.415,1.151 h 2.273 c -0.031,0.328 -0.118,0.575 -0.261,0.739 -0.22,0.255 -0.504,0.383 -0.854,0.383 -0.317,0 -0.584,-0.102 -0.8,-0.306 C -3.272,1.764 -3.392,1.492 -3.415,1.151 M -1.149,0.086 -0.502,0 c -0.108,-0.401 -0.31,-0.712 -0.604,-0.934 -0.293,-0.221 -0.669,-0.332 -1.125,-0.332 -0.576,0 -1.032,0.176 -1.369,0.528 -0.337,0.353 -0.505,0.846 -0.505,1.481 0,0.658 0.17,1.169 0.51,1.532 0.341,0.363 0.783,0.544 1.326,0.544 0.526,0 0.955,-0.178 1.289,-0.534 0.333,-0.357 0.499,-0.858 0.499,-1.504 L -0.484,0.604 h -2.96 c 0.026,-0.428 0.152,-0.755 0.378,-0.983 0.227,-0.226 0.509,-0.34 0.848,-0.34 0.252,0 0.467,0.064 0.645,0.192 0.178,0.128 0.319,0.332 0.424,0.613 M -7.878,0 -7.216,0.086 c 0.037,-0.26 0.138,-0.459 0.305,-0.598 0.167,-0.138 0.401,-0.207 0.701,-0.207 0.302,0 0.527,0.062 0.673,0.185 0.146,0.124 0.22,0.269 0.22,0.436 0,0.149 -0.071,0.266 -0.211,0.352 -0.097,0.059 -0.323,0.133 -0.678,0.224 -0.476,0.123 -0.81,0.229 -1.002,0.318 -0.191,0.09 -0.336,0.214 -0.435,0.372 -0.099,0.158 -0.148,0.333 -0.148,0.525 0,0.174 0.039,0.335 0.119,0.483 0.08,0.149 0.189,0.272 0.327,0.371 0.103,0.076 0.243,0.14 0.421,0.193 0.178,0.053 0.369,0.079 0.573,0.079 0.307,0 0.577,-0.045 0.809,-0.135 C -5.31,2.593 -5.138,2.471 -5.028,2.317 -4.917,2.162 -4.841,1.956 -4.8,1.697 L -5.461,1.611 C -5.49,1.819 -5.574,1.981 -5.712,2.098 -5.85,2.214 -6.046,2.273 -6.299,2.273 -6.598,2.273 -6.811,2.223 -6.938,2.122 -7.066,2.022 -7.13,1.904 -7.13,1.77 l 0.08,-0.231 c 0.053,-0.071 0.135,-0.13 0.248,-0.177 0.065,-0.024 0.257,-0.081 0.575,-0.169 0.46,-0.125 0.783,-0.227 0.97,-0.307 0.188,-0.08 0.335,-0.196 0.441,-0.348 0.107,-0.152 0.16,-0.341 0.16,-0.567 0,-0.221 -0.064,-0.429 -0.192,-0.624 -0.127,-0.195 -0.312,-0.346 -0.553,-0.453 -0.241,-0.106 -0.514,-0.16 -0.818,-0.16 -0.504,0 -0.889,0.107 -1.153,0.319 -0.264,0.213 -0.433,0.529 -0.506,0.947 m -1.41,0.777 c -0.248,-0.098 -0.619,-0.181 -1.114,-0.249 -0.28,-0.04 -0.478,-0.084 -0.594,-0.132 -0.116,-0.049 -0.206,-0.121 -0.269,-0.215 -0.063,-0.094 -0.094,-0.198 -0.094,-0.313 0,-0.176 0.068,-0.323 0.205,-0.44 0.138,-0.117 0.339,-0.176 0.603,-0.176 0.262,0 0.496,0.056 0.7,0.167 0.204,0.112 0.354,0.264 0.449,0.457 0.073,0.149 0.11,0.369 0.11,0.659 z m 0.029,-1.467 c -0.236,-0.211 -0.469,-0.359 -0.699,-0.446 -0.229,-0.086 -0.476,-0.13 -0.739,-0.13 -0.435,0 -0.769,0.105 -1.003,0.314 -0.233,0.209 -0.35,0.476 -0.35,0.801 0,0.191 0.044,0.365 0.132,0.523 0.089,0.158 0.204,0.284 0.347,0.38 0.144,0.095 0.305,0.167 0.484,0.216 0.132,0.034 0.331,0.067 0.597,0.099 0.542,0.064 0.942,0.14 1.198,0.228 0.003,0.091 0.004,0.149 0.004,0.174 0,0.273 -0.064,0.465 -0.193,0.577 -0.174,0.151 -0.432,0.227 -0.774,0.227 -0.32,0 -0.556,-0.055 -0.709,-0.165 -0.152,-0.11 -0.265,-0.304 -0.338,-0.583 l -0.661,0.086 c 0.059,0.278 0.157,0.503 0.293,0.674 0.136,0.171 0.333,0.303 0.591,0.395 0.258,0.093 0.556,0.139 0.896,0.139 0.337,0 0.611,-0.039 0.822,-0.118 0.21,-0.079 0.365,-0.178 0.464,-0.297 0.099,-0.119 0.169,-0.27 0.209,-0.452 0.022,-0.113 0.033,-0.317 0.033,-0.612 V 0.458 c 0,-0.615 0.013,-1.005 0.04,-1.168 0.027,-0.163 0.081,-0.32 0.161,-0.469 h -0.662 c -0.074,0.139 -0.122,0.302 -0.143,0.489 m -6.288,1.841 h 2.273 c -0.031,0.328 -0.118,0.575 -0.261,0.739 -0.22,0.255 -0.505,0.383 -0.855,0.383 -0.316,0 -0.583,-0.102 -0.799,-0.306 -0.216,-0.203 -0.335,-0.475 -0.358,-0.816 M -13.282,0.086 -12.634,0 c -0.109,-0.401 -0.31,-0.712 -0.604,-0.934 -0.294,-0.221 -0.669,-0.332 -1.125,-0.332 -0.576,0 -1.032,0.176 -1.369,0.528 -0.337,0.353 -0.505,0.846 -0.505,1.481 0,0.658 0.17,1.169 0.51,1.532 0.341,0.363 0.783,0.544 1.326,0.544 0.526,0 0.955,-0.178 1.288,-0.534 0.334,-0.357 0.5,-0.858 0.5,-1.504 l -0.003,-0.177 h -2.96 c 0.026,-0.428 0.152,-0.755 0.378,-0.983 0.227,-0.226 0.509,-0.34 0.848,-0.34 0.252,0 0.467,0.064 0.645,0.192 0.178,0.128 0.319,0.332 0.423,0.613 m -5.182,-1.265 v 3.912 h 0.575 v -0.6 c 0.149,0.279 0.287,0.464 0.413,0.553 0.126,0.089 0.265,0.133 0.416,0.133 0.219,0 0.441,-0.071 0.667,-0.212 l -0.225,-0.606 c -0.155,0.085 -0.311,0.128 -0.466,0.128 -0.139,0 -0.263,-0.044 -0.374,-0.131 -0.11,-0.087 -0.189,-0.208 -0.237,-0.362 -0.072,-0.235 -0.108,-0.492 -0.108,-0.772 v -2.043 z m -1.241,1.438 0.662,-0.086 c -0.072,-0.45 -0.255,-0.803 -0.55,-1.057 -0.295,-0.254 -0.657,-0.382 -1.086,-0.382 -0.538,0 -0.97,0.175 -1.297,0.524 -0.327,0.35 -0.491,0.851 -0.491,1.504 0,0.422 0.07,0.791 0.21,1.108 0.139,0.316 0.352,0.554 0.637,0.712 0.286,0.158 0.596,0.237 0.932,0.237 0.424,0 0.771,-0.107 1.04,-0.322 0.27,-0.215 0.442,-0.52 0.518,-0.915 l -0.661,-0.086 c -0.062,0.258 -0.17,0.451 -0.326,0.581 -0.155,0.131 -0.343,0.196 -0.563,0.196 -0.334,0 -0.604,-0.12 -0.813,-0.359 -0.208,-0.238 -0.312,-0.616 -0.312,-1.134 0,-0.524 0.102,-0.905 0.306,-1.143 0.204,-0.237 0.47,-0.356 0.798,-0.356 0.264,0 0.484,0.08 0.66,0.239 0.177,0.16 0.289,0.407 0.336,0.739 m -6.259,0.892 h 2.273 c -0.031,0.328 -0.118,0.575 -0.261,0.739 -0.22,0.255 -0.505,0.383 -0.855,0.383 -0.316,0 -0.583,-0.102 -0.799,-0.306 -0.216,-0.203 -0.335,-0.475 -0.358,-0.816 M -23.699,0.086 -23.051,0 c -0.109,-0.401 -0.31,-0.712 -0.604,-0.934 -0.294,-0.221 -0.669,-0.332 -1.125,-0.332 -0.576,0 -1.032,0.176 -1.369,0.528 -0.337,0.353 -0.505,0.846 -0.505,1.481 0,0.658 0.17,1.169 0.51,1.532 0.341,0.363 0.783,0.544 1.326,0.544 0.526,0 0.955,-0.178 1.288,-0.534 0.334,-0.357 0.5,-0.858 0.5,-1.504 l -0.003,-0.177 h -2.96 c 0.026,-0.428 0.152,-0.755 0.378,-0.983 0.227,-0.226 0.509,-0.34 0.848,-0.34 0.252,0 0.467,0.064 0.645,0.192 0.178,0.128 0.319,0.332 0.423,0.613 m -6.453,0.689 c 0,-0.5 0.108,-0.875 0.324,-1.122 0.217,-0.248 0.472,-0.372 0.766,-0.372 0.297,0 0.549,0.118 0.756,0.355 0.208,0.237 0.312,0.598 0.312,1.084 0,0.535 -0.106,0.927 -0.317,1.177 -0.211,0.25 -0.471,0.376 -0.781,0.376 -0.301,0 -0.554,-0.121 -0.756,-0.361 -0.202,-0.241 -0.304,-0.619 -0.304,-1.137 m 2.129,-1.954 v 0.497 c -0.249,-0.389 -0.615,-0.584 -1.099,-0.584 -0.313,0 -0.601,0.086 -0.864,0.258 -0.263,0.171 -0.467,0.411 -0.611,0.719 -0.144,0.308 -0.216,0.662 -0.216,1.062 0,0.39 0.065,0.744 0.195,1.062 0.13,0.317 0.325,0.561 0.585,0.73 0.261,0.17 0.552,0.254 0.873,0.254 0.236,0 0.446,-0.049 0.63,-0.149 0.184,-0.099 0.334,-0.227 0.45,-0.386 V 4.2 h 0.661 v -5.379 z m -8.792,0 V 4.2 h 0.661 V 2.278 c 0.303,0.361 0.686,0.541 1.149,0.541 0.284,0 0.53,-0.057 0.74,-0.171 0.209,-0.114 0.359,-0.272 0.449,-0.473 0.091,-0.201 0.136,-0.493 0.136,-0.876 v -2.478 h -0.661 v 2.474 c 0,0.331 -0.071,0.572 -0.21,0.723 -0.14,0.151 -0.338,0.226 -0.594,0.226 -0.192,0 -0.372,-0.051 -0.54,-0.153 -0.169,-0.101 -0.29,-0.239 -0.361,-0.413 -0.072,-0.174 -0.108,-0.414 -0.108,-0.721 v -2.136 z m -0.664,0.557 0.086,-0.584 c -0.185,-0.04 -0.35,-0.06 -0.496,-0.06 -0.239,0 -0.424,0.039 -0.555,0.115 -0.132,0.077 -0.225,0.178 -0.278,0.304 -0.054,0.125 -0.08,0.388 -0.08,0.79 v 2.272 h -0.489 v 0.518 h 0.489 v 0.964 l 0.661,0.396 v -1.36 h 0.662 V 2.215 h -0.662 v -2.303 c 0,-0.19 0.012,-0.312 0.035,-0.367 l 0.113,-0.13 c 0.053,-0.032 0.128,-0.048 0.225,-0.048 0.074,0 0.17,0.004 0.289,0.011 m -5.194,1.467 c 0,-0.513 0.101,-0.888 0.303,-1.124 0.202,-0.236 0.455,-0.354 0.759,-0.354 0.302,0 0.555,0.117 0.759,0.352 0.205,0.235 0.307,0.603 0.307,1.104 0,0.48 -0.105,0.841 -0.316,1.085 -0.21,0.243 -0.464,0.365 -0.761,0.365 -0.292,0 -0.54,-0.12 -0.745,-0.36 -0.204,-0.24 -0.306,-0.595 -0.306,-1.068 m -0.518,-2.341 0.661,-0.086 c 0.027,-0.204 0.1,-0.352 0.221,-0.445 0.161,-0.125 0.381,-0.188 0.66,-0.188 0.301,0 0.533,0.06 0.697,0.181 0.163,0.121 0.274,0.29 0.332,0.507 0.033,0.133 0.049,0.412 0.047,0.837 -0.289,-0.326 -0.648,-0.489 -1.079,-0.489 -0.535,0 -0.95,0.193 -1.243,0.581 -0.293,0.388 -0.44,0.853 -0.44,1.396 0,0.373 0.067,0.717 0.201,1.032 0.135,0.316 0.329,0.559 0.584,0.731 0.255,0.172 0.555,0.258 0.899,0.258 0.459,0 0.837,-0.192 1.135,-0.575 v 0.489 h 0.604 v -3.378 c 0,-0.609 -0.061,-1.04 -0.184,-1.294 -0.123,-0.254 -0.317,-0.454 -0.583,-0.601 -0.266,-0.148 -0.593,-0.222 -0.982,-0.222 -0.461,0 -0.834,0.106 -1.119,0.316 -0.284,0.21 -0.421,0.527 -0.411,0.95 m -4.015,0.317 v 3.912 h 0.604 V 2.179 c 0.282,0.427 0.688,0.64 1.221,0.64 0.231,0 0.443,-0.042 0.637,-0.127 0.193,-0.085 0.338,-0.196 0.435,-0.333 0.096,-0.138 0.164,-0.301 0.202,-0.489 0.024,-0.123 0.036,-0.338 0.036,-0.645 v -2.404 h -0.661 v 2.377 c 0,0.27 -0.026,0.472 -0.076,0.606 -0.051,0.134 -0.14,0.241 -0.269,0.32 -0.128,0.08 -0.279,0.12 -0.452,0.12 -0.276,0 -0.514,-0.09 -0.715,-0.269 -0.2,-0.179 -0.301,-0.519 -0.301,-1.019 v -2.135 z m -3.728,2.33 h 2.273 c -0.031,0.328 -0.117,0.575 -0.261,0.739 -0.219,0.255 -0.504,0.383 -0.854,0.383 -0.317,0 -0.583,-0.102 -0.799,-0.306 -0.216,-0.203 -0.336,-0.475 -0.359,-0.816 M -48.668,0.086 -48.02,0 c -0.109,-0.401 -0.311,-0.712 -0.605,-0.934 -0.293,-0.221 -0.668,-0.332 -1.125,-0.332 -0.575,0 -1.032,0.176 -1.369,0.528 -0.337,0.353 -0.505,0.846 -0.505,1.481 0,0.658 0.17,1.169 0.511,1.532 0.34,0.363 0.782,0.544 1.326,0.544 0.525,0 0.955,-0.178 1.288,-0.534 0.333,-0.357 0.5,-0.858 0.5,-1.504 l -0.004,-0.177 h -2.959 c 0.025,-0.428 0.151,-0.755 0.378,-0.983 0.226,-0.226 0.509,-0.34 0.847,-0.34 0.252,0 0.467,0.064 0.645,0.192 0.178,0.128 0.32,0.332 0.424,0.613 m -4.35,4.114 h 0.662 v -5.38 h -0.662 z"
         style="fill:#231f20;fill-opacity:1;fill-rule:nonzero;stroke:none"
         id="path112"
         inkscape:connector-curvature="0" /></g></g></svg>