<?xml version="1.0" encoding="UTF-8" standalone="no"?>
<!-- Created with Inkscape (http://www.inkscape.org/) -->

<svg
   xmlns:dc="http://purl.org/dc/elements/1.1/"
   xmlns:cc="http://creativecommons.org/ns#"
   xmlns:rdf="http://www.w3.org/1999/02/22-rdf-syntax-ns#"
   xmlns:svg="http://www.w3.org/2000/svg"
   xmlns="http://www.w3.org/2000/svg"
   xmlns:sodipodi="http://sodipodi.sourceforge.net/DTD/sodipodi-0.dtd"
   xmlns:inkscape="http://www.inkscape.org/namespaces/inkscape"
   version="1.1"
   id="svg2"
   xml:space="preserve"
   width="816"
   height="1056"
   viewBox="0 0 816 1056"
   sodipodi:docname="gyro_vibrating.svg"
   inkscape:version="0.92.2 (5c3e80d, 2017-08-06)"><metadata
     id="metadata8"><rdf:RDF><cc:Work
         rdf:about=""><dc:format>image/svg+xml</dc:format><dc:type
           rdf:resource="http://purl.org/dc/dcmitype/StillImage" /><dc:title></dc:title></cc:Work></rdf:RDF></metadata><defs
     id="defs6" /><sodipodi:namedview
     pagecolor="#ffffff"
     bordercolor="#666666"
     borderopacity="1"
     objecttolerance="10"
     gridtolerance="10"
     guidetolerance="10"
     inkscape:pageopacity="0"
     inkscape:pageshadow="2"
     inkscape:window-width="1680"
     inkscape:window-height="988"
     id="namedview4"
     showgrid="false"
     inkscape:zoom="0.22348485"
     inkscape:cx="408"
     inkscape:cy="528"
     inkscape:window-x="1358"
     inkscape:window-y="-8"
     inkscape:window-maximized="1"
     inkscape:current-layer="g10" /><g
     id="g10"
     inkscape:groupmode="layer"
     inkscape:label="A9R8FFE"
     transform="matrix(1.3333333,0,0,-1.3333333,0,1056)"><g
       id="g12"
       transform="translate(458.411,185.256)"><path
         d="m 0,0 0.12,-0.739 c -0.237,-0.052 -0.448,-0.078 -0.635,-0.078 -0.305,0 -0.542,0.048 -0.71,0.145 -0.168,0.097 -0.286,0.224 -0.355,0.382 -0.068,0.158 -0.102,0.489 -0.102,0.995 v 2.863 h -0.631 v 0.661 h 0.631 v 1.223 l 0.841,0.502 V 4.229 H 0 V 3.568 h -0.841 v -2.89 c 0,-0.239 0.014,-0.393 0.044,-0.461 l 0.144,-0.163 c 0.066,-0.04 0.162,-0.06 0.286,-0.06 0.092,0 0.215,0.002 0.367,0.006 M -3.805,-0.727 V 0.02 c -0.387,-0.558 -0.912,-0.837 -1.576,-0.837 -0.293,0 -0.567,0.056 -0.821,0.167 -0.254,0.112 -0.443,0.252 -0.566,0.421 -0.123,0.168 -0.209,0.375 -0.259,0.62 -0.035,0.164 -0.052,0.424 -0.052,0.78 v 3.058 h 0.841 V 1.492 c 0,-0.436 0.017,-0.73 0.052,-0.882 0.053,-0.22 0.165,-0.393 0.336,-0.518 0.172,-0.125 0.384,-0.188 0.636,-0.188 0.252,0 0.489,0.064 0.71,0.193 0.222,0.128 0.378,0.303 0.47,0.524 0.093,0.222 0.139,0.543 0.139,0.965 v 2.643 h 0.841 v -4.956 z m -7.814,2.449 c 0,-0.63 0.131,-1.095 0.391,-1.397 0.26,-0.301 0.575,-0.451 0.945,-0.451 0.376,0 0.698,0.156 0.965,0.468 0.269,0.312 0.403,0.795 0.403,1.449 0,0.624 -0.131,1.091 -0.393,1.402 -0.262,0.31 -0.574,0.465 -0.938,0.465 -0.36,0 -0.679,-0.165 -0.957,-0.495 -0.277,-0.331 -0.416,-0.811 -0.416,-1.441 m -0.75,-4.341 v 6.848 h 0.781 V 3.561 c 0.179,0.253 0.381,0.442 0.607,0.568 0.225,0.127 0.499,0.19 0.821,0.19 0.42,0 0.791,-0.108 1.112,-0.324 0.322,-0.216 0.564,-0.52 0.728,-0.914 0.164,-0.393 0.246,-0.824 0.246,-1.293 0,-0.503 -0.091,-0.955 -0.273,-1.358 -0.181,-0.403 -0.445,-0.711 -0.791,-0.926 -0.346,-0.214 -0.71,-0.321 -1.092,-0.321 -0.279,0 -0.529,0.059 -0.752,0.177 -0.221,0.119 -0.404,0.269 -0.546,0.449 V -2.619 Z M -13.148,0 l 0.12,-0.739 c -0.236,-0.052 -0.448,-0.078 -0.634,-0.078 -0.306,0 -0.542,0.048 -0.71,0.145 -0.168,0.097 -0.286,0.224 -0.355,0.382 -0.068,0.158 -0.103,0.489 -0.103,0.995 v 2.863 h -0.63 v 0.661 h 0.63 v 1.223 l 0.841,0.502 V 4.229 h 0.841 V 3.568 h -0.841 v -2.89 c 0,-0.239 0.015,-0.393 0.044,-0.461 L -13.8,0.054 c 0.066,-0.04 0.161,-0.06 0.285,-0.06 0.093,0 0.216,0.002 0.367,0.006 m -3.879,-0.727 V 0.02 c -0.386,-0.558 -0.912,-0.837 -1.575,-0.837 -0.294,0 -0.567,0.056 -0.822,0.167 -0.254,0.112 -0.442,0.252 -0.566,0.421 -0.123,0.168 -0.209,0.375 -0.259,0.62 -0.034,0.164 -0.051,0.424 -0.051,0.78 v 3.058 h 0.841 V 1.492 c 0,-0.436 0.017,-0.73 0.051,-0.882 0.053,-0.22 0.165,-0.393 0.337,-0.518 0.171,-0.125 0.383,-0.188 0.636,-0.188 0.252,0 0.488,0.064 0.71,0.193 0.221,0.128 0.378,0.303 0.47,0.524 0.092,0.222 0.138,0.543 0.138,0.965 v 2.643 h 0.841 v -4.956 z m -9.929,3.308 c 0,-0.811 0.223,-1.45 0.67,-1.917 0.448,-0.467 1.008,-0.7 1.683,-0.7 0.687,0 1.252,0.235 1.696,0.707 0.444,0.471 0.666,1.14 0.666,2.006 0,0.549 -0.095,1.027 -0.285,1.436 -0.189,0.408 -0.467,0.725 -0.833,0.95 -0.365,0.225 -0.775,0.337 -1.23,0.337 -0.646,0 -1.203,-0.216 -1.668,-0.65 -0.466,-0.433 -0.699,-1.156 -0.699,-2.169 m -0.901,0.01 c 0,1.132 0.303,2.019 0.911,2.659 0.607,0.641 1.391,0.961 2.352,0.961 0.629,0 1.196,-0.15 1.701,-0.451 0.506,-0.301 0.891,-0.72 1.156,-1.259 0.265,-0.538 0.397,-1.148 0.397,-1.831 0,-0.691 -0.139,-1.31 -0.418,-1.856 -0.279,-0.546 -0.674,-0.959 -1.186,-1.24 -0.511,-0.281 -1.063,-0.421 -1.654,-0.421 -0.642,0 -1.216,0.155 -1.721,0.465 -0.505,0.31 -0.888,0.734 -1.148,1.27 -0.26,0.537 -0.39,1.105 -0.39,1.703"
         style="fill:#231f20;fill-opacity:1;fill-rule:nonzero;stroke:none"
         id="path14"
         inkscape:connector-curvature="0" /></g><g
       id="g16"
       transform="translate(461.419,173.548)"><path
         d="M 0,0 V 4.956 H 0.751 V 4.254 C 1.109,4.782 1.626,5.046 2.301,5.046 2.594,5.046 2.864,4.992 3.11,4.885 3.356,4.779 3.54,4.639 3.662,4.465 3.785,4.292 3.87,4.086 3.919,3.847 3.95,3.693 3.965,3.421 3.965,3.034 V 0 H 3.124 V 3.005 C 3.124,3.345 3.092,3.6 3.029,3.769 2.965,3.938 2.853,4.073 2.69,4.174 2.529,4.275 2.339,4.325 2.121,4.325 1.773,4.325 1.473,4.212 1.22,3.985 0.968,3.759 0.841,3.33 0.841,2.697 V 0 Z m -4.766,2.48 c 0,-0.628 0.137,-1.098 0.411,-1.41 0.273,-0.313 0.618,-0.469 1.033,-0.469 0.412,0 0.755,0.157 1.029,0.47 0.273,0.314 0.41,0.793 0.41,1.437 0,0.606 -0.137,1.066 -0.413,1.378 -0.275,0.313 -0.617,0.469 -1.026,0.469 -0.415,0 -0.76,-0.155 -1.033,-0.466 C -4.629,3.578 -4.766,3.108 -4.766,2.48 M -5.607,2.478 c 0,0.91 0.251,1.584 0.752,2.022 0.419,0.364 0.93,0.546 1.533,0.546 0.67,0 1.217,-0.221 1.642,-0.664 0.426,-0.443 0.638,-1.054 0.638,-1.835 0,-0.632 -0.094,-1.129 -0.282,-1.492 C -1.512,0.693 -1.786,0.411 -2.146,0.211 -2.505,0.01 -2.897,-0.09 -3.322,-0.09 c -0.682,0 -1.234,0.221 -1.654,0.662 -0.421,0.441 -0.631,1.076 -0.631,1.906 m -1.806,2.478 h 0.841 V 0 h -0.841 z m 0,1.862 h 0.841 V 5.857 h -0.841 z m -0.869,-6.091 0.12,-0.739 C -8.398,-0.064 -8.61,-0.09 -8.797,-0.09 c -0.305,0 -0.541,0.048 -0.709,0.145 -0.168,0.097 -0.287,0.224 -0.355,0.382 -0.069,0.158 -0.103,0.489 -0.103,0.995 v 2.863 h -0.631 v 0.661 h 0.631 v 1.223 l 0.841,0.502 V 4.956 h 0.841 V 4.295 h -0.841 v -2.89 c 0,-0.239 0.015,-0.392 0.044,-0.461 l 0.144,-0.163 c 0.067,-0.04 0.162,-0.06 0.286,-0.06 0.093,0 0.215,0.002 0.367,0.006 m -3.955,1.766 c -0.298,-0.123 -0.745,-0.228 -1.34,-0.314 -0.338,-0.05 -0.576,-0.105 -0.716,-0.167 -0.14,-0.061 -0.247,-0.151 -0.323,-0.27 -0.076,-0.118 -0.114,-0.25 -0.114,-0.395 0,-0.222 0.082,-0.407 0.247,-0.555 0.166,-0.147 0.407,-0.221 0.726,-0.221 0.315,0 0.596,0.069 0.841,0.208 0.246,0.138 0.427,0.329 0.542,0.574 0.088,0.188 0.132,0.466 0.132,0.834 z m 0.06,-1.862 c -0.301,-0.264 -0.593,-0.45 -0.877,-0.558 -0.283,-0.109 -0.587,-0.163 -0.911,-0.163 -0.536,0 -0.947,0.132 -1.235,0.397 -0.288,0.265 -0.431,0.604 -0.431,1.016 0,0.241 0.054,0.462 0.162,0.662 0.109,0.2 0.251,0.36 0.427,0.481 0.176,0.121 0.374,0.212 0.594,0.274 0.162,0.043 0.406,0.085 0.734,0.126 0.666,0.08 1.157,0.176 1.472,0.288 0.003,0.112 0.005,0.184 0.005,0.214 0,0.335 -0.078,0.571 -0.233,0.708 -0.21,0.186 -0.522,0.279 -0.936,0.279 -0.386,0 -0.672,-0.07 -0.856,-0.211 -0.184,-0.142 -0.32,-0.391 -0.408,-0.75 l -0.841,0.12 c 0.073,0.353 0.195,0.638 0.365,0.855 0.169,0.217 0.414,0.384 0.735,0.501 0.32,0.117 0.692,0.176 1.114,0.176 0.42,0 0.76,-0.05 1.022,-0.15 0.262,-0.1 0.455,-0.225 0.578,-0.377 0.123,-0.151 0.21,-0.342 0.259,-0.572 0.028,-0.144 0.042,-0.4 0.042,-0.767 V 2.076 c 0,-0.769 0.018,-1.259 0.054,-1.47 0.036,-0.211 0.108,-0.413 0.216,-0.606 h -0.841 c -0.109,0.18 -0.179,0.39 -0.21,0.631 M -18.516,0 v 4.956 h 0.72 V 4.18 c 0.192,0.353 0.369,0.585 0.531,0.698 0.162,0.112 0.34,0.168 0.535,0.168 0.281,0 0.566,-0.084 0.857,-0.253 l -0.29,-0.771 c -0.199,0.102 -0.397,0.153 -0.595,0.153 -0.177,0 -0.337,-0.055 -0.478,-0.165 C -17.377,3.9 -17.478,3.747 -17.539,3.553 -17.63,3.256 -17.675,2.931 -17.675,2.579 V 0 Z m -4.496,2.515 c 0,-0.588 0.081,-1.012 0.243,-1.273 0.265,-0.428 0.623,-0.641 1.075,-0.641 0.368,0 0.685,0.157 0.953,0.472 0.268,0.316 0.402,0.785 0.402,1.41 0,0.639 -0.128,1.111 -0.385,1.415 -0.257,0.305 -0.568,0.457 -0.932,0.457 -0.368,0 -0.686,-0.157 -0.954,-0.473 -0.268,-0.315 -0.402,-0.771 -0.402,-1.367 M -22.982,0 h -0.811 v 6.818 h 0.841 V 4.379 c 0.355,0.445 0.807,0.667 1.357,0.667 0.304,0 0.593,-0.061 0.865,-0.183 0.271,-0.122 0.495,-0.293 0.671,-0.514 0.175,-0.22 0.313,-0.486 0.412,-0.798 0.1,-0.311 0.149,-0.644 0.149,-0.999 0,-0.842 -0.207,-1.493 -0.623,-1.953 -0.416,-0.459 -0.915,-0.689 -1.497,-0.689 -0.579,0 -1.034,0.244 -1.364,0.733 z m -2.887,4.956 h 0.841 V 0 h -0.841 z m 0,1.862 h 0.841 V 5.857 h -0.841 z M -29.345,0 -31.196,4.956 h 0.897 l 1.054,-2.969 c 0.115,-0.32 0.221,-0.653 0.317,-0.998 0.074,0.261 0.178,0.575 0.311,0.943 l 1.06,3.024 h 0.897 L -28.457,0"
         style="fill:#231f20;fill-opacity:1;fill-rule:nonzero;stroke:none"
         id="path18"
         inkscape:connector-curvature="0" /></g><g
       id="g20"
       transform="translate(491.794,145.943)"><path
         d="M 0,0 V 4.956 H 0.751 V 4.254 C 1.108,4.782 1.625,5.046 2.3,5.046 2.594,5.046 2.863,4.992 3.109,4.885 3.355,4.779 3.539,4.639 3.662,4.465 3.784,4.292 3.87,4.086 3.918,3.847 3.949,3.692 3.964,3.421 3.964,3.034 V 0 H 3.123 V 3.005 C 3.123,3.345 3.092,3.6 3.028,3.769 2.965,3.938 2.852,4.073 2.69,4.174 2.528,4.275 2.338,4.325 2.121,4.325 1.773,4.325 1.472,4.212 1.219,3.985 0.967,3.759 0.841,3.33 0.841,2.697 V 0 Z m -4.797,2.943 h 2.854 C -1.982,3.357 -2.091,3.667 -2.271,3.874 -2.547,4.195 -2.904,4.355 -3.344,4.355 -3.742,4.355 -4.076,4.227 -4.347,3.971 -4.618,3.715 -4.768,3.372 -4.797,2.943 M -1.953,1.622 -1.1,1.502 C -1.238,0.997 -1.493,0.606 -1.866,0.328 -2.238,0.049 -2.713,-0.09 -3.292,-0.09 c -0.73,0 -1.308,0.221 -1.735,0.664 -0.427,0.443 -0.641,1.063 -0.641,1.862 0,0.827 0.216,1.469 0.648,1.925 0.432,0.457 0.992,0.685 1.68,0.685 0.667,0 1.211,-0.225 1.634,-0.674 0.422,-0.449 0.634,-1.081 0.634,-1.897 0,-0.049 -0.002,-0.123 -0.005,-0.222 h -3.75 c 0.032,-0.534 0.19,-0.943 0.474,-1.227 0.283,-0.284 0.637,-0.425 1.061,-0.425 0.316,0 0.585,0.081 0.808,0.243 0.223,0.163 0.4,0.422 0.531,0.778 M -8.821,0 l -1.85,4.956 h 0.897 l 1.053,-2.969 c 0.116,-0.32 0.221,-0.653 0.318,-0.998 0.074,0.261 0.177,0.575 0.311,0.943 l 1.06,3.024 h 0.896 L -7.933,0 Z m -3.414,4.956 h 0.841 V 0 h -0.841 z m 0,1.862 h 0.841 V 5.857 h -0.841 z M -15.329,0 v 4.956 h 0.72 V 4.18 c 0.192,0.353 0.369,0.585 0.531,0.697 0.162,0.113 0.34,0.169 0.535,0.169 0.281,0 0.566,-0.085 0.857,-0.253 l -0.29,-0.771 c -0.199,0.102 -0.397,0.153 -0.595,0.153 -0.177,0 -0.337,-0.055 -0.478,-0.165 C -14.19,3.9 -14.291,3.747 -14.352,3.553 -14.443,3.256 -14.488,2.931 -14.488,2.579 V 0 Z m -5.85,0.811 h 1.448 c 0.447,0 0.798,0.042 1.052,0.125 0.255,0.084 0.458,0.201 0.609,0.353 0.213,0.213 0.378,0.5 0.497,0.86 0.119,0.361 0.178,0.798 0.178,1.311 0,0.711 -0.116,1.258 -0.349,1.64 -0.233,0.382 -0.516,0.638 -0.849,0.768 -0.241,0.093 -0.628,0.139 -1.161,0.139 h -1.425 z M -22.08,0 v 6.818 h 2.327 c 0.526,0 0.927,-0.032 1.203,-0.098 0.388,-0.089 0.718,-0.252 0.991,-0.488 0.357,-0.304 0.623,-0.692 0.8,-1.165 0.177,-0.473 0.265,-1.013 0.265,-1.621 0,-0.518 -0.06,-0.977 -0.179,-1.376 -0.12,-0.4 -0.274,-0.731 -0.461,-0.993 C -17.322,0.815 -17.527,0.608 -17.75,0.458 -17.973,0.307 -18.242,0.194 -18.557,0.116 -18.872,0.039 -19.233,0 -19.642,0"
         style="fill:#231f20;fill-opacity:1;fill-rule:nonzero;stroke:none"
         id="path22"
         inkscape:connector-curvature="0" /></g><g
       id="g24"
       transform="translate(500.223,135.022)"><path
         d="M 0,0 V 4.956 H 0.751 V 4.254 C 1.109,4.782 1.625,5.046 2.301,5.046 2.594,5.046 2.864,4.992 3.11,4.885 3.356,4.779 3.54,4.639 3.662,4.465 3.785,4.292 3.87,4.086 3.919,3.847 3.95,3.692 3.965,3.421 3.965,3.034 V 0 H 3.124 V 3.004 C 3.124,3.345 3.092,3.6 3.029,3.769 2.965,3.938 2.852,4.073 2.69,4.174 2.529,4.275 2.339,4.325 2.121,4.325 1.773,4.325 1.473,4.212 1.22,3.985 0.968,3.759 0.841,3.33 0.841,2.697 V 0 Z m -4.766,2.48 c 0,-0.628 0.137,-1.098 0.41,-1.411 0.274,-0.312 0.619,-0.468 1.034,-0.468 0.412,0 0.755,0.157 1.028,0.47 0.274,0.314 0.411,0.793 0.411,1.437 0,0.606 -0.138,1.066 -0.413,1.378 -0.275,0.313 -0.617,0.469 -1.026,0.469 -0.415,0 -0.76,-0.155 -1.034,-0.466 C -4.629,3.578 -4.766,3.108 -4.766,2.48 M -5.607,2.478 c 0,0.91 0.251,1.584 0.752,2.022 0.419,0.364 0.93,0.546 1.533,0.546 0.67,0 1.217,-0.222 1.642,-0.664 0.426,-0.443 0.638,-1.054 0.638,-1.835 0,-0.632 -0.094,-1.129 -0.282,-1.492 C -1.512,0.693 -1.786,0.411 -2.146,0.211 -2.505,0.01 -2.897,-0.09 -3.322,-0.09 c -0.682,0 -1.234,0.22 -1.654,0.662 -0.421,0.441 -0.631,1.076 -0.631,1.906 m -1.797,2.478 h 0.841 V 0 h -0.841 z m 0,1.862 h 0.841 V 5.857 h -0.841 z m -0.869,-6.091 0.12,-0.739 C -8.39,-0.064 -8.601,-0.09 -8.788,-0.09 c -0.305,0 -0.542,0.048 -0.71,0.145 -0.168,0.097 -0.286,0.224 -0.355,0.382 -0.068,0.158 -0.102,0.489 -0.102,0.995 v 2.863 h -0.631 v 0.661 h 0.631 v 1.223 l 0.841,0.502 V 4.956 h 0.841 V 4.295 h -0.841 v -2.89 c 0,-0.239 0.014,-0.393 0.044,-0.461 l 0.144,-0.163 c 0.066,-0.04 0.162,-0.06 0.286,-0.06 0.093,0 0.215,0.002 0.367,0.006 m -3.956,1.766 c -0.298,-0.123 -0.744,-0.228 -1.34,-0.315 -0.337,-0.049 -0.576,-0.104 -0.716,-0.166 -0.139,-0.061 -0.247,-0.151 -0.323,-0.27 -0.076,-0.119 -0.114,-0.25 -0.114,-0.395 0,-0.222 0.083,-0.407 0.248,-0.555 0.165,-0.147 0.407,-0.221 0.725,-0.221 0.316,0 0.596,0.069 0.842,0.208 0.245,0.138 0.426,0.329 0.541,0.573 0.088,0.189 0.132,0.467 0.132,0.835 z m 0.06,-1.862 c -0.301,-0.264 -0.593,-0.45 -0.876,-0.558 -0.283,-0.109 -0.587,-0.163 -0.912,-0.163 -0.535,0 -0.947,0.132 -1.235,0.397 -0.287,0.265 -0.431,0.603 -0.431,1.015 0,0.242 0.054,0.463 0.163,0.663 0.108,0.2 0.251,0.36 0.426,0.481 0.176,0.121 0.374,0.212 0.594,0.274 0.162,0.043 0.407,0.085 0.734,0.126 0.667,0.08 1.157,0.176 1.472,0.288 0.003,0.112 0.005,0.184 0.005,0.214 0,0.335 -0.078,0.571 -0.233,0.708 -0.21,0.186 -0.522,0.279 -0.936,0.279 -0.386,0 -0.671,-0.071 -0.856,-0.212 -0.184,-0.141 -0.32,-0.39 -0.408,-0.749 l -0.841,0.12 c 0.074,0.353 0.196,0.638 0.365,0.855 0.17,0.217 0.415,0.384 0.735,0.501 0.321,0.117 0.692,0.176 1.115,0.176 0.419,0 0.76,-0.05 1.021,-0.15 0.263,-0.1 0.455,-0.225 0.579,-0.377 0.123,-0.151 0.209,-0.342 0.258,-0.572 0.028,-0.144 0.042,-0.4 0.042,-0.767 V 2.076 c 0,-0.769 0.018,-1.259 0.054,-1.47 0.037,-0.211 0.109,-0.413 0.216,-0.606 h -0.841 c -0.109,0.18 -0.179,0.39 -0.21,0.631 M -18.508,0 v 4.956 h 0.721 V 4.18 c 0.191,0.353 0.368,0.585 0.53,0.697 0.162,0.113 0.341,0.169 0.535,0.169 0.281,0 0.567,-0.085 0.857,-0.253 l -0.29,-0.771 c -0.198,0.102 -0.397,0.153 -0.595,0.153 -0.177,0 -0.336,-0.055 -0.478,-0.165 C -17.369,3.9 -17.47,3.747 -17.53,3.553 -17.621,3.256 -17.667,2.931 -17.667,2.579 V 0 Z m -4.495,2.515 c 0,-0.588 0.081,-1.012 0.243,-1.273 0.265,-0.428 0.623,-0.641 1.075,-0.641 0.367,0 0.685,0.157 0.953,0.472 0.268,0.316 0.402,0.785 0.402,1.41 0,0.639 -0.129,1.111 -0.386,1.415 -0.257,0.305 -0.567,0.457 -0.932,0.457 -0.368,0 -0.685,-0.158 -0.954,-0.473 -0.267,-0.315 -0.401,-0.771 -0.401,-1.367 M -22.973,0 h -0.811 v 6.818 h 0.841 V 4.379 c 0.354,0.445 0.806,0.667 1.356,0.667 0.305,0 0.593,-0.061 0.865,-0.183 0.272,-0.122 0.496,-0.293 0.671,-0.513 0.176,-0.221 0.313,-0.487 0.413,-0.799 0.099,-0.311 0.149,-0.644 0.149,-0.999 0,-0.842 -0.208,-1.493 -0.624,-1.953 -0.416,-0.459 -0.915,-0.689 -1.497,-0.689 -0.579,0 -1.033,0.244 -1.363,0.733 z m -2.879,4.956 h 0.841 V 0 h -0.841 z m 0,1.862 h 0.841 V 5.857 h -0.841 z M -29.32,0 -31.17,4.956 h 0.897 l 1.053,-2.969 c 0.115,-0.32 0.221,-0.653 0.318,-0.998 0.074,0.261 0.177,0.575 0.311,0.943 l 1.06,3.024 h 0.896 L -28.432,0"
         style="fill:#231f20;fill-opacity:1;fill-rule:nonzero;stroke:none"
         id="path26"
         inkscape:connector-curvature="0" /></g><g
       id="g28"
       transform="translate(387.72,96.919)"><path
         d="M 0,0 13.044,17.534 11.9,18.386 -1.145,0.852"
         style="fill:#100f0d;fill-opacity:1;fill-rule:nonzero;stroke:none"
         id="path30"
         inkscape:connector-curvature="0" /></g><g
       id="g32"
       transform="translate(383.631,91.701)"><path
         d="m 0,0 0.12,-0.739 c -0.236,-0.053 -0.448,-0.079 -0.635,-0.079 -0.305,0 -0.541,0.049 -0.709,0.145 -0.168,0.097 -0.287,0.225 -0.355,0.383 -0.069,0.158 -0.103,0.489 -0.103,0.995 v 2.863 h -0.631 v 0.661 h 0.631 v 1.223 l 0.841,0.502 V 4.229 H 0 V 3.568 h -0.841 v -2.89 c 0,-0.239 0.015,-0.393 0.044,-0.461 l 0.144,-0.163 c 0.067,-0.04 0.162,-0.06 0.286,-0.06 0.093,0 0.215,0.002 0.367,0.006 m -7.095,-0.727 v 4.956 h 0.751 V 3.527 c 0.358,0.528 0.874,0.792 1.55,0.792 0.293,0 0.563,-0.053 0.809,-0.161 0.246,-0.106 0.43,-0.246 0.552,-0.42 C -3.31,3.565 -3.225,3.359 -3.176,3.12 -3.145,2.965 -3.13,2.694 -3.13,2.307 v -3.034 h -0.841 v 3.005 c 0,0.341 -0.032,0.596 -0.095,0.765 -0.064,0.168 -0.177,0.303 -0.339,0.404 -0.161,0.101 -0.351,0.151 -0.569,0.151 -0.348,0 -0.648,-0.113 -0.901,-0.34 C -6.127,3.032 -6.254,2.603 -6.254,1.97 v -2.697 z m -2.078,0 V 0.02 c -0.387,-0.559 -0.912,-0.838 -1.576,-0.838 -0.293,0 -0.567,0.056 -0.821,0.168 -0.255,0.111 -0.443,0.252 -0.566,0.42 -0.123,0.169 -0.21,0.376 -0.259,0.621 -0.035,0.164 -0.052,0.424 -0.052,0.78 v 3.058 h 0.841 V 1.492 c 0,-0.436 0.017,-0.73 0.052,-0.882 0.052,-0.22 0.165,-0.393 0.336,-0.518 0.171,-0.126 0.383,-0.188 0.636,-0.188 0.252,0 0.489,0.064 0.71,0.193 0.221,0.128 0.378,0.303 0.47,0.524 0.093,0.222 0.139,0.543 0.139,0.965 v 2.643 h 0.841 v -4.956 z m -7.996,2.48 c 0,-0.628 0.137,-1.098 0.411,-1.41 0.274,-0.313 0.618,-0.469 1.033,-0.469 0.412,0 0.755,0.157 1.029,0.471 0.274,0.314 0.411,0.792 0.411,1.436 0,0.606 -0.138,1.066 -0.413,1.378 -0.276,0.313 -0.618,0.469 -1.027,0.469 -0.415,0 -0.759,-0.155 -1.033,-0.466 -0.274,-0.311 -0.411,-0.781 -0.411,-1.409 M -18.01,1.751 c 0,0.91 0.251,1.584 0.752,2.022 0.42,0.364 0.931,0.546 1.533,0.546 0.67,0 1.218,-0.221 1.643,-0.664 0.425,-0.443 0.638,-1.054 0.638,-1.835 0,-0.632 -0.095,-1.129 -0.283,-1.492 -0.188,-0.362 -0.462,-0.643 -0.821,-0.845 -0.359,-0.2 -0.752,-0.301 -1.177,-0.301 -0.682,0 -1.233,0.222 -1.654,0.663 -0.421,0.441 -0.631,1.076 -0.631,1.906 m -7.572,-2.478 v 6.818 h 1.364 l 1.627,-4.826 c 0.149,-0.449 0.259,-0.786 0.328,-1.009 0.079,0.248 0.202,0.612 0.37,1.093 l 1.669,4.742 h 1.219 v -6.818 h -0.901 V 4.98 l -2.025,-5.707 h -0.788 l -1.962,5.767 v -5.767"
         style="fill:#231f20;fill-opacity:1;fill-rule:nonzero;stroke:none"
         id="path34"
         inkscape:connector-curvature="0" /></g><g
       id="g36"
       transform="translate(359.816,134.705)"><path
         d="M 0,0 34.886,10.921 34.46,12.283 -0.426,1.362"
         style="fill:#100f0d;fill-opacity:1;fill-rule:nonzero;stroke:none"
         id="path38"
         inkscape:connector-curvature="0" /></g><g
       id="g40"
       transform="translate(485.375,113.968)"><path
         d="m 0,0 3.943,-4.975 -6.37,-0.121 m -112.363,53.451 -3.883,5.036 6.37,0.121 z m 0.667,3.64 L -0.061,-2.306 -0.668,-3.58 -114.73,50.721"
         style="fill:#ee222e;fill-opacity:1;fill-rule:nonzero;stroke:none"
         id="path42"
         inkscape:connector-curvature="0" /></g><g
       id="g44"
       transform="translate(472.998,160.625)"><path
         d="M 0,0 6.31,-0.607 2.002,-5.278 m -101.443,-39.194 -6.37,0.607 4.308,4.671 z m -2.184,2.973 103.263,39.861 0.485,-1.335 -103.202,-39.861"
         style="fill:#00a650;fill-opacity:1;fill-rule:nonzero;stroke:none"
         id="path46"
         inkscape:connector-curvature="0" /></g><path
       d="m 533.119,103.98 h 0.841 v -6.818 h -0.841 z m -2.106,-4.324 c -0.298,-0.124 -0.744,-0.229 -1.34,-0.315 -0.337,-0.049 -0.576,-0.105 -0.715,-0.166 -0.14,-0.062 -0.248,-0.152 -0.324,-0.27 -0.076,-0.119 -0.114,-0.251 -0.114,-0.396 0,-0.221 0.083,-0.406 0.248,-0.554 0.165,-0.148 0.407,-0.222 0.726,-0.222 0.315,0 0.595,0.07 0.841,0.208 0.246,0.139 0.426,0.33 0.542,0.574 0.088,0.189 0.132,0.467 0.132,0.834 z m 0.06,-1.863 c -0.301,-0.263 -0.593,-0.449 -0.876,-0.558 -0.283,-0.108 -0.587,-0.163 -0.911,-0.163 -0.536,0 -0.948,0.133 -1.236,0.397 -0.287,0.265 -0.431,0.604 -0.431,1.016 0,0.242 0.054,0.463 0.163,0.662 0.109,0.2 0.251,0.361 0.427,0.481 0.175,0.121 0.373,0.213 0.593,0.275 0.162,0.043 0.407,0.085 0.734,0.125 0.667,0.081 1.157,0.177 1.473,0.288 0.003,0.113 0.004,0.184 0.004,0.215 0,0.335 -0.077,0.571 -0.233,0.708 -0.209,0.186 -0.521,0.279 -0.935,0.279 -0.387,0 -0.672,-0.071 -0.856,-0.212 -0.184,-0.141 -0.32,-0.391 -0.409,-0.75 l -0.841,0.121 c 0.074,0.353 0.196,0.637 0.365,0.854 0.17,0.217 0.415,0.384 0.735,0.502 0.321,0.117 0.693,0.175 1.115,0.175 0.419,0 0.76,-0.049 1.022,-0.149 0.262,-0.1 0.455,-0.226 0.578,-0.377 0.123,-0.151 0.209,-0.342 0.258,-0.573 0.028,-0.143 0.042,-0.399 0.042,-0.767 v -1.103 c 0,-0.77 0.018,-1.26 0.055,-1.471 0.036,-0.21 0.108,-0.412 0.215,-0.606 h -0.84 c -0.109,0.18 -0.179,0.391 -0.211,0.631 M 522.6,97.162 v 4.956 h 0.751 v -0.701 c 0.357,0.528 0.874,0.791 1.55,0.791 0.293,0 0.563,-0.053 0.809,-0.16 0.245,-0.107 0.43,-0.247 0.552,-0.42 0.122,-0.174 0.208,-0.38 0.257,-0.618 0.03,-0.155 0.046,-0.426 0.046,-0.814 v -3.034 h -0.841 v 3.005 c 0,0.341 -0.032,0.596 -0.096,0.765 -0.063,0.169 -0.176,0.304 -0.338,0.404 -0.162,0.101 -0.351,0.152 -0.569,0.152 -0.348,0 -0.649,-0.114 -0.901,-0.34 -0.253,-0.226 -0.379,-0.656 -0.379,-1.288 v -2.698 z m -2.183,4.956 h 0.841 v -4.956 h -0.841 z m 0,1.862 h 0.841 v -0.961 h -0.841 z m -4.706,-4.342 c 0,-0.628 0.136,-1.097 0.407,-1.408 0.271,-0.311 0.591,-0.467 0.959,-0.467 0.372,0 0.688,0.149 0.948,0.446 0.26,0.297 0.39,0.75 0.39,1.36 0,0.671 -0.133,1.164 -0.397,1.477 -0.265,0.315 -0.591,0.472 -0.978,0.472 -0.379,0 -0.695,-0.151 -0.948,-0.453 -0.254,-0.302 -0.381,-0.777 -0.381,-1.427 m 2.674,-2.476 v 0.648 c -0.314,-0.492 -0.776,-0.738 -1.385,-0.738 -0.394,0 -0.757,0.108 -1.088,0.324 -0.331,0.216 -0.587,0.518 -0.769,0.905 -0.182,0.387 -0.273,0.832 -0.273,1.335 0,0.49 0.083,0.935 0.247,1.334 0.164,0.4 0.411,0.706 0.74,0.919 0.329,0.213 0.697,0.319 1.104,0.319 0.298,0 0.563,-0.062 0.796,-0.187 0.232,-0.125 0.422,-0.288 0.567,-0.489 v 2.448 h 0.841 v -6.818 z m -5.26,0 v 0.747 c -0.387,-0.558 -0.912,-0.837 -1.576,-0.837 -0.293,0 -0.567,0.056 -0.821,0.167 -0.254,0.112 -0.443,0.252 -0.566,0.421 -0.123,0.169 -0.209,0.376 -0.259,0.62 -0.035,0.165 -0.052,0.425 -0.052,0.781 v 3.057 h 0.841 v -2.736 c 0,-0.437 0.017,-0.731 0.052,-0.882 0.053,-0.22 0.165,-0.393 0.336,-0.519 0.172,-0.125 0.384,-0.188 0.636,-0.188 0.252,0 0.489,0.065 0.71,0.193 0.222,0.129 0.378,0.304 0.471,0.525 0.092,0.221 0.138,0.543 0.138,0.964 v 2.643 h 0.841 v -4.956 z m -4.051,0.727 0.12,-0.739 c -0.237,-0.052 -0.448,-0.078 -0.635,-0.078 -0.305,0 -0.542,0.049 -0.71,0.145 -0.168,0.097 -0.286,0.225 -0.354,0.382 -0.069,0.158 -0.103,0.49 -0.103,0.996 v 2.863 h -0.631 v 0.66 h 0.631 v 1.223 l 0.841,0.503 v -1.726 h 0.841 v -0.66 h -0.841 v -2.89 c 0,-0.239 0.015,-0.393 0.044,-0.461 l 0.144,-0.163 c 0.067,-0.04 0.162,-0.061 0.286,-0.061 0.093,0 0.215,0.002 0.367,0.006 m -3.908,4.229 h 0.841 v -4.956 h -0.841 z m 0,1.862 h 0.841 v -0.961 h -0.841 z m -4.816,-4.262 c 0,-0.648 0.13,-1.121 0.389,-1.418 0.26,-0.298 0.585,-0.447 0.976,-0.447 0.387,0 0.712,0.148 0.975,0.444 0.262,0.297 0.394,0.761 0.394,1.393 0,0.605 -0.136,1.06 -0.406,1.367 -0.27,0.307 -0.596,0.461 -0.977,0.461 -0.376,0 -0.694,-0.151 -0.957,-0.454 -0.262,-0.302 -0.394,-0.751 -0.394,-1.346 m -0.66,-2.916 0.841,-0.12 c 0.033,-0.261 0.127,-0.451 0.28,-0.57 0.206,-0.161 0.486,-0.241 0.842,-0.241 0.383,0 0.679,0.076 0.887,0.228 0.209,0.153 0.35,0.366 0.424,0.64 0.043,0.167 0.063,0.519 0.06,1.054 -0.367,-0.42 -0.825,-0.631 -1.373,-0.631 -0.681,0 -1.208,0.245 -1.582,0.734 -0.373,0.49 -0.56,1.077 -0.56,1.762 0,0.47 0.086,0.905 0.258,1.303 0.171,0.398 0.42,0.705 0.746,0.922 0.327,0.217 0.71,0.325 1.15,0.325 0.586,0 1.07,-0.24 1.451,-0.72 v 0.63 h 0.751 v -4.266 c 0,-0.768 -0.079,-1.313 -0.235,-1.633 -0.156,-0.321 -0.403,-0.574 -0.742,-0.76 -0.339,-0.186 -0.755,-0.279 -1.25,-0.279 -0.588,0 -1.062,0.135 -1.424,0.405 -0.362,0.269 -0.537,0.675 -0.524,1.217 m -5.103,0.36 v 4.956 h 0.751 v -0.701 c 0.357,0.528 0.874,0.791 1.549,0.791 0.294,0 0.563,-0.053 0.809,-0.16 0.246,-0.107 0.43,-0.247 0.553,-0.42 0.122,-0.174 0.208,-0.38 0.257,-0.618 0.03,-0.155 0.046,-0.426 0.046,-0.814 v -3.034 h -0.841 v 3.005 c 0,0.341 -0.032,0.596 -0.096,0.765 -0.063,0.169 -0.176,0.304 -0.338,0.404 -0.162,0.101 -0.352,0.152 -0.569,0.152 -0.348,0 -0.649,-0.114 -0.901,-0.34 -0.253,-0.226 -0.379,-0.656 -0.379,-1.288 v -2.698 z m -4.827,2.481 c 0,-0.628 0.137,-1.098 0.411,-1.411 0.274,-0.313 0.618,-0.469 1.033,-0.469 0.412,0 0.755,0.157 1.029,0.471 0.274,0.314 0.411,0.793 0.411,1.436 0,0.607 -0.138,1.066 -0.413,1.379 -0.276,0.312 -0.618,0.469 -1.027,0.469 -0.415,0 -0.759,-0.156 -1.033,-0.467 -0.274,-0.311 -0.411,-0.78 -0.411,-1.408 m -0.841,-0.003 c 0,0.911 0.251,1.585 0.753,2.023 0.419,0.363 0.93,0.545 1.532,0.545 0.67,0 1.218,-0.221 1.643,-0.664 0.425,-0.442 0.638,-1.054 0.638,-1.834 0,-0.632 -0.095,-1.13 -0.283,-1.493 -0.188,-0.362 -0.462,-0.643 -0.821,-0.844 -0.359,-0.2 -0.752,-0.301 -1.177,-0.301 -0.682,0 -1.233,0.221 -1.654,0.662 -0.421,0.441 -0.631,1.077 -0.631,1.906 m -4.856,-2.478 v 6.818 h 0.902 v -6.007 h 3.393 v -0.811"
       style="fill:#231f20;fill-opacity:1;fill-rule:nonzero;stroke:none"
       id="path48"
       inkscape:connector-curvature="0" /><g
       id="g50"
       transform="translate(495.773,87.744)"><path
         d="m 0,0 0.841,0.121 c 0.046,-0.33 0.175,-0.583 0.386,-0.758 0.212,-0.176 0.507,-0.264 0.887,-0.264 0.383,0 0.667,0.078 0.852,0.233 0.185,0.154 0.278,0.335 0.278,0.545 0,0.187 -0.088,0.334 -0.265,0.441 C 2.856,0.391 2.572,0.486 2.126,0.599 1.525,0.753 1.104,0.887 0.861,1 0.618,1.112 0.434,1.268 0.308,1.467 0.183,1.667 0.12,1.887 0.12,2.127 c 0,0.22 0.051,0.423 0.152,0.609 0.101,0.187 0.238,0.342 0.412,0.466 0.131,0.096 0.309,0.176 0.534,0.243 0.225,0.066 0.467,0.1 0.725,0.1 0.388,0 0.729,-0.057 1.022,-0.171 C 3.259,3.26 3.476,3.106 3.616,2.912 3.755,2.718 3.852,2.458 3.905,2.133 L 3.064,2.013 C 3.027,2.277 2.922,2.483 2.747,2.631 2.573,2.779 2.326,2.854 2.008,2.854 1.632,2.854 1.363,2.791 1.202,2.665 1.042,2.54 0.961,2.393 0.961,2.224 0.961,2.117 0.994,2.02 1.061,1.934 1.128,1.846 1.233,1.772 1.375,1.714 1.457,1.683 1.698,1.613 2.099,1.502 2.678,1.345 3.086,1.216 3.324,1.115 3.561,1.015 3.747,0.869 3.882,0.678 4.017,0.486 4.085,0.249 4.085,-0.036 4.085,-0.313 4.004,-0.575 3.842,-0.82 3.68,-1.066 3.446,-1.256 3.14,-1.39 2.834,-1.524 2.489,-1.592 2.103,-1.592 1.464,-1.592 0.977,-1.458 0.642,-1.19 0.306,-0.922 0.093,-0.526 0,0 m -1.792,3.454 h 0.842 v -4.955 h -0.842 z m 0,1.863 H -0.95 V 4.356 h -0.842 z m -5.332,-6.818 1.796,2.554 -1.676,2.401 h 1.015 l 0.794,-1.189 c 0.15,-0.215 0.263,-0.395 0.339,-0.539 0.147,0.208 0.276,0.392 0.389,0.551 l 0.827,1.177 h 1.021 L -4.31,1.05 -2.529,-1.501 h -1.015 l -1.021,1.513 -0.218,0.365 -1.32,-1.878 z M -8.616,0.992 C -8.914,0.868 -9.36,0.763 -9.956,0.677 c -0.337,-0.049 -0.576,-0.104 -0.715,-0.166 -0.14,-0.062 -0.248,-0.152 -0.324,-0.271 -0.076,-0.118 -0.114,-0.25 -0.114,-0.394 0,-0.222 0.083,-0.407 0.248,-0.555 0.165,-0.148 0.407,-0.223 0.726,-0.223 0.315,0 0.595,0.071 0.841,0.209 0.246,0.139 0.426,0.33 0.541,0.574 0.088,0.189 0.132,0.467 0.132,0.835 z m 0.06,-1.864 c -0.301,-0.263 -0.593,-0.448 -0.876,-0.557 -0.283,-0.108 -0.587,-0.163 -0.911,-0.163 -0.536,0 -0.948,0.133 -1.236,0.397 -0.287,0.266 -0.431,0.604 -0.431,1.016 0,0.242 0.054,0.463 0.163,0.662 0.108,0.2 0.251,0.361 0.427,0.481 0.175,0.121 0.373,0.213 0.593,0.275 0.162,0.043 0.407,0.085 0.734,0.125 0.667,0.081 1.157,0.177 1.472,0.288 0.004,0.113 0.005,0.184 0.005,0.215 0,0.335 -0.078,0.571 -0.233,0.708 -0.21,0.186 -0.522,0.279 -0.935,0.279 -0.387,0 -0.672,-0.071 -0.856,-0.213 -0.184,-0.14 -0.321,-0.39 -0.409,-0.748 l -0.841,0.12 c 0.074,0.352 0.196,0.638 0.365,0.854 0.17,0.217 0.415,0.385 0.735,0.502 0.321,0.117 0.693,0.176 1.115,0.176 0.419,0 0.76,-0.05 1.022,-0.15 0.262,-0.1 0.454,-0.226 0.578,-0.377 0.123,-0.151 0.209,-0.342 0.258,-0.573 0.028,-0.143 0.042,-0.399 0.042,-0.767 V 0.575 c 0,-0.77 0.018,-1.26 0.055,-1.471 0.036,-0.21 0.108,-0.412 0.215,-0.605 h -0.841 c -0.108,0.18 -0.179,0.39 -0.21,0.629"
         style="fill:#231f20;fill-opacity:1;fill-rule:nonzero;stroke:none"
         id="path52"
         inkscape:connector-curvature="0" /></g><g
       id="g54"
       transform="translate(352.29,141.279)"><path
         d="m 0,0 c 0,-0.648 0.13,-1.121 0.389,-1.418 0.259,-0.298 0.585,-0.447 0.975,-0.447 0.388,0 0.713,0.148 0.976,0.444 0.262,0.297 0.393,0.761 0.393,1.393 0,0.605 -0.135,1.06 -0.405,1.367 C 2.057,1.646 1.732,1.8 1.35,1.8 0.975,1.8 0.656,1.649 0.394,1.346 0.131,1.044 0,0.595 0,0 m -0.661,-2.916 0.841,-0.12 c 0.034,-0.261 0.128,-0.451 0.281,-0.57 0.205,-0.161 0.486,-0.241 0.841,-0.241 0.384,0 0.679,0.076 0.888,0.229 0.208,0.152 0.35,0.365 0.424,0.639 0.042,0.167 0.062,0.519 0.059,1.054 -0.367,-0.42 -0.824,-0.63 -1.372,-0.63 -0.681,0 -1.208,0.244 -1.582,0.734 -0.373,0.489 -0.56,1.076 -0.56,1.761 0,0.47 0.086,0.905 0.257,1.303 0.172,0.398 0.421,0.705 0.747,0.922 0.326,0.217 0.709,0.326 1.149,0.326 0.587,0 1.071,-0.241 1.451,-0.721 V 2.401 H 3.514 V -1.866 C 3.514,-2.634 3.436,-3.178 3.28,-3.499 3.124,-3.82 2.876,-4.073 2.538,-4.259 2.199,-4.445 1.782,-4.538 1.287,-4.538 c -0.587,0 -1.062,0.135 -1.424,0.405 -0.361,0.269 -0.536,0.675 -0.524,1.217 m -5.15,0.361 V 2.401 H -5.06 V 1.699 c 0.357,0.528 0.874,0.792 1.549,0.792 0.294,0 0.564,-0.054 0.809,-0.161 0.246,-0.107 0.43,-0.247 0.553,-0.42 0.122,-0.174 0.208,-0.38 0.257,-0.618 0.03,-0.155 0.045,-0.426 0.045,-0.813 v -3.034 h -0.841 v 3.004 c 0,0.341 -0.031,0.596 -0.095,0.765 C -2.846,1.383 -2.959,1.518 -3.121,1.619 -3.283,1.719 -3.473,1.77 -3.69,1.77 -4.038,1.77 -4.339,1.656 -4.591,1.43 -4.844,1.204 -4.97,0.774 -4.97,0.142 V -2.555 Z M -7.85,2.401 h 0.841 V -2.555 H -7.85 Z m 0,1.862 h 0.841 V 3.302 H -7.85 Z m -0.93,-6.091 0.12,-0.74 c -0.236,-0.052 -0.448,-0.078 -0.635,-0.078 -0.305,0 -0.541,0.049 -0.709,0.145 -0.168,0.097 -0.287,0.225 -0.355,0.383 -0.069,0.157 -0.103,0.489 -0.103,0.995 V 1.74 h -0.631 v 0.661 h 0.631 v 1.223 l 0.841,0.502 V 2.401 H -8.78 V 1.74 h -0.841 v -2.89 c 0,-0.239 0.015,-0.393 0.044,-0.461 l 0.144,-0.163 c 0.067,-0.04 0.162,-0.061 0.286,-0.061 0.093,0 0.215,0.002 0.367,0.007 m -3.901,1.766 c -0.298,-0.124 -0.745,-0.228 -1.34,-0.315 -0.337,-0.049 -0.576,-0.104 -0.716,-0.166 -0.139,-0.062 -0.247,-0.152 -0.323,-0.27 -0.076,-0.119 -0.114,-0.251 -0.114,-0.395 0,-0.222 0.082,-0.407 0.248,-0.555 0.165,-0.148 0.407,-0.222 0.725,-0.222 0.315,0 0.596,0.07 0.841,0.208 0.246,0.139 0.427,0.33 0.542,0.574 0.088,0.189 0.132,0.467 0.132,0.835 z m 0.06,-1.863 c -0.301,-0.263 -0.593,-0.449 -0.876,-0.558 -0.284,-0.108 -0.587,-0.163 -0.912,-0.163 -0.535,0 -0.947,0.133 -1.235,0.397 -0.288,0.265 -0.431,0.604 -0.431,1.016 0,0.242 0.054,0.463 0.162,0.662 0.109,0.2 0.251,0.361 0.427,0.481 0.176,0.121 0.374,0.213 0.594,0.275 0.162,0.043 0.406,0.085 0.734,0.125 0.666,0.081 1.157,0.177 1.472,0.288 0.003,0.113 0.005,0.185 0.005,0.215 0,0.335 -0.078,0.571 -0.233,0.708 -0.21,0.186 -0.522,0.279 -0.936,0.279 -0.386,0 -0.672,-0.071 -0.856,-0.212 -0.184,-0.141 -0.32,-0.391 -0.408,-0.749 l -0.841,0.12 c 0.074,0.353 0.195,0.637 0.365,0.854 0.169,0.217 0.414,0.385 0.735,0.501 0.321,0.118 0.692,0.177 1.114,0.177 0.42,0 0.76,-0.05 1.022,-0.15 0.262,-0.1 0.455,-0.226 0.578,-0.377 0.124,-0.151 0.21,-0.342 0.259,-0.573 0.028,-0.143 0.042,-0.399 0.042,-0.767 v -1.103 c 0,-0.77 0.018,-1.26 0.054,-1.47 0.036,-0.211 0.108,-0.413 0.216,-0.606 h -0.841 c -0.109,0.18 -0.179,0.39 -0.21,0.63 m -6.339,-0.63 v 4.956 h 0.721 V 1.625 c 0.191,0.352 0.368,0.585 0.53,0.697 0.162,0.112 0.34,0.169 0.535,0.169 0.281,0 0.566,-0.085 0.857,-0.254 l -0.29,-0.771 c -0.199,0.103 -0.397,0.153 -0.595,0.153 -0.177,0 -0.337,-0.055 -0.478,-0.165 -0.141,-0.109 -0.242,-0.262 -0.303,-0.457 -0.091,-0.296 -0.136,-0.621 -0.136,-0.974 v -2.578 z m -4.502,2.515 c 0,-0.588 0.081,-1.012 0.243,-1.274 0.265,-0.427 0.623,-0.641 1.075,-0.641 0.367,0 0.685,0.158 0.953,0.473 0.268,0.315 0.402,0.785 0.402,1.409 0,0.64 -0.129,1.112 -0.386,1.416 -0.257,0.304 -0.567,0.457 -0.932,0.457 -0.368,0 -0.685,-0.158 -0.954,-0.473 -0.267,-0.315 -0.401,-0.771 -0.401,-1.367 m 0.03,-2.515 h -0.811 v 6.818 h 0.841 V 1.824 c 0.354,0.444 0.806,0.667 1.356,0.667 0.305,0 0.593,-0.062 0.865,-0.184 0.272,-0.121 0.496,-0.292 0.671,-0.513 0.176,-0.22 0.313,-0.487 0.413,-0.798 0.099,-0.311 0.149,-0.644 0.149,-0.999 0,-0.842 -0.208,-1.494 -0.624,-1.953 -0.416,-0.46 -0.915,-0.69 -1.497,-0.69 -0.579,0 -1.033,0.245 -1.363,0.734 z m -2.873,4.956 h 0.841 v -4.956 h -0.841 z m 0,1.862 h 0.841 V 3.302 h -0.841 z m -4.427,-6.818 -2.598,6.818 h 0.954 l 1.761,-4.964 c 0.142,-0.398 0.261,-0.771 0.356,-1.119 0.107,0.373 0.231,0.746 0.372,1.119 l 1.866,4.964 h 0.959 l -2.67,-6.818"
         style="fill:#231f20;fill-opacity:1;fill-rule:nonzero;stroke:none"
         id="path56"
         inkscape:connector-curvature="0" /></g><g
       id="g58"
       transform="translate(356.172,128.651)"><path
         d="m 0,0 0.12,-0.739 c -0.236,-0.052 -0.448,-0.078 -0.635,-0.078 -0.305,0 -0.541,0.048 -0.709,0.145 -0.168,0.097 -0.287,0.224 -0.355,0.382 -0.069,0.158 -0.103,0.489 -0.103,0.995 v 2.863 h -0.631 v 0.661 h 0.631 v 1.223 l 0.841,0.502 V 4.229 H 0 V 3.568 h -0.841 v -2.89 c 0,-0.239 0.015,-0.392 0.044,-0.461 l 0.144,-0.163 c 0.067,-0.04 0.162,-0.06 0.286,-0.06 0.093,0 0.215,0.002 0.367,0.006 m -7.018,-0.727 v 4.956 h 0.751 V 3.527 c 0.357,0.528 0.874,0.792 1.549,0.792 0.294,0 0.563,-0.053 0.809,-0.16 0.246,-0.107 0.43,-0.247 0.553,-0.421 C -3.234,3.565 -3.148,3.359 -3.1,3.12 -3.069,2.966 -3.054,2.694 -3.054,2.307 v -3.034 h -0.841 v 3.004 c 0,0.341 -0.031,0.597 -0.095,0.765 -0.063,0.17 -0.176,0.304 -0.338,0.405 -0.162,0.101 -0.352,0.151 -0.569,0.151 -0.348,0 -0.649,-0.113 -0.902,-0.34 C -6.051,3.032 -6.177,2.603 -6.177,1.97 v -2.697 z m -4.797,2.943 h 2.853 C -9,2.63 -9.109,2.94 -9.289,3.147 c -0.276,0.321 -0.633,0.481 -1.073,0.481 -0.398,0 -0.732,-0.128 -1.003,-0.384 -0.271,-0.256 -0.421,-0.599 -0.45,-1.028 m 2.844,-1.321 0.853,-0.12 c -0.138,-0.504 -0.393,-0.896 -0.766,-1.174 -0.372,-0.279 -0.848,-0.418 -1.426,-0.418 -0.73,0 -1.308,0.221 -1.735,0.664 -0.427,0.443 -0.641,1.063 -0.641,1.862 0,0.827 0.216,1.469 0.648,1.925 0.432,0.457 0.992,0.685 1.68,0.685 0.667,0 1.211,-0.225 1.633,-0.674 0.423,-0.449 0.634,-1.081 0.634,-1.896 0,-0.05 -0.001,-0.124 -0.004,-0.223 h -3.75 c 0.032,-0.534 0.19,-0.943 0.474,-1.227 0.283,-0.283 0.637,-0.425 1.061,-0.425 0.316,0 0.585,0.081 0.808,0.243 0.223,0.163 0.4,0.422 0.531,0.778 m -11.426,-1.622 v 4.956 h 0.751 V 3.518 c 0.155,0.241 0.362,0.435 0.62,0.581 0.259,0.147 0.553,0.22 0.883,0.22 0.367,0 0.668,-0.076 0.902,-0.227 0.235,-0.151 0.401,-0.362 0.497,-0.634 0.394,0.574 0.907,0.861 1.538,0.861 0.493,0 0.873,-0.136 1.138,-0.407 0.266,-0.271 0.399,-0.688 0.399,-1.252 v -3.387 h -0.841 v 3.112 c 0,0.334 -0.028,0.575 -0.082,0.722 -0.055,0.148 -0.154,0.266 -0.297,0.356 -0.144,0.09 -0.313,0.135 -0.506,0.135 -0.35,0 -0.64,-0.115 -0.871,-0.347 -0.231,-0.231 -0.347,-0.6 -0.347,-1.109 v -2.869 h -0.841 v 3.209 c 0,0.372 -0.068,0.651 -0.205,0.837 -0.137,0.186 -0.36,0.279 -0.671,0.279 -0.236,0 -0.454,-0.062 -0.655,-0.186 -0.2,-0.124 -0.346,-0.306 -0.436,-0.545 -0.09,-0.238 -0.135,-0.582 -0.135,-1.032 v -2.562 z m -4.642,2.943 h 2.853 c -0.039,0.414 -0.147,0.724 -0.327,0.931 -0.276,0.321 -0.634,0.481 -1.073,0.481 -0.398,0 -0.733,-0.128 -1.004,-0.384 -0.271,-0.256 -0.421,-0.599 -0.449,-1.028 m 2.844,-1.321 0.852,-0.12 c -0.137,-0.504 -0.392,-0.896 -0.765,-1.174 -0.372,-0.279 -0.848,-0.418 -1.427,-0.418 -0.729,0 -1.307,0.221 -1.735,0.664 -0.427,0.443 -0.64,1.063 -0.64,1.862 0,0.827 0.216,1.469 0.647,1.925 0.432,0.457 0.992,0.685 1.681,0.685 0.666,0 1.211,-0.225 1.633,-0.674 0.423,-0.449 0.634,-1.081 0.634,-1.896 0,-0.05 -10e-4,-0.124 -0.005,-0.223 h -3.749 c 0.031,-0.534 0.189,-0.943 0.473,-1.227 0.284,-0.283 0.638,-0.425 1.062,-0.425 0.315,0 0.585,0.081 0.808,0.243 0.223,0.163 0.4,0.422 0.531,0.778 m -5.567,5.196 h 0.841 v -6.818 h -0.841 z m -4.615,-3.875 h 2.853 c -0.039,0.414 -0.148,0.724 -0.327,0.931 -0.276,0.321 -0.634,0.481 -1.073,0.481 -0.398,0 -0.733,-0.128 -1.004,-0.384 -0.271,-0.256 -0.421,-0.599 -0.449,-1.028 m 2.844,-1.321 0.852,-0.12 c -0.137,-0.504 -0.393,-0.896 -0.765,-1.174 -0.372,-0.279 -0.848,-0.418 -1.427,-0.418 -0.729,0 -1.308,0.221 -1.735,0.664 -0.427,0.443 -0.64,1.063 -0.64,1.862 0,0.827 0.215,1.469 0.647,1.925 0.432,0.457 0.992,0.685 1.681,0.685 0.666,0 1.211,-0.225 1.633,-0.674 0.423,-0.449 0.634,-1.081 0.634,-1.896 0,-0.05 -0.002,-0.124 -0.005,-0.223 h -3.749 c 0.031,-0.534 0.189,-0.943 0.473,-1.227 0.284,-0.283 0.638,-0.425 1.062,-0.425 0.315,0 0.585,0.081 0.808,0.243 0.223,0.163 0.4,0.422 0.531,0.778"
         style="fill:#231f20;fill-opacity:1;fill-rule:nonzero;stroke:none"
         id="path60"
         inkscape:connector-curvature="0" /></g><g
       id="g62"
       transform="translate(428.647,90.609)"><path
         d="M 0,0 -2.852,-5.703 -5.764,0 m 0,87.49 2.852,5.703 2.851,-5.703 z m 3.58,0.97 V -0.909 H -3.58 L -3.64,88.46"
         style="fill:#186ec0;fill-opacity:1;fill-rule:nonzero;stroke:none"
         id="path64"
         inkscape:connector-curvature="0" /></g><g
       id="g66"
       transform="translate(382.673,159.046)"><path
         d="M 0,0 0.061,-39.133 1.488,-39.131 1.427,0.002 Z M 4.793,-2.119 4.611,-36.277 6.038,-36.284 6.22,-2.126 Z m 78.994,-37.317 0.061,-39.134 1.426,0.002 -0.06,39.134 z m -4.672,2.065 -0.06,-34.28 1.426,-0.002 0.061,34.279 z m -74.4,0.81 74.565,-35.372 0.612,1.289 -74.565,35.372 z m -4.733,-2.608 84.333,-40.105 0.613,1.289 -84.333,40.104"
         style="fill:#7b7c7e;fill-opacity:1;fill-rule:nonzero;stroke:none"
         id="path68"
         inkscape:connector-curvature="0" /></g><g
       id="g70"
       transform="translate(386.194,158.091)"><path
         d="M 0,0 C 0.465,0.011 0.936,0.018 1.411,0.019 L 1.408,1.446 C 0.922,1.444 0.441,1.438 -0.035,1.426 Z M 2.824,0.008 C 3.291,0 3.762,-0.013 4.237,-0.03 L 4.289,1.396 C 3.805,1.414 3.325,1.427 2.849,1.435 Z M 5.65,-0.094 c 0.467,-0.025 0.938,-0.054 1.413,-0.088 l 0.1,1.424 C 6.681,1.276 6.202,1.306 5.727,1.331 Z m 2.824,-0.198 c 0.467,-0.041 0.937,-0.085 1.411,-0.133 l 0.144,1.419 C 9.549,1.043 9.071,1.088 8.597,1.129 Z m 2.819,-0.286 c 0.466,-0.055 0.935,-0.112 1.407,-0.174 l 0.184,1.415 c -0.478,0.062 -0.953,0.121 -1.426,0.176 l -0.165,-1.418 z m 2.811,-0.366 c 0.466,-0.067 0.933,-0.137 1.403,-0.21 l 0.221,1.409 C 15.252,0.33 14.779,0.401 14.307,0.469 Z m 2.803,-0.438 c 0.464,-0.079 0.929,-0.161 1.397,-0.246 l 0.255,1.404 c -0.473,0.086 -0.945,0.169 -1.414,0.248 z m 2.791,-0.507 c 0.463,-0.09 0.927,-0.182 1.392,-0.278 l 0.287,1.398 c -0.47,0.096 -0.94,0.19 -1.407,0.281 z m 2.78,-0.572 c 0.461,-0.1 0.923,-0.203 1.386,-0.308 l 0.318,1.39 c -0.468,0.107 -0.935,0.212 -1.401,0.313 z m 2.765,-0.632 c 0.458,-0.11 0.917,-0.222 1.376,-0.338 l 0.348,1.384 c -0.464,0.117 -0.928,0.23 -1.391,0.342 z m 2.749,-0.691 c 0.456,-0.119 0.913,-0.241 1.37,-0.366 l 0.376,1.376 c -0.462,0.126 -0.923,0.25 -1.384,0.371 z m 2.736,-0.748 c 0.453,-0.129 0.907,-0.26 1.362,-0.395 l 0.404,1.369 c -0.459,0.135 -0.918,0.268 -1.376,0.399 z m 2.72,-0.804 c 0.422,-0.129 0.844,-0.261 1.266,-0.395 l -10e-4,10e-4 0.089,-0.029 0.435,1.359 -0.09,0.029 h -0.002 c -0.426,0.136 -0.852,0.269 -1.279,0.399 z m 2.705,-0.862 c 0.451,-0.149 0.899,-0.3 1.346,-0.453 l 0.461,1.35 c -0.451,0.155 -0.904,0.307 -1.359,0.458 z m 2.687,-0.919 c 0.448,-0.158 0.894,-0.318 1.337,-0.48 l 0.488,1.341 c -0.447,0.163 -0.897,0.325 -1.35,0.485 z m 2.668,-0.973 c 0.445,-0.167 0.887,-0.337 1.326,-0.507 l 0.517,1.33 c -0.444,0.172 -0.891,0.343 -1.34,0.512 z m 2.647,-1.029 c 0.441,-0.176 0.879,-0.355 1.314,-0.535 l 0.545,1.319 c -0.439,0.182 -0.883,0.362 -1.329,0.541 l -0.53,-1.324 z m 2.623,-1.084 c 0.438,-0.187 0.872,-0.375 1.302,-0.564 l 0.575,1.306 c -0.436,0.191 -0.875,0.381 -1.317,0.57 z m 2.598,-1.143 c 0.433,-0.197 0.863,-0.395 1.289,-0.594 l 0.605,1.292 c -0.431,0.202 -0.866,0.402 -1.304,0.601 z m 2.57,-1.203 c 0.429,-0.207 0.853,-0.415 1.274,-0.624 l 0.636,1.277 c -0.426,0.212 -0.856,0.422 -1.29,0.632 z m 2.539,-1.265 c 0.423,-0.218 0.842,-0.437 1.256,-0.657 l 0.67,1.26 c -0.42,0.223 -0.844,0.445 -1.273,0.666 z m 2.503,-1.331 c 0.418,-0.229 0.83,-0.459 1.237,-0.691 l 0.705,1.241 c -0.413,0.235 -0.831,0.468 -1.255,0.701 z m 2.464,-1.4 c 0.41,-0.242 0.815,-0.484 1.215,-0.728 l 0.743,1.219 c -0.406,0.247 -0.818,0.493 -1.235,0.739 z m 2.417,-1.475 c 0.403,-0.255 0.799,-0.51 1.188,-0.767 l 0.785,1.192 c -0.397,0.261 -0.8,0.521 -1.21,0.781 z m 2.362,-1.555 c 0.393,-0.27 0.779,-0.54 1.157,-0.811 l 0.831,1.16 c -0.386,0.277 -0.78,0.553 -1.181,0.828 z m 2.296,-1.645 c 0.382,-0.286 0.755,-0.572 1.119,-0.858 l 0.882,1.121 c -0.373,0.293 -0.755,0.587 -1.145,0.879 z m 2.215,-1.744 c 0.368,-0.304 0.724,-0.609 1.071,-0.913 l 0.941,1.072 c -0.356,0.313 -0.724,0.627 -1.101,0.94 z m 2.111,-1.856 c 0.348,-0.326 0.684,-0.652 1.006,-0.976 l 1.012,1.006 c -0.335,0.337 -0.683,0.674 -1.043,1.011 z m 1.972,-1.987 c 0.322,-0.351 0.628,-0.7 0.918,-1.048 l 1.096,0.914 c -0.305,0.366 -0.626,0.732 -0.962,1.099 z m 1.778,-2.137 c 0.283,-0.38 0.546,-0.758 0.789,-1.131 l 1.197,0.775 c -0.26,0.402 -0.541,0.805 -0.842,1.209 z m 1.488,-2.308 c 0.224,-0.413 0.42,-0.82 0.588,-1.221 l 1.315,0.553 c -0.188,0.447 -0.404,0.896 -0.647,1.347 z m 1.033,-2.481 c 0.125,-0.439 0.213,-0.868 0.267,-1.286 l 1.415,0.179 c -0.063,0.495 -0.167,0.994 -0.309,1.497 z m 0.315,-2.58 c -0.024,-0.432 -0.09,-0.853 -0.199,-1.264 l 1.379,-0.366 c 0.135,0.507 0.216,1.025 0.245,1.551 z m -0.644,-2.471 c -0.184,-0.378 -0.408,-0.743 -0.674,-1.094 l 1.137,-0.861 c 0.32,0.422 0.594,0.866 0.82,1.331 z m -1.549,-2.061 c -0.31,-0.291 -0.653,-0.57 -1.03,-0.837 l 0.824,-1.165 c 0.427,0.302 0.822,0.623 1.183,0.962 z m -2.172,-1.55 c -0.383,-0.21 -0.79,-0.411 -1.222,-0.6 l 0.572,-1.307 c 0.47,0.206 0.916,0.425 1.338,0.658 l -0.688,1.25"
         style="fill:#100f0d;fill-opacity:1;fill-rule:nonzero;stroke:none"
         id="path72"
         inkscape:connector-curvature="0" /></g><path
       d="m 455.342,111.541 h 6.796 v 6.917 h -6.796 z"
       style="fill:#ffffff;fill-opacity:1;fill-rule:nonzero;stroke:none"
       id="path74"
       inkscape:connector-curvature="0" /><g
       id="g76"
       transform="translate(466.749,119.126)"><path
         d="M 0,0 -3.823,-1.82 V 1.759"
         style="fill:#ffffff;fill-opacity:1;fill-rule:evenodd;stroke:none"
         id="path78"
         inkscape:connector-curvature="0" /></g><g
       id="g80"
       transform="translate(463.758,121.416)"><path
         d="m 0,0 c -0.523,-0.013 -1.054,-0.019 -1.592,-0.019 -9.631,-0.001 -21.464,2.033 -33.182,5.75 l 0.002,-10e-4 c -12.364,3.952 -23.098,9.25 -30.701,14.737 -3.801,2.742 -6.818,5.533 -8.863,8.2 -2.05,2.668 -3.106,5.197 -3.102,7.401 0,0.678 0.097,1.328 0.295,1.955 0.352,1.108 1.026,2.118 2.054,3.034 1.026,0.915 2.408,1.727 4.138,2.401 l -0.519,1.33 c -1.849,-0.722 -3.38,-1.608 -4.568,-2.665 -1.187,-1.056 -2.029,-2.291 -2.466,-3.67 -0.243,-0.772 -0.361,-1.571 -0.361,-2.385 0.005,-2.663 1.237,-5.451 3.397,-8.27 3.247,-4.228 8.628,-8.568 15.54,-12.623 6.911,-4.053 15.355,-7.809 24.721,-10.804 h 0.002 c 11.841,-3.754 23.785,-5.816 33.613,-5.817 0.549,0 1.092,0.007 1.627,0.02 L 0.001,0"
         style="fill:#100f0d;fill-opacity:1;fill-rule:nonzero;stroke:none"
         id="path82"
         inkscape:connector-curvature="0" /></g><path
       d="m 384.478,159.472 h 12.377 v 8.494 h -12.377 z"
       style="fill:#ffffff;fill-opacity:1;fill-rule:nonzero;stroke:none"
       id="path84"
       inkscape:connector-curvature="0" /><g
       id="g86"
       transform="translate(380.292,174.094)"><path
         d="m 0,0 -0.061,-6.371 -5.035,3.883 m -10.618,-12.619 3.519,-5.279 -6.37,0.364 z m -1.031,-3.519 -1.274,0.91 -0.122,0.182 -0.546,0.728 -0.606,0.789 -0.486,0.91 -0.425,0.91 -0.364,0.971 -0.242,0.97 -0.243,1.032 -0.121,1.031 -0.061,1.092 0.061,0.668 v 0.606 l 0.06,0.607 0.122,0.607 0.121,0.606 0.121,0.546 0.182,0.607 0.182,0.546 0.486,1.032 0.546,1.031 0.607,0.91 0.728,0.91 0.788,0.789 0.85,0.728 0.424,0.303 0.486,0.304 0.485,0.242 0.486,0.304 0.485,0.182 0.546,0.182 0.485,0.182 0.546,0.182 0.546,0.06 0.607,0.122 0.546,0.06 h 0.546 l 0.971,-0.06 0.91,-0.122 0.91,-0.242 0.91,-0.304 0.85,-0.364 0.849,-0.424 0.789,-0.546 0.728,-0.607 0.667,-0.667 0.121,-0.122 0.971,-1.456 -1.213,-0.789 -0.971,1.517 0.121,-0.182 -0.606,0.607 -1.335,0.971 -0.667,0.424 -0.789,0.304 -0.728,0.242 -0.789,0.243 -0.789,0.121 h -1.334 L -12.074,1.577 -12.498,1.456 -12.984,1.274 -13.408,1.153 -13.833,0.971 -15.107,0.243 -15.471,0 l -1.456,-1.335 -0.607,-0.789 -0.546,-0.849 -0.485,-0.849 -0.425,-0.971 -0.182,-0.486 -0.182,-0.546 -0.121,-0.485 -0.122,-0.546 -0.061,-0.546 -0.121,-1.092 V -9.04 l 0.061,-0.971 0.06,-0.91 0.183,-0.971 0.242,-0.849 0.728,-1.699 0.425,-0.789 0.485,-0.728 0.607,-0.728 -0.182,0.122 1.274,-0.91"
         style="fill:#ee222e;fill-opacity:1;fill-rule:nonzero;stroke:none"
         id="path88"
         inkscape:connector-curvature="0" /></g><g
       id="g90"
       transform="translate(387.654,180.282)"><path
         d="M 0,0 V 4.956 H 0.751 V 4.254 C 1.108,4.782 1.625,5.046 2.301,5.046 2.594,5.046 2.864,4.992 3.11,4.885 3.355,4.779 3.54,4.639 3.662,4.465 3.784,4.292 3.87,4.086 3.919,3.847 3.949,3.693 3.965,3.421 3.965,3.034 V 0 H 3.124 V 3.005 C 3.124,3.346 3.092,3.601 3.028,3.769 2.965,3.938 2.852,4.073 2.69,4.174 2.528,4.275 2.339,4.325 2.121,4.325 1.773,4.325 1.473,4.212 1.22,3.985 0.967,3.759 0.841,3.33 0.841,2.697 V 0 Z m -4.794,2.48 c 0,-0.628 0.137,-1.098 0.41,-1.41 0.274,-0.313 0.619,-0.469 1.034,-0.469 0.412,0 0.755,0.157 1.028,0.47 0.274,0.315 0.411,0.793 0.411,1.437 0,0.606 -0.137,1.066 -0.413,1.378 C -2.599,4.199 -2.941,4.355 -3.35,4.355 -3.765,4.355 -4.11,4.2 -4.384,3.889 -4.657,3.578 -4.794,3.108 -4.794,2.48 M -5.635,2.478 c 0,0.91 0.251,1.584 0.752,2.022 0.419,0.364 0.93,0.546 1.533,0.546 0.67,0 1.217,-0.221 1.642,-0.664 C -1.283,3.939 -1.07,3.328 -1.07,2.547 -1.07,1.915 -1.164,1.418 -1.352,1.055 -1.54,0.693 -1.814,0.411 -2.174,0.211 -2.533,0.01 -2.925,-0.09 -3.35,-0.09 c -0.682,0 -1.234,0.221 -1.654,0.662 -0.421,0.441 -0.631,1.076 -0.631,1.906 m -1.791,2.478 h 0.841 V 0 h -0.841 z m 0,1.862 h 0.841 V 5.857 h -0.841 z m -0.853,-6.091 0.121,-0.739 c -0.237,-0.052 -0.449,-0.078 -0.635,-0.078 -0.305,0 -0.542,0.048 -0.71,0.145 -0.168,0.097 -0.286,0.224 -0.355,0.382 -0.068,0.158 -0.102,0.489 -0.102,0.995 v 2.863 h -0.631 v 0.661 h 0.631 v 1.223 l 0.841,0.502 V 4.956 h 0.84 V 4.295 h -0.84 v -2.89 c 0,-0.239 0.014,-0.392 0.044,-0.461 l 0.144,-0.163 c 0.066,-0.04 0.162,-0.06 0.285,-0.06 0.093,0 0.216,0.002 0.367,0.006 m -3.894,1.766 c -0.298,-0.123 -0.745,-0.228 -1.34,-0.314 -0.337,-0.05 -0.576,-0.105 -0.716,-0.167 -0.139,-0.061 -0.247,-0.151 -0.323,-0.27 -0.076,-0.118 -0.114,-0.25 -0.114,-0.395 0,-0.222 0.082,-0.407 0.248,-0.555 0.165,-0.147 0.407,-0.221 0.725,-0.221 0.316,0 0.596,0.069 0.842,0.208 0.245,0.138 0.426,0.33 0.541,0.574 0.088,0.188 0.132,0.466 0.132,0.834 z m 0.06,-1.862 c -0.301,-0.264 -0.593,-0.45 -0.876,-0.558 -0.283,-0.109 -0.587,-0.163 -0.912,-0.163 -0.535,0 -0.947,0.132 -1.235,0.397 -0.287,0.265 -0.431,0.604 -0.431,1.016 0,0.241 0.054,0.462 0.163,0.662 0.108,0.2 0.25,0.36 0.426,0.481 0.176,0.121 0.374,0.212 0.594,0.274 0.162,0.044 0.407,0.085 0.734,0.126 0.666,0.08 1.157,0.176 1.472,0.288 0.003,0.112 0.005,0.184 0.005,0.214 0,0.335 -0.078,0.571 -0.233,0.708 -0.21,0.186 -0.522,0.279 -0.936,0.279 -0.386,0 -0.671,-0.07 -0.856,-0.212 -0.184,-0.141 -0.32,-0.39 -0.408,-0.749 l -0.841,0.12 c 0.074,0.353 0.196,0.638 0.365,0.855 0.17,0.217 0.415,0.384 0.735,0.501 0.321,0.117 0.692,0.176 1.115,0.176 0.419,0 0.759,-0.05 1.021,-0.15 0.263,-0.099 0.455,-0.225 0.579,-0.377 0.123,-0.151 0.209,-0.342 0.258,-0.572 0.028,-0.144 0.042,-0.399 0.042,-0.767 V 2.076 c 0,-0.769 0.018,-1.259 0.054,-1.47 0.037,-0.211 0.109,-0.413 0.216,-0.606 h -0.841 c -0.109,0.18 -0.179,0.39 -0.21,0.631 m -4.114,0.096 0.12,-0.739 c -0.236,-0.052 -0.448,-0.078 -0.634,-0.078 -0.306,0 -0.542,0.048 -0.71,0.145 -0.168,0.097 -0.286,0.224 -0.355,0.382 -0.068,0.158 -0.103,0.489 -0.103,0.995 v 2.863 h -0.63 v 0.661 h 0.63 v 1.223 l 0.841,0.502 V 4.956 h 0.841 V 4.295 h -0.841 v -2.89 c 0,-0.239 0.015,-0.392 0.044,-0.461 l 0.145,-0.163 c 0.066,-0.04 0.161,-0.06 0.285,-0.06 0.093,0 0.216,0.002 0.367,0.006 m -6.507,1.753 c 0,-0.628 0.136,-1.098 0.41,-1.41 0.274,-0.313 0.618,-0.469 1.034,-0.469 0.412,0 0.755,0.157 1.028,0.47 0.274,0.315 0.411,0.793 0.411,1.437 0,0.606 -0.138,1.066 -0.413,1.378 -0.275,0.313 -0.617,0.469 -1.026,0.469 -0.416,0 -0.76,-0.155 -1.034,-0.466 -0.274,-0.311 -0.41,-0.781 -0.41,-1.409 m -0.841,-0.002 c 0,0.91 0.25,1.584 0.752,2.022 0.419,0.364 0.93,0.546 1.533,0.546 0.67,0 1.217,-0.221 1.642,-0.664 0.425,-0.443 0.638,-1.054 0.638,-1.835 0,-0.632 -0.094,-1.129 -0.282,-1.492 -0.189,-0.362 -0.462,-0.644 -0.822,-0.844 -0.359,-0.201 -0.751,-0.301 -1.176,-0.301 -0.682,0 -1.234,0.221 -1.655,0.662 -0.42,0.441 -0.63,1.076 -0.63,1.906 M -26.424,0 v 4.956 h 0.721 V 4.18 c 0.191,0.353 0.368,0.585 0.53,0.698 0.162,0.112 0.341,0.168 0.535,0.168 0.281,0 0.567,-0.085 0.857,-0.253 l -0.29,-0.771 c -0.198,0.102 -0.397,0.153 -0.595,0.153 -0.177,0 -0.336,-0.055 -0.478,-0.165 -0.141,-0.11 -0.242,-0.262 -0.303,-0.457 -0.091,-0.297 -0.136,-0.622 -0.136,-0.974 V 0 Z m -3.524,0.727 0.12,-0.739 c -0.236,-0.052 -0.448,-0.078 -0.635,-0.078 -0.305,0 -0.541,0.048 -0.709,0.145 -0.168,0.097 -0.286,0.224 -0.355,0.382 -0.068,0.158 -0.103,0.489 -0.103,0.995 v 2.863 h -0.63 v 0.661 h 0.63 v 1.223 l 0.841,0.502 V 4.956 h 0.841 V 4.295 h -0.841 v -2.89 c 0,-0.239 0.015,-0.392 0.044,-0.461 l 0.144,-0.163 c 0.067,-0.04 0.162,-0.06 0.286,-0.06 0.093,0 0.216,0.002 0.367,0.006 M -33.813,0 v 0.747 c -0.387,-0.558 -0.912,-0.837 -1.576,-0.837 -0.293,0 -0.567,0.056 -0.821,0.167 -0.255,0.112 -0.443,0.252 -0.566,0.421 -0.123,0.168 -0.21,0.375 -0.259,0.62 -0.035,0.164 -0.052,0.424 -0.052,0.78 v 3.058 h 0.841 V 2.219 c 0,-0.436 0.017,-0.73 0.052,-0.882 0.052,-0.22 0.164,-0.393 0.336,-0.518 0.171,-0.125 0.383,-0.188 0.636,-0.188 0.252,0 0.489,0.064 0.71,0.193 0.221,0.128 0.378,0.303 0.47,0.524 0.093,0.222 0.139,0.543 0.139,0.965 v 2.643 h 0.841 V 0 Z m -7.739,2.449 c 0,-0.63 0.13,-1.095 0.39,-1.397 0.26,-0.301 0.575,-0.451 0.945,-0.451 0.376,0 0.698,0.156 0.966,0.468 0.268,0.312 0.402,0.795 0.402,1.449 0,0.624 -0.131,1.091 -0.393,1.402 -0.262,0.31 -0.574,0.465 -0.938,0.465 -0.36,0 -0.679,-0.165 -0.957,-0.495 -0.277,-0.331 -0.415,-0.811 -0.415,-1.441 m -0.751,-4.341 v 6.848 h 0.781 V 4.288 c 0.179,0.253 0.381,0.442 0.607,0.568 0.226,0.127 0.499,0.19 0.821,0.19 0.42,0 0.791,-0.108 1.112,-0.324 0.322,-0.216 0.564,-0.52 0.728,-0.914 0.164,-0.393 0.246,-0.824 0.246,-1.293 0,-0.503 -0.091,-0.955 -0.273,-1.358 -0.181,-0.403 -0.445,-0.711 -0.791,-0.926 -0.346,-0.214 -0.71,-0.321 -1.092,-0.321 -0.279,0 -0.529,0.059 -0.752,0.177 -0.221,0.119 -0.404,0.268 -0.546,0.449 V -1.892 Z M -47.548,0 v 4.956 h 0.751 V 4.254 c 0.357,0.528 0.874,0.792 1.549,0.792 0.294,0 0.564,-0.054 0.81,-0.161 0.245,-0.106 0.43,-0.246 0.552,-0.42 0.122,-0.173 0.208,-0.379 0.257,-0.618 0.03,-0.154 0.046,-0.426 0.046,-0.813 V 0 h -0.841 v 3.005 c 0,0.341 -0.032,0.596 -0.096,0.764 -0.063,0.169 -0.176,0.304 -0.338,0.405 -0.162,0.101 -0.352,0.151 -0.569,0.151 -0.348,0 -0.649,-0.113 -0.901,-0.34 -0.253,-0.226 -0.379,-0.655 -0.379,-1.288 V 0 Z m -2.475,6.818 h 0.901 V 0 h -0.901 z"
         style="fill:#231f20;fill-opacity:1;fill-rule:nonzero;stroke:none"
         id="path92"
         inkscape:connector-curvature="0" /></g></g></svg>