<?xml version="1.0" encoding="UTF-8" standalone="no"?>
<!-- Created with Inkscape (http://www.inkscape.org/) -->

<svg
   xmlns:dc="http://purl.org/dc/elements/1.1/"
   xmlns:cc="http://creativecommons.org/ns#"
   xmlns:rdf="http://www.w3.org/1999/02/22-rdf-syntax-ns#"
   xmlns:svg="http://www.w3.org/2000/svg"
   xmlns="http://www.w3.org/2000/svg"
   xmlns:sodipodi="http://sodipodi.sourceforge.net/DTD/sodipodi-0.dtd"
   xmlns:inkscape="http://www.inkscape.org/namespaces/inkscape"
   version="1.1"
   id="svg2"
   xml:space="preserve"
   width="793.33331"
   height="1122.6667"
   viewBox="0 0 793.33331 1122.6667"
   sodipodi:docname="MEMS_error_position.svg"
   inkscape:version="0.92.2 (5c3e80d, 2017-08-06)"><metadata
     id="metadata8"><rdf:RDF><cc:Work
         rdf:about=""><dc:format>image/svg+xml</dc:format><dc:type
           rdf:resource="http://purl.org/dc/dcmitype/StillImage" /><dc:title></dc:title></cc:Work></rdf:RDF></metadata><defs
     id="defs6" /><sodipodi:namedview
     pagecolor="#ffffff"
     bordercolor="#666666"
     borderopacity="1"
     objecttolerance="10"
     gridtolerance="10"
     guidetolerance="10"
     inkscape:pageopacity="0"
     inkscape:pageshadow="2"
     inkscape:window-width="707"
     inkscape:window-height="480"
     id="namedview4"
     showgrid="false"
     inkscape:zoom="0.21021376"
     inkscape:cx="396.66666"
     inkscape:cy="561.33337"
     inkscape:window-x="0"
     inkscape:window-y="0"
     inkscape:window-maximized="0"
     inkscape:current-layer="g10" /><g
     id="g10"
     inkscape:groupmode="layer"
     inkscape:label="A9R900D"
     transform="matrix(1.3333333,0,0,-1.3333333,0,1122.6667)"><g
       id="g12"
       transform="scale(0.1)"><g
         id="g14"
         transform="translate(1389.0699,5028.5898)"><path
           d="M 0,0 H 3436.39"
           style="fill:none;stroke:#000000;stroke-width:1.375;stroke-linecap:butt;stroke-linejoin:miter;stroke-miterlimit:10;stroke-dasharray:5.5, 11;stroke-dashoffset:0;stroke-opacity:1"
           id="path16"
           inkscape:connector-curvature="0" /></g></g><g
       id="g18"
       transform="scale(0.1)"><g
         id="g20"
         transform="translate(1389.0699,5028.5898)"><path
           d="m 0,0 h 34.64 m 3401.75,0 h -34.64"
           style="fill:none;stroke:#000000;stroke-width:5.5;stroke-linecap:butt;stroke-linejoin:miter;stroke-miterlimit:10;stroke-dasharray:none;stroke-opacity:1"
           id="path22"
           inkscape:connector-curvature="0" /></g></g><g
       id="g24"
       transform="scale(0.1)"><g
         id="g26"
         transform="translate(1389.0699,5259.5898)"><path
           d="M 0,0 H 3436.39"
           style="fill:none;stroke:#000000;stroke-width:1.375;stroke-linecap:butt;stroke-linejoin:miter;stroke-miterlimit:10;stroke-dasharray:5.5, 11;stroke-dashoffset:0;stroke-opacity:1"
           id="path28"
           inkscape:connector-curvature="0" /></g></g><text
       transform="matrix(1,0,0,-1,130.0066,500.291)"
       style="font-variant:normal;font-weight:normal;font-size:7.69999981px;font-family:Helvetica;-inkscape-font-specification:Helvetica;writing-mode:lr-tb;fill:#000000;fill-opacity:1;fill-rule:nonzero;stroke:none"
       id="text32"><tspan
         x="0"
         y="0"
         id="tspan30">0</tspan></text>
<g
       id="g34"
       transform="scale(0.1)"><g
         id="g36"
         transform="translate(1389.0699,5259.5898)"><path
           d="m 0,0 h 17.04 m 3419.35,0 h -17.05"
           style="fill:none;stroke:#000000;stroke-width:5.5;stroke-linecap:butt;stroke-linejoin:miter;stroke-miterlimit:10;stroke-dasharray:none;stroke-opacity:1"
           id="path38"
           inkscape:connector-curvature="0" /></g></g><g
       id="g40"
       transform="scale(0.1)"><g
         id="g42"
         transform="translate(1389.0699,5490.5898)"><path
           d="M 0,0 H 3436.39"
           style="fill:none;stroke:#000000;stroke-width:1.375;stroke-linecap:butt;stroke-linejoin:miter;stroke-miterlimit:10;stroke-dasharray:5.5, 11;stroke-dashoffset:0;stroke-opacity:1"
           id="path44"
           inkscape:connector-curvature="0" /></g></g><g
       id="g46"
       transform="scale(0.1)"><g
         id="g48"
         transform="translate(1389.0699,5490.5898)"><path
           d="m 0,0 h 34.64 m 3401.75,0 h -34.64"
           style="fill:none;stroke:#000000;stroke-width:5.5;stroke-linecap:butt;stroke-linejoin:miter;stroke-miterlimit:10;stroke-dasharray:none;stroke-opacity:1"
           id="path50"
           inkscape:connector-curvature="0" /></g></g><text
       transform="matrix(1,0,0,-1,125.7256,546.491)"
       style="font-variant:normal;font-weight:normal;font-size:7.69999981px;font-family:Helvetica;-inkscape-font-specification:Helvetica;writing-mode:lr-tb;fill:#000000;fill-opacity:1;fill-rule:nonzero;stroke:none"
       id="text54"><tspan
         x="0 4.2811999"
         y="0"
         sodipodi:role="line"
         id="tspan52">50</tspan></text>
<g
       id="g56"
       transform="scale(0.1)"><g
         id="g58"
         transform="translate(1389.0699,5721.5898)"><path
           d="M 0,0 H 3436.39"
           style="fill:none;stroke:#000000;stroke-width:1.375;stroke-linecap:butt;stroke-linejoin:miter;stroke-miterlimit:10;stroke-dasharray:5.5, 11;stroke-dashoffset:0;stroke-opacity:1"
           id="path60"
           inkscape:connector-curvature="0" /></g></g><g
       id="g62"
       transform="scale(0.1)"><g
         id="g64"
         transform="translate(1389.0699,5721.5898)"><path
           d="m 0,0 h 17.04 m 3419.35,0 h -17.05"
           style="fill:none;stroke:#000000;stroke-width:5.5;stroke-linecap:butt;stroke-linejoin:miter;stroke-miterlimit:10;stroke-dasharray:none;stroke-opacity:1"
           id="path66"
           inkscape:connector-curvature="0" /></g></g><g
       id="g68"
       transform="scale(0.1)"><g
         id="g70"
         transform="translate(1389.0699,5952.5898)"><path
           d="M 0,0 H 3436.39"
           style="fill:none;stroke:#000000;stroke-width:1.375;stroke-linecap:butt;stroke-linejoin:miter;stroke-miterlimit:10;stroke-dasharray:5.5, 11;stroke-dashoffset:0;stroke-opacity:1"
           id="path72"
           inkscape:connector-curvature="0" /></g></g><g
       id="g74"
       transform="scale(0.1)"><g
         id="g76"
         transform="translate(1389.0699,5952.5898)"><path
           d="m 0,0 h 34.64 m 3401.75,0 h -34.64"
           style="fill:none;stroke:#000000;stroke-width:5.5;stroke-linecap:butt;stroke-linejoin:miter;stroke-miterlimit:10;stroke-dasharray:none;stroke-opacity:1"
           id="path78"
           inkscape:connector-curvature="0" /></g></g><g
       id="g80"
       transform="scale(0.1)"><g
         id="g82"
         transform="translate(1389.0699,6183.5898)"><path
           d="M 0,0 H 3436.39"
           style="fill:none;stroke:#000000;stroke-width:1.375;stroke-linecap:butt;stroke-linejoin:miter;stroke-miterlimit:10;stroke-dasharray:5.5, 11;stroke-dashoffset:0;stroke-opacity:1"
           id="path84"
           inkscape:connector-curvature="0" /></g></g><text
       transform="matrix(1,0,0,-1,121.4446,592.691)"
       style="font-variant:normal;font-weight:normal;font-size:7.69999981px;font-family:Helvetica;-inkscape-font-specification:Helvetica;writing-mode:lr-tb;fill:#000000;fill-opacity:1;fill-rule:nonzero;stroke:none"
       id="text88"><tspan
         x="0 4.2811999 8.5623999"
         y="0"
         sodipodi:role="line"
         id="tspan86">100</tspan></text>
<g
       id="g90"
       transform="scale(0.1)"><g
         id="g92"
         transform="translate(1389.0699,6183.5898)"><path
           d="m 0,0 h 17.04 m 3419.35,0 h -17.05"
           style="fill:none;stroke:#000000;stroke-width:5.5;stroke-linecap:butt;stroke-linejoin:miter;stroke-miterlimit:10;stroke-dasharray:none;stroke-opacity:1"
           id="path94"
           inkscape:connector-curvature="0" /></g></g><g
       id="g96"
       transform="scale(0.1)"><g
         id="g98"
         transform="translate(1389.0699,6414.5898)"><path
           d="M 0,0 H 3436.39"
           style="fill:none;stroke:#000000;stroke-width:1.375;stroke-linecap:butt;stroke-linejoin:miter;stroke-miterlimit:10;stroke-dasharray:5.5, 11;stroke-dashoffset:0;stroke-opacity:1"
           id="path100"
           inkscape:connector-curvature="0" /></g></g><g
       id="g102"
       transform="scale(0.1)"><g
         id="g104"
         transform="translate(1389.0699,6414.5898)"><path
           d="m 0,0 h 34.64 m 3401.75,0 h -34.64"
           style="fill:none;stroke:#000000;stroke-width:5.5;stroke-linecap:butt;stroke-linejoin:miter;stroke-miterlimit:10;stroke-dasharray:none;stroke-opacity:1"
           id="path106"
           inkscape:connector-curvature="0" /></g></g><g
       id="g108"
       transform="scale(0.1)"><g
         id="g110"
         transform="translate(1389.0699,6645.5898)"><path
           d="M 0,0 H 3436.39"
           style="fill:none;stroke:#000000;stroke-width:1.375;stroke-linecap:butt;stroke-linejoin:miter;stroke-miterlimit:10;stroke-dasharray:5.5, 11;stroke-dashoffset:0;stroke-opacity:1"
           id="path112"
           inkscape:connector-curvature="0" /></g></g><text
       transform="matrix(1,0,0,-1,121.4446,638.891)"
       style="font-variant:normal;font-weight:normal;font-size:7.69999981px;font-family:Helvetica;-inkscape-font-specification:Helvetica;writing-mode:lr-tb;fill:#000000;fill-opacity:1;fill-rule:nonzero;stroke:none"
       id="text116"><tspan
         x="0 4.2811999 8.5623999"
         y="0"
         sodipodi:role="line"
         id="tspan114">150</tspan></text>
<g
       id="g118"
       transform="scale(0.1)"><g
         id="g120"
         transform="translate(1389.0699,6645.5898)"><path
           d="m 0,0 h 17.04 m 3419.35,0 h -17.05"
           style="fill:none;stroke:#000000;stroke-width:5.5;stroke-linecap:butt;stroke-linejoin:miter;stroke-miterlimit:10;stroke-dasharray:none;stroke-opacity:1"
           id="path122"
           inkscape:connector-curvature="0" /></g></g><g
       id="g124"
       transform="scale(0.1)"><g
         id="g126"
         transform="translate(1389.0699,6876.5898)"><path
           d="M 0,0 H 3436.39"
           style="fill:none;stroke:#000000;stroke-width:1.375;stroke-linecap:butt;stroke-linejoin:miter;stroke-miterlimit:10;stroke-dasharray:5.5, 11;stroke-dashoffset:0;stroke-opacity:1"
           id="path128"
           inkscape:connector-curvature="0" /></g></g><g
       id="g130"
       transform="scale(0.1)"><g
         id="g132"
         transform="translate(1389.0699,6876.5898)"><path
           d="m 0,0 h 34.64 m 3401.75,0 h -34.64"
           style="fill:none;stroke:#000000;stroke-width:5.5;stroke-linecap:butt;stroke-linejoin:miter;stroke-miterlimit:10;stroke-dasharray:none;stroke-opacity:1"
           id="path134"
           inkscape:connector-curvature="0" /></g></g><g
       id="g136"
       transform="scale(0.1)"><g
         id="g138"
         transform="translate(1389.0699,7107.5898)"><path
           d="M 0,0 H 3436.39"
           style="fill:none;stroke:#000000;stroke-width:1.375;stroke-linecap:butt;stroke-linejoin:miter;stroke-miterlimit:10;stroke-dasharray:5.5, 11;stroke-dashoffset:0;stroke-opacity:1"
           id="path140"
           inkscape:connector-curvature="0" /></g></g><text
       transform="matrix(1,0,0,-1,121.4446,685.091)"
       style="font-variant:normal;font-weight:normal;font-size:7.69999981px;font-family:Helvetica;-inkscape-font-specification:Helvetica;writing-mode:lr-tb;fill:#000000;fill-opacity:1;fill-rule:nonzero;stroke:none"
       id="text144"><tspan
         x="0 4.2811999 8.5623999"
         y="0"
         sodipodi:role="line"
         id="tspan142">200</tspan></text>
<g
       id="g146"
       transform="scale(0.1)"><g
         id="g148"
         transform="translate(1389.0699,7107.5898)"><path
           d="m 0,0 h 17.04 m 3419.35,0 h -17.05"
           style="fill:none;stroke:#000000;stroke-width:5.5;stroke-linecap:butt;stroke-linejoin:miter;stroke-miterlimit:10;stroke-dasharray:none;stroke-opacity:1"
           id="path150"
           inkscape:connector-curvature="0" /></g></g><g
       id="g152"
       transform="scale(0.1)"><g
         id="g154"
         transform="translate(1389.0699,7338.5898)"><path
           d="M 0,0 H 3436.39"
           style="fill:none;stroke:#000000;stroke-width:1.375;stroke-linecap:butt;stroke-linejoin:miter;stroke-miterlimit:10;stroke-dasharray:5.5, 11;stroke-dashoffset:0;stroke-opacity:1"
           id="path156"
           inkscape:connector-curvature="0" /></g></g><g
       id="g158"
       transform="scale(0.1)"><g
         id="g160"
         transform="translate(1389.0699,7338.5898)"><path
           d="m 0,0 h 34.64 m 3401.75,0 h -34.64"
           style="fill:none;stroke:#000000;stroke-width:5.5;stroke-linecap:butt;stroke-linejoin:miter;stroke-miterlimit:10;stroke-dasharray:none;stroke-opacity:1"
           id="path162"
           inkscape:connector-curvature="0" /></g></g><text
       transform="matrix(1,0,0,-1,121.4446,731.291)"
       style="font-variant:normal;font-weight:normal;font-size:7.69999981px;font-family:Helvetica;-inkscape-font-specification:Helvetica;writing-mode:lr-tb;fill:#000000;fill-opacity:1;fill-rule:nonzero;stroke:none"
       id="text166"><tspan
         x="0 4.2811999 8.5623999"
         y="0"
         sodipodi:role="line"
         id="tspan164">250</tspan></text>
<g
       id="g168"
       transform="scale(0.1)"><g
         id="g170"
         transform="translate(1389.0699,5028.5898)"><path
           d="M 0,0 V 2310"
           style="fill:none;stroke:#000000;stroke-width:1.375;stroke-linecap:butt;stroke-linejoin:miter;stroke-miterlimit:10;stroke-dasharray:5.5, 11;stroke-dashoffset:0;stroke-opacity:1"
           id="path172"
           inkscape:connector-curvature="0" /></g></g><g
       id="g174"
       transform="scale(0.1)"><g
         id="g176"
         transform="translate(1389.0699,5028.5898)"><path
           d="M 0,0 V 34.65 M 0,2310 v -34.65"
           style="fill:none;stroke:#000000;stroke-width:5.5;stroke-linecap:butt;stroke-linejoin:miter;stroke-miterlimit:10;stroke-dasharray:none;stroke-opacity:1"
           id="path178"
           inkscape:connector-curvature="0" /></g></g><text
       transform="matrix(1,0,0,-1,137.8366,492.591)"
       style="font-variant:normal;font-weight:normal;font-size:7.69999981px;font-family:Helvetica;-inkscape-font-specification:Helvetica;writing-mode:lr-tb;fill:#000000;fill-opacity:1;fill-rule:nonzero;stroke:none"
       id="text182"><tspan
         x="0"
         y="0"
         id="tspan180">0</tspan></text>
<g
       id="g184"
       transform="scale(0.1)"><g
         id="g186"
         transform="translate(1675.62,5028.5898)"><path
           d="m 0,0 v 2198.35 m 0,77 V 2310"
           style="fill:none;stroke:#000000;stroke-width:1.375;stroke-linecap:butt;stroke-linejoin:miter;stroke-miterlimit:10;stroke-dasharray:5.5, 11;stroke-dashoffset:0;stroke-opacity:1"
           id="path188"
           inkscape:connector-curvature="0" /></g></g><g
       id="g190"
       transform="scale(0.1)"><g
         id="g192"
         transform="translate(1675.62,5028.5898)"><path
           d="M 0,0 V 17.05 M 0,2310 v -17.05"
           style="fill:none;stroke:#000000;stroke-width:5.5;stroke-linecap:butt;stroke-linejoin:miter;stroke-miterlimit:10;stroke-dasharray:none;stroke-opacity:1"
           id="path194"
           inkscape:connector-curvature="0" /></g></g><g
       id="g196"
       transform="scale(0.1)"><g
         id="g198"
         transform="translate(1961.62,5028.5898)"><path
           d="m 0,0 v 2198.35 m 0,77 V 2310"
           style="fill:none;stroke:#000000;stroke-width:1.375;stroke-linecap:butt;stroke-linejoin:miter;stroke-miterlimit:10;stroke-dasharray:5.5, 11;stroke-dashoffset:0;stroke-opacity:1"
           id="path200"
           inkscape:connector-curvature="0" /></g></g><g
       id="g202"
       transform="scale(0.1)"><g
         id="g204"
         transform="translate(1961.62,5028.5898)"><path
           d="M 0,0 V 34.65 M 0,2310 v -34.65"
           style="fill:none;stroke:#000000;stroke-width:5.5;stroke-linecap:butt;stroke-linejoin:miter;stroke-miterlimit:10;stroke-dasharray:none;stroke-opacity:1"
           id="path206"
           inkscape:connector-curvature="0" /></g></g><g
       id="g208"
       transform="scale(0.1)"><g
         id="g210"
         transform="translate(2248.1599,5028.5898)"><path
           d="M 0,0 V 2310"
           style="fill:none;stroke:#000000;stroke-width:1.375;stroke-linecap:butt;stroke-linejoin:miter;stroke-miterlimit:10;stroke-dasharray:5.5, 11;stroke-dashoffset:0;stroke-opacity:1"
           id="path212"
           inkscape:connector-curvature="0" /></g></g><text
       transform="matrix(1,0,0,-1,192.9516,492.591)"
       style="font-variant:normal;font-weight:normal;font-size:7.69999981px;font-family:Helvetica;-inkscape-font-specification:Helvetica;writing-mode:lr-tb;fill:#000000;fill-opacity:1;fill-rule:nonzero;stroke:none"
       id="text216"><tspan
         x="0 4.2811999"
         y="0"
         sodipodi:role="line"
         id="tspan214">10</tspan></text>
<g
       id="g218"
       transform="scale(0.1)"><g
         id="g220"
         transform="translate(2248.1599,5028.5898)"><path
           d="M 0,0 V 17.05 M 0,2310 v -17.05"
           style="fill:none;stroke:#000000;stroke-width:5.5;stroke-linecap:butt;stroke-linejoin:miter;stroke-miterlimit:10;stroke-dasharray:none;stroke-opacity:1"
           id="path222"
           inkscape:connector-curvature="0" /></g></g><g
       id="g224"
       transform="scale(0.1)"><g
         id="g226"
         transform="translate(2534.71,5028.5898)"><path
           d="M 0,0 V 2310"
           style="fill:none;stroke:#000000;stroke-width:1.375;stroke-linecap:butt;stroke-linejoin:miter;stroke-miterlimit:10;stroke-dasharray:5.5, 11;stroke-dashoffset:0;stroke-opacity:1"
           id="path228"
           inkscape:connector-curvature="0" /></g></g><g
       id="g230"
       transform="scale(0.1)"><g
         id="g232"
         transform="translate(2534.71,5028.5898)"><path
           d="M 0,0 V 34.65 M 0,2310 v -34.65"
           style="fill:none;stroke:#000000;stroke-width:5.5;stroke-linecap:butt;stroke-linejoin:miter;stroke-miterlimit:10;stroke-dasharray:none;stroke-opacity:1"
           id="path234"
           inkscape:connector-curvature="0" /></g></g><g
       id="g236"
       transform="scale(0.1)"><g
         id="g238"
         transform="translate(2820.71,5028.5898)"><path
           d="M 0,0 V 2310"
           style="fill:none;stroke:#000000;stroke-width:1.375;stroke-linecap:butt;stroke-linejoin:miter;stroke-miterlimit:10;stroke-dasharray:5.5, 11;stroke-dashoffset:0;stroke-opacity:1"
           id="path240"
           inkscape:connector-curvature="0" /></g></g><text
       transform="matrix(1,0,0,-1,250.2606,492.591)"
       style="font-variant:normal;font-weight:normal;font-size:7.69999981px;font-family:Helvetica;-inkscape-font-specification:Helvetica;writing-mode:lr-tb;fill:#000000;fill-opacity:1;fill-rule:nonzero;stroke:none"
       id="text244"><tspan
         x="0 4.2811999"
         y="0"
         sodipodi:role="line"
         id="tspan242">20</tspan></text>
<g
       id="g246"
       transform="scale(0.1)"><g
         id="g248"
         transform="translate(2820.71,5028.5898)"><path
           d="M 0,0 V 17.05 M 0,2310 v -17.05"
           style="fill:none;stroke:#000000;stroke-width:5.5;stroke-linecap:butt;stroke-linejoin:miter;stroke-miterlimit:10;stroke-dasharray:none;stroke-opacity:1"
           id="path250"
           inkscape:connector-curvature="0" /></g></g><g
       id="g252"
       transform="scale(0.1)"><g
         id="g254"
         transform="translate(3107.27,5028.5898)"><path
           d="M 0,0 V 2310"
           style="fill:none;stroke:#000000;stroke-width:1.375;stroke-linecap:butt;stroke-linejoin:miter;stroke-miterlimit:10;stroke-dasharray:5.5, 11;stroke-dashoffset:0;stroke-opacity:1"
           id="path256"
           inkscape:connector-curvature="0" /></g></g><g
       id="g258"
       transform="scale(0.1)"><g
         id="g260"
         transform="translate(3107.27,5028.5898)"><path
           d="M 0,0 V 34.65 M 0,2310 v -34.65"
           style="fill:none;stroke:#000000;stroke-width:5.5;stroke-linecap:butt;stroke-linejoin:miter;stroke-miterlimit:10;stroke-dasharray:none;stroke-opacity:1"
           id="path262"
           inkscape:connector-curvature="0" /></g></g><g
       id="g264"
       transform="scale(0.1)"><g
         id="g266"
         transform="translate(3393.8201,5028.5898)"><path
           d="M 0,0 V 2310"
           style="fill:none;stroke:#000000;stroke-width:1.375;stroke-linecap:butt;stroke-linejoin:miter;stroke-miterlimit:10;stroke-dasharray:5.5, 11;stroke-dashoffset:0;stroke-opacity:1"
           id="path268"
           inkscape:connector-curvature="0" /></g></g><text
       transform="matrix(1,0,0,-1,307.5156,492.591)"
       style="font-variant:normal;font-weight:normal;font-size:7.69999981px;font-family:Helvetica;-inkscape-font-specification:Helvetica;writing-mode:lr-tb;fill:#000000;fill-opacity:1;fill-rule:nonzero;stroke:none"
       id="text272"><tspan
         x="0 4.2811999"
         y="0"
         sodipodi:role="line"
         id="tspan270">30</tspan></text>
<g
       id="g274"
       transform="scale(0.1)"><g
         id="g276"
         transform="translate(3393.8201,5028.5898)"><path
           d="M 0,0 V 17.05 M 0,2310 v -17.05"
           style="fill:none;stroke:#000000;stroke-width:5.5;stroke-linecap:butt;stroke-linejoin:miter;stroke-miterlimit:10;stroke-dasharray:none;stroke-opacity:1"
           id="path278"
           inkscape:connector-curvature="0" /></g></g><g
       id="g280"
       transform="scale(0.1)"><g
         id="g282"
         transform="translate(3679.8201,5028.5898)"><path
           d="M 0,0 V 2310"
           style="fill:none;stroke:#000000;stroke-width:1.375;stroke-linecap:butt;stroke-linejoin:miter;stroke-miterlimit:10;stroke-dasharray:5.5, 11;stroke-dashoffset:0;stroke-opacity:1"
           id="path284"
           inkscape:connector-curvature="0" /></g></g><g
       id="g286"
       transform="scale(0.1)"><g
         id="g288"
         transform="translate(3679.8201,5028.5898)"><path
           d="M 0,0 V 34.65 M 0,2310 v -34.65"
           style="fill:none;stroke:#000000;stroke-width:5.5;stroke-linecap:butt;stroke-linejoin:miter;stroke-miterlimit:10;stroke-dasharray:none;stroke-opacity:1"
           id="path290"
           inkscape:connector-curvature="0" /></g></g><g
       id="g292"
       transform="scale(0.1)"><g
         id="g294"
         transform="translate(3966.3701,5028.5898)"><path
           d="M 0,0 V 2310"
           style="fill:none;stroke:#000000;stroke-width:1.375;stroke-linecap:butt;stroke-linejoin:miter;stroke-miterlimit:10;stroke-dasharray:5.5, 11;stroke-dashoffset:0;stroke-opacity:1"
           id="path296"
           inkscape:connector-curvature="0" /></g></g><text
       transform="matrix(1,0,0,-1,364.7716,492.591)"
       style="font-variant:normal;font-weight:normal;font-size:7.69999981px;font-family:Helvetica;-inkscape-font-specification:Helvetica;writing-mode:lr-tb;fill:#000000;fill-opacity:1;fill-rule:nonzero;stroke:none"
       id="text300"><tspan
         x="0 4.2811999"
         y="0"
         sodipodi:role="line"
         id="tspan298">40</tspan></text>
<g
       id="g302"
       transform="scale(0.1)"><g
         id="g304"
         transform="translate(3966.3701,5028.5898)"><path
           d="M 0,0 V 17.05 M 0,2310 v -17.05"
           style="fill:none;stroke:#000000;stroke-width:5.5;stroke-linecap:butt;stroke-linejoin:miter;stroke-miterlimit:10;stroke-dasharray:none;stroke-opacity:1"
           id="path306"
           inkscape:connector-curvature="0" /></g></g><g
       id="g308"
       transform="scale(0.1)"><g
         id="g310"
         transform="translate(4252.9102,5028.5898)"><path
           d="M 0,0 V 2310"
           style="fill:none;stroke:#000000;stroke-width:1.375;stroke-linecap:butt;stroke-linejoin:miter;stroke-miterlimit:10;stroke-dasharray:5.5, 11;stroke-dashoffset:0;stroke-opacity:1"
           id="path312"
           inkscape:connector-curvature="0" /></g></g><g
       id="g314"
       transform="scale(0.1)"><g
         id="g316"
         transform="translate(4252.9102,5028.5898)"><path
           d="M 0,0 V 34.65 M 0,2310 v -34.65"
           style="fill:none;stroke:#000000;stroke-width:5.5;stroke-linecap:butt;stroke-linejoin:miter;stroke-miterlimit:10;stroke-dasharray:none;stroke-opacity:1"
           id="path318"
           inkscape:connector-curvature="0" /></g></g><g
       id="g320"
       transform="scale(0.1)"><g
         id="g322"
         transform="translate(4538.9102,5028.5898)"><path
           d="M 0,0 V 2310"
           style="fill:none;stroke:#000000;stroke-width:1.375;stroke-linecap:butt;stroke-linejoin:miter;stroke-miterlimit:10;stroke-dasharray:5.5, 11;stroke-dashoffset:0;stroke-opacity:1"
           id="path324"
           inkscape:connector-curvature="0" /></g></g><text
       transform="matrix(1,0,0,-1,422.0806,492.591)"
       style="font-variant:normal;font-weight:normal;font-size:7.69999981px;font-family:Helvetica;-inkscape-font-specification:Helvetica;writing-mode:lr-tb;fill:#000000;fill-opacity:1;fill-rule:nonzero;stroke:none"
       id="text328"><tspan
         x="0 4.2811999"
         y="0"
         sodipodi:role="line"
         id="tspan326">50</tspan></text>
<g
       id="g330"
       transform="scale(0.1)"><g
         id="g332"
         transform="translate(4538.9102,5028.5898)"><path
           d="M 0,0 V 17.05 M 0,2310 v -17.05"
           style="fill:none;stroke:#000000;stroke-width:5.5;stroke-linecap:butt;stroke-linejoin:miter;stroke-miterlimit:10;stroke-dasharray:none;stroke-opacity:1"
           id="path334"
           inkscape:connector-curvature="0" /></g></g><g
       id="g336"
       transform="scale(0.1)"><g
         id="g338"
         transform="translate(4825.46,5028.5898)"><path
           d="M 0,0 V 2310"
           style="fill:none;stroke:#000000;stroke-width:1.375;stroke-linecap:butt;stroke-linejoin:miter;stroke-miterlimit:10;stroke-dasharray:5.5, 11;stroke-dashoffset:0;stroke-opacity:1"
           id="path340"
           inkscape:connector-curvature="0" /></g></g><g
       id="g342"
       transform="scale(0.1)"><g
         id="g344"
         transform="translate(4825.46,5028.5898)"><path
           d="M 0,0 V 34.65 M 0,2310 v -34.65"
           style="fill:none;stroke:#000000;stroke-width:5.5;stroke-linecap:butt;stroke-linejoin:miter;stroke-miterlimit:10;stroke-dasharray:none;stroke-opacity:1"
           id="path346"
           inkscape:connector-curvature="0" /></g></g><g
       id="g348"
       transform="scale(0.1)"><path
         d="m 1389.07,5028.59 h 3436.4 v 2310 h -3436.4 z"
         style="fill:none;stroke:#000000;stroke-width:5.5;stroke-linecap:butt;stroke-linejoin:miter;stroke-miterlimit:10;stroke-dasharray:none;stroke-opacity:1"
         id="path350"
         inkscape:connector-curvature="0" /></g><text
       transform="matrix(1,0,0,-1,479.3366,492.591)"
       style="font-variant:normal;font-weight:normal;font-size:7.69999981px;font-family:Helvetica;-inkscape-font-specification:Helvetica;writing-mode:lr-tb;fill:#000000;fill-opacity:1;fill-rule:nonzero;stroke:none"
       id="text354"><tspan
         x="0 4.2811999"
         y="0"
         sodipodi:role="line"
         id="tspan352">60</tspan></text>
<text
       transform="matrix(0,1,1,0,109.905,547.766)"
       style="font-variant:normal;font-weight:normal;font-size:7.69999981px;font-family:Helvetica;-inkscape-font-specification:Helvetica;writing-mode:lr-tb;fill:#000000;fill-opacity:1;fill-rule:nonzero;stroke:none"
       id="text358"><tspan
         x="0 6.4141002 10.6953 14.9765 19.2577 21.3983 26.534201 30.815399 34.665401 36.374802 38.084202 42.365398 44.074799 48.355999 52.637199 54.777802 60.3372 62.0466 65.896599 68.037201 72.318398 76.599602 80.4496 84.730797 86.871399 91.576103 94.140198 98.421402 104.8355 106.9761 112.9667 115.5308 117.2402 121.5214 123.2308 127.512 129.6526 132.21671 138.6308"
         y="0"
         sodipodi:role="line"
         id="tspan356">Mean Euclidian Distance From Origin (m)</tspan></text>
<text
       transform="matrix(1,0,0,-1,296.613,481.041)"
       style="font-variant:normal;font-weight:normal;font-size:7.69999981px;font-family:Helvetica;-inkscape-font-specification:Helvetica;writing-mode:lr-tb;fill:#000000;fill-opacity:1;fill-rule:nonzero;stroke:none"
       id="text366"><tspan
         x="0 4.7047 6.4141002 12.8282 17.1094 19.25 21.8141 25.664101"
         y="0"
         sodipodi:role="line"
         id="tspan360">Time (s)</tspan><tspan
         x="-32.945999 -26.5319 -24.3913 -20.5413 -17.9772 -12.4178 -8.1365995 -2.5771999 -0.4366 1.704 7.2634001 12.3993 14.5399 19.6758 23.957001 27.806999 29.516399 31.657 33.366402 37.647598 41.928799 44.069401 49.205299 51.769402 54.3335 58.6147"
         y="-261.79999"
         sodipodi:role="line"
         id="tspan362">Mtx-Raw INS Position Error</tspan><tspan
         x="-151.114 -144.69991 -142.5593 -138.7093 -136.1452 -130.5858 -126.3046"
         y="-242.93401"
         sodipodi:role="line"
         id="tspan364">Mtx-Raw</tspan></text>
<g
       id="g368"
       transform="scale(0.1)"><g
         id="g370"
         transform="translate(1804.87,7265.4399)"><path
           d="M 0,0 H 219.45 M -415.8,-2236.85 h 116.36"
           style="fill:none;stroke:#ff0000;stroke-width:2.75;stroke-linecap:butt;stroke-linejoin:miter;stroke-miterlimit:10;stroke-dasharray:none;stroke-opacity:1"
           id="path372"
           inkscape:connector-curvature="0" /></g></g><g
       id="g374"
       transform="scale(0.1)"><g
         id="g376"
         transform="translate(1505.66,5028.5898)"><path
           d="m 0,0 h 11.53 l 1.1,0.55 h 72.46 l 1.09,0.54 h 32.94"
           style="fill:none;stroke:#ff0000;stroke-width:2.75;stroke-linecap:butt;stroke-linejoin:miter;stroke-miterlimit:10;stroke-dasharray:none;stroke-opacity:1"
           id="path378"
           inkscape:connector-curvature="0" /></g></g><g
       id="g380"
       transform="scale(0.1)"><g
         id="g382"
         transform="translate(1625.02,5029.6899)"><path
           d="m 0,0 h 11.52 l 1.1,0.54 h 34.03 l 1.65,0.55 h 28.54 l 1.1,0.55 h 24.7 l 1.65,0.55 h 14.82"
           style="fill:none;stroke:#ff0000;stroke-width:2.75;stroke-linecap:butt;stroke-linejoin:miter;stroke-miterlimit:10;stroke-dasharray:none;stroke-opacity:1"
           id="path384"
           inkscape:connector-curvature="0" /></g></g><g
       id="g386"
       transform="scale(0.1)"><g
         id="g388"
         transform="translate(1744.37,5031.8901)"><path
           d="m 0,0 h 6.58 l 1.1,0.54 h 19.76 l 1.1,0.55 h 18.11 l 1.1,0.55 h 17.02 l 1.09,0.54 h 14.82 l 1.65,0.55 h 14.82 l 1.1,0.55 h 13.72 l 1.1,0.54 h 5.49"
           style="fill:none;stroke:#ff0000;stroke-width:2.75;stroke-linecap:butt;stroke-linejoin:miter;stroke-miterlimit:10;stroke-dasharray:none;stroke-opacity:1"
           id="path390"
           inkscape:connector-curvature="0" /></g></g><g
       id="g392"
       transform="scale(0.1)"><g
         id="g394"
         transform="translate(1863.16,5035.7402)"><path
           d="m 0,0 h 8.24 l 1.1,0.55 h 12.62 l 1.1,0.54 h 11.53 l 1.09,0.55 h 11.53 l 1.1,0.55 h 9.88 l 1.65,0.54 h 10.97 l 1.1,0.55 h 9.33 l 1.1,0.55 h 10.43 l 1.1,0.54 h 9.33 l 1.1,0.55 h 8.78 l 1.1,0.55 h 4.94"
           style="fill:none;stroke:#ff0000;stroke-width:2.75;stroke-linecap:butt;stroke-linejoin:miter;stroke-miterlimit:10;stroke-dasharray:none;stroke-opacity:1"
           id="path396"
           inkscape:connector-curvature="0" /></g></g><g
       id="g398"
       transform="scale(0.1)"><g
         id="g400"
         transform="translate(1982.52,5041.2402)"><path
           d="m 0,0 h 3.29 l 1.1,0.55 h 9.33 l 1.1,0.54 h 7.68 l 1.65,0.55 h 7.68 l 1.1,0.55 h 8.23 l 1.1,0.54 h 6.59 l 1.09,0.55 h 8.24 l 1.1,0.55 h 7.13 l 1.1,0.54 h 6.59 l 1.09,0.55 h 7.14 l 1.1,0.55 h 6.59 l 1.09,0.54 h 7.14 l 1.1,0.55 h 5.49 l 1.64,0.55 h 6.59 l 1.1,0.54 h 4.39"
           style="fill:none;stroke:#ff0000;stroke-width:2.75;stroke-linecap:butt;stroke-linejoin:miter;stroke-miterlimit:10;stroke-dasharray:none;stroke-opacity:1"
           id="path402"
           inkscape:connector-curvature="0" /></g></g><g
       id="g404"
       transform="scale(0.1)"><g
         id="g406"
         transform="translate(2101.3201,5048.9399)"><path
           d="m 0,0 h 1.64 l 1.1,0.54 h 5.49 l 1.1,0.55 h 5.49 l 1.65,0.55 h 5.48 l 1.1,0.54 h 5.49 l 1.65,0.55 h 5.49 l 1.09,0.55 h 5.49 l 1.65,0.55 h 5.49 l 1.1,0.54 h 4.39 l 1.09,0.55 h 6.04 l 1.1,0.55 h 4.39 l 1.1,0.54 h 6.04 l 1.1,0.55 h 4.39 l 1.09,0.55 h 4.95 l 1.09,0.54 h 5.49 l 1.1,0.55 h 4.94 l 1.1,0.55 h 4.39 l 1.1,0.54 h 4.39 l 1.1,0.55 h 4.94 l 1.09,0.55 h 2.2"
           style="fill:none;stroke:#ff0000;stroke-width:2.75;stroke-linecap:butt;stroke-linejoin:miter;stroke-miterlimit:10;stroke-dasharray:none;stroke-opacity:1"
           id="path408"
           inkscape:connector-curvature="0" /></g></g><g
       id="g410"
       transform="scale(0.1)"><g
         id="g412"
         transform="translate(2220.6599,5059.3901)"><path
           d="m 0,0 h 2.2 l 1.1,0.54 h 4.94 l 1.1,0.55 h 3.29 l 1.1,0.55 h 4.39 l 1.1,0.54 h 4.94 l 1.09,0.55 h 4.39 l 1.1,0.55 h 3.3 l 1.64,0.54 h 4.39 l 1.1,0.55 h 3.29 l 1.1,0.55 h 4.94 l 1.1,0.55 h 3.29 l 1.1,0.54 h 3.3 l 1.09,0.55 h 4.94 l 1.1,0.55 h 3.3 l 1.09,0.54 h 3.3 L 75.2,8.2 h 4.94 l 1.1,0.55 h 3.3 l 1.09,0.54 h 3.3 l 1.64,0.55 h 3.3 l 1.09,0.55 h 3.3 l 1.1,0.54 h 3.29 l 1.65,0.55 h 3.29 l 1.1,0.55 h 3.29 l 1.1,0.54 h 3.29 l 1.65,0.55 h 1.1"
           style="fill:none;stroke:#ff0000;stroke-width:2.75;stroke-linecap:butt;stroke-linejoin:miter;stroke-miterlimit:10;stroke-dasharray:none;stroke-opacity:1"
           id="path414"
           inkscape:connector-curvature="0" /></g></g><g
       id="g416"
       transform="scale(0.1)"><g
         id="g418"
         transform="translate(2340.02,5072.5898)"><path
           d="m 0,0 h 2.19 l 1.1,0.55 h 3.29 l 1.1,0.54 h 3.29 l 1.65,0.55 h 3.29 l 1.1,0.55 h 2.2 l 1.09,0.54 h 3.3 l 1.09,0.55 h 3.85 l 1.1,0.55 h 3.29 l 1.1,0.54 h 2.19 l 1.1,0.55 h 3.84 l 1.1,0.55 h 3.29 l 1.1,0.55 h 2.2 l 1.09,0.54 h 3.3 l 1.65,0.55 h 2.19 l 1.1,0.55 h 3.29 l 1.1,0.54 h 2.2 l 1.09,0.55 h 3.85 L 70.8,9.3 H 73 l 1.1,0.54 h 3.29 l 1.1,0.55 h 2.19 l 1.65,0.55 h 2.2 l 1.09,0.54 h 3.3 l 1.1,0.55 h 2.19 l 1.1,0.55 h 3.84 l 1.1,0.54 h 2.19 l 1.1,0.55 h 2.2 l 1.1,0.55 h 2.19 l 1.1,0.55 h 3.84 l 1.1,0.54 h 2.2 l 1.09,0.55 h 2.2"
           style="fill:none;stroke:#ff0000;stroke-width:2.75;stroke-linecap:butt;stroke-linejoin:miter;stroke-miterlimit:10;stroke-dasharray:none;stroke-opacity:1"
           id="path420"
           inkscape:connector-curvature="0" /></g></g><g
       id="g422"
       transform="scale(0.1)"><g
         id="g424"
         transform="translate(2458.8201,5088.54)"><path
           d="m 0,0 1.09,0.55 h 2.2 l 1.65,0.54 h 2.19 l 1.1,0.55 h 3.29 l 1.1,0.55 h 2.2 l 1.09,0.54 h 2.75 l 1.1,0.55 h 2.19 l 1.1,0.55 h 2.2 l 1.09,0.54 h 2.2 l 1.1,0.55 h 2.74 l 1.1,0.55 h 2.2 l 1.09,0.54 h 2.2 l 1.1,0.55 h 2.19 l 1.1,0.55 h 2.75 l 1.09,0.55 h 2.2 l 1.1,0.54 h 2.19 l 1.1,0.55 h 2.19 l 1.1,0.55 h 2.75 l 1.1,0.54 h 2.19 l 1.1,0.55 h 2.19 l 1.1,0.55 h 1.1 l 1.1,0.54 h 2.19 l 1.65,0.55 h 2.2 l 1.09,0.55 h 2.2 l 1.1,0.54 h 2.19 l 1.1,0.55 h 2.2 l 1.09,0.55 h 1.65 l 1.1,0.54 h 2.19 l 1.1,0.55 h 2.2 l 1.1,0.55 h 2.19 l 1.1,0.55 h 1.1 l 1.64,0.54 h 2.2 l 1.1,0.55 h 2.19 l 1.1,0.55 h 2.2 l 1.09,0.54 h 1.1 l 1.1,0.55 h 2.74 l 1.1,0.55 h 1.1"
           style="fill:none;stroke:#ff0000;stroke-width:2.75;stroke-linecap:butt;stroke-linejoin:miter;stroke-miterlimit:10;stroke-dasharray:none;stroke-opacity:1"
           id="path426"
           inkscape:connector-curvature="0" /></g></g><g
       id="g428"
       transform="scale(0.1)"><g
         id="g430"
         transform="translate(2578.1599,5108.3398)"><path
           d="m 0,0 h 1.1 l 1.1,0.55 h 1.1 l 1.09,0.54 h 2.2 l 1.1,0.55 h 2.74 l 1.1,0.55 h 1.1 l 1.1,0.54 h 2.19 l 1.1,0.55 h 1.1 l 1.1,0.55 h 2.19 l 1.1,0.54 h 2.74 l 1.1,0.55 h 1.1 l 1.1,0.55 h 2.19 l 1.1,0.55 h 1.1 l 1.1,0.54 h 2.19 l 1.65,0.55 h 1.1 l 1.09,0.55 h 2.2 l 1.1,0.54 h 1.09 l 1.1,0.55 h 2.2 l 1.1,0.55 h 1.09 l 1.65,0.54 h 2.2 l 1.09,0.55 h 1.1 l 1.1,0.55 h 2.2 l 1.09,0.54 h 1.1 l 1.1,0.55 h 2.74 l 1.1,0.55 h 1.1 l 1.1,0.54 h 2.19 l 1.1,0.55 h 1.1 l 1.1,0.55 h 1.09 l 1.1,0.55 h 2.75 l 1.09,0.54 h 1.1 l 1.1,0.55 h 1.1 l 1.1,0.55 h 2.19 l 1.1,0.54 h 1.1 l 1.09,0.55 h 2.75 l 1.1,0.55 h 1.09 l 1.1,0.54 h 1.1 l 1.1,0.55 h 2.19 l 1.1,0.55 h 1.1 l 1.1,0.54 h 1.09 l 1.1,0.55 h 2.75 l 1.1,0.55 h 1.09 l 1.1,0.54 h 1.1 l 1.1,0.55 h 1.09 l 1.1,0.55 h 2.2"
           style="fill:none;stroke:#ff0000;stroke-width:2.75;stroke-linecap:butt;stroke-linejoin:miter;stroke-miterlimit:10;stroke-dasharray:none;stroke-opacity:1"
           id="path432"
           inkscape:connector-curvature="0" /></g></g><g
       id="g434"
       transform="scale(0.1)"><g
         id="g436"
         transform="translate(2696.96,5131.4399)"><path
           d="m 0,0 1.1,0.54 h 1.65 l 1.1,0.55 h 1.1 l 1.09,0.55 h 1.1 l 1.1,0.54 h 2.19 l 1.1,0.55 h 1.1 l 1.1,0.55 h 1.1 l 1.64,0.55 h 1.1 l 1.1,0.54 h 2.19 l 1.1,0.55 h 1.1 l 1.1,0.55 h 1.09 l 1.1,0.54 h 1.1 l 1.1,0.55 h 1.65 l 1.09,0.55 h 1.1 l 1.1,0.54 h 2.19 l 1.1,0.55 h 1.1 l 1.1,0.55 h 1.1 l 1.09,0.54 h 1.1 l 1.65,0.55 h 1.1 l 1.09,0.55 h 1.1 l 1.1,0.55 h 2.19 l 1.1,0.54 h 1.1 l 1.1,0.55 h 1.1 l 1.09,0.55 h 1.65 l 1.1,0.54 h 1.1 l 1.09,0.55 h 1.1 l 1.1,0.55 h 1.1 l 1.1,0.54 h 1.09 l 1.1,0.55 h 1.1 l 1.1,0.55 h 1.64 l 1.1,0.54 h 2.2 l 1.09,0.55 h 1.1 l 1.1,0.55 h 1.1 l 1.1,0.54 h 1.09 l 1.1,0.55 h 1.1 l 1.65,0.55 h 1.09 l 1.1,0.54 h 1.1 l 1.1,0.55 h 1.1 l 1.09,0.55 h 1.1 l 1.1,0.55 h 1.1 l 1.09,0.54 h 1.1 l 1.65,0.55 h 1.1 l 1.09,0.55 h 1.1 l 1.1,0.54 h 1.1 l 1.1,0.55 h 1.09 l 1.1,0.55 h 1.1 l 1.1,0.54 h 1.09 l 1.65,0.55 h 1.1 l 1.1,0.55 h 1.1 l 1.09,0.54 h 1.1 l 1.1,0.55"
           style="fill:none;stroke:#ff0000;stroke-width:2.75;stroke-linecap:butt;stroke-linejoin:miter;stroke-miterlimit:10;stroke-dasharray:none;stroke-opacity:1"
           id="path438"
           inkscape:connector-curvature="0" /></g></g><g
       id="g440"
       transform="scale(0.1)"><g
         id="g442"
         transform="translate(2816.3201,5158.9399)"><path
           d="m 0,0 h 1.09 l 1.1,0.54 h 1.1 l 1.1,0.55 h 1.09 l 1.1,0.55 h 1.65 l 1.1,0.54 h 1.1 l 1.09,0.55 1.1,0.55 h 1.1 l 1.1,0.55 h 1.09 l 1.1,0.54 h 1.1 l 1.1,0.55 h 1.09 l 1.65,0.55 h 1.1 l 1.1,0.54 h 1.1 l 1.09,0.55 h 1.1 l 1.1,0.55 h 1.1 l 1.09,0.54 h 1.1 l 1.1,0.55 h 1.1 l 1.65,0.55 1.09,0.54 h 1.1 l 1.1,0.55 h 1.1 l 1.09,0.55 h 1.1 l 1.1,0.55 h 1.1 l 1.1,0.54 h 1.09 l 1.1,0.55 h 1.65 l 1.1,0.55 1.09,0.54 h 1.1 l 1.1,0.55 h 1.1 l 1.09,0.55 h 1.1 l 1.1,0.54 h 1.1 l 1.1,0.55 h 1.09 l 1.65,0.55 1.1,0.54 h 1.1 l 1.09,0.55 h 1.1 l 1.1,0.55 h 1.1 l 1.09,0.54 h 1.1 l 1.1,0.55 1.1,0.55 h 1.1 l 1.64,0.54 h 1.1 l 1.1,0.55 h 1.1 l 1.09,0.55 h 1.1 l 1.1,0.55 1.1,0.54 h 1.1 l 1.09,0.55 h 1.1 l 1.1,0.55 h 1.65 l 1.09,0.54 h 1.1 l 1.1,0.55 1.1,0.55 h 1.1 l 1.09,0.54 h 1.1 l 1.1,0.55 h 1.1 l 1.09,0.55 1.1,0.54 h 1.65 l 1.1,0.55 h 1.09 l 1.1,0.55 1.1,0.55 h 1.1 l 1.1,0.54 h 1.09 l 1.1,0.55 h 1.1 l 1.1,0.55 1.09,0.54 h 1.65 l 1.1,0.55"
           style="fill:none;stroke:#ff0000;stroke-width:2.75;stroke-linecap:butt;stroke-linejoin:miter;stroke-miterlimit:10;stroke-dasharray:none;stroke-opacity:1"
           id="path444"
           inkscape:connector-curvature="0" /></g></g><g
       id="g446"
       transform="scale(0.1)"><g
         id="g448"
         transform="translate(2935.6599,5190.29)"><path
           d="m 0,0 h 1.1 l 1.1,0.55 h 1.1 l 1.09,0.54 1.1,0.55 h 1.1 l 1.1,0.55 h 1.1 l 1.09,0.54 1.1,0.55 h 1.65 l 1.1,0.55 h 1.09 l 1.1,0.54 1.1,0.55 h 1.1 l 1.1,0.55 h 1.09 l 1.1,0.54 1.1,0.55 h 1.1 l 1.09,0.55 h 1.65 l 1.1,0.55 1.1,0.54 h 1.09 l 1.1,0.55 h 1.1 l 1.1,0.55 1.1,0.54 h 1.09 l 1.1,0.55 h 1.1 l 1.1,0.55 1.09,0.54 h 1.65 l 1.1,0.55 h 1.1 l 1.09,0.55 1.1,0.54 h 1.1 l 1.1,0.55 1.1,0.55 h 1.09 l 1.1,0.54 h 1.1 l 1.1,0.55 1.64,0.55 h 1.1 l 1.1,0.55 h 1.1 l 1.1,0.54 1.09,0.55 h 1.1 l 1.1,0.55 1.1,0.54 h 1.09 l 1.1,0.55 1.1,0.55 h 1.65 l 1.1,0.54 h 1.09 l 1.1,0.55 1.1,0.55 h 1.1 l 1.09,0.54 1.1,0.55 h 1.1 l 1.1,0.55 h 1.09 l 1.1,0.54 1.65,0.55 h 1.1 l 1.1,0.55 1.09,0.55 h 1.1 l 1.1,0.54 1.1,0.55 h 1.09 l 1.1,0.55 1.1,0.54 h 1.1 l 1.09,0.55 h 1.65 l 1.1,0.55 1.1,0.54 h 1.1 l 1.09,0.55 1.1,0.55 h 1.1 l 1.1,0.54 1.09,0.55 h 1.1 l 1.1,0.55 1.1,0.54 h 1.65 l 1.09,0.55 1.1,0.55 h 1.1 l 1.1,0.55 1.09,0.54 h 1.1 l 1.1,0.55 1.1,0.55"
           style="fill:none;stroke:#ff0000;stroke-width:2.75;stroke-linecap:butt;stroke-linejoin:miter;stroke-miterlimit:10;stroke-dasharray:none;stroke-opacity:1"
           id="path450"
           inkscape:connector-curvature="0" /></g></g><g
       id="g452"
       transform="scale(0.1)"><g
         id="g454"
         transform="translate(3054.46,5226.04)"><path
           d="m 0,0 h 1.1 l 1.1,0.55 1.1,0.54 h 1.65 l 1.09,0.55 1.1,0.55 h 1.1 l 1.1,0.54 1.09,0.55 h 1.1 l 1.1,0.55 1.1,0.54 h 1.1 l 1.09,0.55 1.1,0.55 h 1.65 l 1.1,0.54 1.09,0.55 h 1.1 l 1.1,0.55 1.1,0.55 h 1.09 l 1.1,0.54 1.1,0.55 h 1.1 l 1.1,0.55 1.09,0.54 h 1.65 l 1.1,0.55 1.1,0.55 1.09,0.54 h 1.1 l 1.1,0.55 1.1,0.55 h 1.1 l 1.09,0.54 1.1,0.55 h 1.1 l 1.1,0.55 1.64,0.54 h 1.1 l 1.1,0.55 1.1,0.55 1.09,0.55 h 1.1 l 1.1,0.54 1.1,0.55 h 1.1 l 1.09,0.55 1.1,0.54 h 1.1 l 1.1,0.55 1.64,0.55 1.1,0.54 h 1.1 l 1.1,0.55 1.1,0.55 h 1.09 l 1.1,0.54 1.1,0.55 1.1,0.55 h 1.09 l 1.1,0.54 1.1,0.55 h 1.65 l 1.09,0.55 1.1,0.55 1.1,0.54 h 1.1 l 1.1,0.55 1.09,0.55 h 1.1 l 1.1,0.54 1.1,0.55 1.09,0.55 h 1.1 l 1.65,0.54 1.1,0.55 h 1.1 l 1.09,0.55 1.1,0.54 1.1,0.55 h 1.1 l 1.09,0.55 1.1,0.54 1.1,0.55 h 1.1 l 1.09,0.55 1.65,0.55 1.1,0.54 h 1.1 l 1.1,0.55 1.09,0.55 h 1.1 l 1.1,0.54 1.1,0.55 1.09,0.55 h 1.1 l 1.1,0.54 1.1,0.55 1.65,0.55 h 1.09 l 1.1,0.54 1.1,0.55"
           style="fill:none;stroke:#ff0000;stroke-width:2.75;stroke-linecap:butt;stroke-linejoin:miter;stroke-miterlimit:10;stroke-dasharray:none;stroke-opacity:1"
           id="path456"
           inkscape:connector-curvature="0" /></g></g><g
       id="g458"
       transform="scale(0.1)"><g
         id="g460"
         transform="translate(3173.8201,5266.1899)"><path
           d="m 0,0 1.09,0.54 h 1.1 l 1.1,0.55 1.1,0.55 1.09,0.55 h 1.1 l 1.1,0.54 1.1,0.55 1.65,0.55 h 1.09 l 1.1,0.54 1.1,0.55 1.1,0.55 h 1.09 l 1.1,0.54 1.1,0.55 1.1,0.55 1.09,0.54 h 1.1 l 1.1,0.55 1.65,0.55 1.1,0.54 h 1.09 l 1.1,0.55 1.1,0.55 1.1,0.54 h 1.09 l 1.1,0.55 1.1,0.55 1.1,0.55 1.1,0.54 h 1.09 l 1.65,0.55 1.1,0.55 1.1,0.54 h 1.09 l 1.1,0.55 1.1,0.55 1.1,0.54 1.1,0.55 h 1.09 l 1.1,0.55 1.1,0.54 1.1,0.55 h 1.64 l 1.1,0.55 1.1,0.55 1.1,0.54 1.09,0.55 h 1.1 l 1.1,0.55 1.1,0.54 1.1,0.55 1.09,0.55 h 1.1 l 1.1,0.54 1.65,0.55 1.09,0.55 1.1,0.54 h 1.1 l 1.1,0.55 1.09,0.55 1.1,0.54 1.1,0.55 h 1.1 l 1.1,0.55 1.09,0.54 1.1,0.55 1.1,0.55 h 1.65 l 1.09,0.55 1.1,0.54 1.1,0.55 1.1,0.55 h 1.1 l 1.09,0.54 1.1,0.55 1.1,0.55 1.1,0.54 1.09,0.55 h 1.1 l 1.65,0.55 1.1,0.54 1.1,0.55 1.09,0.55 h 1.1 l 1.1,0.55 1.1,0.54 1.09,0.55 1.1,0.55 1.1,0.54 h 1.1 l 1.09,0.55 1.65,0.55 1.1,0.54 1.1,0.55 1.1,0.55 h 1.09 l 1.1,0.54 1.1,0.55 1.1,0.55 1.09,0.54 1.1,0.55 h 1.1"
           style="fill:none;stroke:#ff0000;stroke-width:2.75;stroke-linecap:butt;stroke-linejoin:miter;stroke-miterlimit:10;stroke-dasharray:none;stroke-opacity:1"
           id="path462"
           inkscape:connector-curvature="0" /></g></g><g
       id="g464"
       transform="scale(0.1)"><g
         id="g466"
         transform="translate(3292.6201,5311.29)"><path
           d="m 0,0 1.09,0.55 1.65,0.54 1.1,0.55 1.1,0.55 1.1,0.54 h 1.09 l 1.1,0.55 1.1,0.55 1.1,0.54 1.09,0.55 1.1,0.55 1.1,0.54 h 1.1 l 1.65,0.55 1.09,0.55 1.1,0.55 1.1,0.54 1.1,0.55 h 1.09 l 1.1,0.55 1.1,0.54 1.1,0.55 1.09,0.55 1.1,0.54 1.1,0.55 h 1.65 l 1.1,0.55 1.09,0.54 1.1,0.55 1.1,0.55 1.1,0.54 1.09,0.55 1.1,0.55 h 1.1 l 1.1,0.55 1.1,0.54 1.09,0.55 1.65,0.55 1.1,0.54 1.1,0.55 1.09,0.55 h 1.1 l 1.1,0.54 1.1,0.55 1.09,0.55 1.1,0.54 1.1,0.55 1.1,0.55 1.1,0.54 h 1.64 l 1.1,0.55 1.1,0.55 1.1,0.55 1.09,0.54 1.1,0.55 1.1,0.55 1.1,0.54 1.1,0.55 h 1.09 l 1.1,0.55 1.1,0.54 1.65,0.55 1.09,0.55 1.1,0.54 1.1,0.55 1.1,0.55 1.09,0.54 h 1.1 l 1.1,0.55 1.1,0.55 1.1,0.55 1.09,0.54 1.1,0.55 1.65,0.55 1.1,0.54 1.09,0.55 1.1,0.55 1.1,0.54 h 1.1 l 1.1,0.55 1.09,0.55 1.1,0.54 1.1,0.55 1.1,0.55 1.09,0.54 1.65,0.55 1.1,0.55 1.1,0.55 1.09,0.54 h 1.1 l 1.1,0.55 1.1,0.55 1.1,0.54 1.09,0.55 1.1,0.55 1.1,0.54 1.1,0.55 1.09,0.55 1.65,0.54 1.1,0.55 1.1,0.55 1.1,0.54 h 1.09 l 1.1,0.55"
           style="fill:none;stroke:#ff0000;stroke-width:2.75;stroke-linecap:butt;stroke-linejoin:miter;stroke-miterlimit:10;stroke-dasharray:none;stroke-opacity:1"
           id="path468"
           inkscape:connector-curvature="0" /></g></g><g
       id="g470"
       transform="scale(0.1)"><g
         id="g472"
         transform="translate(3411.96,5361.8901)"><path
           d="m 0,0 1.1,0.54 1.1,0.55 1.1,0.55 1.1,0.54 1.09,0.55 1.1,0.55 1.65,0.54 1.1,0.55 1.09,0.55 1.1,0.55 1.1,0.54 1.1,0.55 1.1,0.55 1.09,0.54 1.1,0.55 h 1.1 l 1.1,0.55 1.09,0.54 1.65,0.55 1.1,0.55 1.1,0.54 1.09,0.55 1.1,0.55 1.1,0.54 1.1,0.55 1.1,0.55 1.09,0.55 1.1,0.54 1.1,0.55 1.1,0.55 1.64,0.54 1.1,0.55 1.1,0.55 1.1,0.54 1.1,0.55 1.09,0.55 1.1,0.54 1.1,0.55 h 1.1 l 1.09,0.55 1.1,0.54 1.1,0.55 1.65,0.55 1.09,0.55 1.1,0.54 1.1,0.55 1.1,0.55 1.1,0.54 1.09,0.55 1.1,0.55 1.1,0.54 1.1,0.55 1.09,0.55 1.1,0.54 1.65,0.55 1.1,0.55 1.1,0.54 1.09,0.55 1.1,0.55 1.1,0.55 1.1,0.54 1.09,0.55 1.1,0.55 1.1,0.54 1.1,0.55 1.09,0.55 1.65,0.54 1.1,0.55 1.1,0.55 1.1,0.54 1.09,0.55 1.1,0.55 1.1,0.54 1.1,0.55 1.09,0.55 1.1,0.55 1.1,0.54 1.1,0.55 1.65,0.55 1.09,0.54 1.1,0.55 1.1,0.55 1.1,0.54 1.09,0.55 1.1,0.55 1.1,0.54 1.1,0.55 1.09,0.55 1.1,0.54 1.1,0.55 1.65,0.55 1.1,0.55 1.09,0.54 1.1,0.55 1.1,0.55 1.1,0.54 1.09,0.55 1.1,0.55 1.1,0.54 1.1,0.55 1.09,0.55 1.1,0.54 1.65,0.55 1.1,0.55"
           style="fill:none;stroke:#ff0000;stroke-width:2.75;stroke-linecap:butt;stroke-linejoin:miter;stroke-miterlimit:10;stroke-dasharray:none;stroke-opacity:1"
           id="path474"
           inkscape:connector-curvature="0" /></g></g><g
       id="g476"
       transform="scale(0.1)"><g
         id="g478"
         transform="translate(3531.3201,5417.9902)"><path
           d="m 0,0 1.09,0.55 1.1,0.54 1.1,0.55 1.1,1.1 1.09,0.54 1.1,0.55 1.1,0.55 1.1,0.54 1.1,0.55 1.09,0.55 1.1,0.54 1.65,0.55 1.1,0.55 1.09,0.55 1.1,0.54 1.1,0.55 1.1,0.55 1.09,0.54 1.1,0.55 1.1,0.55 1.1,0.54 1.1,0.55 1.09,0.55 1.65,0.54 1.1,0.55 1.1,0.55 1.09,1.1 1.1,0.54 1.1,0.55 1.1,0.55 1.1,0.54 1.09,0.55 1.1,0.55 1.1,0.54 1.1,0.55 1.64,0.55 1.1,0.54 1.1,0.55 1.1,0.55 1.1,0.54 1.09,0.55 1.1,0.55 1.1,1.1 1.1,0.54 1.09,0.55 1.1,0.55 1.1,0.54 1.65,0.55 1.09,0.55 1.1,0.54 1.1,0.55 1.1,0.55 1.1,0.54 1.09,0.55 1.1,0.55 1.1,1.1 1.1,0.54 1.09,0.55 1.1,0.55 1.65,0.54 1.1,0.55 1.09,0.55 1.1,0.54 1.1,0.55 1.1,0.55 1.1,0.55 1.09,1.09 1.1,0.55 1.1,0.55 1.1,0.54 1.09,0.55 1.65,0.55 1.1,0.54 1.1,0.55 1.1,0.55 1.09,0.54 1.1,1.1 1.1,0.55 1.1,0.55 1.09,0.54 1.1,0.55 1.1,0.55 1.1,0.54 1.65,0.55 1.09,0.55 1.1,0.54 1.1,1.1 1.1,0.55 1.09,0.55 1.1,0.54 1.1,0.55 1.1,0.55 1.09,0.54 1.1,0.55 1.1,1.1 1.65,0.54 1.1,0.55 1.09,0.55 1.1,0.55 1.1,0.54 1.1,0.55 1.09,0.55 1.1,1.09 1.1,0.55"
           style="fill:none;stroke:#ff0000;stroke-width:2.75;stroke-linecap:butt;stroke-linejoin:miter;stroke-miterlimit:10;stroke-dasharray:none;stroke-opacity:1"
           id="path480"
           inkscape:connector-curvature="0" /></g></g><g
       id="g482"
       transform="scale(0.1)"><g
         id="g484"
         transform="translate(3650.1201,5480.1401)"><path
           d="m 0,0 1.09,0.54 1.1,0.55 1.1,0.55 1.65,0.54 1.1,0.55 1.09,0.55 1.1,1.1 1.1,0.54 1.1,0.55 1.09,0.55 1.1,0.54 1.1,0.55 1.1,0.55 1.1,1.09 1.09,0.55 1.65,0.55 1.1,0.55 1.1,0.54 1.09,0.55 1.1,0.55 1.1,1.09 1.1,0.55 1.09,0.55 1.1,0.54 1.1,0.55 1.1,0.55 1.1,1.1 1.09,0.54 1.65,0.55 1.1,0.55 1.1,0.54 1.09,0.55 1.1,1.1 1.1,0.54 1.1,0.55 1.1,0.55 1.09,0.54 1.1,0.55 1.1,1.1 1.1,0.55 1.64,0.54 1.1,0.55 1.1,0.55 1.1,0.54 1.09,1.1 1.1,0.55 1.1,0.55 1.1,0.54 1.1,0.55 1.09,0.55 1.1,1.09 1.1,0.55 1.65,0.55 1.09,0.54 1.1,0.55 1.1,1.1 1.1,0.55 1.1,0.54 1.09,0.55 1.1,0.55 1.1,1.09 1.1,0.55 1.09,0.55 1.1,0.54 1.65,0.55 1.1,0.55 1.09,1.1 1.1,0.54 1.1,0.55 1.1,0.55 1.1,0.54 1.09,1.1 1.1,0.55 1.1,0.54 1.1,0.55 1.09,1.1 1.65,0.55 1.1,0.54 1.1,0.55 1.1,0.55 1.09,1.09 1.1,0.55 1.1,0.55 1.1,0.55 1.09,0.54 1.1,1.1 1.1,0.55 1.1,0.54 1.64,0.55 1.1,1.1 1.1,0.54 1.1,0.55 1.1,0.55 1.09,0.55 1.1,1.09 1.1,0.55 1.1,0.55 1.09,0.54 1.1,1.1 1.1,0.55 1.65,0.55 1.1,0.54 1.09,0.55 1.1,1.1"
           style="fill:none;stroke:#ff0000;stroke-width:2.75;stroke-linecap:butt;stroke-linejoin:miter;stroke-miterlimit:10;stroke-dasharray:none;stroke-opacity:1"
           id="path486"
           inkscape:connector-curvature="0" /></g></g><g
       id="g488"
       transform="scale(0.1)"><g
         id="g490"
         transform="translate(3769.46,5547.79)"><path
           d="m 0,0 1.1,0.55 1.1,0.54 1.1,0.55 1.1,1.1 1.09,0.54 1.1,0.55 1.1,0.55 1.1,1.1 1.64,0.54 1.1,0.55 1.1,0.55 1.1,1.09 1.1,0.55 1.09,0.55 1.1,0.54 1.1,1.1 1.1,0.55 1.09,0.55 1.1,0.54 1.1,1.1 1.65,0.55 1.09,0.54 1.1,0.55 1.1,1.1 1.1,0.55 1.1,0.54 1.09,0.55 1.1,1.1 1.1,0.54 1.1,0.55 1.09,1.1 1.1,0.55 1.65,0.54 1.1,0.55 1.1,1.1 1.09,0.54 1.1,0.55 1.1,0.55 1.1,1.09 1.09,0.55 1.1,0.55 1.1,1.1 1.1,0.54 1.09,0.55 1.65,0.55 1.1,1.09 1.1,0.55 1.1,0.55 1.09,1.1 1.1,0.54 1.1,0.55 1.1,0.55 1.09,1.09 1.1,0.55 1.1,0.55 1.1,1.1 1.09,0.54 1.65,0.55 1.1,0.55 1.1,1.09 1.1,0.55 1.09,0.55 1.1,1.1 1.1,0.54 1.1,0.55 1.09,1.1 1.1,0.54 1.1,0.55 1.1,0.55 1.65,1.1 1.09,0.54 1.1,0.55 1.1,1.1 1.1,0.54 1.09,0.55 1.1,1.1 1.1,0.54 1.1,0.55 1.09,1.1 1.1,0.55 1.1,0.54 1.65,1.1 1.1,0.55 1.09,0.54 1.1,0.55 1.1,1.1 1.1,0.55 1.09,0.54 1.1,1.1 1.1,0.55 1.1,0.54 1.09,1.1 1.1,0.55 1.65,0.55 1.1,1.09 1.1,0.55 1.09,0.55 1.1,1.09 1.1,0.55 1.1,0.55 1.09,1.1 1.1,0.54 1.1,0.55 1.1,1.1"
           style="fill:none;stroke:#ff0000;stroke-width:2.75;stroke-linecap:butt;stroke-linejoin:miter;stroke-miterlimit:10;stroke-dasharray:none;stroke-opacity:1"
           id="path492"
           inkscape:connector-curvature="0" /></g></g><g
       id="g494"
       transform="scale(0.1)"><g
         id="g496"
         transform="translate(3888.27,5621.4902)"><path
           d="m 0,0 1.09,0.55 1.65,1.09 1.1,0.55 1.1,0.55 1.09,1.09 1.1,0.55 1.1,0.55 1.1,1.1 1.1,0.54 1.09,0.55 1.1,1.1 1.1,0.54 1.1,0.55 1.64,1.1 1.1,0.55 1.1,0.54 1.1,1.1 1.09,0.55 1.1,1.09 1.1,0.55 1.1,0.55 1.1,1.1 1.09,0.54 1.1,0.55 1.1,1.1 1.65,0.54 1.09,1.1 1.1,0.55 1.1,0.55 1.1,1.09 1.1,0.55 1.09,0.55 1.1,1.09 1.1,0.55 1.1,1.1 1.09,0.55 1.1,0.54 1.65,1.1 1.1,0.55 1.1,0.54 1.09,1.1 1.1,0.55 1.1,1.1 1.1,0.54 1.09,0.55 1.1,1.1 1.1,0.54 1.1,1.1 1.09,0.55 1.65,0.55 1.1,1.09 1.1,0.55 1.1,1.1 1.09,0.55 1.1,0.54 1.1,1.1 1.1,0.55 1.09,1.09 1.1,0.55 1.1,0.55 1.1,1.1 1.64,0.54 1.1,1.1 1.1,0.55 1.1,0.54 1.1,1.1 1.09,0.55 1.1,1.1 1.1,0.54 1.1,1.1 1.09,0.55 1.1,0.54 1.1,1.1 1.1,0.55 1.65,1.1 1.09,0.54 1.1,0.55 1.1,1.1 1.1,0.54 1.09,1.1 1.1,0.55 1.1,1.1 1.1,0.54 1.09,1.1 1.1,0.55 1.1,0.55 1.65,1.09 1.1,0.55 1.09,1.1 1.1,0.54 1.1,1.1 1.1,0.55 1.09,0.55 1.1,1.09 1.1,0.55 1.1,1.1 1.09,0.54 1.1,1.1 1.65,0.55 1.1,1.1 1.1,0.54 1.09,1.1 1.1,0.55 1.1,0.55"
           style="fill:none;stroke:#ff0000;stroke-width:2.75;stroke-linecap:butt;stroke-linejoin:miter;stroke-miterlimit:10;stroke-dasharray:none;stroke-opacity:1"
           id="path498"
           inkscape:connector-curvature="0" /></g></g><g
       id="g500"
       transform="scale(0.1)"><g
         id="g502"
         transform="translate(4007.6201,5701.2402)"><path
           d="m 0,0 1.09,1.1 1.1,0.54 1.1,1.1 1.1,0.55 1.1,1.09 1.09,0.55 1.65,1.1 1.1,0.55 1.1,1.09 1.09,0.55 1.1,1.1 1.1,0.55 1.1,0.54 1.1,1.1 1.09,0.55 1.1,1.09 1.1,0.55 1.1,1.1 1.64,0.55 1.1,1.09 1.1,0.55 1.1,1.1 1.09,0.55 1.1,1.09 1.1,0.55 1.1,1.1 1.1,0.54 1.09,1.1 1.1,0.55 1.1,1.1 1.65,0.54 1.09,1.1 1.1,0.55 1.1,1.1 1.1,0.54 1.1,1.1 1.09,0.55 1.1,1.09 1.1,0.55 1.1,1.1 1.09,0.55 1.1,1.09 1.65,0.55 1.1,1.1 1.09,0.54 1.1,1.1 1.1,0.55 1.1,1.1 1.1,0.54 1.09,1.1 1.1,0.55 1.1,1.1 1.1,0.54 1.09,1.1 1.65,0.55 1.1,1.1 1.1,0.54 1.1,1.1 1.09,0.55 1.1,1.09 1.1,0.55 1.1,1.1 1.09,0.55 1.1,1.09 1.1,0.55 1.1,1.1 1.64,0.54 1.1,1.1 1.1,1.1 1.1,0.55 1.1,1.09 1.09,0.55 1.1,1.1 1.1,0.55 1.1,1.09 1.09,0.55 1.1,1.1 1.1,0.55 1.65,1.09 1.1,0.55 1.09,1.1 1.1,1.09 1.1,0.55 1.1,1.1 1.09,0.55 1.1,1.09 1.1,0.55 1.1,1.1 1.09,0.55 1.1,1.09 1.1,1.1 1.65,0.55 1.1,1.1 1.09,0.54 1.1,1.1 1.1,0.55 1.1,1.09 1.09,0.55 1.1,1.1 1.1,1.1 1.1,0.54 1.09,1.1 1.1,0.55 1.65,1.1"
           style="fill:none;stroke:#ff0000;stroke-width:2.75;stroke-linecap:butt;stroke-linejoin:miter;stroke-miterlimit:10;stroke-dasharray:none;stroke-opacity:1"
           id="path504"
           inkscape:connector-curvature="0" /></g></g><g
       id="g506"
       transform="scale(0.1)"><g
         id="g508"
         transform="translate(4126.96,5788.1401)"><path
           d="m 0,0 1.1,0.54 1.1,1.1 1.1,1.1 1.1,0.55 1.09,1.09 1.1,0.55 1.1,1.1 1.1,1.1 1.09,0.54 1.1,1.1 1.1,0.55 1.65,1.09 1.1,0.55 1.09,1.1 1.1,1.1 1.1,0.54 1.1,1.1 1.09,0.55 1.1,1.1 1.1,1.09 1.1,0.55 1.09,1.1 1.1,0.55 1.65,1.09 1.1,1.1 1.1,0.55 1.09,1.09 1.1,0.55 1.1,1.1 1.1,1.1 1.09,0.54 1.1,1.1 1.1,0.55 1.1,1.1 1.09,1.09 1.65,0.55 1.1,1.1 1.1,0.55 1.1,1.09 1.09,1.1 1.1,0.55 1.1,1.1 1.1,1.09 1.09,0.55 1.1,1.1 1.1,0.54 1.1,1.1 1.65,1.1 1.09,0.55 1.1,1.09 1.1,1.1 1.1,0.55 1.09,1.1 1.1,0.54 1.1,1.1 1.1,1.1 1.09,0.55 1.1,1.09 1.1,1.1 1.65,0.55 1.1,1.1 1.09,1.09 1.1,0.55 1.1,1.1 1.1,1.09 1.09,0.55 1.1,1.1 1.1,0.55 1.1,1.09 1.09,1.1 1.1,0.55 1.65,1.1 1.1,1.09 1.1,0.55 1.09,1.1 1.1,1.1 1.1,0.54 1.1,1.1 1.09,1.1 1.1,0.55 1.1,1.09 1.1,1.1 1.1,0.55 1.64,1.09 1.1,1.1 1.1,0.55 1.1,1.1 1.09,1.09 1.1,0.55 1.1,1.1 1.1,1.1 1.09,0.54 1.1,1.1 1.1,1.1 1.1,0.55 1.65,1.09 1.09,1.1 1.1,1.1 1.1,0.55 1.1,1.09 1.09,1.1 1.1,0.55 1.1,1.1 1.1,1.09"
           style="fill:none;stroke:#ff0000;stroke-width:2.75;stroke-linecap:butt;stroke-linejoin:miter;stroke-miterlimit:10;stroke-dasharray:none;stroke-opacity:1"
           id="path510"
           inkscape:connector-curvature="0" /></g></g><g
       id="g512"
       transform="scale(0.1)"><g
         id="g514"
         transform="translate(4245.77,5881.6401)"><path
           d="m 0,0 1.09,0.54 1.1,1.1 1.1,1.1 1.65,0.55 1.09,1.09 1.1,1.1 1.1,1.1 1.1,0.55 1.1,1.09 1.09,1.1 1.1,0.55 1.1,1.1 1.1,1.09 1.09,0.55 1.1,1.1 1.1,1.1 1.65,1.09 1.09,0.55 1.1,1.1 1.1,1.1 1.1,0.54 1.1,1.1 1.09,1.1 1.1,1.09 1.1,0.55 1.1,1.1 1.09,1.1 1.1,1.09 1.65,0.55 1.1,1.1 1.1,1.1 1.09,0.54 1.1,1.1 1.1,1.1 1.1,1.1 1.09,0.54 1.1,1.1 1.1,1.1 1.1,1.1 1.09,0.54 1.65,1.1 1.1,1.1 1.1,1.1 1.1,0.54 1.09,1.1 1.1,1.1 1.1,1.1 1.1,0.54 1.09,1.1 1.1,1.1 1.1,1.1 1.1,0.54 1.65,1.1 1.09,1.1 1.1,1.1 1.1,0.54 1.1,1.1 1.09,1.1 1.1,1.1 1.1,0.54 1.1,1.1 1.09,1.1 1.1,1.1 1.1,0.54 1.65,1.1 1.1,1.1 1.09,1.1 1.1,1.09 1.1,0.55 1.1,1.1 1.09,1.1 1.1,1.09 1.1,0.55 1.1,1.1 1.09,1.1 1.1,1.09 1.65,1.1 1.1,0.55 1.1,1.1 1.09,1.09 1.1,1.1 1.1,1.1 1.1,0.54 1.09,1.1 1.1,1.1 1.1,1.1 1.1,0.54 1.09,1.1 1.65,1.1 1.1,1.1 1.1,1.1 1.1,0.54 1.09,1.1 1.1,1.1 1.1,1.1 1.1,1.09 1.09,1.1 1.1,0.55 1.1,1.1 1.1,1.09 1.65,1.1 1.09,1.1 1.1,0.55 1.1,1.09"
           style="fill:none;stroke:#ff0000;stroke-width:2.75;stroke-linecap:butt;stroke-linejoin:miter;stroke-miterlimit:10;stroke-dasharray:none;stroke-opacity:1"
           id="path516"
           inkscape:connector-curvature="0" /></g></g><g
       id="g518"
       transform="scale(0.1)"><g
         id="g520"
         transform="translate(4365.1201,5981.7402)"><path
           d="m 0,0 1.09,1.1 1.1,1.09 1.1,1.1 1.1,1.1 1.1,0.55 1.09,1.09 1.1,1.1 1.1,1.1 1.65,1.1 1.09,0.54 1.1,1.1 1.1,1.1 1.1,1.1 1.1,1.09 1.09,1.1 1.1,0.55 1.1,1.1 1.1,1.09 1.09,1.1 1.1,1.1 1.65,1.1 1.1,1.09 1.09,0.55 1.1,1.1 1.1,1.1 1.1,1.09 1.1,1.1 1.09,1.1 1.1,0.55 1.1,1.09 1.1,1.1 1.09,1.1 1.1,1.1 1.65,1.09 1.1,1.1 1.1,0.55 1.09,1.1 1.1,1.09 1.1,1.1 1.1,1.1 1.09,1.1 1.1,1.1 1.1,0.54 1.1,1.1 1.09,1.1 1.65,1.1 1.1,1.09 1.1,1.1 1.1,1.1 1.09,1.1 1.1,0.54 1.1,1.1 1.1,1.1 1.09,1.1 1.1,1.09 1.1,1.1 1.1,1.1 1.65,1.1 1.09,1.09 1.1,0.55 1.1,1.1 1.1,1.1 1.09,1.09 1.1,1.1 1.1,1.1 1.1,1.1 1.09,1.09 1.1,1.1 1.1,1.1 1.65,0.55 1.1,1.09 1.09,1.1 1.1,1.1 1.1,1.1 1.1,1.09 1.09,1.1 1.1,1.1 1.1,1.1 1.1,1.1 1.09,1.09 1.1,0.55 1.65,1.1 1.1,1.1 1.1,1.09 1.09,1.1 1.1,1.1 1.1,1.1 1.1,1.09 1.09,1.1 1.1,1.1 1.1,1.1 1.1,1.09 1.09,1.1 1.65,0.55 1.1,1.1 1.1,1.09 1.1,1.1 1.09,1.1 1.1,1.1 1.1,1.09 1.1,1.1 1.09,1.1 1.1,1.1 1.1,1.1"
           style="fill:none;stroke:#ff0000;stroke-width:2.75;stroke-linecap:butt;stroke-linejoin:miter;stroke-miterlimit:10;stroke-dasharray:none;stroke-opacity:1"
           id="path522"
           inkscape:connector-curvature="0" /></g></g><g
       id="g524"
       transform="scale(0.1)"><g
         id="g526"
         transform="translate(4483.9102,6089.54)"><path
           d="m 0,0 1.1,1.1 1.65,1.09 1.1,1.1 1.1,1.1 1.09,1.1 1.1,1.09 1.1,0.55 1.1,1.1 1.09,1.1 1.1,1.09 1.1,1.1 1.1,1.1 1.09,1.1 1.65,1.1 1.1,1.09 1.1,1.1 1.1,1.1 1.09,1.1 1.1,1.09 1.1,1.1 1.1,1.1 1.09,1.1 1.1,1.09 1.1,1.1 1.1,1.1 1.65,1.1 1.09,1.09 1.1,1.1 1.1,1.1 1.1,1.1 1.09,1.1 1.1,1.09 1.1,1.1 1.1,1.1 1.09,1.1 1.1,1.09 1.1,1.1 1.65,1.1 1.1,1.1 1.09,1.09 1.1,1.1 1.1,1.1 1.1,1.1 1.09,1.1 1.1,1.09 1.1,1.1 1.1,1.1 1.09,1.1 1.1,1.09 1.1,1.1 1.65,1.1 1.1,1.1 1.09,1.09 1.1,1.1 1.1,1.1 1.1,1.1 1.09,1.09 1.1,1.1 1.1,1.1 1.1,1.1 1.09,1.1 1.1,1.09 1.65,1.1 1.1,1.1 1.1,1.1 1.09,1.09 1.1,1.1 1.1,1.1 1.1,1.1 1.09,1.09 1.1,1.1 1.1,1.1 1.1,1.1 1.1,1.09 1.64,1.1 1.1,1.1 1.1,1.1 1.1,1.1 1.09,1.09 1.1,1.1 1.1,1.1 1.1,1.1 1.1,1.09 1.09,1.65 1.1,1.1 1.1,1.1 1.65,1.1 1.09,1.09 1.1,1.1 1.1,1.1 1.1,1.1 1.09,1.09 1.1,1.1 1.1,1.1 1.1,1.1 1.1,1.09 1.09,1.1 1.1,1.1 1.65,1.1 1.1,1.65 1.09,1.09 1.1,1.1 1.1,1.1 1.1,1.1"
           style="fill:none;stroke:#ff0000;stroke-width:2.75;stroke-linecap:butt;stroke-linejoin:miter;stroke-miterlimit:10;stroke-dasharray:none;stroke-opacity:1"
           id="path528"
           inkscape:connector-curvature="0" /></g></g><g
       id="g530"
       transform="scale(0.1)"><g
         id="g532"
         transform="translate(4603.27,6204.4902)"><path
           d="m 0,0 1.09,1.1 1.1,1.09 1.1,1.1 1.1,1.1 1.09,1.1 1.1,1.09 1.65,1.1 1.1,1.1 1.1,1.65 1.09,1.1 1.1,1.09 1.1,1.1 1.1,1.1 1.09,1.1 1.1,1.09 1.1,1.1 1.1,1.1 1.09,1.1 1.65,1.09 1.1,1.65 1.1,1.1 1.1,1.1 1.09,1.1 1.1,1.09 1.1,1.1 1.1,1.1 1.09,1.1 1.1,1.09 1.1,1.65 1.1,1.1 1.65,1.1 1.09,1.1 1.1,1.09 1.1,1.1 1.1,1.1 1.09,1.1 1.1,1.09 1.1,1.65 1.1,1.1 1.09,1.1 1.1,1.1 1.1,1.09 1.65,1.1 1.1,1.1 1.09,1.65 1.1,1.09 1.1,1.1 1.1,1.1 1.09,1.1 1.1,1.09 1.1,1.1 1.1,1.1 1.09,1.65 1.1,1.1 1.65,1.09 1.1,1.1 1.1,1.1 1.09,1.1 1.1,1.09 1.1,1.65 1.1,1.1 1.09,1.1 1.1,1.1 1.1,1.09 1.1,1.1 1.09,1.65 1.65,1.1 1.1,1.1 1.1,1.09 1.1,1.1 1.09,1.1 1.1,1.65 1.1,1.09 1.1,1.1 1.09,1.1 1.1,1.1 1.1,1.09 1.1,1.65 1.1,1.1 1.64,1.1 1.1,1.1 1.1,1.09 1.1,1.65 1.09,1.1 1.1,1.1 1.1,1.1 1.1,1.09 1.09,1.1 1.1,1.65 1.1,1.1 1.1,1.09 1.65,1.1 1.09,1.1 1.1,1.65 1.1,1.1 1.1,1.09 1.09,1.1 1.1,1.1 1.1,1.65 1.1,1.09 1.1,1.1 1.09,1.1 1.1,1.1 1.65,1.65"
           style="fill:none;stroke:#ff0000;stroke-width:2.75;stroke-linecap:butt;stroke-linejoin:miter;stroke-miterlimit:10;stroke-dasharray:none;stroke-opacity:1"
           id="path534"
           inkscape:connector-curvature="0" /></g></g><g
       id="g536"
       transform="scale(0.1)"><g
         id="g538"
         transform="translate(4722.6201,6327.1401)"><path
           d="m 0,0 1.09,1.09 1.1,1.1 1.1,1.1 1.1,1.65 1.1,1.1 1.09,1.09 1.1,1.1 1.1,1.1 1.1,1.65 1.09,1.09 1.1,1.1 1.65,1.1 1.1,1.65 1.1,1.1 1.09,1.09 1.1,1.1 1.1,1.1 1.1,1.65 1.09,1.1 1.1,1.09 1.1,1.1 1.1,1.65 1.09,1.1 1.65,1.09 1.1,1.1 1.1,1.65 1.1,1.1 1.09,1.1 1.1,1.09 1.1,1.65 1.1,1.1 1.09,1.1 1.1,1.09 1.1,1.65 1.1,1.1 1.65,1.1 1.09,1.1 1.1,1.64 1.1,1.1 1.1,1.1 1.09,1.1 1.1,1.65 1.1,1.09 1.1,1.1 1.09,1.65 1.1,1.1 1.1,1.1 1.65,1.09 1.1,1.65 1.09,1.1 1.1,1.1 1.1,1.09 1.1,1.65 1.09,1.1 1.1,1.1 1.1,1.65 1.1,1.09 1.09,1.1 1.1,1.1 1.65,1.65 1.1,1.1 1.1,1.09 1.09,1.65 1.1,1.1 1.1,1.1 1.1,1.65 1.09,1.09 1.1,1.1 1.1,1.1 1.1,1.65 1.09,1.09 1.65,1.1 1.1,1.65 1.1,1.1 1.1,1.1 1.09,1.64 1.1,1.1 1.1,1.1 1.1,1.65 1.09,1.1 1.1,1.09 1.1,1.65 1.1,1.1 1.65,1.1 1.09,1.65 1.1,1.09 1.1,1.1 1.1,1.65 1.09,1.1 1.1,1.09"
           style="fill:none;stroke:#ff0000;stroke-width:2.75;stroke-linecap:butt;stroke-linejoin:miter;stroke-miterlimit:10;stroke-dasharray:none;stroke-opacity:1"
           id="path540"
           inkscape:connector-curvature="0" /></g></g><g
       id="g542"
       transform="scale(0.1)"><g
         id="g544"
         transform="translate(1372.02,5028.5898)"><path
           d="M 0,0 H 34.1 M 0,0 H 34.1 M 303.6,1.1 V 2.75 M 286.55,1.1 h 34.1 m -34.1,1.65 h 34.1 M 589.6,4.95 V 18.14 M 572.55,4.95 h 34.1 m -34.1,13.19 h 34.1 m 269.5,-2.75 V 52.24 M 859.1,15.39 h 34.1 m -34.1,36.85 h 34.1 m 269.5,-18.7 v 77.55 m -17.06,-77.54 h 34.1 m -34.1,77.54 h 34.1 m 268.95,-48.95 v 138.6 M 1431.64,62.15 h 34.1 m -34.1,138.6 h 34.1 m 269.51,-97.9 v 223.29 m -17.06,-223.29 h 34.1 m -34.1,223.29 h 34.1 M 2021.8,158.95 V 491.7 m -17.05,-332.75 h 34.09 m -34.09,332.75 h 34.09 M 2307.8,231 V 704.55 M 2290.75,231 h 34.09 m -34.09,473.55 h 34.09 m 269.5,-385 V 969.64 M 2577.3,319.55 h 34.09 m -34.09,650.09 h 34.09 m 269.5,-543.94 v 865.69 M 2863.85,425.7 h 34.09 m -34.09,865.7 h 34.09 M 3166.89,551.1 V 1674.75 M 3149.85,551.1 h 34.09 m -34.09,1123.65 h 34.09 m 269.5,-976.8 V 2124.1 M 3436.39,697.95 h 34.1 m -34.1,1426.15 h 34.1"
           style="fill:none;stroke:#ff0000;stroke-width:2.75;stroke-linecap:butt;stroke-linejoin:miter;stroke-miterlimit:10;stroke-dasharray:none;stroke-opacity:1"
           id="path546"
           inkscape:connector-curvature="0" /></g></g><g
       id="g548"
       transform="scale(0.1)"><g
         id="g550"
         transform="translate(1389.0699,5028.5898)"><path
           d="M 0,0 V 0"
           style="fill:none;stroke:#ff0000;stroke-width:2.75;stroke-linecap:round;stroke-linejoin:miter;stroke-miterlimit:10;stroke-dasharray:none;stroke-opacity:1"
           id="path552"
           inkscape:connector-curvature="0" /></g></g><g
       id="g554"
       transform="scale(0.1)"><g
         id="g556"
         transform="translate(1675.62,5030.79)"><path
           d="M 0,0 V 0"
           style="fill:none;stroke:#ff0000;stroke-width:2.75;stroke-linecap:round;stroke-linejoin:miter;stroke-miterlimit:10;stroke-dasharray:none;stroke-opacity:1"
           id="path558"
           inkscape:connector-curvature="0" /></g></g><g
       id="g560"
       transform="scale(0.1)"><g
         id="g562"
         transform="translate(1961.62,5040.1401)"><path
           d="M 0,0 V 0"
           style="fill:none;stroke:#ff0000;stroke-width:2.75;stroke-linecap:round;stroke-linejoin:miter;stroke-miterlimit:10;stroke-dasharray:none;stroke-opacity:1"
           id="path564"
           inkscape:connector-curvature="0" /></g></g><g
       id="g566"
       transform="scale(0.1)"><g
         id="g568"
         transform="translate(2248.1599,5062.1401)"><path
           d="M 0,0 V 0"
           style="fill:none;stroke:#ff0000;stroke-width:2.75;stroke-linecap:round;stroke-linejoin:miter;stroke-miterlimit:10;stroke-dasharray:none;stroke-opacity:1"
           id="path570"
           inkscape:connector-curvature="0" /></g></g><g
       id="g572"
       transform="scale(0.1)"><g
         id="g574"
         transform="translate(2534.71,5100.6401)"><path
           d="M 0,0 V 0"
           style="fill:none;stroke:#ff0000;stroke-width:2.75;stroke-linecap:round;stroke-linejoin:miter;stroke-miterlimit:10;stroke-dasharray:none;stroke-opacity:1"
           id="path576"
           inkscape:connector-curvature="0" /></g></g><g
       id="g578"
       transform="scale(0.1)"><g
         id="g580"
         transform="translate(2820.71,5160.04)"><path
           d="M 0,0 V 0"
           style="fill:none;stroke:#ff0000;stroke-width:2.75;stroke-linecap:round;stroke-linejoin:miter;stroke-miterlimit:10;stroke-dasharray:none;stroke-opacity:1"
           id="path582"
           inkscape:connector-curvature="0" /></g></g><g
       id="g584"
       transform="scale(0.1)"><g
         id="g586"
         transform="translate(3107.27,5243.0898)"><path
           d="M 0,0 V 0"
           style="fill:none;stroke:#ff0000;stroke-width:2.75;stroke-linecap:round;stroke-linejoin:miter;stroke-miterlimit:10;stroke-dasharray:none;stroke-opacity:1"
           id="path588"
           inkscape:connector-curvature="0" /></g></g><g
       id="g590"
       transform="scale(0.1)"><g
         id="g592"
         transform="translate(3393.8201,5354.1899)"><path
           d="M 0,0 V 0"
           style="fill:none;stroke:#ff0000;stroke-width:2.75;stroke-linecap:round;stroke-linejoin:miter;stroke-miterlimit:10;stroke-dasharray:none;stroke-opacity:1"
           id="path594"
           inkscape:connector-curvature="0" /></g></g><g
       id="g596"
       transform="scale(0.1)"><g
         id="g598"
         transform="translate(3679.8201,5496.0898)"><path
           d="M 0,0 V 0"
           style="fill:none;stroke:#ff0000;stroke-width:2.75;stroke-linecap:round;stroke-linejoin:miter;stroke-miterlimit:10;stroke-dasharray:none;stroke-opacity:1"
           id="path600"
           inkscape:connector-curvature="0" /></g></g><g
       id="g602"
       transform="scale(0.1)"><g
         id="g604"
         transform="translate(3966.3701,5673.1899)"><path
           d="M 0,0 V 0"
           style="fill:none;stroke:#ff0000;stroke-width:2.75;stroke-linecap:round;stroke-linejoin:miter;stroke-miterlimit:10;stroke-dasharray:none;stroke-opacity:1"
           id="path606"
           inkscape:connector-curvature="0" /></g></g><g
       id="g608"
       transform="scale(0.1)"><g
         id="g610"
         transform="translate(4252.9102,5887.1401)"><path
           d="M 0,0 V 0"
           style="fill:none;stroke:#ff0000;stroke-width:2.75;stroke-linecap:round;stroke-linejoin:miter;stroke-miterlimit:10;stroke-dasharray:none;stroke-opacity:1"
           id="path612"
           inkscape:connector-curvature="0" /></g></g><g
       id="g614"
       transform="scale(0.1)"><g
         id="g616"
         transform="translate(4538.9102,6141.79)"><path
           d="M 0,0 V 0"
           style="fill:none;stroke:#ff0000;stroke-width:2.75;stroke-linecap:round;stroke-linejoin:miter;stroke-miterlimit:10;stroke-dasharray:none;stroke-opacity:1"
           id="path618"
           inkscape:connector-curvature="0" /></g></g><g
       id="g620"
       transform="scale(0.1)"><g
         id="g622"
         transform="translate(4825.46,6439.3398)"><path
           d="M 0,0 V 0"
           style="fill:none;stroke:#ff0000;stroke-width:2.75;stroke-linecap:round;stroke-linejoin:miter;stroke-miterlimit:10;stroke-dasharray:none;stroke-opacity:1"
           id="path624"
           inkscape:connector-curvature="0" /></g></g><g
       id="g626"
       transform="scale(0.1)"><path
         d="m 1389.07,5028.59 h 3436.4 v 2310 h -3436.4 z"
         style="fill:none;stroke:#000000;stroke-width:5.5;stroke-linecap:butt;stroke-linejoin:miter;stroke-miterlimit:10;stroke-dasharray:none;stroke-opacity:1"
         id="path628"
         inkscape:connector-curvature="0" /></g></g></svg>